<?xml version="1.0" encoding="utf-8"?>
<!-- Generator: Adobe Illustrator 23.1.1, SVG Export Plug-In . SVG Version: 6.00 Build 0)  -->
<svg version="1.1" id="Camada_1" xmlns="http://www.w3.org/2000/svg" xmlns:xlink="http://www.w3.org/1999/xlink" x="0px" y="0px"
	 viewBox="0 0 1020.3 1513.7" style="enable-background:new 0 0 1020.3 1513.7;" xml:space="preserve">
<style type="text/css">
	.st0{fill:#FFFFFF;}
	.st1{font-family:'Montserrat-Medium';}
	.st2{font-size:20px;}
	.st3{enable-background:new    ;}
	.st4{fill:#3F7593;}
	.st5{fill:none;stroke:#6CCBD8;stroke-width:2;stroke-miterlimit:10;}
	.st6{fill:none;stroke:#6CCBD8;stroke-width:4;stroke-miterlimit:10;}
	.st7{fill:#6CCBD8;}
</style>
<text transform="matrix(1 0 0 1 552.4391 59.2129)" class="st0 st1 st2">A</text>
<text transform="matrix(1 0 0 1 566.5391 59.2129)" class="st0 st1 st2">v</text>
<text transform="matrix(1 0 0 1 577.4391 59.2129)" class="st0 st1 st2">ali</text>
<text transform="matrix(1 0 0 1 600.5391 59.2129)" class="st0 st1 st2">a</text>
<text transform="matrix(1 0 0 1 612.5391 59.2129)" class="st0 st1 st2">รง</text>
<text transform="matrix(1 0 0 1 623.9391 59.2129)" class="st0 st1 st2">รฃ</text>
<text transform="matrix(1 0 0 1 636.0391 59.2129)" class="st0 st1 st2">o por </text>
<text transform="matrix(1 0 0 1 414.6316 622.7178)" class="st0 st1 st2">Em casos g</text>
<text transform="matrix(1 0 0 1 529.8316 622.7178)" class="st0 st1 st2">r</text>
<text transform="matrix(1 0 0 1 537.9316 622.7178)" class="st0 st1 st2">a</text>
<text transform="matrix(1 0 0 1 549.7316 622.7178)" class="st0 st1 st2">v</text>
<text transform="matrix(1 0 0 1 560.6316 622.7178)" class="st0 st1 st2">es, </text>
<text transform="matrix(1 0 0 1 457.2517 646.7178)" class="st0 st1 st2">p</text>
<text transform="matrix(1 0 0 1 470.8517 646.7178)" class="st0 st1 st2">r</text>
<text transform="matrix(1 0 0 1 478.8517 646.7178)" class="st0 st1 st2">ocu</text>
<text transform="matrix(1 0 0 1 516.5517 646.7178)" class="st0 st1 st2">r</text>
<text transform="matrix(1 0 0 1 524.5517 646.7178)" class="st0 st1 st2">ar </text>
<text transform="matrix(1 0 0 1 434.6316 670.7178)" class="st0 st1 st2">a</text>
<text transform="matrix(1 0 0 1 446.6316 670.7178)" class="st0 st1 st2">t</text>
<text transform="matrix(1 0 0 1 454.5316 670.7178)" class="st0 st1 st2">e</text>
<text transform="matrix(1 0 0 1 466.7316 670.7178)" class="st0 st1 st2">n</text>
<text transform="matrix(1 0 0 1 480.4316 670.7178)" class="st0 st1 st2">di</text>
<text transform="matrix(1 0 0 1 499.6316 670.7178)" class="st0 st1 st2">m</text>
<text transform="matrix(1 0 0 1 520.8316 670.7178)" class="st0 st1 st2">en</text>
<text transform="matrix(1 0 0 1 546.7316 670.7178)" class="st0 st1 st2">t</text>
<text transform="matrix(1 0 0 1 554.6316 670.7178)" class="st0 st1 st2">o </text>
<text transform="matrix(1 0 0 1 448.8112 694.7178)" class="st0 st1 st2">p</text>
<text transform="matrix(1 0 0 1 462.4112 694.7178)" class="st0 st1 st2">r</text>
<text transform="matrix(1 0 0 1 470.4112 694.7178)" class="st0 st1 st2">ese</text>
<text transform="matrix(1 0 0 1 504.9112 694.7178)" class="st0 st1 st2">n</text>
<text transform="matrix(1 0 0 1 518.6112 694.7178)" class="st0 st1 st2">cial</text>
<text transform="matrix(1 0 0 1 190.0315 619.7178)" class="st0 st1 st2">P</text>
<text transform="matrix(1 0 0 1 204.1315 619.7178)" class="st0 st1 st2">r</text>
<text transform="matrix(1 0 0 1 212.1315 619.7178)" class="st0 st1 st2">ocu</text>
<text transform="matrix(1 0 0 1 249.7315 619.7178)" class="st0 st1 st2">r</text>
<text transform="matrix(1 0 0 1 257.8315 619.7178)" class="st0 st1 st2">ar </text>
<text transform="matrix(1 0 0 1 167.6316 643.7178)" class="st0 st1 st2">a</text>
<text transform="matrix(1 0 0 1 179.6316 643.7178)" class="st0 st1 st2">t</text>
<text transform="matrix(1 0 0 1 187.5316 643.7178)" class="st0 st1 st2">e</text>
<text transform="matrix(1 0 0 1 199.7316 643.7178)" class="st0 st1 st2">n</text>
<text transform="matrix(1 0 0 1 213.4316 643.7178)" class="st0 st1 st2">di</text>
<text transform="matrix(1 0 0 1 232.6316 643.7178)" class="st0 st1 st2">m</text>
<text transform="matrix(1 0 0 1 253.8316 643.7178)" class="st0 st1 st2">en</text>
<text transform="matrix(1 0 0 1 279.7316 643.7178)" class="st0 st1 st2">t</text>
<text transform="matrix(1 0 0 1 287.6316 643.7178)" class="st0 st1 st2">o </text>
<text transform="matrix(1 0 0 1 166.3313 691.7178)" class="st0 st1 st2">da </text>
<text transform="matrix(1 0 0 1 197.3313 691.7178)" class="st0 st1 st2">P</text>
<text transform="matrix(1 0 0 1 211.4313 691.7178)" class="st0 st1 st2">a</text>
<text transform="matrix(1 0 0 1 223.4313 691.7178)" class="st0 st1 st2">n</text>
<text transform="matrix(1 0 0 1 237.1313 691.7178)" class="st0 st1 st2">demia</text>
<g id="Y4zh0g.tif">
</g>
<g class="st3">
	<path class="st4" d="M161.1,62.8v6.1h12.3V75h-12.3v9.5h-7.9V56.7H175v6.1H161.1z"/>
	<path class="st4" d="M178.7,56.7h7.9v21.6h13.3v6.2h-21.1L178.7,56.7L178.7,56.7z"/>
	<path class="st4" d="M205.9,81.7c-2.3-2.2-3.4-5.4-3.4-9.6V56.7h7.9v15.2c0,4.4,1.8,6.7,5.3,6.7s5.2-2.2,5.2-6.7V56.7h7.7v15.4
		c0,4.1-1.1,7.3-3.4,9.6c-2.3,2.2-5.5,3.4-9.6,3.4C211.4,85,208.2,83.9,205.9,81.7z"/>
	<path class="st4" d="M251,84.5l-5.8-8.6l-5.7,8.6h-9l10.1-14.1l-9.7-13.7h8.9l5.6,8l5.5-8h8.5l-9.7,13.4L260,84.5H251z"/>
	<path class="st4" d="M267.8,83.2c-2.3-1.2-4.2-3-5.5-5.2s-2-4.7-2-7.4s0.7-5.2,2-7.4c1.3-2.2,3.2-3.9,5.5-5.2
		c2.3-1.2,5-1.9,7.9-1.9s5.6,0.6,7.9,1.9c2.3,1.2,4.2,3,5.5,5.2c1.3,2.2,2,4.7,2,7.4s-0.7,5.2-2,7.4c-1.3,2.2-3.2,3.9-5.5,5.2
		c-2.3,1.2-5,1.9-7.9,1.9S270.2,84.4,267.8,83.2z M279.6,77.5c1.1-0.7,2-1.6,2.7-2.8c0.7-1.2,1-2.6,1-4.1s-0.3-2.9-1-4.1
		s-1.6-2.1-2.7-2.8s-2.4-1-3.8-1s-2.7,0.3-3.8,1c-1.1,0.7-2,1.6-2.7,2.8s-1,2.6-1,4.1s0.3,2.9,1,4.1s1.6,2.1,2.7,2.8
		c1.1,0.7,2.4,1,3.8,1S278.4,78.2,279.6,77.5z"/>
	<path class="st4" d="M314,70h6.9v11.5c-1.6,1.1-3.4,2-5.5,2.6s-4.1,0.9-6.2,0.9c-2.9,0-5.5-0.6-7.9-1.8c-2.3-1.2-4.2-2.9-5.5-5.1
		s-2-4.7-2-7.5s0.7-5.3,2-7.5c1.3-2.2,3.2-3.9,5.5-5.1c2.4-1.2,5-1.8,8-1.8c2.6,0,4.9,0.4,7,1.3s3.8,2.1,5.2,3.8l-5,4.5
		c-1.9-2.1-4.1-3.1-6.8-3.1c-2.4,0-4.3,0.7-5.8,2.2c-1.5,1.4-2.2,3.4-2.2,5.8c0,1.5,0.3,2.9,1,4.1s1.6,2.1,2.8,2.8
		c1.2,0.7,2.6,1,4.1,1s2.9-0.3,4.2-0.9V70H314z"/>
	<path class="st4" d="M338.1,77.1h-4.3v7.4h-7.9V56.7h12.7c2.5,0,4.7,0.4,6.6,1.3s3.3,2,4.3,3.6c1,1.5,1.5,3.4,1.5,5.5
		c0,2-0.5,3.8-1.4,5.3s-2.3,2.7-4,3.5l6,8.7h-8.4L338.1,77.1z M341.8,64c-0.8-0.7-2-1.1-3.7-1.1h-4.4V71h4.4c1.6,0,2.8-0.4,3.7-1.1
		c0.8-0.7,1.2-1.7,1.2-3S342.6,64.7,341.8,64z"/>
	<path class="st4" d="M373.9,79.1h-11.8l-2.2,5.4h-8l12.3-27.8h7.7l12.3,27.8H376L373.9,79.1z M371.6,73.3l-3.6-8.9l-3.6,8.9H371.6z
		"/>
	<path class="st4" d="M411.6,84.5l-0.1-14.7l-7.1,12h-3.5l-7.1-11.6v14.3h-7.3V56.7h6.5l9.8,16l9.5-16h6.5l0.1,27.8H411.6z"/>
	<path class="st4" d="M443,79.1h-11.8l-2.2,5.4h-8l12.3-27.8h7.7l12.3,27.8h-8.2L443,79.1z M440.7,73.3l-3.6-8.9l-3.6,8.9H440.7z"/>
	<path class="st4" d="M486.4,57.9c1.9,0.8,3.3,2,4.3,3.6c1,1.5,1.5,3.4,1.5,5.5s-0.5,3.9-1.5,5.4s-2.4,2.7-4.3,3.6s-4,1.3-6.6,1.3
		H475v7.3h-7.9V56.7h12.7C482.4,56.7,484.6,57.1,486.4,57.9z M483,70c0.8-0.7,1.2-1.7,1.2-3s-0.4-2.3-1.2-3c-0.8-0.7-2-1.1-3.7-1.1
		H475V71h4.4C481,71,482.2,70.7,483,70z"/>
	<path class="st4" d="M513.3,79.1h-11.8l-2.2,5.4h-8l12.3-27.8h7.7l12.3,27.8h-8.2L513.3,79.1z M511,73.3l-3.6-8.9l-3.6,8.9H511z"/>
	<path class="st4" d="M538,77.1h-4.3v7.4h-7.9V56.7h12.7c2.5,0,4.7,0.4,6.6,1.3c1.9,0.8,3.3,2,4.3,3.6c1,1.5,1.5,3.4,1.5,5.5
		c0,2-0.5,3.8-1.4,5.3s-2.3,2.7-4,3.5l6,8.7H543L538,77.1z M541.7,64c-0.8-0.7-2-1.1-3.7-1.1h-4.4V71h4.4c1.6,0,2.8-0.4,3.7-1.1
		c0.8-0.7,1.2-1.7,1.2-3S542.5,64.7,541.7,64z"/>
	<path class="st4" d="M573.9,79.1h-11.8l-2.2,5.4h-8l12.3-27.8h7.7l12.3,27.8H576L573.9,79.1z M571.5,73.3l-3.6-8.9l-3.6,8.9H571.5z
		"/>
	<path class="st4" d="M623.1,84.5L623,69.8l-7.1,12h-3.5l-7.1-11.6v14.3H598V56.7h6.5l9.8,16l9.5-16h6.5l0.1,27.8H623.1z"/>
	<path class="st4" d="M654.5,79.1h-11.8l-2.2,5.4h-8l12.3-27.8h7.7l12.3,27.8h-8.2L654.5,79.1z M652.2,73.3l-3.6-8.9l-3.6,8.9H652.2
		z"/>
	<path class="st4" d="M693.5,56.7v27.8H687l-12.3-14.8v14.8H667V56.7h6.5l12.3,14.8V56.7H693.5z"/>
	<path class="st4" d="M721.4,78.4v6.1h-22.3V56.7h21.8v6.1h-14v4.7h12.3v5.9h-12.3v5.1L721.4,78.4L721.4,78.4z"/>
	<path class="st4" d="M726.3,84c-1.7-0.7-3-1.7-4.1-3l4.3-5.1c1.5,1.9,3.1,2.9,4.8,2.9c1.1,0,2-0.3,2.6-1s0.9-1.7,0.9-3v-12h-9.6
		v-6.1h17.4v17.6c0,3.6-0.9,6.3-2.7,8.1c-1.8,1.8-4.5,2.7-8,2.7C729.8,85,728,84.7,726.3,84z"/>
	<path class="st4" d="M754,83.2c-2.3-1.2-4.2-3-5.5-5.2s-2-4.7-2-7.4s0.7-5.2,2-7.4c1.3-2.2,3.2-3.9,5.5-5.2c2.3-1.2,5-1.9,7.9-1.9
		s5.6,0.6,7.9,1.9c2.3,1.2,4.2,3,5.5,5.2c1.3,2.2,2,4.7,2,7.4s-0.7,5.2-2,7.4c-1.3,2.2-3.2,3.9-5.5,5.2c-2.3,1.2-5,1.9-7.9,1.9
		S756.3,84.4,754,83.2z M765.7,77.5c1.1-0.7,2-1.6,2.7-2.8c0.7-1.2,1-2.6,1-4.1s-0.3-2.9-1-4.1s-1.6-2.1-2.7-2.8
		c-1.1-0.7-2.4-1-3.8-1s-2.7,0.3-3.8,1s-2,1.6-2.7,2.8s-1,2.6-1,4.1s0.3,2.9,1,4.1s1.6,2.1,2.7,2.8c1.1,0.7,2.4,1,3.8,1
		S764.6,78.2,765.7,77.5z"/>
	<path class="st4" d="M793,56.7h13.1c3,0,5.7,0.6,8.1,1.7c2.4,1.1,4.2,2.8,5.5,4.8c1.3,2.1,1.9,4.5,1.9,7.3s-0.6,5.3-1.9,7.3
		c-1.3,2.1-3.1,3.7-5.5,4.8c-2.4,1.1-5.1,1.7-8.1,1.7H793V56.7z M805.9,78.2c2.4,0,4.3-0.7,5.7-2c1.4-1.4,2.2-3.2,2.2-5.6
		s-0.7-4.2-2.2-5.6c-1.4-1.4-3.4-2-5.7-2h-5v15.2H805.9z"/>
	<path class="st4" d="M844.1,79.1h-11.8l-2.2,5.4h-8l12.3-27.8h7.7l12.3,27.8h-8.2L844.1,79.1z M841.8,73.3l-3.6-8.9l-3.6,8.9H841.8
		z"/>
</g>
<g class="st3">
	<path class="st4" d="M105.2,104.3h7.9v27.8h-7.9V104.3z"/>
	<path class="st4" d="M145.1,104.3v27.8h-6.5l-12.3-14.8v14.8h-7.7v-27.8h6.5l12.3,14.8v-14.8H145.1z"/>
	<path class="st4" d="M153.9,131.8c-2.1-0.6-3.8-1.3-5.2-2.2l2.6-5.8c1.2,0.8,2.7,1.5,4.3,2s3.3,0.8,4.8,0.8c3,0,4.5-0.8,4.5-2.3
		c0-0.8-0.4-1.4-1.3-1.8c-0.9-0.4-2.2-0.8-4.1-1.2c-2.1-0.4-3.8-0.9-5.2-1.4s-2.6-1.3-3.6-2.5c-1-1.1-1.5-2.7-1.5-4.6
		c0-1.7,0.5-3.2,1.4-4.6s2.3-2.4,4.1-3.2c1.8-0.8,4.1-1.2,6.8-1.2c1.8,0,3.6,0.2,5.4,0.6c1.8,0.4,3.3,1,4.7,1.8l-2.4,5.8
		c-2.6-1.4-5.2-2.1-7.7-2.1c-1.6,0-2.7,0.2-3.4,0.7s-1.1,1.1-1.1,1.8s0.4,1.3,1.3,1.7c0.8,0.4,2.2,0.8,4.1,1.2
		c2.1,0.5,3.9,0.9,5.3,1.4c1.4,0.5,2.6,1.3,3.6,2.5s1.5,2.7,1.5,4.6c0,1.7-0.5,3.2-1.4,4.5c-0.9,1.4-2.3,2.4-4.2,3.2
		s-4.1,1.2-6.8,1.2C158.2,132.6,156,132.4,153.9,131.8z"/>
	<path class="st4" d="M179.6,129.3c-2.3-2.2-3.4-5.4-3.4-9.6v-15.4h7.9v15.2c0,4.4,1.8,6.7,5.3,6.7s5.2-2.2,5.2-6.7v-15.2h7.7v15.4
		c0,4.1-1.1,7.3-3.4,9.6c-2.3,2.2-5.5,3.4-9.6,3.4C185.1,132.6,181.9,131.5,179.6,129.3z"/>
	<path class="st4" d="M215.5,110.4v6.1h12.3v6.1h-12.3v9.5h-7.9v-27.8h21.8v6.1H215.5z"/>
	<path class="st4" d="M233.1,104.3h7.9v27.8h-7.9V104.3z"/>
	<path class="st4" d="M252.6,130.8c-2.3-1.2-4.1-2.9-5.5-5.1c-1.3-2.2-2-4.7-2-7.5s0.7-5.3,2-7.5s3.1-3.9,5.5-5.1
		c2.3-1.2,4.9-1.8,7.8-1.8c2.5,0,4.8,0.5,6.9,1.4c2,0.9,3.7,2.2,5.1,3.9l-5,4.5c-1.8-2.2-4-3.3-6.6-3.3c-1.5,0-2.9,0.3-4,1
		c-1.2,0.7-2.1,1.6-2.7,2.8c-0.6,1.2-1,2.6-1,4.1s0.3,2.9,1,4.1c0.6,1.2,1.6,2.1,2.7,2.8c1.2,0.7,2.5,1,4,1c2.6,0,4.8-1.1,6.6-3.3
		l5,4.5c-1.4,1.7-3,3-5.1,3.9c-2,0.9-4.3,1.3-6.9,1.3C257.5,132.6,254.9,132,252.6,130.8z"/>
	<path class="st4" d="M275.9,104.3h7.9v27.8h-7.9V104.3z"/>
	<path class="st4" d="M311.6,126v6.1h-22.3v-27.8h21.8v6.1h-14v4.7h12.3v5.9h-12.3v5.1L311.6,126L311.6,126z M303.6,102l-3.4-3
		l-3.4,3h-5l5.2-6h6.5l5.2,6H303.6z"/>
	<path class="st4" d="M342.4,104.3v27.8H336l-12.3-14.8v14.8H316v-27.8h6.5l12.3,14.8v-14.8H342.4z"/>
	<path class="st4" d="M354,130.8c-2.3-1.2-4.1-2.9-5.5-5.1c-1.3-2.2-2-4.7-2-7.5s0.7-5.3,2-7.5s3.1-3.9,5.5-5.1
		c2.3-1.2,4.9-1.8,7.8-1.8c2.5,0,4.8,0.5,6.9,1.4c2,0.9,3.7,2.2,5.1,3.9l-5,4.5c-1.8-2.2-4-3.3-6.6-3.3c-1.5,0-2.9,0.3-4,1
		c-1.2,0.7-2.1,1.6-2.7,2.8c-0.6,1.2-1,2.6-1,4.1s0.3,2.9,1,4.1c0.6,1.2,1.6,2.1,2.7,2.8c1.2,0.7,2.5,1,4,1c2.6,0,4.8-1.1,6.6-3.3
		l5,4.5c-1.4,1.7-3,3-5.1,3.9c-2,0.9-4.3,1.3-6.9,1.3C358.9,132.6,356.3,132,354,130.8z"/>
	<path class="st4" d="M377.3,104.3h7.9v27.8h-7.9V104.3z"/>
	<path class="st4" d="M409.4,126.7h-11.8l-2.2,5.4h-8l12.3-27.8h7.7l12.3,27.8h-8.2L409.4,126.7z M407.1,120.9l-3.6-8.9l-3.6,8.9
		H407.1z"/>
	<path class="st4" d="M445.7,124.7h-4.3v7.4h-7.9v-27.8h12.7c2.5,0,4.7,0.4,6.6,1.3s3.3,2,4.3,3.6c1,1.5,1.5,3.4,1.5,5.5
		c0,2-0.5,3.8-1.4,5.3s-2.3,2.7-4,3.5l6,8.7h-8.4L445.7,124.7z M449.4,111.6c-0.8-0.7-2-1.1-3.7-1.1h-4.4v8.1h4.4
		c1.6,0,2.8-0.4,3.7-1.1c0.8-0.7,1.2-1.7,1.2-3S450.2,112.3,449.4,111.6z"/>
	<path class="st4" d="M485.2,126v6.1h-22.3v-27.8h21.8v6.1h-14v4.7H483v5.9h-12.3v5.1L485.2,126L485.2,126z"/>
	<path class="st4" d="M492.8,131.8c-2.1-0.6-3.8-1.3-5.2-2.2l2.6-5.8c1.2,0.8,2.7,1.5,4.3,2c1.6,0.5,3.3,0.8,4.8,0.8
		c3,0,4.5-0.8,4.5-2.3c0-0.8-0.4-1.4-1.3-1.8s-2.2-0.8-4.1-1.2c-2.1-0.4-3.8-0.9-5.2-1.4c-1.4-0.5-2.6-1.3-3.6-2.5
		c-1-1.1-1.5-2.7-1.5-4.6c0-1.7,0.5-3.2,1.4-4.6s2.3-2.4,4.1-3.2c1.8-0.8,4.1-1.2,6.8-1.2c1.8,0,3.6,0.2,5.4,0.6s3.3,1,4.7,1.8
		l-2.4,5.8c-2.6-1.4-5.2-2.1-7.7-2.1c-1.6,0-2.7,0.2-3.4,0.7c-0.7,0.5-1.1,1.1-1.1,1.8s0.4,1.3,1.3,1.7c0.8,0.4,2.2,0.8,4.1,1.2
		c2.1,0.5,3.9,0.9,5.3,1.4s2.6,1.3,3.6,2.5s1.5,2.7,1.5,4.6c0,1.7-0.5,3.2-1.4,4.5c-0.9,1.4-2.3,2.4-4.2,3.2
		c-1.9,0.8-4.1,1.2-6.8,1.2C497.1,132.6,494.9,132.4,492.8,131.8z"/>
	<path class="st4" d="M534.5,105.5c1.9,0.8,3.3,2,4.3,3.6s1.5,3.4,1.5,5.5s-0.5,3.9-1.5,5.4s-2.4,2.7-4.3,3.6
		c-1.9,0.8-4,1.3-6.6,1.3h-4.8v7.3h-7.9v-27.8H528C530.5,104.3,532.7,104.7,534.5,105.5z M531.2,117.6c0.8-0.7,1.2-1.7,1.2-3
		s-0.4-2.3-1.2-3s-2-1.1-3.7-1.1h-4.4v8.1h4.4C529.1,118.6,530.3,118.3,531.2,117.6z"/>
	<path class="st4" d="M544.2,104.3h7.9v27.8h-7.9V104.3z"/>
	<path class="st4" d="M569.8,124.7h-4.3v7.4h-7.9v-27.8h12.7c2.5,0,4.7,0.4,6.6,1.3c1.9,0.8,3.3,2,4.3,3.6s1.5,3.4,1.5,5.5
		c0,2-0.5,3.8-1.4,5.3s-2.3,2.7-4,3.5l6,8.7h-8.4L569.8,124.7z M573.5,111.6c-0.8-0.7-2-1.1-3.7-1.1h-4.4v8.1h4.4
		c1.6,0,2.8-0.4,3.7-1.1c0.8-0.7,1.2-1.7,1.2-3S574.3,112.3,573.5,111.6z"/>
	<path class="st4" d="M605.6,126.7h-11.8l-2.2,5.4h-8l12.3-27.8h7.7l12.3,27.8h-8.2L605.6,126.7z M603.3,120.9l-3.6-8.9l-3.6,8.9
		H603.3z"/>
	<path class="st4" d="M622.7,110.5h-8.5v-6.2h24.9v6.2h-8.5v21.6h-7.9V110.5z"/>
	<path class="st4" d="M647.7,130.8c-2.3-1.2-4.2-3-5.5-5.2s-2-4.7-2-7.4s0.7-5.2,2-7.4s3.2-3.9,5.5-5.2c2.3-1.2,5-1.9,7.9-1.9
		s5.6,0.6,7.9,1.9c2.3,1.2,4.2,3,5.5,5.2s2,4.7,2,7.4s-0.7,5.2-2,7.4c-1.3,2.2-3.2,3.9-5.5,5.2c-2.3,1.2-5,1.9-7.9,1.9
		S650.1,132,647.7,130.8z M659.5,125.1c1.1-0.7,2-1.6,2.7-2.8c0.7-1.2,1-2.6,1-4.1s-0.3-2.9-1-4.1s-1.6-2.1-2.7-2.8
		c-1.1-0.7-2.4-1-3.8-1c-1.4,0-2.7,0.3-3.8,1s-2,1.6-2.7,2.8c-0.7,1.2-1,2.6-1,4.1s0.3,2.9,1,4.1s1.6,2.1,2.7,2.8
		c1.1,0.7,2.4,1,3.8,1S658.3,125.8,659.5,125.1z M657.1,96h7.5l-7.5,6h-5.4L657.1,96z"/>
	<path class="st4" d="M687.4,124.7h-4.3v7.4h-7.9v-27.8h12.7c2.5,0,4.7,0.4,6.6,1.3c1.9,0.8,3.3,2,4.3,3.6s1.5,3.4,1.5,5.5
		c0,2-0.5,3.8-1.4,5.3s-2.3,2.7-4,3.5l6,8.7h-8.4L687.4,124.7z M691.1,111.6c-0.8-0.7-2-1.1-3.7-1.1H683v8.1h4.4
		c1.6,0,2.8-0.4,3.7-1.1c0.8-0.7,1.2-1.7,1.2-3S691.9,112.3,691.1,111.6z"/>
	<path class="st4" d="M704.6,104.3h7.9v27.8h-7.9V104.3z"/>
	<path class="st4" d="M736.7,126.7h-11.8l-2.2,5.4h-8l12.3-27.8h7.7l12.3,27.8h-8.2L736.7,126.7z M734.4,120.9l-3.6-8.9l-3.6,8.9
		H734.4z"/>
	<path class="st4" d="M779.5,126.7h-11.8l-2.2,5.4h-8l12.3-27.8h7.7l12.3,27.8h-8.2L779.5,126.7z M777.2,120.9l-3.6-8.9l-3.6,8.9
		H777.2z"/>
	<path class="st4" d="M810.3,117.6h6.9v11.5c-1.6,1.1-3.4,2-5.5,2.6s-4.1,0.9-6.2,0.9c-2.9,0-5.5-0.6-7.9-1.8
		c-2.3-1.2-4.2-2.9-5.5-5.1s-2-4.7-2-7.5s0.7-5.3,2-7.5s3.2-3.9,5.5-5.1c2.4-1.2,5-1.8,8-1.8c2.6,0,4.9,0.4,7,1.3s3.8,2.1,5.2,3.8
		l-5,4.5c-1.9-2.1-4.1-3.1-6.8-3.1c-2.4,0-4.3,0.7-5.8,2.2c-1.5,1.4-2.2,3.4-2.2,5.8c0,1.5,0.3,2.9,1,4.1s1.6,2.1,2.8,2.8
		s2.6,1,4.1,1s2.9-0.3,4.2-0.9v-7.7L810.3,117.6L810.3,117.6z"/>
	<path class="st4" d="M825.4,129.3c-2.3-2.2-3.4-5.4-3.4-9.6v-15.4h7.9v15.2c0,4.4,1.8,6.7,5.3,6.7s5.2-2.2,5.2-6.7v-15.2h7.7v15.4
		c0,4.1-1.1,7.3-3.4,9.6c-2.3,2.3-5.5,3.4-9.6,3.4S827.7,131.5,825.4,129.3z"/>
	<path class="st4" d="M853.4,104.3h13.1c3,0,5.7,0.6,8.1,1.7c2.4,1.1,4.2,2.8,5.5,4.8c1.3,2.1,1.9,4.5,1.9,7.3s-0.6,5.3-1.9,7.3
		c-1.3,2.1-3.1,3.7-5.5,4.8s-5.1,1.7-8.1,1.7h-13.1V104.3z M866.3,125.8c2.4,0,4.3-0.7,5.7-2c1.4-1.4,2.2-3.2,2.2-5.6
		s-0.7-4.2-2.2-5.6c-1.4-1.4-3.4-2-5.7-2h-5v15.2H866.3z"/>
	<path class="st4" d="M904.5,126.7h-11.8l-2.2,5.4h-8l12.3-27.8h7.7l12.3,27.8h-8.2L904.5,126.7z M902.2,120.9l-3.6-8.9l-3.6,8.9
		H902.2z"/>
</g>
<g>
	<line class="st5" x1="482.1" y1="1178.2" x2="508.1" y2="1242.6"/>
	<line class="st5" x1="485.1" y1="338.6" x2="773.6" y2="338.6"/>
	<path class="st4" d="M924.7,446.1H809c-23.6,0-42.9-19.3-42.9-42.9V250.8c0-23.6,19.3-42.9,42.9-42.9h115.7
		c23.6,0,42.9,19.3,42.9,42.9v152.4C967.6,426.8,948.3,446.1,924.7,446.1z"/>
	<g class="st3">
		<path class="st4" d="M369,1198.6h2.9v12.6H369V1198.6z"/>
		<path class="st4" d="M383.5,1202.4c0.7,0.7,1.1,1.8,1.1,3.2v5.5h-2.8v-5.1c0-0.8-0.2-1.3-0.5-1.7s-0.8-0.6-1.5-0.6
			s-1.3,0.2-1.7,0.7c-0.4,0.4-0.6,1.1-0.6,2v4.8h-2.8v-9.7h2.7v1.1c0.4-0.4,0.8-0.7,1.4-0.9c0.6-0.2,1.2-0.3,1.8-0.3
			C381.8,1201.3,382.7,1201.7,383.5,1202.4z"/>
		<path class="st4" d="M397.1,1197.8v13.4h-2.7v-1.1c-0.7,0.8-1.7,1.3-3,1.3c-0.9,0-1.7-0.2-2.5-0.6s-1.3-1-1.7-1.7
			c-0.4-0.8-0.6-1.6-0.6-2.6s0.2-1.9,0.6-2.6c0.4-0.8,1-1.3,1.7-1.7s1.6-0.6,2.5-0.6c1.2,0,2.2,0.4,2.9,1.2v-4.7h2.8L397.1,1197.8
			L397.1,1197.8z M393.6,1208.3c0.5-0.5,0.7-1.1,0.7-2s-0.2-1.5-0.7-2s-1.1-0.7-1.8-0.7c-0.7,0-1.3,0.2-1.8,0.7s-0.7,1.1-0.7,2
			s0.2,1.5,0.7,2s1.1,0.7,1.8,0.7C392.6,1209,393.2,1208.8,393.6,1208.3z"/>
		<path class="st4" d="M399.8,1199.7c-0.3-0.3-0.5-0.7-0.5-1.1s0.2-0.8,0.5-1.1c0.3-0.3,0.7-0.5,1.3-0.5c0.5,0,0.9,0.1,1.3,0.4
			c0.3,0.3,0.5,0.6,0.5,1.1s-0.2,0.9-0.5,1.2c-0.3,0.3-0.7,0.5-1.3,0.5C400.6,1200.1,400.1,1200,399.8,1199.7z M399.7,1201.5h2.8
			v9.7h-2.8V1201.5z"/>
		<path class="st4" d="M406,1211c-0.8-0.2-1.4-0.4-1.8-0.7l0.9-2c0.4,0.3,1,0.5,1.6,0.7s1.2,0.3,1.8,0.3c1.2,0,1.8-0.3,1.8-0.9
			c0-0.3-0.2-0.5-0.5-0.6s-0.8-0.2-1.5-0.3c-0.8-0.1-1.4-0.3-2-0.4c-0.5-0.2-1-0.4-1.3-0.8c-0.4-0.4-0.6-1-0.6-1.7
			c0-0.6,0.2-1.2,0.5-1.6c0.4-0.5,0.9-0.8,1.5-1.1c0.7-0.3,1.5-0.4,2.4-0.4c0.7,0,1.4,0.1,2,0.2c0.7,0.1,1.2,0.4,1.7,0.6l-0.9,2
			c-0.9-0.5-1.8-0.7-2.8-0.7c-0.6,0-1.1,0.1-1.4,0.3c-0.3,0.2-0.5,0.4-0.5,0.6c0,0.3,0.2,0.5,0.5,0.6s0.8,0.2,1.5,0.3
			c0.8,0.1,1.4,0.3,1.9,0.4c0.5,0.2,0.9,0.4,1.3,0.8s0.6,0.9,0.6,1.7c0,0.6-0.2,1.1-0.5,1.6s-0.9,0.8-1.6,1.1
			c-0.7,0.3-1.5,0.4-2.5,0.4C407.5,1211.3,406.8,1211.2,406,1211z"/>
		<path class="st4" d="M422.8,1202c0.7,0.4,1.3,1,1.7,1.7s0.6,1.6,0.6,2.6s-0.2,1.9-0.6,2.6s-1,1.3-1.7,1.7
			c-0.7,0.4-1.6,0.6-2.5,0.6c-1.2,0-2.2-0.4-2.9-1.2v4.5h-2.8v-13.2h2.7v1.1c0.7-0.8,1.7-1.3,3-1.3
			C421.3,1201.3,422.1,1201.5,422.8,1202z M421.7,1208.3c0.5-0.5,0.7-1.1,0.7-2s-0.2-1.5-0.7-2s-1.1-0.7-1.8-0.7
			c-0.7,0-1.3,0.2-1.8,0.7s-0.7,1.1-0.7,2s0.2,1.5,0.7,2s1.1,0.7,1.8,0.7S421.2,1208.8,421.7,1208.3z"/>
		<path class="st4" d="M428.9,1210.7c-0.8-0.4-1.4-1-1.9-1.8s-0.7-1.6-0.7-2.6s0.2-1.8,0.7-2.6s1.1-1.3,1.9-1.8
			c0.8-0.4,1.7-0.6,2.7-0.6s1.9,0.2,2.7,0.6c0.8,0.4,1.4,1,1.9,1.8s0.7,1.6,0.7,2.6s-0.2,1.8-0.7,2.6c-0.5,0.8-1.1,1.3-1.9,1.8
			c-0.8,0.4-1.7,0.6-2.7,0.6S429.7,1211.1,428.9,1210.7z M433.5,1208.3c0.5-0.5,0.7-1.1,0.7-2s-0.2-1.5-0.7-2s-1.1-0.7-1.8-0.7
			c-0.7,0-1.3,0.2-1.8,0.7s-0.7,1.1-0.7,2s0.2,1.5,0.7,2s1.1,0.7,1.8,0.7S433,1208.8,433.5,1208.3z"/>
		<path class="st4" d="M447.7,1202.4c0.7,0.7,1.1,1.8,1.1,3.2v5.5H446v-5.1c0-0.8-0.2-1.3-0.5-1.7s-0.8-0.6-1.5-0.6
			s-1.3,0.2-1.7,0.7c-0.4,0.4-0.6,1.1-0.6,2v4.8h-2.8v-9.7h2.7v1.1c0.4-0.4,0.8-0.7,1.4-0.9c0.6-0.2,1.2-0.3,1.8-0.3
			C445.9,1201.3,446.9,1201.7,447.7,1202.4z"/>
		<path class="st4" d="M453.5,1197.7h3l-3.3,2.6H451L453.5,1197.7z M451.3,1201.5h2.8v9.7h-2.8V1201.5z"/>
		<path class="st4" d="M466.3,1201.5l-4.1,9.7h-2.9l-4.1-9.7h2.9l2.7,6.6l2.8-6.6H466.3z"/>
		<path class="st4" d="M476.6,1207.1h-7.3c0.1,0.6,0.4,1.1,0.9,1.4s1.1,0.5,1.8,0.5c0.5,0,1-0.1,1.3-0.2c0.4-0.1,0.8-0.4,1.1-0.7
			l1.5,1.6c-0.9,1-2.2,1.6-4,1.6c-1.1,0-2.1-0.2-2.9-0.6s-1.5-1-1.9-1.8c-0.5-0.8-0.7-1.6-0.7-2.6c0-0.9,0.2-1.8,0.7-2.6
			c0.5-0.8,1.1-1.4,1.9-1.8s1.7-0.6,2.6-0.6s1.8,0.2,2.6,0.6s1.4,1,1.8,1.8s0.7,1.6,0.7,2.7C476.7,1206.4,476.7,1206.7,476.6,1207.1
			z M470.1,1204c-0.4,0.4-0.7,0.9-0.8,1.5h4.8c-0.1-0.6-0.4-1.1-0.8-1.5s-1-0.5-1.6-0.5C471,1203.5,470.5,1203.6,470.1,1204z"/>
		<path class="st4" d="M478.6,1197.8h2.8v13.4h-2.8V1197.8z"/>
		<path class="st4" d="M502.3,1201.7h2.5v2.2h-2.4v7.3h-2.8v-7.3h-1.5v-2.2h1.5v-0.4c0-1.1,0.3-2,1-2.6s1.6-1,2.8-1
			c0.4,0,0.8,0,1.2,0.1s0.7,0.2,0.9,0.4l-0.7,2c-0.3-0.2-0.7-0.3-1.1-0.3c-0.9,0-1.3,0.5-1.3,1.4v0.4H502.3z"/>
		<path class="st4" d="M513.4,1202.4c0.8,0.7,1.2,1.8,1.2,3.2v5.5H512v-1.2c-0.5,0.9-1.5,1.3-3,1.3c-0.7,0-1.4-0.1-1.9-0.4
			s-1-0.6-1.3-1s-0.4-0.9-0.4-1.5c0-0.9,0.3-1.6,1-2.1s1.7-0.8,3.1-0.8h2.2c0-0.6-0.2-1.1-0.6-1.4s-0.9-0.5-1.7-0.5
			c-0.5,0-1,0.1-1.5,0.2c-0.5,0.2-0.9,0.4-1.3,0.7l-1-2c0.5-0.4,1.2-0.7,1.9-0.9c0.7-0.2,1.5-0.3,2.3-0.3
			C511.5,1201.3,512.6,1201.7,513.4,1202.4z M511,1209.1c0.4-0.2,0.6-0.5,0.8-1v-1h-1.9c-1.2,0-1.7,0.4-1.7,1.1
			c0,0.4,0.1,0.6,0.4,0.9c0.3,0.2,0.7,0.3,1.2,0.3C510.2,1209.4,510.7,1209.3,511,1209.1z"/>
		<path class="st4" d="M517.2,1197.8h2.8v13.4h-2.8V1197.8z"/>
		<path class="st4" d="M531.4,1202.4c0.7,0.7,1.1,1.8,1.1,3.2v5.5h-2.8v-5.1c0-0.8-0.2-1.3-0.5-1.7s-0.8-0.6-1.5-0.6
			s-1.3,0.2-1.7,0.7c-0.4,0.4-0.6,1.1-0.6,2v4.8h-2.8v-13.4h2.8v4.7c0.4-0.4,0.8-0.7,1.4-0.9c0.5-0.2,1.1-0.3,1.7-0.3
			C529.7,1201.3,530.6,1201.7,531.4,1202.4z"/>
		<path class="st4" d="M542.4,1202.4c0.8,0.7,1.2,1.8,1.2,3.2v5.5H541v-1.2c-0.5,0.9-1.5,1.3-3,1.3c-0.7,0-1.4-0.1-1.9-0.4
			s-1-0.6-1.3-1s-0.4-0.9-0.4-1.5c0-0.9,0.3-1.6,1-2.1s1.7-0.8,3.1-0.8h2.2c0-0.6-0.2-1.1-0.6-1.4s-0.9-0.5-1.7-0.5
			c-0.5,0-1,0.1-1.5,0.2c-0.5,0.2-0.9,0.4-1.3,0.7l-1-2c0.5-0.4,1.2-0.7,1.9-0.9c0.7-0.2,1.5-0.3,2.3-0.3
			C540.4,1201.3,541.6,1201.7,542.4,1202.4z M540,1209.1c0.4-0.2,0.6-0.5,0.8-1v-1h-1.9c-1.2,0-1.7,0.4-1.7,1.1
			c0,0.4,0.1,0.6,0.4,0.9s0.7,0.3,1.2,0.3C539.2,1209.4,539.6,1209.3,540,1209.1z"/>
	</g>
	<g class="st3">
		<path class="st4" d="M505.8,309.2v12.6h-2.4l-6.3-7.7v7.7h-2.9v-12.6h2.4l6.3,7.6v-7.6H505.8z"/>
		<path class="st4" d="M517.1,319.1h-5.9l-1.1,2.7h-3l5.6-12.6h2.9l5.6,12.6h-3.1L517.1,319.1z M514.7,308.1
			c-0.2-0.1-0.5-0.3-0.8-0.5c-0.2-0.1-0.4-0.3-0.5-0.3c-0.1-0.1-0.2-0.1-0.4-0.1c-0.3,0-0.5,0.1-0.6,0.3c-0.2,0.2-0.2,0.4-0.3,0.7
			h-1.4c0-0.8,0.2-1.4,0.6-1.9s0.9-0.7,1.5-0.7c0.3,0,0.6,0.1,0.8,0.2s0.5,0.3,0.8,0.5c0.2,0.1,0.4,0.3,0.5,0.3
			c0.1,0.1,0.2,0.1,0.4,0.1s0.4-0.1,0.6-0.3s0.2-0.4,0.3-0.7h1.4c0,0.8-0.2,1.4-0.6,1.9c-0.4,0.5-0.9,0.7-1.5,0.7
			C515.2,308.3,515,308.2,514.7,308.1z M516.2,316.9l-2-4.8l-2,4.8H516.2z"/>
		<path class="st4" d="M525,321.2c-1.1-0.6-1.9-1.3-2.5-2.3s-0.9-2.1-0.9-3.3s0.3-2.3,0.9-3.3c0.6-1,1.4-1.8,2.5-2.3
			c1-0.6,2.2-0.8,3.5-0.8s2.5,0.3,3.5,0.8c1,0.6,1.9,1.3,2.5,2.3s0.9,2.1,0.9,3.3s-0.3,2.3-0.9,3.3c-0.6,1-1.4,1.8-2.5,2.3
			s-2.2,0.8-3.5,0.8S526,321.8,525,321.2z M530.5,319.1c0.6-0.3,1.1-0.8,1.4-1.4s0.5-1.3,0.5-2.1s-0.2-1.5-0.5-2.1s-0.8-1.1-1.4-1.4
			c-0.6-0.3-1.3-0.5-2-0.5s-1.4,0.2-2,0.5s-1.1,0.8-1.4,1.4c-0.3,0.6-0.5,1.3-0.5,2.1s0.2,1.5,0.5,2.1s0.8,1.1,1.4,1.4
			s1.3,0.5,2,0.5C529.3,319.6,529.9,319.4,530.5,319.1z"/>
	</g>
	<g class="st3">
		<path class="st4" d="M437.3,350.4c-0.9-0.3-1.7-0.6-2.2-1.1l1-2.2c0.5,0.4,1.2,0.7,1.9,1c0.7,0.2,1.5,0.4,2.2,0.4
			c0.8,0,1.4-0.1,1.8-0.4c0.4-0.2,0.6-0.6,0.6-1c0-0.3-0.1-0.5-0.4-0.7c-0.2-0.2-0.5-0.4-0.9-0.5s-0.9-0.3-1.5-0.4
			c-1-0.2-1.7-0.5-2.4-0.7c-0.6-0.2-1.1-0.6-1.6-1.1c-0.4-0.5-0.7-1.2-0.7-2c0-0.7,0.2-1.4,0.6-2s1-1.1,1.8-1.4s1.8-0.5,2.9-0.5
			c0.8,0,1.6,0.1,2.4,0.3c0.8,0.2,1.4,0.5,2,0.8l-0.9,2.2c-1.2-0.7-2.3-1-3.5-1c-0.8,0-1.4,0.1-1.8,0.4s-0.6,0.6-0.6,1
			s0.2,0.8,0.7,1c0.4,0.2,1.1,0.4,2.1,0.6s1.7,0.5,2.4,0.7c0.6,0.2,1.1,0.6,1.6,1.1c0.4,0.5,0.7,1.2,0.7,2c0,0.7-0.2,1.4-0.6,2
			s-1,1.1-1.8,1.4s-1.8,0.5-2.9,0.5C439.2,350.8,438.2,350.7,437.3,350.4z"/>
		<path class="st4" d="M447.5,338h2.9v12.6h-2.9V338z"/>
		<path class="st4" d="M464.9,350.6V343l-3.7,6.2h-1.3l-3.7-6.1v7.4h-2.7V338h2.4l4.7,7.8l4.6-7.8h2.4v12.6H464.9z"/>
	</g>
	<line class="st5" x1="485.9" y1="277.6" x2="485.9" y2="639"/>
	<polyline class="st5" points="695.5,787.3 904,787.3 904,1059.8 	"/>
	<line class="st5" x1="485.6" y1="703.9" x2="514.5" y2="759.1"/>
	<polyline class="st5" points="436.1,892.7 436.1,859.2 709.5,859.2 709.5,898.6 	"/>
	<path class="st5" d="M514.5,813.6"/>
	<line class="st5" x1="514.5" y1="859.2" x2="514.5" y2="817.3"/>
	<line class="st5" x1="435.6" y1="1039.6" x2="472.7" y2="1067.2"/>
	<line class="st5" x1="681.3" y1="1039.6" x2="681.3" y2="1070.6"/>
	<polyline class="st5" points="237.1,405 177.6,405 177.6,644.4 177.6,874 	"/>
	<line class="st5" x1="245.3" y1="644.4" x2="177.6" y2="644.4"/>
	<g>
		<g>
			<line class="st6" x1="293.8" y1="1287.6" x2="373.6" y2="1287.6"/>
			<g>
				<path class="st7" d="M397.8,1287.6c-11.4,4.2-25.5,11.4-34.2,19l6.9-19l-6.9-19C372.3,1276.2,386.4,1283.4,397.8,1287.6z"/>
			</g>
		</g>
	</g>
	<path class="st4" d="M722.7,299.5H262.2c-13.8,0-25.1-11.3-25.1-25.1V233c0-13.8,11.3-25.1,25.1-25.1h460.5
		c13.8,0,25.1,11.3,25.1,25.1v41.5C747.8,288.2,736.5,299.5,722.7,299.5z"/>
	<path class="st4" d="M722.7,454.1H262.2c-13.8,0-25.1-11.3-25.1-25.1v-41.5c0-13.8,11.3-25.1,25.1-25.1h460.5
		c13.8,0,25.1,11.3,25.1,25.1V429C747.8,442.8,736.5,454.1,722.7,454.1z"/>
	<path class="st4" d="M722.7,556.5H262.2c-13.8,0-25.1-11.3-25.1-25.1V490c0-13.8,11.3-25.1,25.1-25.1h460.5
		c13.8,0,25.1,11.3,25.1,25.1v41.5C747.8,545.3,736.5,556.5,722.7,556.5z"/>
	<path class="st4" d="M722.7,708.8H264.9c-13.8,0-25.1-11.3-25.1-25.1v-89.5c0-13.8,11.3-25.1,25.1-25.1h457.8
		c13.8,0,25.1,11.3,25.1,25.1v89.5C747.8,697.5,736.5,708.8,722.7,708.8z"/>
	<path class="st4" d="M275.1,824.9H74.9c-10.3,0-18.7-8.4-18.7-18.7v-35.9c0-10.3,8.4-18.7,18.7-18.7h200.2
		c10.3,0,18.7,8.4,18.7,18.7v35.9C293.8,816.5,285.4,824.9,275.1,824.9z"/>
	<path class="st4" d="M274.4,1046.8H74c-9.8,0-17.8-8-17.8-17.8V892.5c0-9.8,8-17.8,17.8-17.8h200.4c9.8,0,17.8,8,17.8,17.8v136.4
		C292.3,1038.7,284.2,1046.8,274.4,1046.8z"/>
	<path class="st4" d="M272.6,1368.6H72.8c-11.6,0-21.1-9.5-21.1-21.1v-115.7c0-11.6,9.5-21.1,21.1-21.1h199.9
		c11.6,0,21.1,9.5,21.1,21.1v115.7C293.8,1359.1,284.3,1368.6,272.6,1368.6z"/>
	<path class="st4" d="M565.3,1350.6H424.2c-12.2,0-22.2-10-22.2-22.2v-77c0-12.2,10-22.2,22.2-22.2h141.2c12.2,0,22.2,10,22.2,22.2
		v77C587.5,1340.6,577.5,1350.6,565.3,1350.6z"/>
	<path class="st4" d="M550.6,1183.4H413.7c-11.5,0-20.9-9.4-20.9-20.9v-81.9c0-11.5,9.4-20.9,20.9-20.9h136.9
		c11.5,0,20.9,9.4,20.9,20.9v81.9C571.4,1174.1,562.1,1183.4,550.6,1183.4z"/>
	<path class="st4" d="M749.1,1183.4H613.4c-11.8,0-21.4-9.6-21.4-21.4v-80.8c0-11.8,9.6-21.4,21.4-21.4h135.8
		c11.8,0,21.4,9.6,21.4,21.4v80.8C770.6,1173.8,760.9,1183.4,749.1,1183.4z"/>
	<path class="st4" d="M947.2,1183.4H811.5c-11.8,0-21.4-9.6-21.4-21.4v-80.8c0-11.8,9.6-21.4,21.4-21.4h135.8
		c11.8,0,21.4,9.6,21.4,21.4v80.8C968.7,1173.8,959,1183.4,947.2,1183.4z"/>
	<path class="st4" d="M524.1,1046h-177c-11.8,0-21.4-9.6-21.4-21.4V895.4c0-11.8,9.6-21.4,21.4-21.4h177.1
		c11.8,0,21.4,9.6,21.4,21.4v129.2C545.6,1036.4,535.9,1046,524.1,1046z"/>
	<path class="st4" d="M769.8,1042.8H592.7c-11.8,0-21.4-9.6-21.4-21.4V892.1c0-11.8,9.6-21.4,21.4-21.4h177.1
		c11.8,0,21.4,9.6,21.4,21.4v129.2C791.2,1033.1,781.6,1042.8,769.8,1042.8z"/>
	<path class="st7" d="M690.8,823.9H338.3c-10.3,0-18.7-8.4-18.7-18.7v-35.9c0-10.3,8.4-18.7,18.7-18.7h352.6
		c10.3,0,18.7,8.4,18.7,18.7v35.9C709.5,815.5,701.1,823.9,690.8,823.9z"/>
</g>
<g>
	<g class="st3">
		<path class="st4" d="M257.5,1464.9v3.4h6.8v3.4h-6.8v5.3h-4.4v-15.4h12.1v3.4h-7.7V1464.9z"/>
		<path class="st4" d="M270.5,1476.2c-1.3-0.7-2.3-1.6-3.1-2.9c-0.7-1.2-1.1-2.6-1.1-4.1s0.4-2.9,1.1-4.1s1.8-2.2,3.1-2.9
			s2.8-1,4.4-1s3.1,0.3,4.4,1s2.3,1.6,3.1,2.9c0.7,1.2,1.1,2.6,1.1,4.1s-0.4,2.9-1.1,4.1s-1.8,2.2-3.1,2.9c-1.3,0.7-2.8,1-4.4,1
			S271.8,1476.9,270.5,1476.2z M277,1473.1c0.6-0.4,1.1-0.9,1.5-1.6s0.5-1.4,0.5-2.3s-0.2-1.6-0.5-2.3c-0.4-0.7-0.9-1.2-1.5-1.6
			s-1.3-0.5-2.1-0.5c-0.8,0-1.5,0.2-2.1,0.5c-0.6,0.4-1.1,0.9-1.5,1.6s-0.6,1.4-0.6,2.3s0.2,1.6,0.6,2.3c0.4,0.7,0.9,1.2,1.5,1.6
			s1.3,0.5,2.1,0.5C275.6,1473.6,276.3,1473.4,277,1473.1z"/>
		<path class="st4" d="M300.4,1461.5v15.4h-3.6l-6.8-8.2v8.2h-4.3v-15.4h3.6l6.8,8.2v-8.2H300.4z"/>
		<path class="st4" d="M306.7,1465H302v-3.5h13.8v3.5h-4.7v11.9h-4.4L306.7,1465L306.7,1465z"/>
		<path class="st4" d="M329.8,1473.5v3.4h-12.4v-15.4h12.1v3.4h-7.8v2.6h6.8v3.3h-6.8v2.8h8.1L329.8,1473.5L329.8,1473.5z"/>
		<path class="st4" d="M331.9,1469c-0.5-0.5-0.7-1.1-0.7-1.8c0-0.7,0.2-1.3,0.7-1.8s1.1-0.7,1.8-0.7c0.7,0,1.3,0.2,1.8,0.7
			s0.7,1,0.7,1.8c0,0.7-0.2,1.3-0.7,1.8s-1.1,0.7-1.8,0.7S332.4,1469.5,331.9,1469z M331.9,1476.4c-0.5-0.5-0.7-1.1-0.7-1.8
			c0-0.7,0.2-1.3,0.7-1.8s1.1-0.7,1.8-0.7c0.7,0,1.3,0.2,1.8,0.7s0.7,1,0.7,1.8c0,0.7-0.2,1.3-0.7,1.8s-1.1,0.7-1.8,0.7
			S332.4,1476.9,331.9,1476.4z"/>
	</g>
	<g class="st3">
		<path class="st4" d="M358.7,1461.5v15.4h-1.6v-7.1h-9.6v7.1h-1.6v-15.4h1.6v6.9h9.6v-6.9H358.7z"/>
		<path class="st4" d="M366.3,1476c-1.2-0.7-2.2-1.6-2.9-2.8c-0.7-1.2-1-2.5-1-4s0.3-2.8,1-4s1.7-2.1,2.9-2.8c1.2-0.7,2.6-1,4.1-1
			s2.9,0.3,4.1,1s2.2,1.6,2.9,2.8c0.7,1.2,1.1,2.5,1.1,4s-0.4,2.8-1.1,4s-1.7,2.1-2.9,2.8c-1.2,0.7-2.6,1-4.1,1
			C369,1477,367.6,1476.7,366.3,1476z M373.8,1474.8c1-0.6,1.8-1.3,2.3-2.3c0.6-1,0.8-2.1,0.8-3.3c0-1.2-0.3-2.3-0.8-3.3
			c-0.6-1-1.3-1.7-2.3-2.3c-1-0.5-2.1-0.8-3.3-0.8c-1.2,0-2.3,0.3-3.3,0.8s-1.8,1.3-2.3,2.3c-0.6,1-0.8,2.1-0.8,3.3
			c0,1.2,0.3,2.3,0.8,3.3c0.6,1,1.3,1.7,2.3,2.3c1,0.5,2.1,0.8,3.3,0.8C371.7,1475.6,372.8,1475.3,373.8,1474.8z"/>
		<path class="st4" d="M383.2,1476.5c-1-0.4-1.9-0.9-2.4-1.5l0.6-1.3c0.6,0.6,1.3,1,2.2,1.4c0.9,0.3,1.9,0.5,2.9,0.5
			c1.4,0,2.4-0.3,3.1-0.8s1-1.2,1-2c0-0.6-0.2-1.1-0.6-1.5s-0.8-0.6-1.4-0.8c-0.5-0.2-1.3-0.4-2.3-0.6c-1.2-0.3-2.1-0.6-2.8-0.8
			c-0.7-0.3-1.3-0.7-1.8-1.2c-0.5-0.6-0.7-1.3-0.7-2.3c0-0.8,0.2-1.5,0.6-2.1s1-1.1,1.9-1.5s1.9-0.6,3.2-0.6c0.9,0,1.7,0.1,2.6,0.4
			c0.8,0.2,1.6,0.6,2.2,1l-0.5,1.3c-0.6-0.4-1.3-0.7-2.1-1c-0.7-0.2-1.5-0.3-2.2-0.3c-1.3,0-2.4,0.3-3,0.8c-0.7,0.5-1,1.2-1,2
			c0,0.6,0.2,1.1,0.6,1.5s0.8,0.7,1.4,0.9s1.3,0.4,2.3,0.6c1.1,0.3,2,0.6,2.7,0.8c0.7,0.3,1.3,0.7,1.8,1.2s0.7,1.3,0.7,2.2
			c0,0.8-0.2,1.5-0.6,2.1s-1.1,1.1-1.9,1.5s-1.9,0.6-3.2,0.6C385.3,1477,384.2,1476.9,383.2,1476.5z"/>
		<path class="st4" d="M406.1,1462.9c1.1,0.9,1.7,2.2,1.7,3.9s-0.6,2.9-1.7,3.9c-1.1,0.9-2.7,1.4-4.6,1.4h-4.1v4.9h-1.6v-15.4h5.8
			C403.5,1461.5,405,1462,406.1,1462.9z M405,1469.6c0.8-0.7,1.2-1.6,1.2-2.8c0-1.2-0.4-2.2-1.2-2.9c-0.8-0.7-2-1-3.5-1h-4.1v7.7
			h4.1C403,1470.6,404.2,1470.3,405,1469.6z"/>
		<path class="st4" d="M411.3,1461.5h1.6v15.4h-1.6V1461.5z"/>
		<path class="st4" d="M421,1462.9h-5.4v-1.4H428v1.4h-5.4v14H421V1462.9z"/>
		<path class="st4" d="M439.5,1472.8h-8.6l-1.8,4.1h-1.7l7-15.4h1.6l7,15.4h-1.7L439.5,1472.8z M438.9,1471.5l-3.7-8.3l-3.7,8.3
			H438.9z"/>
		<path class="st4" d="M445.6,1461.5h1.6v14h8.6v1.4h-10.3L445.6,1461.5L445.6,1461.5z"/>
		<path class="st4" d="M464.3,1461.5h6.3c1.6,0,3.1,0.3,4.3,1s2.2,1.6,2.9,2.7c0.7,1.2,1,2.5,1,4s-0.3,2.8-1,4s-1.7,2.1-2.9,2.7
			c-1.2,0.7-2.7,1-4.3,1h-6.3V1461.5z M470.5,1475.5c1.3,0,2.5-0.3,3.5-0.8s1.8-1.3,2.4-2.2c0.6-0.9,0.8-2,0.8-3.3
			c0-1.2-0.3-2.3-0.8-3.3c-0.6-0.9-1.3-1.7-2.4-2.2c-1-0.5-2.2-0.8-3.5-0.8h-4.6v12.6L470.5,1475.5L470.5,1475.5z"/>
		<path class="st4" d="M493.4,1475.5v1.4h-10.9v-15.4H493v1.4h-8.9v5.5h8v1.4h-8v5.7H493.4z"/>
		<path class="st4" d="M505.5,1476c-1.2-0.7-2.2-1.6-2.9-2.8c-0.7-1.2-1-2.5-1-4s0.3-2.8,1-4s1.7-2.1,2.9-2.8c1.2-0.7,2.6-1,4.1-1
			c1.1,0,2.2,0.2,3.2,0.6c1,0.4,1.8,0.9,2.5,1.7l-1,1c-1.2-1.2-2.7-1.8-4.6-1.8c-1.2,0-2.3,0.3-3.3,0.8c-1,0.6-1.8,1.3-2.3,2.3
			c-0.6,1-0.8,2.1-0.8,3.3c0,1.2,0.3,2.3,0.8,3.3c0.6,1,1.3,1.7,2.3,2.3c1,0.6,2.1,0.8,3.3,0.8c1.8,0,3.4-0.6,4.6-1.8l1,1
			c-0.7,0.7-1.5,1.3-2.5,1.7s-2,0.6-3.2,0.6C508.1,1477,506.8,1476.7,505.5,1476z"/>
		<path class="st4" d="M518.8,1461.5h1.6v14h8.6v1.4h-10.3v-15.4H518.8z"/>
		<path class="st4" d="M534.1,1457.5h2.1l-3.6,2.7h-1.5L534.1,1457.5z M531.7,1461.5h1.6v15.4h-1.6V1461.5z"/>
		<path class="st4" d="M551.3,1461.5v15.4H550l-9.9-12.5v12.5h-1.6v-15.4h1.3l9.9,12.5v-12.5H551.3z"/>
		<path class="st4" d="M556.3,1461.5h1.6v15.4h-1.6V1461.5z"/>
		<path class="st4" d="M565.5,1476c-1.2-0.7-2.2-1.6-2.9-2.8c-0.7-1.2-1-2.5-1-4s0.3-2.8,1-4s1.7-2.1,2.9-2.8c1.2-0.7,2.6-1,4.1-1
			c1.1,0,2.2,0.2,3.2,0.6s1.8,0.9,2.5,1.7l-1,1c-1.2-1.2-2.7-1.8-4.6-1.8c-1.2,0-2.3,0.3-3.3,0.8c-1,0.6-1.8,1.3-2.3,2.3
			s-0.8,2.1-0.8,3.3c0,1.2,0.3,2.3,0.8,3.3c0.6,1,1.3,1.7,2.3,2.3c1,0.6,2.1,0.8,3.3,0.8c1.8,0,3.4-0.6,4.6-1.8l1,1
			c-0.7,0.7-1.5,1.3-2.5,1.7s-2,0.6-3.2,0.6C568.1,1477,566.7,1476.7,565.5,1476z"/>
		<path class="st4" d="M588,1472.8h-8.6l-1.8,4.1h-1.7l7-15.4h1.6l7,15.4h-1.7L588,1472.8z M587.4,1471.5l-3.7-8.3l-3.7,8.3H587.4z"
			/>
		<path class="st4" d="M595.1,1476.5c-1-0.4-1.9-0.9-2.4-1.5l0.6-1.3c0.6,0.6,1.3,1,2.2,1.4c0.9,0.3,1.9,0.5,2.9,0.5
			c1.4,0,2.4-0.3,3.1-0.8s1-1.2,1-2c0-0.6-0.2-1.1-0.6-1.5c-0.4-0.4-0.8-0.6-1.4-0.8c-0.5-0.2-1.3-0.4-2.3-0.6
			c-1.2-0.3-2.1-0.6-2.8-0.8c-0.7-0.3-1.3-0.7-1.8-1.2c-0.5-0.6-0.7-1.3-0.7-2.3c0-0.8,0.2-1.5,0.6-2.1c0.4-0.6,1-1.1,1.9-1.5
			c0.8-0.4,1.9-0.6,3.2-0.6c0.9,0,1.7,0.1,2.6,0.4s1.6,0.6,2.2,1l-0.5,1.3c-0.6-0.4-1.3-0.7-2.1-1c-0.7-0.2-1.5-0.3-2.2-0.3
			c-1.3,0-2.4,0.3-3,0.8c-0.7,0.5-1,1.2-1,2c0,0.6,0.2,1.1,0.6,1.5c0.4,0.4,0.8,0.7,1.4,0.9s1.3,0.4,2.3,0.6c1.1,0.3,2,0.6,2.7,0.8
			c0.7,0.3,1.3,0.7,1.8,1.2s0.7,1.3,0.7,2.2c0,0.8-0.2,1.5-0.6,2.1c-0.4,0.6-1.1,1.1-1.9,1.5s-1.9,0.6-3.2,0.6
			C597.2,1477,596.1,1476.9,595.1,1476.5z"/>
		<path class="st4" d="M613.4,1461.5h6.3c1.6,0,3.1,0.3,4.3,1s2.2,1.6,2.9,2.7s1,2.5,1,4s-0.3,2.8-1,4s-1.7,2.1-2.9,2.7
			c-1.2,0.7-2.7,1-4.3,1h-6.3V1461.5z M619.6,1475.5c1.3,0,2.5-0.3,3.5-0.8s1.8-1.3,2.4-2.2c0.6-0.9,0.8-2,0.8-3.3
			c0-1.2-0.3-2.3-0.8-3.3c-0.6-0.9-1.3-1.7-2.4-2.2c-1-0.5-2.2-0.8-3.5-0.8H615v12.6L619.6,1475.5L619.6,1475.5z"/>
		<path class="st4" d="M641,1472.8h-8.6l-1.8,4.1h-1.7l7-15.4h1.6l7,15.4h-1.7L641,1472.8z M640.4,1471.5l-3.7-8.3l-3.7,8.3H640.4z"
			/>
		<path class="st4" d="M654.4,1475.3c-1.1-1.1-1.7-2.8-1.7-5v-8.8h1.6v8.8c0,1.8,0.4,3.1,1.2,4s2,1.3,3.5,1.3s2.7-0.4,3.5-1.3
			s1.2-2.2,1.2-4v-8.8h1.6v8.8c0,2.2-0.6,3.9-1.7,5c-1.1,1.1-2.7,1.7-4.7,1.7C657.1,1477,655.6,1476.5,654.4,1475.3z"/>
		<path class="st4" d="M683.2,1461.5v15.4h-1.3l-9.9-12.5v12.5h-1.6v-15.4h1.3l9.9,12.5v-12.5H683.2z"/>
		<path class="st4" d="M688.2,1461.5h1.6v15.4h-1.6V1461.5z"/>
		<path class="st4" d="M697.4,1476c-1.2-0.7-2.2-1.6-2.9-2.8s-1-2.5-1-4s0.3-2.8,1-4s1.7-2.1,2.9-2.8c1.2-0.7,2.6-1,4.1-1
			c1.1,0,2.2,0.2,3.2,0.6s1.8,0.9,2.5,1.7l-1,1c-1.2-1.2-2.7-1.8-4.6-1.8c-1.2,0-2.3,0.3-3.3,0.8c-1,0.6-1.8,1.3-2.3,2.3
			c-0.6,1-0.8,2.1-0.8,3.3c0,1.2,0.3,2.3,0.8,3.3c0.6,1,1.3,1.7,2.3,2.3c1,0.6,2.1,0.8,3.3,0.8c1.8,0,3.4-0.6,4.6-1.8l1,1
			c-0.7,0.7-1.5,1.3-2.5,1.7c-1,0.4-2,0.6-3.2,0.6C700,1477,698.6,1476.7,697.4,1476z"/>
		<path class="st4" d="M719.9,1472.8h-8.6l-1.8,4.1h-1.7l7-15.4h1.6l7,15.4h-1.7L719.9,1472.8z M719.3,1471.5l-3.7-8.3l-3.7,8.3
			H719.3z"/>
		<path class="st4" d="M742,1461.5v15.4h-1.6v-12.3l-6,10.4h-0.8l-6.1-10.3v12.3H726v-15.4h1.3l6.7,11.4l6.6-11.4L742,1461.5
			L742,1461.5z"/>
		<path class="st4" d="M757.4,1462.9c1.1,0.9,1.7,2.2,1.7,3.9s-0.6,2.9-1.7,3.9c-1.1,0.9-2.7,1.4-4.6,1.4h-4.1v4.9h-1.6v-15.4h5.8
			C754.8,1461.5,756.3,1462,757.4,1462.9z M756.3,1469.6c0.8-0.7,1.2-1.6,1.2-2.8c0-1.2-0.4-2.2-1.2-2.9c-0.8-0.7-2-1-3.5-1h-4.1
			v7.7h4.1C754.3,1470.6,755.5,1470.3,756.3,1469.6z"/>
	</g>
</g>
</svg>
