<?xml version="1.0" encoding="utf-8"?>
<!-- Generator: Adobe Illustrator 23.1.1, SVG Export Plug-In . SVG Version: 6.00 Build 0)  -->
<svg version="1.1" id="Camada_1" xmlns="http://www.w3.org/2000/svg" xmlns:xlink="http://www.w3.org/1999/xlink" x="0px" y="0px"
	 viewBox="0 0 1232.9 557.6" style="enable-background:new 0 0 1232.9 557.6;" xml:space="preserve">
<style type="text/css">
	.st0{fill:#F0F5F5;}
	.st1{fill:#6CCBD8;}
	.st2{fill:#999999;}
	.st3{fill:#3F7593;}
	.st4{opacity:0.3;}
	.st5{fill:#FFFFFF;}
	.st6{enable-background:new    ;}
	.st7{fill:none;stroke:#999999;stroke-miterlimit:10;}
</style>
<rect x="337.7" y="-337.7" transform="matrix(-1.836970e-16 1 -1 -1.836970e-16 895.25 -337.65)" class="st0" width="557.6" height="1232.9"/>
<g>
	<path class="st1" d="M1113,348c0-2.5,0-109.3,0-111.9V125.6h-93v110.5c0,2.6,0,109.4,0,111.9H1113z"/>
	<path class="st2" d="M1160.1,348c0-2.5,0-109.3,0-111.9V125.6h-47v110.5c0,2.6,0,109.4,0,111.9H1160.1z"/>
	<path class="st3" d="M1019.7,348c0.3-2.5,0.4-109.3,0.4-111.9V125.6h-860v110.5c0,2.6,0.1,109.4,0.4,111.9H1019.7z"/>
</g>
<g class="st4">
	<g id="XMLID_873_">
		<path id="XMLID_881_" class="st5" d="M191.6,196.3l-22,24.2c-2.3,2.5-2,6.5,0.5,8.7l25.2,21.6l0.2-8.8L183,229.2
			c-2.3-2.4-2.3-6.2,0.1-8.5l14.4-14.1L191.6,196.3z"/>
		<path id="XMLID_880_" class="st5" d="M240.3,250.6c-1.2-7.5-6.9-16.9-12.4-22.2c-6.1-5.9-8.7-13-10.2-21.4l-1.9-10.8h-24.2
			L177.5,276h47.1c1.8,0,3.5-0.3,5.1-1C237.7,271.7,242,260.9,240.3,250.6z"/>
		<path id="XMLID_879_" class="st5" d="M195.7,311L195.7,311c-3.7,0-6.7-3-6.7-6.7v-33h13.3v33C202.4,308.1,199.4,311,195.7,311z"/>
		<path id="XMLID_878_" class="st5" d="M214.7,311L214.7,311c-3.7,0-6.7-3-6.7-6.7v-33h13.3v33C221.4,308.1,218.4,311,214.7,311z"/>
		<g id="XMLID_874_">
			<path id="XMLID_877_" class="st5" d="M221.4,176.7c0,8.2-6.6,14.8-14.8,14.8s-14.8-6.6-14.8-14.8s6.6-14.8,14.8-14.8
				C214.8,161.9,221.4,168.5,221.4,176.7z"/>
			<polygon id="XMLID_876_" class="st5" points="191.8,176.2 191.8,191.5 207.5,191.5 206.6,176.2 			"/>
		</g>
	</g>
	<g id="XMLID_859_">
		<path id="XMLID_871_" class="st5" d="M292.5,196.3l-22,24.2c-2.3,2.5-2,6.5,0.5,8.7l25.2,21.6l0.2-8.8l-12.5-12.8
			c-2.3-2.4-2.3-6.2,0.1-8.5l14.4-14.1L292.5,196.3z"/>
		<path id="XMLID_869_" class="st5" d="M341.3,250.6c-1.2-7.5-6.9-16.9-12.4-22.2c-6.1-5.9-8.7-13-10.2-21.4l-1.9-10.8h-24.2
			L278.5,276h47.1c1.8,0,3.5-0.3,5.1-1C338.6,271.7,342.9,260.9,341.3,250.6z"/>
		<path id="XMLID_868_" class="st5" d="M296.6,311L296.6,311c-3.7,0-6.7-3-6.7-6.7v-33h13.3v33C303.3,308.1,300.3,311,296.6,311z"/>
		<path id="XMLID_867_" class="st5" d="M315.7,311L315.7,311c-3.7,0-6.7-3-6.7-6.7v-33h13.3v33C322.3,308.1,319.3,311,315.7,311z"/>
		<g id="XMLID_862_">
			<path id="XMLID_866_" class="st5" d="M322.3,176.7c0,8.2-6.6,14.8-14.8,14.8s-14.8-6.6-14.8-14.8s6.6-14.8,14.8-14.8
				S322.3,168.5,322.3,176.7z"/>
			<polygon id="XMLID_864_" class="st5" points="292.7,176.2 292.7,191.5 308.4,191.5 307.5,176.2 			"/>
		</g>
	</g>
	<g id="XMLID_840_">
		<path id="XMLID_857_" class="st5" d="M393.5,196.3l-22,24.2c-2.3,2.5-2,6.5,0.5,8.7l25.2,21.6l0.2-8.8L385,229.2
			c-2.3-2.4-2.3-6.2,0.1-8.5l14.4-14.1L393.5,196.3z"/>
		<path id="XMLID_855_" class="st5" d="M442.2,250.6c-1.2-7.5-6.9-16.9-12.4-22.2c-6.1-5.9-8.7-13-10.2-21.4l-1.9-10.8h-24.2
			L379.4,276h47.1c1.8,0,3.5-0.3,5.1-1C439.6,271.7,443.9,260.9,442.2,250.6z"/>
		<path id="XMLID_853_" class="st5" d="M397.6,311L397.6,311c-3.7,0-6.7-3-6.7-6.7v-33h13.3v33C404.2,308.1,401.2,311,397.6,311z"/>
		<path id="XMLID_851_" class="st5" d="M416.6,311L416.6,311c-3.7,0-6.7-3-6.7-6.7v-33h13.3v33C423.3,308.1,420.3,311,416.6,311z"/>
		<g id="XMLID_842_">
			<path id="XMLID_846_" class="st5" d="M423.3,176.7c0,8.2-6.6,14.8-14.8,14.8c-8.2,0-14.8-6.6-14.8-14.8s6.6-14.8,14.8-14.8
				C416.6,161.9,423.3,168.5,423.3,176.7z"/>
			<polygon id="XMLID_844_" class="st5" points="393.7,176.2 393.7,191.5 409.4,191.5 408.5,176.2 			"/>
		</g>
	</g>
	<g id="XMLID_819_">
		<path id="XMLID_837_" class="st5" d="M494.4,196.3l-22,24.2c-2.3,2.5-2,6.5,0.5,8.7l25.2,21.6l0.2-8.8L486,229.2
			c-2.3-2.4-2.3-6.2,0.1-8.5l14.4-14.1L494.4,196.3z"/>
		<path id="XMLID_834_" class="st5" d="M543.2,250.6c-1.2-7.5-6.9-16.9-12.4-22.2c-6.1-5.9-8.7-13-10.2-21.4l-1.9-10.8h-24.2
			L480.4,276h47.1c1.8,0,3.5-0.3,5.1-1C540.5,271.7,544.8,260.9,543.2,250.6z"/>
		<path id="XMLID_832_" class="st5" d="M498.5,311L498.5,311c-3.7,0-6.7-3-6.7-6.7v-33h13.3v33C505.2,308.1,502.2,311,498.5,311z"/>
		<path id="XMLID_831_" class="st5" d="M517.5,311L517.5,311c-3.7,0-6.7-3-6.7-6.7v-33h13.3v33C524.2,308.1,521.2,311,517.5,311z"/>
		<g id="XMLID_821_">
			<path id="XMLID_827_" class="st5" d="M524.2,176.7c0,8.2-6.6,14.8-14.8,14.8s-14.8-6.6-14.8-14.8s6.6-14.8,14.8-14.8
				C517.6,161.9,524.2,168.5,524.2,176.7z"/>
			<polygon id="XMLID_824_" class="st5" points="494.6,176.2 494.6,191.5 510.3,191.5 509.4,176.2 			"/>
		</g>
	</g>
	<g id="XMLID_803_">
		<path id="XMLID_817_" class="st5" d="M595.4,196.3l-22,24.2c-2.3,2.5-2,6.5,0.5,8.7l25.2,21.6l0.2-8.8l-12.5-12.8
			c-2.3-2.4-2.3-6.2,0.1-8.5l14.4-14.1L595.4,196.3z"/>
		<path id="XMLID_816_" class="st5" d="M644.1,250.6c-1.2-7.5-6.9-16.9-12.4-22.2c-6.1-5.9-8.7-13-10.2-21.4l-1.9-10.8h-24.2
			L581.3,276h47.1c1.8,0,3.5-0.3,5.1-1C641.4,271.7,645.8,260.9,644.1,250.6z"/>
		<path id="XMLID_814_" class="st5" d="M599.4,311L599.4,311c-3.7,0-6.7-3-6.7-6.7v-33H606v33C606.1,308.1,603.1,311,599.4,311z"/>
		<path id="XMLID_812_" class="st5" d="M618.5,311L618.5,311c-3.7,0-6.7-3-6.7-6.7v-33h13.3v33C625.2,308.1,622.2,311,618.5,311z"/>
		<g id="XMLID_804_">
			<path id="XMLID_811_" class="st5" d="M625.2,176.7c0,8.2-6.6,14.8-14.8,14.8s-14.8-6.6-14.8-14.8s6.6-14.8,14.8-14.8
				S625.2,168.5,625.2,176.7z"/>
			<polygon id="XMLID_806_" class="st5" points="595.5,176.2 595.5,191.5 611.2,191.5 610.3,176.2 			"/>
		</g>
	</g>
	<g id="XMLID_778_">
		<path id="XMLID_801_" class="st5" d="M696.3,196.3l-22,24.2c-2.3,2.5-2,6.5,0.5,8.7l25.2,21.6l0.2-8.8l-12.5-12.8
			c-2.3-2.4-2.3-6.2,0.1-8.5l14.4-14.1L696.3,196.3z"/>
		<path id="XMLID_791_" class="st5" d="M745,250.6c-1.2-7.5-6.9-16.9-12.4-22.2c-6.1-5.9-8.7-13-10.2-21.4l-1.9-10.8h-24.2
			L682.2,276h47.1c1.8,0,3.5-0.3,5.1-1C742.4,271.7,746.7,260.9,745,250.6z"/>
		<path id="XMLID_790_" class="st5" d="M700.4,311L700.4,311c-3.7,0-6.7-3-6.7-6.7v-33H707v33C707.1,308.1,704.1,311,700.4,311z"/>
		<path id="XMLID_788_" class="st5" d="M719.4,311L719.4,311c-3.7,0-6.7-3-6.7-6.7v-33H726v33C726.1,308.1,723.1,311,719.4,311z"/>
		<g id="XMLID_779_">
			<path id="XMLID_786_" class="st5" d="M726.1,176.7c0,8.2-6.6,14.8-14.8,14.8s-14.8-6.6-14.8-14.8s6.6-14.8,14.8-14.8
				S726.1,168.5,726.1,176.7z"/>
			<polygon id="XMLID_784_" class="st5" points="696.5,176.2 696.5,191.5 712.2,191.5 711.3,176.2 			"/>
		</g>
	</g>
	<g id="XMLID_1_">
		<g>
			<g id="XMLID_291_">
				<path id="XMLID_298_" class="st5" d="M797.5,195.9l-22,24.2c-2.3,2.5-2,6.5,0.5,8.7l25.2,21.6l0.2-8.8l-12.5-12.8
					c-2.3-2.4-2.3-6.2,0.1-8.5l14.4-14.1L797.5,195.9z"/>
				<path id="XMLID_297_" class="st5" d="M846.2,250.3c-1.2-7.5-6.9-16.9-12.4-22.2c-6.1-5.9-8.7-13-10.2-21.4l-1.9-10.8h-24.2
					l-14.1,79.7h47.1c1.8,0,3.5-0.3,5.1-1C843.6,271.4,847.9,260.6,846.2,250.3z"/>
				<path id="XMLID_296_" class="st5" d="M801.6,310.7L801.6,310.7c-3.7,0-6.7-3-6.7-6.7v-33h13.3v33
					C808.3,307.7,805.3,310.7,801.6,310.7z"/>
				<path id="XMLID_295_" class="st5" d="M820.6,310.7L820.6,310.7c-3.7,0-6.7-3-6.7-6.7v-33h13.3v33
					C827.3,307.7,824.3,310.7,820.6,310.7z"/>
				<g id="XMLID_292_">
					<path id="XMLID_294_" class="st5" d="M827.3,176.4c0,8.2-6.6,14.8-14.8,14.8s-14.8-6.6-14.8-14.8s6.6-14.8,14.8-14.8
						C820.7,161.5,827.3,168.2,827.3,176.4z"/>
					<polygon id="XMLID_293_" class="st5" points="797.7,175.8 797.7,191.2 813.4,191.2 812.5,175.8 					"/>
				</g>
			</g>
			<g id="XMLID_283_">
				<path id="XMLID_290_" class="st5" d="M898.4,195.9l-22,24.2c-2.3,2.5-2,6.5,0.5,8.7l25.2,21.6l0.2-8.8L890,228.8
					c-2.3-2.4-2.3-6.2,0.1-8.5l14.4-14.1L898.4,195.9z"/>
				<path id="XMLID_289_" class="st5" d="M947.2,250.3c-1.2-7.5-6.9-16.9-12.4-22.2c-6.1-5.9-8.7-13-10.2-21.4l-1.9-10.8h-24.2
					l-14.1,79.7h47.1c1.8,0,3.5-0.3,5.1-1C944.5,271.4,948.9,260.6,947.2,250.3z"/>
				<path id="XMLID_288_" class="st5" d="M902.5,310.7L902.5,310.7c-3.7,0-6.7-3-6.7-6.7v-33h13.3v33
					C909.2,307.7,906.2,310.7,902.5,310.7z"/>
				<path id="XMLID_287_" class="st5" d="M921.6,310.7L921.6,310.7c-3.7,0-6.7-3-6.7-6.7v-33h13.3v33
					C928.3,307.7,925.3,310.7,921.6,310.7z"/>
				<g id="XMLID_284_">
					<path id="XMLID_286_" class="st5" d="M928.3,176.4c0,8.2-6.6,14.8-14.8,14.8s-14.8-6.6-14.8-14.8s6.6-14.8,14.8-14.8
						C921.6,161.5,928.3,168.2,928.3,176.4z"/>
					<polygon id="XMLID_285_" class="st5" points="898.6,175.8 898.6,191.2 914.3,191.2 913.4,175.8 					"/>
				</g>
			</g>
			<g id="XMLID_275_">
				<path id="XMLID_282_" class="st5" d="M999.4,195.9l-22,24.2c-2.3,2.5-2,6.5,0.5,8.7l25.2,21.6l0.2-8.8L991,228.8
					c-2.3-2.4-2.3-6.2,0.1-8.5l14.4-14.1L999.4,195.9z"/>
				<path id="XMLID_281_" class="st5" d="M1048.1,250.3c-1.2-7.5-6.9-16.9-12.4-22.2c-6.1-5.9-8.7-13-10.2-21.4l-1.9-10.8h-24.2
					l-14.1,79.7h47.1c1.8,0,3.5-0.3,5.1-1C1045.5,271.4,1049.8,260.6,1048.1,250.3z"/>
				<path id="XMLID_280_" class="st5" d="M1003.5,310.7L1003.5,310.7c-3.7,0-6.7-3-6.7-6.7v-33h13.3v33
					C1010.2,307.7,1007.2,310.7,1003.5,310.7z"/>
				<path id="XMLID_279_" class="st5" d="M1022.5,310.7L1022.5,310.7c-3.7,0-6.7-3-6.7-6.7v-33h13.3v33
					C1029.2,307.7,1026.2,310.7,1022.5,310.7z"/>
				<g id="XMLID_276_">
					<path id="XMLID_278_" class="st5" d="M1029.2,176.4c0,8.2-6.6,14.8-14.8,14.8s-14.8-6.6-14.8-14.8s6.6-14.8,14.8-14.8
						S1029.2,168.2,1029.2,176.4z"/>
					<polygon id="XMLID_277_" class="st5" points="999.6,175.8 999.6,191.2 1015.3,191.2 1014.4,175.8 					"/>
				</g>
			</g>
			<g id="XMLID_267_">
				<path id="XMLID_274_" class="st5" d="M1100.3,195.9l-22,24.2c-2.3,2.5-2,6.5,0.5,8.7l25.2,21.6l0.2-8.8l-12.5-12.8
					c-2.3-2.4-2.3-6.2,0.1-8.5l14.4-14.1L1100.3,195.9z"/>
				<path id="XMLID_273_" class="st5" d="M1149.1,250.3c-1.2-7.5-6.9-16.9-12.4-22.2c-6.1-5.9-8.7-13-10.2-21.4l-1.9-10.8h-24.2
					l-14.1,79.7h47.1c1.8,0,3.5-0.3,5.1-1C1146.4,271.4,1150.7,260.6,1149.1,250.3z"/>
				<path id="XMLID_272_" class="st5" d="M1104.4,310.7L1104.4,310.7c-3.7,0-6.7-3-6.7-6.7v-33h13.3v33
					C1111.1,307.7,1108.1,310.7,1104.4,310.7z"/>
				<path id="XMLID_271_" class="st5" d="M1123.5,310.7L1123.5,310.7c-3.7,0-6.7-3-6.7-6.7v-33h13.3v33
					C1130.1,307.7,1127.2,310.7,1123.5,310.7z"/>
				<g id="XMLID_268_">
					<path id="XMLID_270_" class="st5" d="M1130.1,176.4c0,8.2-6.6,14.8-14.8,14.8s-14.8-6.6-14.8-14.8s6.6-14.8,14.8-14.8
						S1130.1,168.2,1130.1,176.4z"/>
					<polygon id="XMLID_269_" class="st5" points="1100.5,175.8 1100.5,191.2 1116.2,191.2 1115.3,175.8 					"/>
				</g>
			</g>
		</g>
	</g>
</g>
<g id="XMLID_2_">
	<g>
		<path id="XMLID_98_" class="st3" d="M81.6,195.9l-22,24.2c-2.3,2.5-2,6.5,0.5,8.7l25.2,21.6l0.2-8.8L73,228.8
			c-2.3-2.4-2.3-6.2,0.1-8.5l14.4-14.1L81.6,195.9z"/>
		<path id="XMLID_97_" class="st3" d="M130.3,250.3c-1.2-7.5-6.9-16.9-12.4-22.2c-6.1-5.9-8.7-13-10.2-21.4l-1.9-10.8H81.6
			l-14.1,79.7h47.1c1.8,0,3.5-0.3,5.1-1C127.7,271.4,132,260.6,130.3,250.3z"/>
		<path id="XMLID_96_" class="st3" d="M85.7,310.7L85.7,310.7c-3.7,0-6.7-3-6.7-6.7v-33h13.3v33C92.4,307.7,89.4,310.7,85.7,310.7z"
			/>
		<path id="XMLID_95_" class="st3" d="M104.7,310.7L104.7,310.7c-3.7,0-6.7-3-6.7-6.7v-33h13.3v33
			C111.4,307.7,108.4,310.7,104.7,310.7z"/>
		<g id="XMLID_92_">
			<path id="XMLID_94_" class="st3" d="M111.4,176.4c0,8.2-6.6,14.8-14.8,14.8s-14.8-6.6-14.8-14.8s6.6-14.8,14.8-14.8
				C104.8,161.5,111.4,168.2,111.4,176.4z"/>
			<polygon id="XMLID_93_" class="st3" points="81.8,175.8 81.8,191.2 97.5,191.2 96.6,175.8 			"/>
		</g>
	</g>
</g>
<g class="st6">
	<path class="st1" d="M407.1,419.9c1.7,1.8,2.6,4.4,2.6,7.7c0,2.4-0.5,4.5-1.4,6.2s-2.3,3.1-3.9,4c-1.7,0.9-3.7,1.4-5.9,1.4
		c-1.2,0-2.3-0.1-3.4-0.4s-2-0.6-2.8-1.1l2.2-4.3c1,0.7,2.3,1.1,3.9,1.1c1.5,0,2.7-0.4,3.7-1.3c0.9-0.8,1.5-2,1.6-3.6
		c-1.2,1-2.8,1.5-4.7,1.5c-1.3,0-2.5-0.3-3.6-0.8c-1.1-0.6-2-1.3-2.6-2.4c-0.7-1-1-2.2-1-3.5c0-1.4,0.4-2.7,1.1-3.8
		c0.7-1.1,1.7-1.9,3-2.5s2.6-0.9,4.2-0.9C403,417.2,405.4,418.1,407.1,419.9z M402.5,426.1c0.5-0.5,0.8-1.1,0.8-1.9
		s-0.3-1.4-0.8-1.9s-1.3-0.7-2.2-0.7c-0.8,0-1.5,0.2-2.1,0.7c-0.5,0.5-0.8,1.1-0.8,2c0,0.8,0.3,1.4,0.8,1.9s1.2,0.7,2.1,0.7
		C401.2,426.8,401.9,426.6,402.5,426.1z"/>
	<path class="st1" d="M417.1,433.2c0.6,0.6,1,1.4,1,2.4c0,0.5-0.1,0.9-0.2,1.4s-0.4,1.2-0.8,2.1l-1.9,4.4h-3.6l1.4-4.9
		c-0.6-0.3-1-0.6-1.3-1.2c-0.3-0.5-0.5-1.1-0.5-1.8c0-1,0.3-1.8,1-2.4c0.6-0.6,1.5-0.9,2.5-0.9C415.6,432.2,416.4,432.5,417.1,433.2
		z"/>
	<path class="st1" d="M435.1,428.2c0.9,1.1,1.4,2.4,1.4,3.9c0,1.2-0.3,2.4-1,3.5s-1.7,1.9-3.1,2.6s-3.1,1-5.1,1
		c-1.5,0-3-0.2-4.4-0.5c-1.5-0.4-2.7-0.9-3.8-1.5l2.2-4.5c0.8,0.6,1.8,1,2.8,1.3s2.1,0.5,3.1,0.5s1.8-0.2,2.4-0.6s0.9-0.9,0.9-1.6
		c0-1.4-1.1-2-3.2-2h-2.5v-3.8l3.8-4.1h-8.3v-4.6h15.3v3.7l-4.4,4.7C432.8,426.4,434.1,427.2,435.1,428.2z"/>
	<path class="st1" d="M439.2,427.5c-1-1-1.5-2.5-1.5-4.3c0-1.2,0.2-2.2,0.7-3.1s1.1-1.6,1.9-2c0.8-0.5,1.7-0.7,2.8-0.7
		c1.6,0,2.9,0.5,3.9,1.6s1.5,2.5,1.5,4.3s-0.5,3.2-1.5,4.3s-2.3,1.6-3.9,1.6C441.5,429.1,440.2,428.5,439.2,427.5z M455.6,417.6h4.3
		l-14.4,21.1h-4.3L455.6,417.6z M444.4,425.5c0.3-0.5,0.5-1.2,0.5-2.3c0-1-0.2-1.8-0.5-2.3s-0.8-0.7-1.3-0.7s-0.9,0.2-1.3,0.7
		c-0.3,0.5-0.5,1.2-0.5,2.2s0.2,1.8,0.5,2.2c0.3,0.5,0.8,0.7,1.3,0.7C443.7,426.2,444.1,426,444.4,425.5z M454.1,437.5
		c-1-1-1.5-2.5-1.5-4.3s0.5-3.2,1.5-4.3c1-1.1,2.3-1.6,3.9-1.6s2.9,0.5,3.9,1.6s1.5,2.5,1.5,4.3s-0.5,3.2-1.5,4.3s-2.3,1.6-3.9,1.6
		C456.4,439,455.1,438.5,454.1,437.5z M459.3,435.4c0.3-0.5,0.5-1.2,0.5-2.3c0-1-0.2-1.8-0.5-2.3s-0.8-0.7-1.3-0.7s-1,0.2-1.3,0.7
		s-0.5,1.2-0.5,2.3c0,1,0.2,1.8,0.5,2.3s0.8,0.7,1.3,0.7S459,435.9,459.3,435.4z"/>
	<path class="st1" d="M489.1,434.6h-8.9l-1.7,4.1h-6.1l9.3-21.1h5.9l9.3,21.1h-6.2L489.1,434.6z M487.4,430.2l-2.7-6.8l-2.7,6.8
		H487.4z"/>
	<path class="st1" d="M513.3,418.6c1.4,0.6,2.5,1.5,3.3,2.7s1.1,2.6,1.1,4.1c0,1.6-0.4,3-1.1,4.1c-0.8,1.2-1.8,2.1-3.3,2.7
		c-1.4,0.6-3.1,0.9-5,0.9h-3.7v5.5h-6v-21.1h9.6C510.2,417.6,511.9,418,513.3,418.6z M510.7,427.7c0.6-0.5,0.9-1.3,0.9-2.3
		s-0.3-1.7-0.9-2.3c-0.6-0.5-1.5-0.8-2.8-0.8h-3.3v6.2h3.3C509.2,428.5,510.1,428.3,510.7,427.7z"/>
	<path class="st1" d="M529.8,433.1h-3.3v5.6h-6v-21.1h9.6c1.9,0,3.6,0.3,5,0.9s2.5,1.5,3.3,2.7s1.1,2.6,1.1,4.1s-0.4,2.9-1.1,4
		c-0.7,1.1-1.7,2-3.1,2.7l4.6,6.6h-6.4L529.8,433.1z M532.6,423.2c-0.6-0.5-1.5-0.8-2.8-0.8h-3.3v6.2h3.3c1.2,0,2.1-0.3,2.8-0.8
		c0.6-0.5,0.9-1.3,0.9-2.3S533.3,423.7,532.6,423.2z"/>
	<path class="st1" d="M559.8,434.1v4.6h-16.9v-21.1h16.5v4.6h-10.6v3.6h9.4v4.5h-9.4v3.9h11V434.1z"/>
	<path class="st1" d="M565.6,438.5c-1.6-0.4-2.9-1-3.9-1.7l2-4.4c0.9,0.6,2,1.1,3.3,1.5c1.2,0.4,2.5,0.6,3.7,0.6
		c2.3,0,3.4-0.6,3.4-1.7c0-0.6-0.3-1-1-1.3s-1.7-0.6-3.1-0.9c-1.6-0.3-2.9-0.7-4-1.1s-2-1-2.7-1.9c-0.8-0.9-1.1-2-1.1-3.5
		c0-1.3,0.4-2.4,1.1-3.5c0.7-1,1.8-1.9,3.1-2.5c1.4-0.6,3.1-0.9,5.1-0.9c1.4,0,2.8,0.2,4.1,0.5s2.5,0.8,3.6,1.4l-1.8,4.4
		c-2-1.1-4-1.6-5.8-1.6c-1.2,0-2,0.2-2.6,0.5c-0.5,0.4-0.8,0.8-0.8,1.4s0.3,1,1,1.3s1.7,0.6,3.1,0.9c1.6,0.3,2.9,0.7,4,1.1
		s2,1,2.7,1.9c0.8,0.9,1.2,2,1.2,3.5c0,1.3-0.4,2.4-1.1,3.4c-0.7,1-1.8,1.8-3.2,2.5c-1.4,0.6-3.1,0.9-5.1,0.9
		C568.9,439.2,567.2,439,565.6,438.5z"/>
	<path class="st1" d="M599.6,434.1v4.6h-16.9v-21.1h16.5v4.6h-10.6v3.6h9.4v4.5h-9.4v3.9h11V434.1z"/>
	<path class="st1" d="M623,417.6v21.1h-4.9l-9.3-11.2v11.2H603v-21.1h4.9l9.3,11.2v-11.2H623z"/>
	<path class="st1" d="M631.7,422.4h-6.5v-4.7h18.9v4.7h-6.5v16.4h-6L631.7,422.4L631.7,422.4z"/>
	<path class="st1" d="M659.4,434.6h-8.9l-1.7,4.1h-6.1l9.3-21.1h5.9l9.3,21.1H661L659.4,434.6z M657.7,430.2l-2.7-6.8l-2.7,6.8
		H657.7z"/>
	<path class="st1" d="M678.2,433.1h-3.3v5.6h-6v-21.1h9.6c1.9,0,3.6,0.3,5,0.9s2.5,1.5,3.3,2.7s1.1,2.6,1.1,4.1s-0.4,2.9-1.1,4
		s-1.7,2-3.1,2.7l4.6,6.6H682L678.2,433.1z M681,423.2c-0.6-0.5-1.5-0.8-2.8-0.8h-3.3v6.2h3.3c1.2,0,2.2-0.3,2.8-0.8
		s0.9-1.3,0.9-2.3S681.7,423.7,681,423.2z"/>
	<path class="st1" d="M705.4,434.6h-8.9l-1.7,4.1h-6.1l9.3-21.1h5.9l9.3,21.1H707L705.4,434.6z M703.7,430.2l-2.7-6.8l-2.7,6.8
		H703.7z"/>
	<path class="st1" d="M734,438.7l-0.1-11.2l-5.4,9.1h-2.7l-5.4-8.8v10.9H715v-21.1h4.9l7.4,12.2l7.2-12.2h4.9l0.1,21.1H734z"/>
	<path class="st1" d="M752.5,417.6h10c2.3,0,4.4,0.4,6.1,1.3c1.8,0.9,3.2,2.1,4.2,3.7s1.5,3.4,1.5,5.6s-0.5,4-1.5,5.6
		s-2.4,2.8-4.2,3.7c-1.8,0.9-3.8,1.3-6.1,1.3h-10V417.6z M762.2,434c1.8,0,3.3-0.5,4.4-1.5s1.6-2.4,1.6-4.2s-0.5-3.2-1.6-4.2
		s-2.5-1.5-4.4-1.5h-3.8V434H762.2z"/>
	<path class="st1" d="M782,437.8c-1.8-0.9-3.2-2.2-4.2-3.9s-1.5-3.5-1.5-5.6s0.5-4,1.5-5.6s2.4-3,4.2-3.9s3.8-1.4,6-1.4
		s4.2,0.5,6,1.4s3.2,2.3,4.2,3.9c1,1.7,1.5,3.5,1.5,5.6s-0.5,4-1.5,5.6c-1,1.7-2.4,3-4.2,3.9s-3.8,1.4-6,1.4S783.8,438.7,782,437.8z
		 M790.9,433.5c0.9-0.5,1.5-1.2,2.1-2.1c0.5-0.9,0.8-2,0.8-3.1s-0.3-2.2-0.8-3.2c-0.5-0.9-1.2-1.6-2.1-2.1c-0.9-0.5-1.8-0.8-2.9-0.8
		c-1.1,0-2,0.3-2.9,0.8s-1.5,1.2-2,2.1s-0.8,2-0.8,3.2s0.3,2.2,0.8,3.1s1.2,1.6,2,2.1c0.9,0.5,1.8,0.8,2.9,0.8
		C789.1,434.2,790.1,434,790.9,433.5z"/>
	<path class="st1" d="M819.8,434.1v4.6h-16.9v-21.1h16.5v4.6h-10.6v3.6h9.4v4.5h-9.4v3.9h11V434.1z"/>
	<path class="st1" d="M843.2,417.6v21.1h-4.9l-9.3-11.2v11.2h-5.8v-21.1h4.9l9.3,11.2v-11.2H843.2z"/>
	<path class="st1" d="M852,437.8c-1.8-0.9-3.1-2.2-4.1-3.9s-1.5-3.6-1.5-5.7s0.5-4,1.5-5.7s2.4-3,4.1-3.9s3.7-1.4,6-1.4
		c1.9,0,3.7,0.3,5.2,1s2.8,1.7,3.9,3l-3.8,3.4c-1.4-1.6-3-2.5-5-2.5c-1.1,0-2.2,0.3-3.1,0.8c-0.9,0.5-1.6,1.2-2.1,2.1
		s-0.7,2-0.7,3.2s0.2,2.2,0.7,3.1s1.2,1.6,2.1,2.1c0.9,0.5,1.9,0.8,3.1,0.8c1.9,0,3.6-0.8,5-2.5l3.8,3.4c-1,1.3-2.3,2.3-3.9,3
		c-1.5,0.7-3.3,1-5.2,1C855.8,439.2,853.8,438.7,852,437.8z M854.6,445.7c-0.5-0.1-1-0.3-1.3-0.5l0.8-2.3c0.6,0.3,1.2,0.4,1.9,0.4
		c1,0,1.5-0.3,1.5-0.8s-0.5-0.8-1.4-0.8H855l0.8-3.3h3l-0.4,1.8c0.9,0.1,1.5,0.4,2,0.8s0.6,1,0.6,1.6c0,1-0.4,1.7-1.3,2.3
		s-2,0.8-3.5,0.8C855.6,445.9,855.1,445.8,854.6,445.7z"/>
	<path class="st1" d="M883.5,434.6h-8.9l-1.7,4.1h-6.1l9.3-21.1h5.9l9.3,21.1h-6.2L883.5,434.6z M881.7,430.2l-2.7-6.8l-2.7,6.8
		H881.7z"/>
	<path class="st1" d="M915.9,427.7h5.3v8.7c-1.2,0.9-2.6,1.5-4.2,2s-3.1,0.7-4.7,0.7c-2.2,0-4.2-0.5-6-1.4s-3.2-2.2-4.2-3.9
		c-1-1.7-1.5-3.6-1.5-5.7s0.5-4,1.5-5.7s2.4-3,4.2-3.9s3.8-1.4,6.1-1.4c2,0,3.7,0.3,5.3,1s2.9,1.6,3.9,2.9l-3.8,3.4
		c-1.4-1.6-3.1-2.4-5.1-2.4c-1.8,0-3.3,0.5-4.4,1.6c-1.1,1.1-1.7,2.6-1.7,4.4c0,1.2,0.3,2.2,0.8,3.1s1.2,1.6,2.1,2.1
		s1.9,0.8,3.1,0.8c1.1,0,2.2-0.2,3.2-0.7v-5.6H915.9z"/>
	<path class="st1" d="M934.2,433.1H931v5.6h-6v-21.1h9.6c1.9,0,3.6,0.3,5,0.9s2.5,1.5,3.3,2.7s1.1,2.6,1.1,4.1s-0.4,2.9-1.1,4
		c-0.7,1.1-1.7,2-3.1,2.7l4.6,6.6H938L934.2,433.1z M937.1,423.2c-0.6-0.5-1.5-0.8-2.8-0.8H931v6.2h3.3c1.2,0,2.1-0.3,2.8-0.8
		c0.6-0.5,0.9-1.3,0.9-2.3S937.7,423.7,937.1,423.2z"/>
	<path class="st1" d="M961.5,434.6h-8.9l-1.7,4.1h-6.1l9.3-21.1h5.9l9.3,21.1h-6.2L961.5,434.6z M959.7,430.2l-2.7-6.8l-2.7,6.8
		H959.7z"/>
	<path class="st1" d="M991.2,417.6l-9,21.1h-5.9l-9-21.1h6.4l5.7,13.7l5.8-13.7H991.2z"/>
	<path class="st1" d="M1009.4,434.1v4.6h-16.9v-21.1h16.5v4.6h-10.6v3.6h9.4v4.5h-9.4v3.9h11V434.1z"/>
</g>
<g class="st6">
	<path class="st2" d="M187.2,491.1h-3.1v4h-5.8v-4h-11.2v-3.9l9.5-13.2h6.2l-8.6,12.3h4.3v-3.6h5.6v3.6h3.1V491.1z"/>
	<path class="st2" d="M194.7,489.6c0.6,0.6,1,1.4,1,2.4c0,0.5-0.1,0.9-0.2,1.4s-0.4,1.2-0.8,2.1l-1.9,4.4h-3.6l1.4-4.9
		c-0.6-0.3-1-0.6-1.3-1.2c-0.3-0.5-0.5-1.1-0.5-1.8c0-1,0.3-1.8,1-2.4c0.6-0.6,1.5-0.9,2.5-0.9C193.3,488.6,194.1,488.9,194.7,489.6
		z"/>
	<path class="st2" d="M214.2,474v3.7l-7.4,17.4h-6.5l7.1-16.4h-5.5v3.3h-5.1v-8H214.2z"/>
	<path class="st2" d="M217.5,483.9c-1-1-1.5-2.5-1.5-4.3c0-1.2,0.2-2.2,0.7-3.1s1.1-1.6,1.9-2c0.8-0.5,1.7-0.7,2.8-0.7
		c1.6,0,2.9,0.5,3.9,1.6s1.5,2.5,1.5,4.3s-0.5,3.2-1.5,4.3s-2.3,1.6-3.9,1.6C219.8,485.5,218.5,484.9,217.5,483.9z M233.8,474h4.3
		l-14.4,21.1h-4.3L233.8,474z M222.7,481.9c0.3-0.5,0.5-1.2,0.5-2.3c0-1-0.2-1.8-0.5-2.3s-0.8-0.7-1.3-0.7s-0.9,0.2-1.3,0.7
		c-0.3,0.5-0.5,1.2-0.5,2.2s0.2,1.8,0.5,2.2c0.3,0.5,0.8,0.7,1.3,0.7C221.9,482.6,222.3,482.4,222.7,481.9z M232.4,493.8
		c-1-1-1.5-2.5-1.5-4.3s0.5-3.2,1.5-4.3c1-1.1,2.3-1.6,3.9-1.6c1.6,0,2.9,0.5,3.9,1.6s1.5,2.5,1.5,4.3s-0.5,3.2-1.5,4.3
		s-2.3,1.6-3.9,1.6C234.6,495.4,233.3,494.9,232.4,493.8z M237.6,491.8c0.3-0.5,0.5-1.2,0.5-2.3c0-1-0.2-1.8-0.5-2.3
		s-0.8-0.7-1.3-0.7s-1,0.2-1.3,0.7s-0.5,1.2-0.5,2.3c0,1,0.2,1.8,0.5,2.3s0.8,0.7,1.3,0.7S237.2,492.3,237.6,491.8z"/>
	<path class="st2" d="M259.2,478.7v4.6h9.3v4.6h-9.3v7.2h-6V474h16.5v4.6h-10.5V478.7z"/>
	<path class="st2" d="M277,494.2c-1.8-0.9-3.2-2.2-4.2-3.9s-1.5-3.5-1.5-5.6s0.5-4,1.5-5.6s2.4-3,4.2-3.9c1.8-0.9,3.8-1.4,6-1.4
		s4.2,0.5,6,1.4s3.2,2.3,4.2,3.9s1.5,3.5,1.5,5.6s-0.5,4-1.5,5.6s-2.4,3-4.2,3.9c-1.8,0.9-3.8,1.4-6,1.4S278.8,495.1,277,494.2z
		 M285.9,489.9c0.9-0.5,1.5-1.2,2-2.1s0.8-2,0.8-3.1s-0.3-2.2-0.8-3.2c-0.5-0.9-1.2-1.6-2-2.1c-0.9-0.5-1.8-0.8-2.9-0.8
		s-2,0.3-2.9,0.8s-1.5,1.2-2,2.1s-0.8,2-0.8,3.2s0.3,2.2,0.8,3.1s1.2,1.6,2,2.1c0.9,0.5,1.8,0.8,2.9,0.8
		C284.1,490.6,285.1,490.4,285.9,489.9z"/>
	<path class="st2" d="M307.1,489.5h-3.3v5.6h-6V474h9.6c1.9,0,3.6,0.3,5,0.9s2.5,1.5,3.3,2.7s1.1,2.6,1.1,4.1s-0.4,2.9-1.1,4
		s-1.7,2-3.1,2.7l4.6,6.6h-6.4L307.1,489.5z M310,479.6c-0.6-0.5-1.5-0.8-2.8-0.8h-3.3v6.2h3.3c1.2,0,2.1-0.3,2.8-0.8
		c0.6-0.5,0.9-1.3,0.9-2.3S310.6,480.1,310,479.6z"/>
	<path class="st2" d="M334.3,491h-8.9l-1.7,4.1h-6.1L327,474h5.9l9.3,21.1H336L334.3,491z M332.6,486.6l-2.7-6.8l-2.7,6.8H332.6z"/>
	<path class="st2" d="M362.9,495.1l-0.1-11.2l-5.4,9.1h-2.7l-5.4-8.8v10.9h-5.5V474h4.9l7.4,12.2l7.2-12.2h4.9l0.1,21.1H362.9z"/>
	<path class="st2" d="M386,494.2c-1.8-0.9-3.1-2.2-4.1-3.9c-1-1.7-1.5-3.6-1.5-5.7s0.5-4,1.5-5.7s2.4-3,4.1-3.9
		c1.8-0.9,3.7-1.4,6-1.4c1.9,0,3.7,0.3,5.2,1s2.8,1.7,3.9,3l-3.8,3.4c-1.4-1.6-3-2.5-5-2.5c-1.1,0-2.2,0.3-3.1,0.8s-1.6,1.2-2.1,2.1
		s-0.7,2-0.7,3.2s0.2,2.2,0.7,3.1s1.2,1.6,2.1,2.1s1.9,0.8,3.1,0.8c1.9,0,3.6-0.8,5-2.5l3.8,3.4c-1,1.3-2.3,2.3-3.9,3
		c-1.5,0.7-3.3,1-5.2,1C389.7,495.6,387.7,495.1,386,494.2z"/>
	<path class="st2" d="M407.8,494.2c-1.8-0.9-3.2-2.2-4.2-3.9s-1.5-3.5-1.5-5.6s0.5-4,1.5-5.6s2.4-3,4.2-3.9c1.8-0.9,3.8-1.4,6-1.4
		s4.2,0.5,6,1.4s3.2,2.3,4.2,3.9s1.5,3.5,1.5,5.6s-0.5,4-1.5,5.6s-2.4,3-4.2,3.9c-1.8,0.9-3.8,1.4-6,1.4S409.6,495.1,407.8,494.2z
		 M416.7,489.9c0.9-0.5,1.5-1.2,2-2.1s0.8-2,0.8-3.1s-0.3-2.2-0.8-3.2c-0.5-0.9-1.2-1.6-2-2.1c-0.9-0.5-1.8-0.8-2.9-0.8
		s-2,0.3-2.9,0.8s-1.5,1.2-2,2.1s-0.8,2-0.8,3.2s0.3,2.2,0.8,3.1s1.2,1.6,2,2.1c0.9,0.5,1.8,0.8,2.9,0.8
		C414.9,490.6,415.9,490.4,416.7,489.9z"/>
	<path class="st2" d="M448.8,474v21.1h-4.9l-9.3-11.2v11.2h-5.8V474h4.9l9.3,11.2V474H448.8z"/>
	<path class="st2" d="M455.5,494.9c-1.6-0.4-2.9-1-3.9-1.7l2-4.4c0.9,0.6,2,1.1,3.3,1.5c1.2,0.4,2.5,0.6,3.7,0.6
		c2.3,0,3.4-0.6,3.4-1.7c0-0.6-0.3-1-1-1.3s-1.7-0.6-3.1-0.9c-1.6-0.3-2.9-0.7-4-1.1s-2-1-2.7-1.9c-0.8-0.9-1.1-2-1.1-3.5
		c0-1.3,0.4-2.4,1.1-3.5c0.7-1,1.8-1.9,3.1-2.5c1.4-0.6,3.1-0.9,5.1-0.9c1.4,0,2.8,0.2,4.1,0.5c1.3,0.3,2.5,0.8,3.6,1.4l-1.8,4.4
		c-2-1.1-4-1.6-5.8-1.6c-1.2,0-2,0.2-2.6,0.5c-0.5,0.4-0.8,0.8-0.8,1.4s0.3,1,1,1.3s1.7,0.6,3.1,0.9c1.6,0.3,2.9,0.7,4,1.1
		s2,1,2.7,1.9c0.8,0.9,1.2,2,1.2,3.5c0,1.3-0.4,2.4-1.1,3.4s-1.8,1.8-3.2,2.5c-1.4,0.6-3.1,0.9-5.1,0.9
		C458.7,495.6,457.1,495.4,455.5,494.9z"/>
	<path class="st2" d="M472.5,474h6v21.1h-6V474z"/>
	<path class="st2" d="M482.7,474h10c2.3,0,4.4,0.4,6.1,1.3s3.2,2.1,4.2,3.7s1.5,3.4,1.5,5.6s-0.5,4-1.5,5.6s-2.4,2.8-4.2,3.7
		s-3.8,1.3-6.1,1.3h-10V474z M492.5,490.4c1.8,0,3.3-0.5,4.4-1.5s1.6-2.4,1.6-4.2s-0.5-3.2-1.6-4.2s-2.5-1.5-4.4-1.5h-3.8v11.6h3.8
		V490.4z"/>
	<path class="st2" d="M524.6,490.5v4.6h-16.9V474h16.5v4.6h-10.6v3.6h9.4v4.5h-9.4v3.9h11V490.5z"/>
	<path class="st2" d="M537.1,489.5h-3.3v5.6h-6V474h9.6c1.9,0,3.6,0.3,5,0.9s2.5,1.5,3.3,2.7s1.1,2.6,1.1,4.1s-0.4,2.9-1.1,4
		c-0.7,1.1-1.7,2-3.1,2.7l4.6,6.6h-6.4L537.1,489.5z M539.9,479.6c-0.6-0.5-1.5-0.8-2.8-0.8h-3.3v6.2h3.3c1.2,0,2.1-0.3,2.8-0.8
		c0.6-0.5,0.9-1.3,0.9-2.3S540.6,480.1,539.9,479.6z"/>
	<path class="st2" d="M564.3,491h-8.9l-1.7,4.1h-6.1L557,474h5.9l9.3,21.1H566L564.3,491z M562.6,486.6l-2.7-6.8l-2.7,6.8H562.6z"/>
	<path class="st2" d="M573.9,474h10c2.3,0,4.4,0.4,6.1,1.3s3.2,2.1,4.2,3.7s1.5,3.4,1.5,5.6s-0.5,4-1.5,5.6s-2.4,2.8-4.2,3.7
		s-3.8,1.3-6.1,1.3h-10V474z M583.6,490.4c1.8,0,3.3-0.5,4.4-1.5s1.6-2.4,1.6-4.2s-0.5-3.2-1.6-4.2s-2.5-1.5-4.4-1.5h-3.8v11.6h3.8
		V490.4z"/>
	<path class="st2" d="M612.6,491h-8.9l-1.7,4.1h-6.1l9.3-21.1h5.9l9.3,21.1h-6.2L612.6,491z M610.9,486.6l-2.7-6.8l-2.7,6.8H610.9z"
		/>
	<path class="st2" d="M624.6,494.9c-1.6-0.4-2.9-1-3.9-1.7l2-4.4c0.9,0.6,2,1.1,3.3,1.5c1.2,0.4,2.5,0.6,3.7,0.6
		c2.3,0,3.4-0.6,3.4-1.7c0-0.6-0.3-1-1-1.3s-1.7-0.6-3.1-0.9c-1.6-0.3-2.9-0.7-4-1.1s-2-1-2.7-1.9c-0.8-0.9-1.1-2-1.1-3.5
		c0-1.3,0.4-2.4,1.1-3.5c0.7-1,1.8-1.9,3.2-2.5s3.1-0.9,5.1-0.9c1.4,0,2.8,0.2,4.1,0.5s2.5,0.8,3.6,1.4l-1.8,4.4
		c-2-1.1-4-1.6-5.8-1.6c-1.2,0-2,0.2-2.6,0.5s-0.8,0.8-0.8,1.4s0.3,1,1,1.3c0.6,0.3,1.7,0.6,3.1,0.9c1.6,0.3,2.9,0.7,4,1.1
		s2,1,2.7,1.9c0.8,0.9,1.2,2,1.2,3.5c0,1.3-0.4,2.4-1.1,3.4c-0.7,1-1.8,1.8-3.2,2.5c-1.4,0.6-3.1,0.9-5.1,0.9
		C627.9,495.6,626.2,495.4,624.6,494.9z"/>
	<path class="st2" d="M655,494.2c-1.8-0.9-3.1-2.2-4.1-3.9c-1-1.7-1.5-3.6-1.5-5.7s0.5-4,1.5-5.7s2.4-3,4.1-3.9
		c1.8-0.9,3.7-1.4,6-1.4c1.9,0,3.7,0.3,5.2,1s2.8,1.7,3.9,3l-3.8,3.4c-1.4-1.6-3-2.5-5-2.5c-1.1,0-2.2,0.3-3.1,0.8
		c-0.9,0.5-1.6,1.2-2.1,2.1s-0.7,2-0.7,3.2s0.2,2.2,0.7,3.1s1.2,1.6,2.1,2.1c0.9,0.5,1.9,0.8,3.1,0.8c1.9,0,3.6-0.8,5-2.5l3.8,3.4
		c-1,1.3-2.3,2.3-3.9,3c-1.5,0.7-3.3,1-5.2,1C658.8,495.6,656.8,495.1,655,494.2z"/>
	<path class="st2" d="M676.9,494.2c-1.8-0.9-3.2-2.2-4.2-3.9s-1.5-3.5-1.5-5.6s0.5-4,1.5-5.6s2.4-3,4.2-3.9s3.8-1.4,6-1.4
		s4.2,0.5,6,1.4s3.2,2.3,4.2,3.9s1.5,3.5,1.5,5.6s-0.5,4-1.5,5.6s-2.4,3-4.2,3.9s-3.8,1.4-6,1.4S678.6,495.1,676.9,494.2z
		 M685.8,489.9c0.9-0.5,1.5-1.2,2-2.1s0.8-2,0.8-3.1s-0.3-2.2-0.8-3.2c-0.5-0.9-1.2-1.6-2-2.1c-0.9-0.5-1.8-0.8-2.9-0.8
		s-2,0.3-2.9,0.8s-1.5,1.2-2,2.1s-0.8,2-0.8,3.2s0.3,2.2,0.8,3.1s1.2,1.6,2,2.1c0.9,0.5,1.8,0.8,2.9,0.8S684.9,490.4,685.8,489.9z"
		/>
	<path class="st2" d="M716.8,495.1l-0.1-11.2l-5.4,9.1h-2.7l-5.4-8.8v10.9h-5.5V474h4.9l7.4,12.2l7.2-12.2h4.9l0.1,21.1H716.8z"/>
	<path class="st2" d="M735.3,474h10c2.3,0,4.4,0.4,6.1,1.3c1.8,0.9,3.2,2.1,4.2,3.7s1.5,3.4,1.5,5.6s-0.5,4-1.5,5.6
		s-2.4,2.8-4.2,3.7c-1.8,0.9-3.8,1.3-6.1,1.3h-10V474z M745,490.4c1.8,0,3.3-0.5,4.4-1.5c1.1-1,1.6-2.4,1.6-4.2s-0.5-3.2-1.6-4.2
		s-2.5-1.5-4.4-1.5h-3.8v11.6h3.8V490.4z"/>
	<path class="st2" d="M764.8,494.2c-1.8-0.9-3.2-2.2-4.2-3.9s-1.5-3.5-1.5-5.6s0.5-4,1.5-5.6s2.4-3,4.2-3.9s3.8-1.4,6-1.4
		s4.2,0.5,6,1.4s3.2,2.3,4.2,3.9s1.5,3.5,1.5,5.6s-0.5,4-1.5,5.6s-2.4,3-4.2,3.9s-3.8,1.4-6,1.4S766.6,495.1,764.8,494.2z
		 M773.7,489.9c0.9-0.5,1.5-1.2,2-2.1s0.8-2,0.8-3.1s-0.3-2.2-0.8-3.2c-0.5-0.9-1.2-1.6-2-2.1c-0.9-0.5-1.8-0.8-2.9-0.8
		c-1.1,0-2,0.3-2.9,0.8s-1.5,1.2-2,2.1s-0.8,2-0.8,3.2s0.3,2.2,0.8,3.1s1.2,1.6,2,2.1c0.9,0.5,1.8,0.8,2.9,0.8
		C771.9,490.6,772.8,490.4,773.7,489.9z"/>
	<path class="st2" d="M802.6,490.5v4.6h-16.9V474h16.5v4.6h-10.6v3.6h9.4v4.5h-9.4v3.9h11V490.5z"/>
	<path class="st2" d="M826,474v21.1h-4.9l-9.3-11.2v11.2H806V474h4.9l9.3,11.2V474H826z"/>
	<path class="st2" d="M834.8,494.2c-1.8-0.9-3.1-2.2-4.1-3.9s-1.5-3.6-1.5-5.7s0.5-4,1.5-5.7s2.4-3,4.1-3.9c1.8-0.9,3.7-1.4,6-1.4
		c1.9,0,3.7,0.3,5.2,1s2.8,1.7,3.9,3L846,481c-1.4-1.6-3-2.5-5-2.5c-1.1,0-2.2,0.3-3.1,0.8c-0.9,0.5-1.6,1.2-2.1,2.1s-0.7,2-0.7,3.2
		s0.2,2.2,0.7,3.1s1.2,1.6,2.1,2.1c0.9,0.5,1.9,0.8,3.1,0.8c1.9,0,3.6-0.8,5-2.5l3.8,3.4c-1,1.3-2.3,2.3-3.9,3c-1.5,0.7-3.3,1-5.2,1
		C838.5,495.6,836.5,495.1,834.8,494.2z M837.3,502.1c-0.5-0.1-1-0.3-1.3-0.5l0.8-2.3c0.6,0.3,1.2,0.4,1.9,0.4c1,0,1.5-0.3,1.5-0.8
		s-0.5-0.8-1.4-0.8h-1.1l0.8-3.3h3l-0.4,1.8c0.9,0.1,1.5,0.4,2,0.8s0.6,1,0.6,1.6c0,1-0.4,1.7-1.3,2.3c-0.9,0.6-2,0.8-3.5,0.8
		C838.4,502.3,837.9,502.2,837.3,502.1z"/>
	<path class="st2" d="M866.2,491h-8.9l-1.7,4.1h-6.1l9.3-21.1h5.9l9.3,21.1h-6.2L866.2,491z M864.5,486.6l-2.7-6.8l-2.7,6.8H864.5z"
		/>
	<path class="st2" d="M889.1,494.2c-1.8-0.9-3.1-2.2-4.1-3.9s-1.5-3.6-1.5-5.7s0.5-4,1.5-5.7s2.4-3,4.1-3.9c1.8-0.9,3.7-1.4,6-1.4
		c1.9,0,3.7,0.3,5.2,1s2.8,1.7,3.9,3l-3.8,3.4c-1.4-1.6-3-2.5-5-2.5c-1.1,0-2.2,0.3-3.1,0.8c-0.9,0.5-1.6,1.2-2.1,2.1
		s-0.7,2-0.7,3.2s0.2,2.2,0.7,3.1s1.2,1.6,2.1,2.1c0.9,0.5,1.9,0.8,3.1,0.8c1.9,0,3.6-0.8,5-2.5l3.8,3.4c-1,1.3-2.3,2.3-3.9,3
		c-1.5,0.7-3.3,1-5.2,1C892.9,495.6,890.9,495.1,889.1,494.2z"/>
	<path class="st2" d="M916,489.5h-3.3v5.6h-6V474h9.6c1.9,0,3.6,0.3,5,0.9s2.5,1.5,3.3,2.7s1.1,2.6,1.1,4.1s-0.4,2.9-1.1,4
		c-0.7,1.1-1.7,2-3.1,2.7l4.6,6.6h-6.4L916,489.5z M918.9,479.6c-0.6-0.5-1.5-0.8-2.8-0.8h-3.3v6.2h3.3c1.2,0,2.1-0.3,2.8-0.8
		c0.6-0.5,0.9-1.3,0.9-2.3S919.5,480.1,918.9,479.6z"/>
	<path class="st2" d="M929.1,474h6v21.1h-6V474z M933.2,467.7h5.7l-5.7,4.6h-4.1L933.2,467.7z"/>
	<path class="st2" d="M943.8,478.8h-6.5V474h18.9v4.7h-6.5v16.4h-6L943.8,478.8L943.8,478.8z"/>
	<path class="st2" d="M958.5,474h6v21.1h-6V474z"/>
	<path class="st2" d="M973.3,494.2c-1.8-0.9-3.1-2.2-4.1-3.9c-1-1.7-1.5-3.6-1.5-5.7s0.5-4,1.5-5.7s2.4-3,4.1-3.9
		c1.8-0.9,3.7-1.4,6-1.4c1.9,0,3.7,0.3,5.2,1s2.8,1.7,3.9,3l-3.8,3.4c-1.4-1.6-3-2.5-5-2.5c-1.1,0-2.2,0.3-3.1,0.8
		c-0.9,0.5-1.6,1.2-2.1,2.1s-0.7,2-0.7,3.2s0.2,2.2,0.7,3.1s1.2,1.6,2.1,2.1c0.9,0.5,1.9,0.8,3.1,0.8c1.9,0,3.6-0.8,5-2.5l3.8,3.4
		c-1,1.3-2.3,2.3-3.9,3c-1.5,0.7-3.3,1-5.2,1C977,495.6,975,495.1,973.3,494.2z"/>
	<path class="st2" d="M1004.7,491h-8.9l-1.7,4.1H988l9.3-21.1h5.9l9.3,21.1h-6.2L1004.7,491z M1003,486.6l-2.7-6.8l-2.7,6.8H1003z"
		/>
</g>
<polyline class="st7" points="1066.6,361.7 1066.6,430.5 1020.1,430.5 "/>
<polyline class="st7" points="1140,361.7 1140,487.3 1023.5,487.3 "/>
<polyline class="st7" points="161.4,114.1 161.4,69.5 1020.1,69.5 1020.1,114.1 "/>
<rect x="330.1" y="48.6" class="st0" width="529.6" height="41.9"/>
<g>
	<g>
		<path class="st3" d="M363.9,69.1c0.5,0.8,0.8,1.8,0.8,2.8c0,1.3-0.4,2.5-1.1,3.5s-1.8,1.8-3.2,2.3c-1.4,0.5-3,0.8-4.8,0.8
			s-3.4-0.3-4.8-0.8c-1.4-0.5-2.5-1.3-3.2-2.3c-0.8-1-1.1-2.2-1.1-3.5c0-1.1,0.3-2,0.8-2.8c0.5-0.8,1.3-1.5,2.2-2.1
			c-0.7-0.5-1.3-1.1-1.7-1.8c-0.4-0.7-0.6-1.5-0.6-2.4c0-1.2,0.4-2.3,1.1-3.2c0.7-0.9,1.7-1.7,3-2.2c1.3-0.5,2.7-0.8,4.4-0.8
			c1.6,0,3.1,0.3,4.4,0.8c1.3,0.5,2.3,1.2,3,2.2c0.7,0.9,1.1,2,1.1,3.2c0,0.9-0.2,1.7-0.6,2.4c-0.4,0.7-0.9,1.3-1.7,1.8
			C362.6,67.5,363.3,68.2,363.9,69.1z M357.8,73.6c0.6-0.5,0.9-1.1,0.9-1.9c0-0.8-0.3-1.4-0.9-1.9c-0.6-0.5-1.3-0.7-2.3-0.7
			c-1,0-1.7,0.2-2.3,0.7c-0.6,0.5-0.9,1.1-0.9,1.9c0,0.8,0.3,1.4,0.9,1.9c0.6,0.5,1.3,0.7,2.3,0.7C356.4,74.3,357.2,74.1,357.8,73.6
			z M353.7,61.4c-0.5,0.4-0.7,0.9-0.7,1.6c0,0.7,0.2,1.2,0.7,1.6c0.5,0.4,1.1,0.6,1.8,0.6c0.8,0,1.4-0.2,1.8-0.6
			c0.5-0.4,0.7-0.9,0.7-1.6c0-0.7-0.2-1.3-0.7-1.6c-0.5-0.4-1.1-0.6-1.8-0.6C354.7,60.8,354.1,61,353.7,61.4z"/>
		<path class="st3" d="M381,65.5c1.1,0.6,2,1.3,2.6,2.4c0.7,1,1,2.2,1,3.5c0,1.4-0.4,2.7-1.1,3.8c-0.7,1.1-1.7,1.9-3,2.5
			c-1.3,0.6-2.7,0.9-4.2,0.9c-3,0-5.4-0.9-7.1-2.7c-1.7-1.8-2.6-4.4-2.6-7.7c0-2.4,0.5-4.5,1.4-6.2c0.9-1.7,2.2-3.1,3.9-4
			s3.6-1.4,5.9-1.4c1.2,0,2.4,0.1,3.4,0.4c1.1,0.3,2,0.6,2.8,1.1l-2.2,4.3c-1-0.7-2.3-1.1-3.9-1.1c-1.5,0-2.8,0.4-3.7,1.3
			c-0.9,0.8-1.5,2.1-1.6,3.6c1.2-1,2.8-1.6,4.8-1.6C378.7,64.7,379.9,64.9,381,65.5z M378.1,73.5c0.5-0.5,0.8-1.1,0.8-2
			c0-0.8-0.3-1.4-0.8-1.9c-0.5-0.5-1.2-0.7-2.1-0.7c-0.9,0-1.6,0.2-2.1,0.7c-0.5,0.5-0.8,1.1-0.8,1.9c0,0.8,0.3,1.4,0.8,1.9
			c0.5,0.5,1.3,0.7,2.2,0.7C376.9,74.3,377.5,74,378.1,73.5z"/>
		<path class="st3" d="M387.3,66.9c-1-1-1.5-2.5-1.5-4.3c0-1.2,0.2-2.2,0.7-3.1c0.5-0.9,1.1-1.6,1.9-2c0.8-0.5,1.7-0.7,2.8-0.7
			c1.6,0,2.9,0.5,3.9,1.6c1,1.1,1.5,2.5,1.5,4.3c0,1.8-0.5,3.2-1.5,4.3s-2.3,1.6-3.9,1.6C389.6,68.4,388.3,67.9,387.3,66.9z
			 M403.7,57h4.3l-14.4,21.1h-4.3L403.7,57z M392.5,64.8c0.3-0.5,0.5-1.2,0.5-2.3c0-1-0.2-1.8-0.5-2.3c-0.3-0.5-0.8-0.7-1.3-0.7
			c-0.5,0-0.9,0.2-1.3,0.7c-0.3,0.5-0.5,1.2-0.5,2.2s0.2,1.8,0.5,2.2c0.3,0.5,0.8,0.7,1.3,0.7C391.7,65.6,392.2,65.3,392.5,64.8z
			 M402.2,76.8c-1-1-1.5-2.5-1.5-4.3c0-1.8,0.5-3.2,1.5-4.3c1-1.1,2.3-1.6,3.9-1.6c1.6,0,2.9,0.5,3.9,1.6c1,1.1,1.5,2.5,1.5,4.3
			c0,1.8-0.5,3.2-1.5,4.3s-2.3,1.6-3.9,1.6C404.5,78.4,403.2,77.8,402.2,76.8z M407.4,74.8c0.3-0.5,0.5-1.2,0.5-2.3
			c0-1-0.2-1.8-0.5-2.3c-0.3-0.5-0.8-0.7-1.3-0.7s-1,0.2-1.3,0.7c-0.3,0.5-0.5,1.2-0.5,2.3c0,1,0.2,1.8,0.5,2.3
			c0.3,0.5,0.8,0.7,1.3,0.7S407.1,75.3,407.4,74.8z"/>
		<path class="st3" d="M427.5,61.7h-6.5V57H440v4.7h-6.5v16.4h-6V61.7z"/>
		<path class="st3" d="M442.2,57h6v21.1h-6V57z"/>
		<path class="st3" d="M473.8,57l-9,21.1h-5.9l-9-21.1h6.5l5.7,13.7l5.8-13.7H473.8z"/>
		<path class="st3" d="M492.4,73.5v4.6h-16.9V57h16.5v4.6h-10.6v3.6h9.4v4.5h-9.4v3.9H492.4z"/>
		<path class="st3" d="M505,72.5h-3.3v5.6h-6V57h9.6c1.9,0,3.6,0.3,5,0.9s2.5,1.5,3.3,2.7c0.8,1.2,1.1,2.6,1.1,4.1
			c0,1.5-0.4,2.9-1.1,4c-0.7,1.1-1.7,2-3.1,2.7l4.6,6.6h-6.4L505,72.5z M507.8,62.5c-0.6-0.5-1.5-0.8-2.8-0.8h-3.3v6.2h3.3
			c1.2,0,2.1-0.3,2.8-0.8c0.6-0.5,0.9-1.3,0.9-2.3S508.4,63.1,507.8,62.5z"/>
		<path class="st3" d="M532.2,74h-8.9l-1.7,4.1h-6.1l9.3-21.1h5.9l9.3,21.1h-6.2L532.2,74z M530.5,69.6l-2.7-6.8l-2.7,6.8H530.5z"/>
		<path class="st3" d="M560.8,78.1l-0.1-11.2l-5.4,9.1h-2.7l-5.4-8.8v10.9h-5.5V57h4.9l7.4,12.2l7.2-12.2h4.9l0.1,21.1H560.8z"/>
		<path class="st3" d="M593.4,74h-8.9l-1.7,4.1h-6.1l9.3-21.1h5.9l9.3,21.1h-6.2L593.4,74z M591.7,69.6l-2.7-6.8l-2.7,6.8H591.7z"/>
		<path class="st3" d="M611.7,57h10c2.3,0,4.4,0.4,6.1,1.3c1.8,0.9,3.2,2.1,4.2,3.7c1,1.6,1.5,3.4,1.5,5.6s-0.5,4-1.5,5.6
			c-1,1.6-2.4,2.8-4.2,3.7c-1.8,0.9-3.8,1.3-6.1,1.3h-10V57z M621.5,73.3c1.8,0,3.3-0.5,4.4-1.5c1.1-1,1.6-2.4,1.6-4.2
			s-0.5-3.2-1.6-4.2c-1.1-1-2.5-1.5-4.4-1.5h-3.8v11.6H621.5z"/>
		<path class="st3" d="M641.3,77.1c-1.8-0.9-3.2-2.2-4.2-3.9s-1.5-3.5-1.5-5.6s0.5-4,1.5-5.6s2.4-3,4.2-3.9c1.8-0.9,3.8-1.4,6-1.4
			s4.2,0.5,6,1.4c1.8,0.9,3.2,2.3,4.2,3.9s1.5,3.5,1.5,5.6s-0.5,4-1.5,5.6s-2.4,3-4.2,3.9c-1.8,0.9-3.8,1.4-6,1.4
			S643.1,78,641.3,77.1z M650.2,72.8c0.9-0.5,1.5-1.2,2-2.1c0.5-0.9,0.8-2,0.8-3.1s-0.3-2.2-0.8-3.2c-0.5-0.9-1.2-1.6-2-2.1
			c-0.9-0.5-1.8-0.8-2.9-0.8c-1.1,0-2,0.3-2.9,0.8c-0.9,0.5-1.5,1.2-2,2.1c-0.5,0.9-0.8,2-0.8,3.2s0.3,2.2,0.8,3.1
			c0.5,0.9,1.2,1.6,2,2.1c0.9,0.5,1.8,0.8,2.9,0.8C648.4,73.6,649.3,73.3,650.2,72.8z"/>
		<path class="st3" d="M679.1,73.5v4.6h-16.9V57h16.5v4.6h-10.6v3.6h9.4v4.5h-9.4v3.9H679.1z"/>
		<path class="st3" d="M702.5,57v21.1h-4.9l-9.3-11.2v11.2h-5.8V57h4.9l9.3,11.2V57H702.5z"/>
		<path class="st3" d="M711.3,77.1c-1.8-0.9-3.1-2.2-4.1-3.9s-1.5-3.6-1.5-5.7c0-2.1,0.5-4,1.5-5.7s2.4-3,4.1-3.9
			c1.8-0.9,3.7-1.4,6-1.4c1.9,0,3.7,0.3,5.2,1c1.5,0.7,2.8,1.7,3.9,3l-3.8,3.4c-1.4-1.6-3-2.5-5-2.5c-1.1,0-2.2,0.3-3.1,0.8
			c-0.9,0.5-1.6,1.2-2.1,2.1c-0.5,0.9-0.7,2-0.7,3.2s0.2,2.2,0.7,3.1c0.5,0.9,1.2,1.6,2.1,2.1c0.9,0.5,1.9,0.8,3.1,0.8
			c1.9,0,3.6-0.8,5-2.5l3.8,3.4c-1,1.3-2.3,2.3-3.9,3c-1.5,0.7-3.3,1-5.2,1C715,78.5,713,78,711.3,77.1z M713.8,85
			c-0.5-0.1-1-0.3-1.3-0.5l0.8-2.3c0.6,0.3,1.2,0.4,1.9,0.4c1,0,1.5-0.3,1.5-0.8c0-0.5-0.5-0.8-1.4-0.8h-1.1l0.8-3.3h3l-0.4,1.8
			c0.9,0.1,1.5,0.4,2,0.8s0.6,1,0.6,1.6c0,1-0.4,1.7-1.3,2.3c-0.9,0.6-2,0.8-3.5,0.8C714.9,85.2,714.4,85.1,713.8,85z"/>
		<path class="st3" d="M743.1,74h-8.9l-1.7,4.1h-6.1l9.3-21.1h5.9l9.3,21.1h-6.2L743.1,74z M741.3,69.6l-2.7-6.8l-2.7,6.8H741.3z"/>
		<path class="st3" d="M761.4,57h6v16.4h10.1v4.7h-16V57z"/>
		<path class="st3" d="M796.7,73.5v4.6h-16.9V57h16.5v4.6h-10.6v3.6h9.4v4.5h-9.4v3.9H796.7z"/>
		<path class="st3" d="M821.5,57l-9,21.1h-5.9l-9-21.1h6.5l5.7,13.7l5.8-13.7H821.5z"/>
		<path class="st3" d="M840.1,73.5v4.6h-16.9V57h16.5v4.6H829v3.6h9.4v4.5H829v3.9H840.1z"/>
	</g>
</g>
</svg>
