<?xml version="1.0" encoding="utf-8"?>
<!-- Generator: Adobe Illustrator 23.1.1, SVG Export Plug-In . SVG Version: 6.00 Build 0)  -->
<svg version="1.1" id="OBJECTS" xmlns="http://www.w3.org/2000/svg" xmlns:xlink="http://www.w3.org/1999/xlink" x="0px" y="0px"
	 viewBox="0 0 295.81 239.55" style="enable-background:new 0 0 295.81 239.55;" xml:space="preserve">
<style type="text/css">
	.st0{fill:#F0F5F5;}
	.st1{fill:#15B7FF;}
	.st2{fill:#2E7596;}
	.st3{fill:#DE9182;}
	.st4{fill:#C9736D;}
	.st5{fill:#EFB898;}
	.st6{fill:#F2F6F7;}
	.st7{fill:#022435;}
	.st8{fill:#F4A684;}
	.st9{fill:#FFFFFF;}
	.st10{fill:#FFFFFF;stroke:#D3D3D3;stroke-width:4;stroke-miterlimit:10;}
	.st11{fill:#E5E5E5;}
	.st12{opacity:0.4;fill:#FFFFFF;}
	.st13{fill:none;stroke:#4B4E52;stroke-miterlimit:10;}
	.st14{fill:#49CDDA;}
	.st15{font-family:'Montserrat-ExtraBold';}
	.st16{font-size:7.1346px;}
	.st17{font-size:4.2092px;}
	.st18{fill:#17EFFF;}
	.st19{fill:#1786FF;}
</style>
<g>
	<g>
		<path class="st0" d="M248.95,119.86c0.03,54.48-49.61,97.79-110.89,96.74S27.69,167.68,28.39,109.66S78.74,8.34,139.28,12.92
			S248.91,65.38,248.95,119.86z"/>
	</g>
	<g>
		<g>
			<g>
				<g>
					<g>
						<g>
							<path class="st1" d="M171.89,186.3H90.23c-2.46,0-4.46-2-4.46-4.46l0,0c0-2.46,2-4.46,4.46-4.46h81.67
								c2.46,0,4.46,2,4.46,4.46v0C176.35,184.3,174.36,186.3,171.89,186.3z"/>
							<rect x="90.17" y="186.3" class="st2" width="81.77" height="6.68"/>
							<path class="st1" d="M205.5,218.12H56.62v0c0-13.88,11.26-25.14,25.14-25.14h98.61C194.25,192.98,205.5,204.23,205.5,218.12
								L205.5,218.12z"/>
							<path class="st2" d="M99.52,177.38c0,0,26.54,9.88,56.47,0H99.52z"/>
						</g>
						<g>
							<g>
								<g>
									<circle class="st3" cx="90.14" cy="113.19" r="8.32"/>
									<circle class="st3" cx="172.03" cy="113.19" r="8.32"/>
									<circle class="st4" cx="172.36" cy="113.16" r="2.34"/>
									<path class="st4" d="M91.61,113.16c0,1.29-1.05,2.34-2.34,2.34c-1.29,0-2.34-1.05-2.34-2.34c0-1.29,1.05-2.34,2.34-2.34
										C90.56,110.82,91.61,111.86,91.61,113.16z"/>
								</g>
								<path class="st5" d="M172.03,177.38H90.26v-73.5c0-22.58,18.31-40.89,40.89-40.89h0c22.58,0,40.89,18.31,40.89,40.89V177.38
									z"/>
								<g>
									<path class="st6" d="M141.57,149.6c0-5.76-4.67-10.43-10.43-10.43c-5.76,0-10.43,4.67-10.43,10.43H141.57z"/>
									<path class="st3" d="M130.79,136.16L130.79,136.16c-2.77,0-5.04-2.27-5.04-5.04v-7.62c0-2.77,2.27-5.04,5.04-5.04h0
										c2.77,0,5.04,2.27,5.04,5.04v7.62C135.83,133.89,133.56,136.16,130.79,136.16z"/>
								</g>
								<g>
									<path class="st7" d="M109.08,105.48l-4.56,4.56c-0.34,0.34-0.9,0.34-1.24,0l0,0c-0.34-0.34-0.34-0.9,0-1.24l4.56-4.56
										c0.34-0.34,0.9-0.34,1.24,0l0,0C109.42,104.58,109.42,105.14,109.08,105.48z"/>
									<path class="st7" d="M157.65,110.04l-4.56-4.56c-0.34-0.34-0.34-0.9,0-1.24l0,0c0.34-0.34,0.9-0.34,1.24,0l4.56,4.56
										c0.34,0.34,0.34,0.9,0,1.24l0,0C158.55,110.38,158,110.38,157.65,110.04z"/>
								</g>
								<g>
									<ellipse class="st8" cx="152.7" cy="122.91" rx="9.14" ry="2.63"/>
									<ellipse class="st8" cx="108.67" cy="122.91" rx="9.14" ry="2.63"/>
								</g>
								<g>
									<g>
										<g>
											<path class="st7" d="M113.32,115.54c0,1.62-1.31,2.93-2.93,2.93c-1.62,0-2.93-1.31-2.93-2.93c0-1.62,1.31-2.93,2.93-2.93
												C112.01,112.61,113.32,113.92,113.32,115.54z"/>
											<path class="st9" d="M110.39,114.02c0,0.28-0.47,0.51-1.06,0.51c-0.58,0-1.06-0.23-1.06-0.51c0-0.28,0.47-0.51,1.06-0.51
												C109.92,113.51,110.39,113.74,110.39,114.02z"/>
										</g>
										<polygon class="st5" points="106.9,115.54 112.76,112.37 106.9,111.43 										"/>
									</g>
									<g>
										<g>
											<path class="st7" d="M154.83,115.54c0,1.62-1.31,2.93-2.93,2.93s-2.93-1.31-2.93-2.93c0-1.62,1.31-2.93,2.93-2.93
												S154.83,113.92,154.83,115.54z"/>
											<path class="st9" d="M151.9,114.02c0,0.28-0.47,0.51-1.06,0.51c-0.58,0-1.06-0.23-1.06-0.51c0-0.28,0.47-0.51,1.06-0.51
												C151.42,113.51,151.9,113.74,151.9,114.02z"/>
										</g>
										<polygon class="st5" points="150.11,112.84 155.35,116.35 154.61,111.43 										"/>
									</g>
								</g>
								<path class="st7" d="M172.48,105.48c2.88-10.33,1.09-21.87-4.79-30.84c-5.87-8.97-15.73-15.22-26.35-16.72
									c-3.5-0.49-7.05-0.49-10.59-0.46c-5.51,0.04-11.02,0.14-16.52,0.31c0.67-1.19,1.11-2.51,1.28-3.86
									c-3.63,1.41-7.01,3.46-9.94,6.03c0.26-1.26,0.51-2.52,0.77-3.78c-4.63,2.79-9.36,5.68-12.65,9.96
									c-3.07,4-4.65,8.97-5.31,13.96c-0.66,4.99-0.44,10.06-0.22,15.09c0.14,3.32,0.29,6.64,0.43,9.95
									c0.93-0.28,1.56,1.08,1.61,2.06c0.13,2.67-0.04,5.36-0.53,7.98c1.22,0.42,2.53,0.57,3.81,0.43
									c-1.16-11.35,4.02-22.3,9.29-32.42c3.44,3.28,8.42,4.87,13.12,4.19c-0.26-1.98-0.52-3.96-0.78-5.93
									c8.83,6.98,20.06,10.86,31.32,10.83c-0.13-1.49-0.25-2.98-0.38-4.47c3.53,2.54,7.56,4.36,11.8,5.31
									c3.07,0.7,6.47,1.05,8.73,3.25c2.41,2.35,1.65,6.08,1.84,9.44c0.17,3,0.34,6,0.51,9c0.66,0.01,2.42-0.02,3.08-0.02
									C172.11,111.55,171.61,108.58,172.48,105.48z"/>
								<g>
									<path class="st10" d="M99.52,133.25c0,0,20.24-12.58,62.32,0l-2.69,21.78l-28.01,7.26l-28.12-6.78L99.52,133.25z"/>
									<g>
										<path class="st9" d="M101.51,136.48c-0.13,0-0.25-0.08-0.3-0.2l-12.95-31.83c-0.07-0.17,0.01-0.35,0.18-0.42
											c0.17-0.07,0.35,0.01,0.42,0.18l12.95,31.83c0.07,0.17-0.01,0.35-0.18,0.42C101.59,136.47,101.55,136.48,101.51,136.48z"
											/>
									</g>
									<g>
										<path class="st9" d="M160.01,136.48c-0.04,0-0.08-0.01-0.12-0.02c-0.17-0.07-0.25-0.25-0.18-0.42l12.62-31.26
											c0.07-0.17,0.26-0.24,0.42-0.18c0.17,0.07,0.25,0.25,0.18,0.42l-12.62,31.26C160.26,136.4,160.14,136.48,160.01,136.48z"
											/>
									</g>
									<g>
										<path class="st11" d="M140.14,140.38c-3.95,0-7.78-1.08-9.92-1.82c-0.34-0.12-0.68-0.23-1.02-0.35
											c-5.93-2.05-12.05-4.18-17.19,0.48l-0.43-0.48c5.42-4.92,12.01-2.63,17.83-0.61c0.34,0.12,0.68,0.23,1.01,0.35
											c11.77,4.03,17.14,0.28,18.9-1.52l0.46,0.45C147.19,139.54,143.62,140.38,140.14,140.38z"/>
									</g>
									<g>
										<path class="st11" d="M140.14,149.77c-3.95,0-7.78-1.08-9.92-1.82c-0.34-0.12-0.68-0.23-1.02-0.35
											c-5.93-2.05-12.05-4.18-17.19,0.48l-0.43-0.48c5.42-4.91,12.01-2.63,17.83-0.61c0.34,0.12,0.68,0.23,1.01,0.35
											c11.77,4.03,17.14,0.28,18.9-1.52l0.46,0.45C147.19,148.93,143.62,149.77,140.14,149.77z"/>
									</g>
								</g>
							</g>
							<g>
								<path class="st12" d="M105.55,94.4c0,1.38-1.12,2.5-2.5,2.5c-1.38,0-2.5-1.12-2.5-2.5c0-1.38,2.5-6.46,2.5-6.46
									S105.55,93.02,105.55,94.4z"/>
								<path class="st12" d="M110.58,97.89c0,0.69-0.56,1.25-1.25,1.25c-0.69,0-1.25-0.56-1.25-1.25s1.25-3.23,1.25-3.23
									S110.58,97.2,110.58,97.89z"/>
							</g>
						</g>
					</g>
					<g>
						<polygon class="st9" points="166.32,140.76 178.69,135.82 182.78,140.76 204.5,133.67 181.38,145.5 176.32,140.12 						"/>
						<polygon class="st9" points="168.6,150.28 176.35,150.49 177.39,154.08 190.65,155.31 175.55,156.29 174.09,152.25 						"/>
						<polygon class="st9" points="96.94,147.84 83.87,145.27 80.77,150.89 58.11,147.94 83.02,155.28 87,149.06 						"/>
						<polygon class="st9" points="93.07,140.01 87.19,135.45 84.24,137.48 73.66,130.32 84.26,140.23 87.8,138.12 						"/>
						<g>
							<g>
								<path class="st9" d="M193.67,164.1l-0.29-0.41c4.53-3.26,5.71-10.38,2.48-14.93l0.41-0.29
									C199.64,153.24,198.41,160.69,193.67,164.1z"/>
							</g>
							<g>
								<path class="st9" d="M192.2,159.95l-0.29-0.41c2.69-1.94,3.39-6.16,1.47-8.86l0.41-0.29
									C195.86,153.31,195.1,157.86,192.2,159.95z"/>
							</g>
						</g>
						<g>
							<g>
								<path class="st9" d="M74.51,136.66l0.18,0.25c-2.79,2.01-3.52,6.4-1.53,9.21l-0.25,0.18
									C70.83,143.36,71.59,138.77,74.51,136.66z"/>
							</g>
							<g>
								<path class="st9" d="M75.42,139.22l0.18,0.25c-1.66,1.19-2.09,3.8-0.91,5.46l-0.25,0.18
									C73.16,143.32,73.63,140.51,75.42,139.22z"/>
							</g>
						</g>
					</g>
				</g>
			</g>
			<polyline class="st13" points="100.44,92.42 83.15,49.43 52.91,49.43 			"/>
			<polyline class="st13" points="100.02,215.4 72.15,190.12 12.5,190.12 			"/>
			<text transform="matrix(1 0 0 1 52.1406 36.8008)"><tspan x="0" y="0" class="st14 st15 st16">FEBRE</tspan><tspan x="0" y="8.27" class="st14 st15 st16">(&gt;37,8 C)</tspan></text>
			<text transform="matrix(1 0 0 1 187.4033 78.895)" class="st14 st15 st16">TOSSE</text>
			<polyline class="st13" points="166.32,140.76 179.62,81.8 214.87,81.8 			"/>
			<text transform="matrix(1 0 0 1 24.3755 92.5005)"><tspan x="0" y="0" class="st14 st15 st16">DOR NO</tspan><tspan x="0" y="8.27" class="st14 st15 st16">CORPO E </tspan><tspan x="0" y="16.55" class="st14 st15 st16">CANSAÇO</tspan></text>
			<polyline class="st13" points="92.4,198.81 69.09,113.16 23.92,113.16 			"/>
			<polyline class="st13" points="181.04,213.84 187.2,137.76 280.96,137.76 			"/>
			<g>
				<text transform="matrix(1 0 0 1 78.4522 41.894)" class="st1 st15 st17">O</text>
			</g>
			<text transform="matrix(1 0 0 1 235.5225 107.8501)"><tspan x="0" y="0" class="st14 st15 st16">SINTOMAS </tspan><tspan x="-47.79" y="8.27" class="st14 st15 st16">GASTROINTESTINAIS,</tspan><tspan x="-26.7" y="16.55" class="st14 st15 st16">COMO DIARRÉIA</tspan><tspan x="-16.08" y="24.82" class="st14 st15 st16">(MAIS RAROS)</tspan></text>
			<text transform="matrix(1 0 0 1 12.5 177.7729)"><tspan x="0" y="0" class="st14 st15 st16">DIFICULDADE </tspan><tspan x="0" y="8.27" class="st14 st15 st16">DE RESPIRAR</tspan></text>
		</g>
		<g>
			<g>
				
					<rect x="227.04" y="166.54" transform="matrix(0.1122 -0.9937 0.9937 0.1122 23.513 385.8289)" class="st18" width="1.28" height="26.43"/>
				<path class="st1" d="M215.55,176.48c0.78,0.97,0.62,2.39-0.36,3.17c-0.97,0.78-2.39,0.62-3.17-0.36
					c-0.78-0.97-0.62-2.39,0.36-3.17C213.35,175.35,214.77,175.51,215.55,176.48z"/>
				<path class="st1" d="M243.46,179.97c0.78,0.97,0.62,2.39-0.36,3.17c-0.97,0.78-2.39,0.62-3.17-0.36
					c-0.78-0.97-0.62-2.39,0.36-3.17C241.26,178.84,242.68,179,243.46,179.97z"/>
			</g>
			<g>
				
					<rect x="219.46" y="167.72" transform="matrix(0.782 -0.6233 0.6233 0.782 -58.6581 174.7023)" class="st18" width="1.88" height="6.97"/>
				<path class="st1" d="M219.67,166.16c0.88,1.11,0.7,2.72-0.41,3.61c-1.11,0.88-2.72,0.7-3.61-0.41c-0.88-1.11-0.7-2.72,0.41-3.61
					C217.17,164.87,218.78,165.05,219.67,166.16z"/>
			</g>
			<g>
				
					<rect x="235.51" y="169.9" transform="matrix(-0.6233 -0.782 0.782 -0.6233 248.3163 465.9734)" class="st18" width="1.76" height="6.56"/>
				<path class="st1" d="M240.93,169.53c0.69,0.86,0.55,2.12-0.32,2.81c-0.86,0.69-2.12,0.55-2.81-0.32
					c-0.69-0.86-0.55-2.12,0.32-2.81C238.99,168.53,240.24,168.67,240.93,169.53z"/>
			</g>
			<g>
				
					<rect x="217.04" y="183.49" transform="matrix(-0.6233 -0.782 0.782 -0.6233 207.3755 475.3139)" class="st18" width="2.27" height="8.45"/>
				<path class="st1" d="M216.57,188.95c0.89,1.11,0.7,2.73-0.41,3.61c-1.11,0.89-2.73,0.7-3.61-0.41c-0.89-1.11-0.7-2.73,0.41-3.61
					C214.07,187.66,215.68,187.84,216.57,188.95z"/>
			</g>
			<g>
				
					<rect x="233.49" y="185.16" transform="matrix(0.782 -0.6233 0.6233 0.782 -66.602 187.34)" class="st18" width="2" height="7.42"/>
				<path class="st1" d="M239.83,191.19c0.94,1.18,0.75,2.9-0.43,3.84c-1.18,0.94-2.9,0.75-3.84-0.43s-0.75-2.9,0.43-3.84
					C237.17,189.81,238.89,190,239.83,191.19z"/>
			</g>
			<g>
				
					<rect x="227.08" y="166.59" transform="matrix(-0.9937 -0.1121 0.1121 -0.9937 433.8308 384.0068)" class="st18" width="1.28" height="26.43"/>
				<path class="st1" d="M230.91,164.24c0.78,0.97,0.62,2.39-0.36,3.17c-0.97,0.78-2.39,0.62-3.17-0.36
					c-0.78-0.97-0.62-2.39,0.36-3.17C228.72,163.1,230.13,163.26,230.91,164.24z"/>
				<path class="st1" d="M227.78,193.14c0.78,0.97,0.62,2.39-0.36,3.17c-0.97,0.78-2.39,0.62-3.17-0.36
					c-0.78-0.97-0.62-2.39,0.36-3.17C225.58,192.01,227,192.17,227.78,193.14z"/>
			</g>
			<path class="st1" d="M234.82,174.44c3.19,4,2.53,9.82-1.47,13c-1.18,0.94-2.52,1.55-3.9,1.83c-3.3,0.68-6.85-0.48-9.1-3.3
				c-3.19-4-2.53-9.82,1.47-13C225.81,169.79,231.63,170.45,234.82,174.44z"/>
			<path class="st19" d="M231.66,175.59c1.06,1.33,0.84,3.26-0.49,4.32c-1.33,1.06-3.26,0.84-4.32-0.49
				c-1.06-1.33-0.84-3.26,0.49-4.32C228.67,174.04,230.6,174.26,231.66,175.59z"/>
			<path class="st19" d="M228.03,183.1c0.69,0.87,0.55,2.14-0.32,2.83c-0.87,0.69-2.14,0.55-2.83-0.32
				c-0.69-0.87-0.55-2.14,0.32-2.83C226.07,182.09,227.34,182.23,228.03,183.1z"/>
			<path class="st19" d="M223.67,179.02c0.61,0.77,0.49,1.89-0.28,2.51c-0.77,0.61-1.89,0.49-2.51-0.28
				c-0.61-0.77-0.49-1.89,0.28-2.51C221.94,178.13,223.06,178.25,223.67,179.02z"/>
			<path class="st19" d="M231.8,171.97c0,0,8.53,9.12-2.66,17.37c0,0,0.95-0.17,1.55-0.41c0,0,0.58-0.2,1.21-0.53
				c0,0,1.22-0.64,2.22-1.63c0,0,1.9-1.69,2.5-4.51c0,0,0.87-3.39-0.77-6.23C235.84,176.02,234.82,173.6,231.8,171.97z"/>
		</g>
		<g>
			<g>
				
					<rect x="222.06" y="144.7" transform="matrix(0.112 -0.9937 0.9937 0.112 49.4057 353.0761)" class="st18" width="0.41" height="8.39"/>
				<path class="st1" d="M218.41,147.86c0.25,0.31,0.2,0.76-0.11,1.01c-0.31,0.25-0.76,0.2-1.01-0.11c-0.25-0.31-0.2-0.76,0.11-1.01
					C217.71,147.5,218.16,147.55,218.41,147.86z"/>
				<path class="st1" d="M227.27,148.96c0.25,0.31,0.2,0.76-0.11,1.01c-0.31,0.25-0.76,0.2-1.01-0.11c-0.25-0.31-0.2-0.76,0.11-1.01
					C226.57,148.6,227.02,148.65,227.27,148.96z"/>
			</g>
			<g>
				
					<rect x="219.65" y="145.07" transform="matrix(0.782 -0.6233 0.6233 0.782 -43.161 168.9613)" class="st18" width="0.6" height="2.21"/>
				<path class="st1" d="M219.72,144.58c0.28,0.35,0.22,0.86-0.13,1.15c-0.35,0.28-0.86,0.22-1.15-0.13
					c-0.28-0.35-0.22-0.86,0.13-1.15C218.92,144.17,219.44,144.23,219.72,144.58z"/>
			</g>
			<g>
				
					<rect x="224.74" y="145.77" transform="matrix(-0.6233 -0.782 0.782 -0.6233 250.474 414.277)" class="st18" width="0.56" height="2.08"/>
				<path class="st1" d="M226.46,145.65c0.22,0.27,0.17,0.67-0.1,0.89c-0.27,0.22-0.67,0.17-0.89-0.1c-0.22-0.27-0.17-0.67,0.1-0.89
					C225.85,145.33,226.25,145.38,226.46,145.65z"/>
			</g>
			<g>
				
					<rect x="218.88" y="150.08" transform="matrix(-0.6233 -0.782 0.782 -0.6233 237.502 417.2396)" class="st18" width="0.72" height="2.68"/>
				<path class="st1" d="M218.73,151.81c0.28,0.35,0.22,0.87-0.13,1.15c-0.35,0.28-0.87,0.22-1.15-0.13
					c-0.28-0.35-0.22-0.87,0.13-1.15C217.94,151.4,218.45,151.46,218.73,151.81z"/>
			</g>
			<g>
				
					<rect x="224.1" y="150.61" transform="matrix(0.782 -0.6233 0.6233 0.782 -45.6815 172.9763)" class="st18" width="0.63" height="2.35"/>
				<path class="st1" d="M226.12,152.52c0.3,0.37,0.24,0.92-0.14,1.22c-0.37,0.3-0.92,0.24-1.22-0.14c-0.3-0.37-0.24-0.92,0.14-1.22
					C225.27,152.08,225.82,152.15,226.12,152.52z"/>
			</g>
			<g>
				
					<rect x="222.07" y="144.72" transform="matrix(-0.9937 -0.1122 0.1122 -0.9937 426.4279 321.8193)" class="st18" width="0.41" height="8.39"/>
				<path class="st1" d="M223.29,143.97c0.25,0.31,0.2,0.76-0.11,1.01c-0.31,0.25-0.76,0.2-1.01-0.11c-0.25-0.31-0.2-0.76,0.11-1.01
					C222.59,143.61,223.04,143.66,223.29,143.97z"/>
				<path class="st1" d="M222.29,153.14c0.25,0.31,0.2,0.76-0.11,1.01c-0.31,0.25-0.76,0.2-1.01-0.11c-0.25-0.31-0.2-0.76,0.11-1.01
					C221.59,152.78,222.04,152.83,222.29,153.14z"/>
			</g>
			<path class="st1" d="M224.53,147.21c1.01,1.27,0.8,3.12-0.47,4.13c-0.37,0.3-0.8,0.49-1.24,0.58c-1.05,0.21-2.18-0.15-2.89-1.05
				c-1.01-1.27-0.8-3.12,0.47-4.13C221.67,145.73,223.51,145.94,224.53,147.21z"/>
			<path class="st19" d="M223.52,147.57c0.34,0.42,0.27,1.03-0.15,1.37c-0.42,0.34-1.03,0.27-1.37-0.15
				c-0.34-0.42-0.27-1.03,0.15-1.37C222.57,147.08,223.19,147.15,223.52,147.57z"/>
			<path class="st19" d="M222.37,149.96c0.22,0.28,0.17,0.68-0.1,0.9c-0.28,0.22-0.68,0.17-0.9-0.1c-0.22-0.28-0.17-0.68,0.1-0.9
				C221.75,149.63,222.15,149.68,222.37,149.96z"/>
			<path class="st19" d="M220.99,148.66c0.2,0.24,0.15,0.6-0.09,0.8c-0.24,0.2-0.6,0.15-0.8-0.09s-0.15-0.6,0.09-0.8
				C220.44,148.38,220.79,148.42,220.99,148.66z"/>
			<path class="st19" d="M223.57,146.42c0,0,2.71,2.89-0.85,5.51c0,0,0.3-0.05,0.49-0.13c0,0,0.18-0.06,0.38-0.17
				c0,0,0.39-0.2,0.7-0.52c0,0,0.6-0.54,0.79-1.43c0,0,0.28-1.08-0.25-1.98C224.85,147.71,224.53,146.94,223.57,146.42z"/>
		</g>
	</g>
</g>
</svg>
