<?xml version="1.0" encoding="utf-8"?>
<!-- Generator: Adobe Illustrator 23.1.1, SVG Export Plug-In . SVG Version: 6.00 Build 0)  -->
<svg version="1.1" id="OBJECTS" xmlns="http://www.w3.org/2000/svg" xmlns:xlink="http://www.w3.org/1999/xlink" x="0px" y="0px"
	 viewBox="0 0 295.81 239.55" style="enable-background:new 0 0 295.81 239.55;" xml:space="preserve">
<style type="text/css">
	.st0{fill:#F0F5F5;}
	.st1{fill:#49CDDA;}
	.st2{fill:#2E7596;}
	.st3{fill:#DE9182;}
	.st4{fill:#C9736D;}
	.st5{fill:#EFB898;}
	.st6{fill:#F2F6F7;}
	.st7{fill:#022435;}
	.st8{fill:#F4A684;}
	.st9{fill:#FFFFFF;}
	.st10{fill:#FFFFFF;stroke:#D3D3D3;stroke-width:4;stroke-miterlimit:10;}
	.st11{fill:#E5E5E5;}
	.st12{opacity:0.4;fill:#FFFFFF;}
	.st13{fill:none;stroke:#4B4E52;stroke-miterlimit:10;}
	.st14{fill:#15B7FF;}
	.st15{fill:#17EFFF;}
</style>
<g>
	<g>
		<path class="st0" d="M248.95,119.86c0.03,54.48-49.61,97.79-110.89,96.74S27.69,167.68,28.39,109.66S78.74,8.34,139.28,12.92
			S248.91,65.38,248.95,119.86z"/>
	</g>
	<g>
		<g>
			<g>
				<g>
					<g>
						<g>
							<path class="st1" d="M171.89,186.3H90.23c-2.46,0-4.46-2-4.46-4.46l0,0c0-2.46,2-4.46,4.46-4.46h81.67
								c2.46,0,4.46,2,4.46,4.46v0C176.35,184.3,174.36,186.3,171.89,186.3z"/>
							<rect x="90.17" y="186.3" class="st2" width="81.77" height="6.68"/>
							<path class="st1" d="M205.5,218.12H56.62v0c0-13.88,11.26-25.14,25.14-25.14h98.61C194.25,192.98,205.5,204.23,205.5,218.12
								L205.5,218.12z"/>
							<path class="st2" d="M99.52,177.38c0,0,26.54,9.88,56.47,0H99.52z"/>
						</g>
						<g>
							<g>
								<g>
									<circle class="st3" cx="90.14" cy="113.19" r="8.32"/>
									<circle class="st3" cx="172.03" cy="113.19" r="8.32"/>
									<circle class="st4" cx="172.36" cy="113.16" r="2.34"/>
									<path class="st4" d="M91.61,113.16c0,1.29-1.05,2.34-2.34,2.34c-1.29,0-2.34-1.05-2.34-2.34c0-1.29,1.05-2.34,2.34-2.34
										C90.56,110.82,91.61,111.86,91.61,113.16z"/>
								</g>
								<path class="st5" d="M172.03,177.38H90.26v-73.5c0-22.58,18.31-40.89,40.89-40.89h0c22.58,0,40.89,18.31,40.89,40.89V177.38
									z"/>
								<g>
									<path class="st6" d="M141.57,149.6c0-5.76-4.67-10.43-10.43-10.43c-5.76,0-10.43,4.67-10.43,10.43H141.57z"/>
									<path class="st3" d="M130.79,136.16L130.79,136.16c-2.77,0-5.04-2.27-5.04-5.04v-7.62c0-2.77,2.27-5.04,5.04-5.04h0
										c2.77,0,5.04,2.27,5.04,5.04v7.62C135.83,133.89,133.56,136.16,130.79,136.16z"/>
								</g>
								<g>
									<path class="st7" d="M109.08,105.48l-4.56,4.56c-0.34,0.34-0.9,0.34-1.24,0l0,0c-0.34-0.34-0.34-0.9,0-1.24l4.56-4.56
										c0.34-0.34,0.9-0.34,1.24,0l0,0C109.42,104.58,109.42,105.14,109.08,105.48z"/>
									<path class="st7" d="M157.65,110.04l-4.56-4.56c-0.34-0.34-0.34-0.9,0-1.24l0,0c0.34-0.34,0.9-0.34,1.24,0l4.56,4.56
										c0.34,0.34,0.34,0.9,0,1.24l0,0C158.55,110.38,158,110.38,157.65,110.04z"/>
								</g>
								<g>
									<ellipse class="st8" cx="152.7" cy="122.91" rx="9.14" ry="2.63"/>
									<ellipse class="st8" cx="108.67" cy="122.91" rx="9.14" ry="2.63"/>
								</g>
								<g>
									<g>
										<g>
											<path class="st7" d="M113.32,115.54c0,1.62-1.31,2.93-2.93,2.93c-1.62,0-2.93-1.31-2.93-2.93c0-1.62,1.31-2.93,2.93-2.93
												C112.01,112.61,113.32,113.92,113.32,115.54z"/>
											<path class="st9" d="M110.39,114.02c0,0.28-0.47,0.51-1.06,0.51c-0.58,0-1.06-0.23-1.06-0.51c0-0.28,0.47-0.51,1.06-0.51
												C109.92,113.51,110.39,113.74,110.39,114.02z"/>
										</g>
										<polygon class="st5" points="106.9,115.54 112.76,112.37 106.9,111.43 										"/>
									</g>
									<g>
										<g>
											<path class="st7" d="M154.83,115.54c0,1.62-1.31,2.93-2.93,2.93s-2.93-1.31-2.93-2.93c0-1.62,1.31-2.93,2.93-2.93
												S154.83,113.92,154.83,115.54z"/>
											<path class="st9" d="M151.9,114.02c0,0.28-0.47,0.51-1.06,0.51c-0.58,0-1.06-0.23-1.06-0.51c0-0.28,0.47-0.51,1.06-0.51
												C151.42,113.51,151.9,113.74,151.9,114.02z"/>
										</g>
										<polygon class="st5" points="150.11,112.84 155.35,116.35 154.61,111.43 										"/>
									</g>
								</g>
								<path class="st7" d="M172.48,105.48c2.88-10.33,1.09-21.87-4.79-30.84c-5.87-8.97-15.73-15.22-26.35-16.72
									c-3.5-0.49-7.05-0.49-10.59-0.46c-5.51,0.04-11.02,0.14-16.52,0.31c0.67-1.19,1.11-2.51,1.28-3.86
									c-3.63,1.41-7.01,3.46-9.94,6.03c0.26-1.26,0.51-2.52,0.77-3.78c-4.63,2.79-9.36,5.68-12.65,9.96
									c-3.07,4-4.65,8.97-5.31,13.96c-0.66,4.99-0.44,10.06-0.22,15.09c0.14,3.32,0.29,6.64,0.43,9.95
									c0.93-0.28,1.56,1.08,1.61,2.06c0.13,2.67-0.04,5.36-0.53,7.98c1.22,0.42,2.53,0.57,3.81,0.43
									c-1.16-11.35,4.02-22.3,9.29-32.42c3.44,3.28,8.42,4.87,13.12,4.19c-0.26-1.98-0.52-3.96-0.78-5.93
									c8.83,6.98,20.06,10.86,31.32,10.83c-0.13-1.49-0.25-2.98-0.38-4.47c3.53,2.54,7.56,4.36,11.8,5.31
									c3.07,0.7,6.47,1.05,8.73,3.25c2.41,2.35,1.65,6.08,1.84,9.44c0.17,3,0.34,6,0.51,9c0.66,0.01,2.42-0.02,3.08-0.02
									C172.11,111.55,171.61,108.58,172.48,105.48z"/>
								<g>
									<path class="st10" d="M99.52,133.25c0,0,20.24-12.58,62.32,0l-2.69,21.78l-28.01,7.26l-28.12-6.78L99.52,133.25z"/>
									<g>
										<path class="st9" d="M101.51,136.48c-0.13,0-0.25-0.08-0.3-0.2l-12.95-31.83c-0.07-0.17,0.01-0.35,0.18-0.42
											c0.17-0.07,0.35,0.01,0.42,0.18l12.95,31.83c0.07,0.17-0.01,0.35-0.18,0.42C101.59,136.47,101.55,136.48,101.51,136.48z"
											/>
									</g>
									<g>
										<path class="st9" d="M160.01,136.48c-0.04,0-0.08-0.01-0.12-0.02c-0.17-0.07-0.25-0.25-0.18-0.42l12.62-31.26
											c0.07-0.17,0.26-0.24,0.42-0.18c0.17,0.07,0.25,0.25,0.18,0.42l-12.62,31.26C160.26,136.4,160.14,136.48,160.01,136.48z"
											/>
									</g>
									<g>
										<path class="st11" d="M140.14,140.38c-3.95,0-7.78-1.08-9.92-1.82c-0.34-0.12-0.68-0.23-1.02-0.35
											c-5.93-2.05-12.05-4.18-17.19,0.48l-0.43-0.48c5.42-4.92,12.01-2.63,17.83-0.61c0.34,0.12,0.68,0.23,1.01,0.35
											c11.77,4.03,17.14,0.28,18.9-1.52l0.46,0.45C147.19,139.54,143.62,140.38,140.14,140.38z"/>
									</g>
									<g>
										<path class="st11" d="M140.14,149.77c-3.95,0-7.78-1.08-9.92-1.82c-0.34-0.12-0.68-0.23-1.02-0.35
											c-5.93-2.05-12.05-4.18-17.19,0.48l-0.43-0.48c5.42-4.91,12.01-2.63,17.83-0.61c0.34,0.12,0.68,0.23,1.01,0.35
											c11.77,4.03,17.14,0.28,18.9-1.52l0.46,0.45C147.19,148.93,143.62,149.77,140.14,149.77z"/>
									</g>
								</g>
							</g>
							<g>
								<path class="st12" d="M105.55,94.4c0,1.38-1.12,2.5-2.5,2.5c-1.38,0-2.5-1.12-2.5-2.5c0-1.38,2.5-6.46,2.5-6.46
									S105.55,93.02,105.55,94.4z"/>
								<path class="st12" d="M110.58,97.89c0,0.69-0.56,1.25-1.25,1.25c-0.69,0-1.25-0.56-1.25-1.25s1.25-3.23,1.25-3.23
									S110.58,97.2,110.58,97.89z"/>
							</g>
						</g>
					</g>
					<g>
						<polygon class="st9" points="166.32,140.76 178.69,135.82 182.78,140.76 204.5,133.67 181.38,145.5 176.32,140.12 						"/>
						<polygon class="st9" points="168.6,150.28 176.35,150.49 177.39,154.08 190.65,155.31 175.55,156.29 174.09,152.25 						"/>
						<polygon class="st9" points="96.94,147.84 83.87,145.27 80.77,150.89 58.11,147.94 83.02,155.28 87,149.06 						"/>
						<polygon class="st9" points="93.07,140.01 87.19,135.45 84.24,137.48 73.66,130.32 84.26,140.23 87.8,138.12 						"/>
						<g>
							<g>
								<path class="st9" d="M193.67,164.1l-0.29-0.41c4.53-3.26,5.71-10.38,2.48-14.93l0.41-0.29
									C199.64,153.24,198.41,160.69,193.67,164.1z"/>
							</g>
							<g>
								<path class="st9" d="M192.2,159.95l-0.29-0.41c2.69-1.94,3.39-6.16,1.47-8.86l0.41-0.29
									C195.86,153.31,195.1,157.86,192.2,159.95z"/>
							</g>
						</g>
						<g>
							<g>
								<path class="st9" d="M74.51,136.66l0.18,0.25c-2.79,2.01-3.52,6.4-1.53,9.21l-0.25,0.18
									C70.83,143.36,71.59,138.77,74.51,136.66z"/>
							</g>
							<g>
								<path class="st9" d="M75.42,139.22l0.18,0.25c-1.66,1.19-2.09,3.8-0.91,5.46l-0.25,0.18
									C73.16,143.32,73.63,140.51,75.42,139.22z"/>
							</g>
						</g>
					</g>
				</g>
			</g>
			<polyline class="st13" points="100.44,92.42 83.15,49.43 52.91,49.43 			"/>
			<polyline class="st13" points="100.02,215.4 72.15,190.12 12.5,190.12 			"/>
			<g>
				<path class="st1" d="M54.05,32.9V34h2.2v1.09h-2.2v1.71h-1.41v-4.99h3.92v1.09H54.05z"/>
				<path class="st1" d="M61.94,35.71v1.09h-4.01v-4.99h3.92v1.09h-2.52v0.84h2.22v1.06h-2.22v0.91H61.94z"/>
				<path class="st1" d="M67.95,34.66c0.16,0.21,0.24,0.47,0.24,0.77c0,0.44-0.18,0.77-0.53,1.01c-0.35,0.24-0.86,0.36-1.53,0.36
					h-2.7v-4.99H66c0.64,0,1.12,0.12,1.46,0.35c0.33,0.24,0.5,0.55,0.5,0.95c0,0.24-0.06,0.45-0.17,0.64
					c-0.12,0.19-0.28,0.34-0.5,0.45C67.57,34.3,67.79,34.45,67.95,34.66z M64.84,32.83v0.96h0.97c0.48,0,0.71-0.16,0.71-0.49
					c0-0.32-0.24-0.48-0.71-0.48H64.84z M66.77,35.27c0-0.34-0.25-0.51-0.74-0.51h-1.18v1.01h1.18
					C66.52,35.78,66.77,35.61,66.77,35.27z"/>
				<path class="st1" d="M71.82,35.47h-0.77v1.33h-1.41v-4.99h2.28c0.45,0,0.84,0.07,1.18,0.22c0.33,0.15,0.59,0.36,0.77,0.64
					c0.18,0.28,0.27,0.61,0.27,0.98c0,0.36-0.08,0.68-0.25,0.95c-0.17,0.27-0.41,0.48-0.72,0.63l1.08,1.57h-1.51L71.82,35.47z
					 M72.5,33.11c-0.15-0.13-0.37-0.19-0.66-0.19h-0.78v1.46h0.78c0.29,0,0.51-0.06,0.66-0.19c0.15-0.13,0.22-0.31,0.22-0.54
					C72.72,33.42,72.64,33.24,72.5,33.11z"/>
				<path class="st1" d="M79.64,35.71v1.09h-4.01v-4.99h3.92v1.09h-2.52v0.84h2.22v1.06h-2.22v0.91H79.64z"/>
				<path class="st1" d="M52.81,44.96c-0.16-0.57-0.24-1.19-0.24-1.84c0-0.65,0.08-1.26,0.24-1.84s0.39-1.07,0.68-1.5h1.3
					c-0.31,0.55-0.54,1.09-0.68,1.63s-0.21,1.11-0.21,1.71c0,0.6,0.07,1.17,0.21,1.71c0.14,0.54,0.37,1.08,0.68,1.63h-1.3
					C53.19,46.03,52.97,45.53,52.81,44.96z"/>
				<path class="st1" d="M59.42,42.03v1.1l-3.52,1.3v-1.04l2.28-0.81l-2.28-0.81v-1.04L59.42,42.03z"/>
				<path class="st1" d="M64.3,42.59c0.22,0.25,0.33,0.56,0.33,0.92c0,0.29-0.08,0.57-0.24,0.82c-0.16,0.25-0.4,0.46-0.73,0.61
					c-0.33,0.15-0.73,0.23-1.21,0.23c-0.35,0-0.7-0.04-1.05-0.13c-0.34-0.09-0.64-0.21-0.9-0.36l0.51-1.06
					c0.19,0.13,0.41,0.24,0.66,0.31c0.25,0.07,0.49,0.11,0.72,0.11c0.24,0,0.44-0.05,0.58-0.14s0.21-0.22,0.21-0.39
					c0-0.32-0.25-0.49-0.76-0.49h-0.59v-0.89l0.89-0.96h-1.97v-1.09h3.61v0.88l-1.03,1.11C63.76,42.16,64.08,42.33,64.3,42.59z"/>
				<path class="st1" d="M69.81,40.08v0.88l-1.76,4.11h-1.54l1.68-3.87h-1.31v0.77h-1.21v-1.89H69.81z"/>
				<path class="st1" d="M71.99,43.76c0.15,0.15,0.23,0.34,0.23,0.58c0,0.11-0.01,0.22-0.04,0.33c-0.03,0.11-0.09,0.27-0.19,0.49
					l-0.45,1.04h-0.85l0.34-1.16c-0.13-0.06-0.24-0.15-0.31-0.27c-0.07-0.12-0.11-0.26-0.11-0.42c0-0.24,0.08-0.43,0.23-0.58
					c0.15-0.15,0.35-0.22,0.58-0.22C71.64,43.53,71.84,43.61,71.99,43.76z"/>
				<path class="st1" d="M77.57,42.94c0.12,0.19,0.19,0.42,0.19,0.67c0,0.31-0.09,0.59-0.27,0.83s-0.44,0.42-0.76,0.55
					c-0.33,0.13-0.71,0.19-1.13,0.19c-0.43,0-0.81-0.06-1.13-0.19s-0.58-0.31-0.76-0.55c-0.18-0.24-0.27-0.51-0.27-0.83
					c0-0.25,0.06-0.48,0.19-0.67c0.12-0.2,0.3-0.36,0.53-0.49c-0.17-0.12-0.3-0.26-0.4-0.44s-0.14-0.36-0.14-0.57
					c0-0.29,0.08-0.55,0.25-0.77s0.4-0.39,0.7-0.51c0.3-0.12,0.65-0.18,1.04-0.18s0.74,0.06,1.04,0.18c0.3,0.12,0.54,0.29,0.7,0.51
					c0.17,0.22,0.25,0.48,0.25,0.77c0,0.21-0.05,0.4-0.14,0.57s-0.22,0.32-0.4,0.44C77.27,42.58,77.44,42.74,77.57,42.94z
					 M76.13,44.02c0.14-0.11,0.2-0.26,0.2-0.45c0-0.19-0.07-0.34-0.2-0.45c-0.14-0.11-0.32-0.17-0.55-0.17
					c-0.23,0-0.41,0.06-0.55,0.17c-0.14,0.11-0.2,0.26-0.2,0.45c0,0.19,0.07,0.34,0.2,0.45c0.14,0.11,0.32,0.17,0.55,0.17
					C75.81,44.18,75.99,44.13,76.13,44.02z M75.16,41.11c-0.11,0.09-0.16,0.22-0.16,0.39c0,0.16,0.05,0.29,0.16,0.38
					s0.25,0.14,0.43,0.14s0.33-0.05,0.44-0.14c0.11-0.09,0.16-0.22,0.16-0.38c0-0.17-0.05-0.3-0.16-0.39
					c-0.11-0.09-0.25-0.14-0.44-0.14C75.41,40.97,75.27,41.02,75.16,41.11z"/>
				<path class="st1" d="M83.06,44.84c-0.42-0.22-0.74-0.53-0.98-0.92s-0.36-0.84-0.36-1.34s0.12-0.95,0.36-1.34s0.56-0.7,0.98-0.92
					c0.42-0.22,0.89-0.33,1.41-0.33c0.46,0,0.87,0.08,1.23,0.24s0.67,0.4,0.91,0.7l-0.9,0.81c-0.32-0.39-0.72-0.58-1.18-0.58
					c-0.27,0-0.51,0.06-0.72,0.18c-0.21,0.12-0.38,0.29-0.49,0.5s-0.17,0.46-0.17,0.75s0.06,0.53,0.17,0.75s0.28,0.38,0.49,0.5
					c0.21,0.12,0.45,0.18,0.72,0.18c0.46,0,0.85-0.19,1.18-0.58l0.9,0.81c-0.24,0.3-0.55,0.54-0.91,0.7s-0.78,0.24-1.23,0.24
					C83.94,45.18,83.47,45.06,83.06,44.84z"/>
				<path class="st1" d="M87.44,46.46c0.31-0.55,0.54-1.09,0.68-1.63c0.14-0.54,0.21-1.11,0.21-1.71c0-0.6-0.07-1.17-0.21-1.71
					s-0.37-1.08-0.68-1.63h1.3c0.29,0.43,0.52,0.93,0.68,1.5c0.16,0.57,0.24,1.19,0.24,1.84c0,0.65-0.08,1.26-0.24,1.84
					c-0.16,0.57-0.39,1.07-0.68,1.5H87.44z"/>
			</g>
			<g>
				<path class="st1" d="M189,75.02h-1.53V73.9h4.47v1.12h-1.53v3.87H189V75.02z"/>
				<path class="st1" d="M194.21,78.66c-0.42-0.22-0.75-0.53-0.99-0.93s-0.36-0.84-0.36-1.33s0.12-0.94,0.36-1.33
					c0.24-0.4,0.57-0.7,0.99-0.93s0.9-0.34,1.42-0.34c0.53,0,1,0.11,1.42,0.34s0.75,0.53,0.99,0.93c0.24,0.39,0.36,0.84,0.36,1.33
					s-0.12,0.94-0.36,1.33s-0.57,0.7-0.99,0.93s-0.9,0.33-1.42,0.33C195.1,78.99,194.63,78.88,194.21,78.66z M196.32,77.65
					c0.2-0.12,0.37-0.29,0.49-0.5c0.12-0.22,0.18-0.46,0.18-0.75s-0.06-0.53-0.18-0.75c-0.12-0.22-0.28-0.38-0.49-0.5
					c-0.21-0.12-0.43-0.18-0.69-0.18s-0.48,0.06-0.68,0.18s-0.37,0.29-0.49,0.5c-0.12,0.22-0.18,0.46-0.18,0.75s0.06,0.53,0.18,0.75
					c0.12,0.22,0.28,0.38,0.49,0.5c0.2,0.12,0.43,0.18,0.68,0.18S196.11,77.77,196.32,77.65z"/>
				<path class="st1" d="M200.44,78.85c-0.38-0.1-0.69-0.23-0.93-0.4l0.46-1.04c0.22,0.15,0.48,0.27,0.78,0.36
					c0.29,0.09,0.58,0.14,0.87,0.14c0.54,0,0.81-0.14,0.81-0.41c0-0.14-0.08-0.25-0.23-0.32c-0.15-0.07-0.4-0.14-0.75-0.22
					c-0.38-0.08-0.69-0.17-0.94-0.26c-0.25-0.09-0.47-0.24-0.65-0.45c-0.18-0.21-0.27-0.48-0.27-0.83c0-0.3,0.08-0.58,0.25-0.82
					c0.17-0.24,0.42-0.44,0.75-0.58c0.33-0.14,0.74-0.21,1.22-0.21c0.33,0,0.65,0.04,0.97,0.11c0.32,0.07,0.6,0.18,0.84,0.32
					l-0.44,1.05c-0.48-0.26-0.94-0.39-1.38-0.39c-0.28,0-0.49,0.04-0.61,0.12c-0.13,0.08-0.19,0.19-0.19,0.32s0.08,0.23,0.23,0.3
					s0.4,0.13,0.73,0.21c0.38,0.08,0.7,0.17,0.95,0.26c0.25,0.09,0.47,0.24,0.65,0.44c0.18,0.2,0.27,0.48,0.27,0.82
					c0,0.3-0.08,0.57-0.25,0.81c-0.17,0.24-0.42,0.44-0.75,0.58c-0.33,0.15-0.74,0.22-1.21,0.22
					C201.21,78.99,200.82,78.94,200.44,78.85z"/>
				<path class="st1" d="M205.77,78.85c-0.38-0.1-0.69-0.23-0.93-0.4l0.46-1.04c0.22,0.15,0.48,0.27,0.78,0.36
					c0.29,0.09,0.58,0.14,0.87,0.14c0.54,0,0.81-0.14,0.81-0.41c0-0.14-0.08-0.25-0.23-0.32c-0.15-0.07-0.4-0.14-0.75-0.22
					c-0.38-0.08-0.69-0.17-0.94-0.26c-0.25-0.09-0.47-0.24-0.65-0.45c-0.18-0.21-0.27-0.48-0.27-0.83c0-0.3,0.08-0.58,0.25-0.82
					c0.17-0.24,0.42-0.44,0.75-0.58c0.33-0.14,0.74-0.21,1.22-0.21c0.33,0,0.65,0.04,0.97,0.11c0.32,0.07,0.6,0.18,0.84,0.32
					l-0.44,1.05c-0.48-0.26-0.94-0.39-1.38-0.39c-0.28,0-0.49,0.04-0.61,0.12c-0.13,0.08-0.19,0.19-0.19,0.32s0.08,0.23,0.23,0.3
					s0.4,0.13,0.73,0.21c0.38,0.08,0.7,0.17,0.95,0.26c0.25,0.09,0.47,0.24,0.65,0.44c0.18,0.2,0.27,0.48,0.27,0.82
					c0,0.3-0.08,0.57-0.25,0.81c-0.17,0.24-0.42,0.44-0.75,0.58c-0.33,0.15-0.74,0.22-1.21,0.22
					C206.54,78.99,206.15,78.94,205.77,78.85z"/>
				<path class="st1" d="M214.53,77.8v1.09h-4.01V73.9h3.92v1.09h-2.52v0.84h2.22v1.06h-2.22v0.91H214.53z"/>
			</g>
			<polyline class="st13" points="166.32,140.76 179.62,81.8 214.87,81.8 			"/>
			<g>
				<path class="st1" d="M24.88,87.51h2.36c0.55,0,1.03,0.1,1.46,0.31c0.42,0.21,0.75,0.5,0.98,0.87c0.23,0.38,0.35,0.82,0.35,1.32
					s-0.12,0.94-0.35,1.32c-0.23,0.38-0.56,0.67-0.98,0.87c-0.42,0.2-0.91,0.31-1.46,0.31h-2.36V87.51z M27.18,91.37
					c0.43,0,0.77-0.12,1.03-0.36S28.6,90.43,28.6,90s-0.13-0.76-0.39-1.01c-0.26-0.24-0.6-0.36-1.03-0.36h-0.89v2.74H27.18z"/>
				<path class="st1" d="M32.58,92.27c-0.42-0.22-0.75-0.53-0.99-0.93c-0.24-0.39-0.36-0.84-0.36-1.33s0.12-0.94,0.36-1.33
					c0.24-0.39,0.57-0.7,0.99-0.93s0.9-0.33,1.42-0.33c0.53,0,1,0.11,1.42,0.33s0.75,0.53,0.99,0.93s0.36,0.84,0.36,1.33
					s-0.12,0.94-0.36,1.33s-0.57,0.7-0.99,0.93S34.53,92.6,34,92.6C33.47,92.6,33,92.49,32.58,92.27z M34.68,91.25
					c0.2-0.12,0.37-0.29,0.49-0.5c0.12-0.22,0.18-0.46,0.18-0.75s-0.06-0.53-0.18-0.75c-0.12-0.22-0.28-0.38-0.49-0.5
					c-0.2-0.12-0.43-0.18-0.68-0.18c-0.25,0-0.48,0.06-0.69,0.18c-0.2,0.12-0.37,0.29-0.49,0.5c-0.12,0.22-0.18,0.46-0.18,0.75
					s0.06,0.53,0.18,0.75c0.12,0.22,0.28,0.38,0.49,0.5c0.2,0.12,0.43,0.18,0.69,0.18C34.25,91.43,34.48,91.37,34.68,91.25z"/>
				<path class="st1" d="M40.41,91.17h-0.77v1.33h-1.41v-4.99h2.28c0.45,0,0.84,0.08,1.18,0.22c0.33,0.15,0.59,0.36,0.77,0.64
					c0.18,0.28,0.27,0.6,0.27,0.98c0,0.36-0.08,0.68-0.25,0.95s-0.41,0.48-0.72,0.63l1.08,1.57h-1.51L40.41,91.17z M41.08,88.81
					c-0.15-0.13-0.37-0.19-0.66-0.19h-0.78v1.46h0.78c0.29,0,0.51-0.06,0.66-0.19s0.22-0.31,0.22-0.54
					C41.31,89.12,41.23,88.94,41.08,88.81z"/>
				<path class="st1" d="M51.76,87.51v4.99H50.6l-2.2-2.66v2.66h-1.38v-4.99h1.16l2.2,2.66v-2.66H51.76z"/>
				<path class="st1" d="M54.57,92.27c-0.42-0.22-0.75-0.53-0.99-0.93c-0.24-0.39-0.36-0.84-0.36-1.33s0.12-0.94,0.36-1.33
					c0.24-0.39,0.57-0.7,0.99-0.93s0.9-0.33,1.42-0.33c0.53,0,1,0.11,1.42,0.33s0.75,0.53,0.99,0.93s0.36,0.84,0.36,1.33
					s-0.12,0.94-0.36,1.33s-0.57,0.7-0.99,0.93S56.52,92.6,56,92.6C55.47,92.6,54.99,92.49,54.57,92.27z M56.68,91.25
					c0.2-0.12,0.37-0.29,0.49-0.5c0.12-0.22,0.18-0.46,0.18-0.75s-0.06-0.53-0.18-0.75c-0.12-0.22-0.28-0.38-0.49-0.5
					c-0.2-0.12-0.43-0.18-0.68-0.18c-0.25,0-0.48,0.06-0.69,0.18c-0.2,0.12-0.37,0.29-0.49,0.5c-0.12,0.22-0.18,0.46-0.18,0.75
					s0.06,0.53,0.18,0.75c0.12,0.22,0.28,0.38,0.49,0.5c0.2,0.12,0.43,0.18,0.69,0.18C56.25,91.43,56.48,91.37,56.68,91.25z"/>
				<path class="st1" d="M25.96,100.54c-0.42-0.22-0.74-0.53-0.98-0.92c-0.24-0.39-0.36-0.84-0.36-1.34s0.12-0.95,0.36-1.34
					c0.24-0.39,0.56-0.7,0.98-0.92c0.42-0.22,0.89-0.33,1.41-0.33c0.46,0,0.87,0.08,1.23,0.24c0.37,0.16,0.67,0.39,0.91,0.7
					l-0.9,0.81c-0.32-0.39-0.72-0.58-1.18-0.58c-0.27,0-0.51,0.06-0.72,0.18c-0.21,0.12-0.38,0.29-0.49,0.5
					c-0.12,0.22-0.17,0.46-0.17,0.75s0.06,0.53,0.17,0.75c0.12,0.22,0.28,0.38,0.49,0.5c0.21,0.12,0.45,0.18,0.72,0.18
					c0.46,0,0.85-0.2,1.18-0.58l0.9,0.81c-0.24,0.3-0.55,0.54-0.91,0.7c-0.37,0.16-0.78,0.24-1.23,0.24
					C26.84,100.87,26.37,100.76,25.96,100.54z"/>
				<path class="st1" d="M31.84,100.54c-0.42-0.22-0.75-0.53-0.99-0.93c-0.24-0.39-0.36-0.84-0.36-1.33s0.12-0.94,0.36-1.33
					c0.24-0.39,0.57-0.7,0.99-0.93s0.9-0.33,1.42-0.33c0.53,0,1,0.11,1.42,0.33s0.75,0.53,0.99,0.93s0.36,0.84,0.36,1.33
					s-0.12,0.94-0.36,1.33s-0.57,0.7-0.99,0.93s-0.9,0.33-1.42,0.33C32.74,100.87,32.26,100.76,31.84,100.54z M33.95,99.53
					c0.2-0.12,0.37-0.29,0.49-0.5c0.12-0.22,0.18-0.46,0.18-0.75s-0.06-0.53-0.18-0.75c-0.12-0.22-0.28-0.38-0.49-0.5
					c-0.2-0.12-0.43-0.18-0.68-0.18c-0.25,0-0.48,0.06-0.69,0.18c-0.2,0.12-0.37,0.29-0.49,0.5c-0.12,0.22-0.18,0.46-0.18,0.75
					s0.06,0.53,0.18,0.75c0.12,0.22,0.28,0.38,0.49,0.5c0.2,0.12,0.43,0.18,0.69,0.18C33.52,99.7,33.75,99.64,33.95,99.53z"/>
				<path class="st1" d="M39.68,99.45h-0.77v1.33H37.5v-4.99h2.28c0.45,0,0.84,0.08,1.18,0.22c0.33,0.15,0.59,0.36,0.77,0.64
					c0.18,0.28,0.27,0.6,0.27,0.98c0,0.36-0.08,0.68-0.25,0.95s-0.41,0.48-0.72,0.63l1.08,1.57h-1.51L39.68,99.45z M40.35,97.09
					c-0.15-0.13-0.37-0.19-0.66-0.19h-0.78v1.46h0.78c0.29,0,0.51-0.06,0.66-0.19s0.22-0.31,0.22-0.54
					C40.57,97.4,40.5,97.21,40.35,97.09z"/>
				<path class="st1" d="M46.95,96.01c0.33,0.15,0.59,0.36,0.77,0.64c0.18,0.28,0.27,0.6,0.27,0.98s-0.09,0.7-0.27,0.98
					c-0.18,0.28-0.44,0.49-0.77,0.64c-0.33,0.15-0.73,0.22-1.18,0.22H44.9v1.31h-1.41v-4.99h2.28
					C46.22,95.78,46.62,95.86,46.95,96.01z M46.34,98.17c0.15-0.13,0.22-0.31,0.22-0.54c0-0.23-0.07-0.41-0.22-0.54
					c-0.15-0.13-0.37-0.19-0.66-0.19H44.9v1.46h0.78C45.98,98.36,46.19,98.29,46.34,98.17z"/>
				<path class="st1" d="M50.56,100.54c-0.42-0.22-0.75-0.53-0.99-0.93c-0.24-0.39-0.36-0.84-0.36-1.33s0.12-0.94,0.36-1.33
					c0.24-0.39,0.57-0.7,0.99-0.93s0.9-0.33,1.42-0.33c0.53,0,1,0.11,1.42,0.33s0.75,0.53,0.99,0.93s0.36,0.84,0.36,1.33
					s-0.12,0.94-0.36,1.33s-0.57,0.7-0.99,0.93s-0.9,0.33-1.42,0.33C51.45,100.87,50.98,100.76,50.56,100.54z M52.66,99.53
					c0.2-0.12,0.37-0.29,0.49-0.5c0.12-0.22,0.18-0.46,0.18-0.75s-0.06-0.53-0.18-0.75c-0.12-0.22-0.28-0.38-0.49-0.5
					c-0.2-0.12-0.43-0.18-0.68-0.18c-0.25,0-0.48,0.06-0.69,0.18c-0.2,0.12-0.37,0.29-0.49,0.5c-0.12,0.22-0.18,0.46-0.18,0.75
					s0.06,0.53,0.18,0.75c0.12,0.22,0.28,0.38,0.49,0.5c0.2,0.12,0.43,0.18,0.69,0.18C52.23,99.7,52.46,99.64,52.66,99.53z"/>
				<path class="st1" d="M63.01,99.68v1.09H59v-4.99h3.92v1.09H60.4v0.84h2.22v1.06H60.4v0.91H63.01z"/>
				<path class="st1" d="M25.96,108.82c-0.42-0.22-0.74-0.53-0.98-0.92c-0.24-0.39-0.36-0.84-0.36-1.34s0.12-0.95,0.36-1.34
					c0.24-0.39,0.56-0.7,0.98-0.92c0.42-0.22,0.89-0.33,1.41-0.33c0.46,0,0.87,0.08,1.23,0.24c0.37,0.16,0.67,0.39,0.91,0.7
					l-0.9,0.81c-0.32-0.39-0.72-0.58-1.18-0.58c-0.27,0-0.51,0.06-0.72,0.18c-0.21,0.12-0.38,0.29-0.49,0.5
					c-0.12,0.22-0.17,0.46-0.17,0.75s0.06,0.53,0.17,0.75c0.12,0.22,0.28,0.38,0.49,0.5c0.21,0.12,0.45,0.18,0.72,0.18
					c0.46,0,0.85-0.2,1.18-0.58l0.9,0.81c-0.24,0.3-0.55,0.54-0.91,0.7c-0.37,0.16-0.78,0.24-1.23,0.24
					C26.84,109.15,26.37,109.04,25.96,108.82z"/>
				<path class="st1" d="M34.11,108.08H32l-0.39,0.97h-1.44l2.2-4.99h1.39l2.21,4.99h-1.47L34.11,108.08z M33.7,107.04l-0.64-1.6
					l-0.64,1.6H33.7z"/>
				<path class="st1" d="M41.84,104.06v4.99h-1.16l-2.2-2.66v2.66h-1.38v-4.99h1.16l2.2,2.66v-2.66H41.84z"/>
				<path class="st1" d="M44.13,109c-0.38-0.1-0.69-0.23-0.93-0.4l0.46-1.04c0.22,0.15,0.48,0.27,0.78,0.36
					c0.29,0.09,0.58,0.14,0.87,0.14c0.54,0,0.81-0.14,0.81-0.41c0-0.14-0.08-0.25-0.23-0.32c-0.15-0.07-0.4-0.14-0.75-0.22
					c-0.38-0.08-0.69-0.17-0.94-0.26s-0.47-0.24-0.65-0.45c-0.18-0.21-0.27-0.48-0.27-0.83c0-0.3,0.08-0.58,0.25-0.82
					c0.17-0.25,0.41-0.44,0.75-0.58c0.33-0.14,0.74-0.21,1.22-0.21c0.33,0,0.65,0.04,0.97,0.11c0.32,0.07,0.6,0.18,0.84,0.32
					l-0.44,1.05c-0.48-0.26-0.94-0.38-1.38-0.38c-0.28,0-0.48,0.04-0.61,0.12c-0.13,0.08-0.19,0.19-0.19,0.32s0.08,0.23,0.23,0.3
					c0.15,0.07,0.4,0.14,0.73,0.21c0.38,0.08,0.7,0.17,0.95,0.26c0.25,0.09,0.47,0.24,0.65,0.44s0.27,0.48,0.27,0.82
					c0,0.3-0.08,0.57-0.25,0.81s-0.42,0.44-0.75,0.58c-0.33,0.15-0.74,0.22-1.21,0.22C44.9,109.15,44.51,109.1,44.13,109z"/>
				<path class="st1" d="M52.23,108.08h-2.11l-0.39,0.97h-1.44l2.2-4.99h1.39l2.21,4.99h-1.47L52.23,108.08z M51.81,107.04
					l-0.64-1.6l-0.64,1.6H51.81z"/>
				<path class="st1" d="M56.21,108.82c-0.42-0.22-0.74-0.53-0.98-0.92c-0.24-0.39-0.36-0.84-0.36-1.34s0.12-0.95,0.36-1.34
					c0.24-0.39,0.56-0.7,0.98-0.92c0.42-0.22,0.89-0.33,1.41-0.33c0.46,0,0.87,0.08,1.23,0.24c0.37,0.16,0.67,0.39,0.91,0.7
					l-0.9,0.81c-0.32-0.39-0.72-0.58-1.18-0.58c-0.27,0-0.51,0.06-0.72,0.18c-0.21,0.12-0.38,0.29-0.49,0.5
					c-0.12,0.22-0.17,0.46-0.17,0.75s0.06,0.53,0.17,0.75c0.12,0.22,0.28,0.38,0.49,0.5c0.21,0.12,0.45,0.18,0.72,0.18
					c0.46,0,0.85-0.2,1.18-0.58l0.9,0.81c-0.24,0.3-0.55,0.54-0.91,0.7c-0.37,0.16-0.78,0.24-1.23,0.24
					C57.1,109.15,56.63,109.04,56.21,108.82z M56.82,110.69c-0.13-0.03-0.23-0.06-0.31-0.11l0.19-0.54c0.14,0.07,0.29,0.1,0.44,0.1
					c0.24,0,0.36-0.07,0.36-0.2c0-0.12-0.11-0.18-0.32-0.18h-0.26l0.19-0.79h0.71l-0.1,0.43c0.21,0.02,0.36,0.09,0.46,0.2
					c0.1,0.11,0.15,0.23,0.15,0.38c0,0.23-0.1,0.41-0.31,0.54c-0.2,0.13-0.48,0.2-0.82,0.2C57.07,110.73,56.95,110.72,56.82,110.69z
					"/>
				<path class="st1" d="M62.1,108.81c-0.42-0.22-0.75-0.53-0.99-0.93c-0.24-0.39-0.36-0.84-0.36-1.33s0.12-0.94,0.36-1.33
					c0.24-0.39,0.57-0.7,0.99-0.93s0.9-0.33,1.42-0.33c0.53,0,1,0.11,1.42,0.33s0.75,0.53,0.99,0.93s0.36,0.84,0.36,1.33
					s-0.12,0.94-0.36,1.33s-0.57,0.7-0.99,0.93s-0.9,0.33-1.42,0.33C62.99,109.15,62.52,109.04,62.1,108.81z M64.21,107.8
					c0.2-0.12,0.37-0.29,0.49-0.5c0.12-0.22,0.18-0.46,0.18-0.75s-0.06-0.53-0.18-0.75c-0.12-0.22-0.28-0.38-0.49-0.5
					c-0.2-0.12-0.43-0.18-0.68-0.18c-0.25,0-0.48,0.06-0.69,0.18c-0.2,0.12-0.37,0.29-0.49,0.5c-0.12,0.22-0.18,0.46-0.18,0.75
					s0.06,0.53,0.18,0.75c0.12,0.22,0.28,0.38,0.49,0.5c0.2,0.12,0.43,0.18,0.69,0.18C63.77,107.98,64,107.92,64.21,107.8z"/>
			</g>
			<polyline class="st13" points="92.4,198.81 69.09,113.16 23.92,113.16 			"/>
			<polyline class="st13" points="181.04,213.84 187.2,137.76 280.96,137.76 			"/>
			<g>
				<g>
					<path class="st14" d="M79.39,41.76c-0.25-0.13-0.44-0.31-0.59-0.55c-0.14-0.23-0.21-0.5-0.21-0.79s0.07-0.55,0.21-0.79
						c0.14-0.23,0.34-0.42,0.59-0.55c0.25-0.13,0.53-0.2,0.84-0.2c0.31,0,0.59,0.07,0.84,0.2c0.25,0.13,0.44,0.31,0.59,0.55
						c0.14,0.23,0.21,0.5,0.21,0.79s-0.07,0.55-0.21,0.79c-0.14,0.23-0.34,0.42-0.59,0.55c-0.25,0.13-0.53,0.2-0.84,0.2
						C79.92,41.95,79.64,41.89,79.39,41.76z M80.64,41.16c0.12-0.07,0.22-0.17,0.29-0.3c0.07-0.13,0.11-0.27,0.11-0.44
						s-0.04-0.31-0.11-0.44c-0.07-0.13-0.17-0.23-0.29-0.3c-0.12-0.07-0.26-0.1-0.4-0.1c-0.15,0-0.28,0.04-0.4,0.1
						c-0.12,0.07-0.22,0.17-0.29,0.3c-0.07,0.13-0.11,0.27-0.11,0.44s0.04,0.31,0.11,0.44c0.07,0.13,0.17,0.23,0.29,0.3
						c0.12,0.07,0.26,0.11,0.4,0.11C80.38,41.26,80.52,41.23,80.64,41.16z"/>
				</g>
			</g>
			<g>
				<path class="st1" d="M236.67,107.8c-0.38-0.1-0.69-0.23-0.93-0.4l0.46-1.04c0.22,0.15,0.48,0.27,0.78,0.36
					c0.29,0.09,0.58,0.14,0.87,0.14c0.54,0,0.81-0.14,0.81-0.41c0-0.14-0.08-0.25-0.23-0.32c-0.15-0.07-0.4-0.14-0.75-0.22
					c-0.38-0.08-0.69-0.17-0.94-0.26c-0.25-0.09-0.47-0.24-0.65-0.45c-0.18-0.21-0.27-0.48-0.27-0.83c0-0.3,0.08-0.58,0.25-0.82
					c0.17-0.25,0.42-0.44,0.75-0.58c0.33-0.14,0.74-0.21,1.22-0.21c0.33,0,0.65,0.04,0.97,0.11c0.32,0.07,0.6,0.18,0.84,0.32
					l-0.44,1.05c-0.48-0.26-0.94-0.38-1.38-0.38c-0.28,0-0.49,0.04-0.61,0.12c-0.13,0.08-0.19,0.19-0.19,0.32s0.08,0.23,0.23,0.3
					s0.4,0.14,0.73,0.21c0.38,0.08,0.7,0.17,0.95,0.26c0.25,0.09,0.47,0.24,0.65,0.44c0.18,0.2,0.27,0.48,0.27,0.82
					c0,0.3-0.08,0.57-0.25,0.81c-0.17,0.24-0.42,0.44-0.75,0.58c-0.33,0.15-0.74,0.22-1.21,0.22
					C237.44,107.95,237.05,107.9,236.67,107.8z"/>
				<path class="st1" d="M241.42,102.86h1.41v4.99h-1.41V102.86z"/>
				<path class="st1" d="M249.31,102.86v4.99h-1.16l-2.2-2.66v2.66h-1.38v-4.99h1.16l2.21,2.66v-2.66H249.31z"/>
				<path class="st1" d="M252.08,103.98h-1.53v-1.12h4.47v1.12h-1.53v3.87h-1.41V103.98z"/>
				<path class="st1" d="M257.29,107.61c-0.42-0.22-0.75-0.53-0.99-0.93s-0.36-0.84-0.36-1.33s0.12-0.94,0.36-1.33
					s0.57-0.7,0.99-0.93s0.9-0.33,1.42-0.33c0.53,0,1,0.11,1.42,0.33s0.75,0.53,0.99,0.93s0.36,0.84,0.36,1.33s-0.12,0.94-0.36,1.33
					s-0.57,0.7-0.99,0.93s-0.9,0.33-1.42,0.33C258.18,107.95,257.71,107.84,257.29,107.61z M259.39,106.6
					c0.2-0.12,0.37-0.29,0.49-0.5c0.12-0.22,0.18-0.46,0.18-0.75s-0.06-0.53-0.18-0.75c-0.12-0.22-0.28-0.38-0.49-0.5
					c-0.21-0.12-0.43-0.18-0.69-0.18s-0.48,0.06-0.68,0.18c-0.2,0.12-0.37,0.29-0.49,0.5c-0.12,0.22-0.18,0.46-0.18,0.75
					s0.06,0.53,0.18,0.75c0.12,0.22,0.28,0.38,0.49,0.5c0.2,0.12,0.43,0.18,0.68,0.18S259.19,106.72,259.39,106.6z"/>
				<path class="st1" d="M267.45,107.85l-0.01-2.65l-1.28,2.15h-0.63l-1.28-2.08v2.58h-1.31v-4.99h1.16l1.75,2.88l1.71-2.88h1.16
					l0.01,4.99H267.45z"/>
				<path class="st1" d="M273.81,106.88h-2.11l-0.39,0.97h-1.44l2.2-4.99h1.39l2.21,4.99h-1.47L273.81,106.88z M273.39,105.84
					l-0.64-1.6l-0.64,1.6H273.39z"/>
				<path class="st1" d="M277.36,107.8c-0.38-0.1-0.69-0.23-0.93-0.4l0.46-1.04c0.22,0.15,0.48,0.27,0.78,0.36
					c0.29,0.09,0.58,0.14,0.87,0.14c0.54,0,0.81-0.14,0.81-0.41c0-0.14-0.08-0.25-0.23-0.32c-0.15-0.07-0.4-0.14-0.75-0.22
					c-0.38-0.08-0.69-0.17-0.94-0.26c-0.25-0.09-0.47-0.24-0.65-0.45c-0.18-0.21-0.27-0.48-0.27-0.83c0-0.3,0.08-0.58,0.25-0.82
					c0.17-0.25,0.42-0.44,0.75-0.58c0.33-0.14,0.74-0.21,1.22-0.21c0.33,0,0.65,0.04,0.97,0.11c0.32,0.07,0.6,0.18,0.84,0.32
					l-0.44,1.05c-0.48-0.26-0.94-0.38-1.38-0.38c-0.28,0-0.49,0.04-0.61,0.12c-0.13,0.08-0.19,0.19-0.19,0.32s0.08,0.23,0.23,0.3
					s0.4,0.14,0.73,0.21c0.38,0.08,0.7,0.17,0.95,0.26c0.25,0.09,0.47,0.24,0.65,0.44c0.18,0.2,0.27,0.48,0.27,0.82
					c0,0.3-0.08,0.57-0.25,0.81c-0.17,0.24-0.42,0.44-0.75,0.58c-0.33,0.15-0.74,0.22-1.21,0.22
					C278.13,107.95,277.74,107.9,277.36,107.8z"/>
				<path class="st1" d="M191.58,113.52h1.25v2.07c-0.29,0.21-0.61,0.36-0.98,0.47s-0.74,0.16-1.11,0.16
					c-0.52,0-0.99-0.11-1.41-0.33c-0.42-0.22-0.75-0.53-0.98-0.92c-0.24-0.39-0.36-0.84-0.36-1.34s0.12-0.95,0.36-1.34
					c0.24-0.39,0.57-0.7,0.99-0.92c0.42-0.22,0.9-0.33,1.43-0.33c0.47,0,0.88,0.08,1.25,0.24c0.37,0.16,0.68,0.38,0.93,0.68
					l-0.9,0.81c-0.34-0.37-0.74-0.56-1.21-0.56c-0.43,0-0.77,0.13-1.04,0.39s-0.39,0.61-0.39,1.04c0,0.28,0.06,0.52,0.18,0.74
					c0.12,0.22,0.29,0.39,0.5,0.51c0.21,0.12,0.46,0.18,0.73,0.18c0.27,0,0.53-0.05,0.76-0.16V113.52z"/>
				<path class="st1" d="M197.79,115.15h-2.11l-0.39,0.97h-1.44l2.2-4.99h1.39l2.21,4.99h-1.47L197.79,115.15z M197.37,114.11
					l-0.64-1.6l-0.64,1.6H197.37z"/>
				<path class="st1" d="M201.34,116.07c-0.38-0.1-0.69-0.23-0.93-0.4l0.46-1.04c0.22,0.15,0.48,0.27,0.78,0.36
					c0.29,0.09,0.58,0.14,0.87,0.14c0.54,0,0.81-0.14,0.81-0.41c0-0.14-0.08-0.25-0.23-0.32c-0.15-0.07-0.4-0.14-0.75-0.22
					c-0.38-0.08-0.69-0.17-0.94-0.26c-0.25-0.09-0.47-0.24-0.65-0.45c-0.18-0.21-0.27-0.48-0.27-0.83c0-0.3,0.08-0.58,0.25-0.82
					c0.17-0.25,0.42-0.44,0.75-0.58c0.33-0.14,0.74-0.21,1.22-0.21c0.33,0,0.65,0.04,0.97,0.11c0.32,0.07,0.6,0.18,0.84,0.32
					l-0.44,1.05c-0.48-0.26-0.94-0.38-1.38-0.38c-0.28,0-0.49,0.04-0.61,0.12c-0.13,0.08-0.19,0.19-0.19,0.32s0.08,0.23,0.23,0.3
					s0.4,0.14,0.73,0.21c0.38,0.08,0.7,0.17,0.95,0.26c0.25,0.09,0.47,0.24,0.65,0.44c0.18,0.2,0.27,0.48,0.27,0.82
					c0,0.3-0.08,0.57-0.25,0.81c-0.17,0.24-0.42,0.44-0.75,0.58c-0.33,0.15-0.74,0.22-1.21,0.22
					C202.11,116.22,201.72,116.17,201.34,116.07z"/>
				<path class="st1" d="M207.08,112.25h-1.53v-1.12h4.47v1.12h-1.53v3.87h-1.41V112.25z"/>
				<path class="st1" d="M213.45,114.8h-0.77v1.33h-1.41v-4.99h2.28c0.45,0,0.84,0.08,1.18,0.22s0.59,0.36,0.77,0.64
					s0.27,0.6,0.27,0.98c0,0.36-0.08,0.68-0.25,0.95s-0.41,0.48-0.72,0.63l1.08,1.57h-1.51L213.45,114.8z M214.12,112.44
					c-0.15-0.13-0.37-0.19-0.66-0.19h-0.79v1.46h0.79c0.29,0,0.51-0.06,0.66-0.19s0.22-0.31,0.22-0.54
					C214.34,112.75,214.27,112.56,214.12,112.44z"/>
				<path class="st1" d="M218.35,115.89c-0.42-0.22-0.75-0.53-0.99-0.93s-0.36-0.84-0.36-1.33s0.12-0.94,0.36-1.33
					s0.57-0.7,0.99-0.93s0.9-0.33,1.42-0.33c0.53,0,1,0.11,1.42,0.33s0.75,0.53,0.99,0.93s0.36,0.84,0.36,1.33s-0.12,0.94-0.36,1.33
					s-0.57,0.7-0.99,0.93s-0.9,0.33-1.42,0.33C219.25,116.22,218.77,116.11,218.35,115.89z M220.46,114.88
					c0.2-0.12,0.37-0.29,0.49-0.5c0.12-0.22,0.18-0.46,0.18-0.75s-0.06-0.53-0.18-0.75c-0.12-0.22-0.28-0.38-0.49-0.5
					c-0.21-0.12-0.43-0.18-0.69-0.18s-0.48,0.06-0.68,0.18c-0.2,0.12-0.37,0.29-0.49,0.5c-0.12,0.22-0.18,0.46-0.18,0.75
					s0.06,0.53,0.18,0.75c0.12,0.22,0.28,0.38,0.49,0.5c0.2,0.12,0.43,0.18,0.68,0.18S220.26,114.99,220.46,114.88z"/>
				<path class="st1" d="M224.01,111.13h1.41v4.99h-1.41V111.13z"/>
				<path class="st1" d="M231.89,111.13v4.99h-1.16l-2.2-2.66v2.66h-1.38v-4.99h1.16l2.21,2.66v-2.66H231.89z"/>
				<path class="st1" d="M234.67,112.25h-1.53v-1.12h4.47v1.12h-1.53v3.87h-1.41V112.25z"/>
				<path class="st1" d="M242.86,115.03v1.09h-4.01v-4.99h3.92v1.09h-2.52v0.84h2.22v1.06h-2.22v0.91H242.86z"/>
				<path class="st1" d="M244.93,116.07c-0.38-0.1-0.69-0.23-0.93-0.4l0.46-1.04c0.22,0.15,0.48,0.27,0.78,0.36
					c0.29,0.09,0.58,0.14,0.87,0.14c0.54,0,0.81-0.14,0.81-0.41c0-0.14-0.08-0.25-0.23-0.32c-0.15-0.07-0.4-0.14-0.75-0.22
					c-0.38-0.08-0.69-0.17-0.94-0.26c-0.25-0.09-0.47-0.24-0.65-0.45c-0.18-0.21-0.27-0.48-0.27-0.83c0-0.3,0.08-0.58,0.25-0.82
					c0.17-0.25,0.42-0.44,0.75-0.58c0.33-0.14,0.74-0.21,1.22-0.21c0.33,0,0.65,0.04,0.97,0.11c0.32,0.07,0.6,0.18,0.84,0.32
					l-0.44,1.05c-0.48-0.26-0.94-0.38-1.38-0.38c-0.28,0-0.49,0.04-0.61,0.12c-0.13,0.08-0.19,0.19-0.19,0.32s0.08,0.23,0.23,0.3
					s0.4,0.14,0.73,0.21c0.38,0.08,0.7,0.17,0.95,0.26c0.25,0.09,0.47,0.24,0.65,0.44c0.18,0.2,0.27,0.48,0.27,0.82
					c0,0.3-0.08,0.57-0.25,0.81c-0.17,0.24-0.42,0.44-0.75,0.58c-0.33,0.15-0.74,0.22-1.21,0.22
					C245.71,116.22,245.31,116.17,244.93,116.07z"/>
				<path class="st1" d="M250.68,112.25h-1.53v-1.12h4.47v1.12h-1.53v3.87h-1.41V112.25z"/>
				<path class="st1" d="M254.86,111.13h1.41v4.99h-1.41V111.13z"/>
				<path class="st1" d="M262.74,111.13v4.99h-1.16l-2.2-2.66v2.66h-1.38v-4.99h1.16l2.21,2.66v-2.66H262.74z"/>
				<path class="st1" d="M267.8,115.15h-2.11l-0.39,0.97h-1.44l2.2-4.99h1.39l2.21,4.99h-1.47L267.8,115.15z M267.38,114.11
					l-0.64-1.6l-0.64,1.6H267.38z"/>
				<path class="st1" d="M270.77,111.13h1.41v4.99h-1.41V111.13z"/>
				<path class="st1" d="M274.48,116.07c-0.38-0.1-0.69-0.23-0.93-0.4l0.46-1.04c0.22,0.15,0.48,0.27,0.78,0.36
					c0.29,0.09,0.58,0.14,0.87,0.14c0.54,0,0.81-0.14,0.81-0.41c0-0.14-0.08-0.25-0.23-0.32c-0.15-0.07-0.4-0.14-0.75-0.22
					c-0.38-0.08-0.69-0.17-0.94-0.26c-0.25-0.09-0.47-0.24-0.65-0.45c-0.18-0.21-0.27-0.48-0.27-0.83c0-0.3,0.08-0.58,0.25-0.82
					c0.17-0.25,0.42-0.44,0.75-0.58c0.33-0.14,0.74-0.21,1.22-0.21c0.33,0,0.65,0.04,0.97,0.11c0.32,0.07,0.6,0.18,0.84,0.32
					l-0.44,1.05c-0.48-0.26-0.94-0.38-1.38-0.38c-0.28,0-0.49,0.04-0.61,0.12c-0.13,0.08-0.19,0.19-0.19,0.32s0.08,0.23,0.23,0.3
					s0.4,0.14,0.73,0.21c0.38,0.08,0.7,0.17,0.95,0.26c0.25,0.09,0.47,0.24,0.65,0.44c0.18,0.2,0.27,0.48,0.27,0.82
					c0,0.3-0.08,0.57-0.25,0.81c-0.17,0.24-0.42,0.44-0.75,0.58c-0.33,0.15-0.74,0.22-1.21,0.22
					C275.26,116.22,274.87,116.17,274.48,116.07z"/>
				<path class="st1" d="M280.47,114.8c0.15,0.15,0.23,0.34,0.23,0.58c0,0.11-0.01,0.22-0.04,0.33s-0.09,0.27-0.19,0.49l-0.45,1.04
					h-0.85l0.34-1.16c-0.13-0.06-0.24-0.15-0.31-0.27c-0.07-0.12-0.11-0.26-0.11-0.42c0-0.24,0.08-0.43,0.23-0.58
					c0.15-0.15,0.35-0.22,0.58-0.22C280.12,114.58,280.32,114.66,280.47,114.8z"/>
				<path class="st1" d="M210.5,124.17c-0.42-0.22-0.74-0.53-0.98-0.92c-0.24-0.39-0.36-0.84-0.36-1.34s0.12-0.95,0.36-1.34
					c0.24-0.39,0.56-0.7,0.98-0.92c0.42-0.22,0.89-0.33,1.41-0.33c0.46,0,0.87,0.08,1.23,0.24c0.37,0.16,0.67,0.39,0.91,0.7
					l-0.9,0.81c-0.32-0.39-0.72-0.58-1.18-0.58c-0.27,0-0.51,0.06-0.72,0.18c-0.21,0.12-0.38,0.29-0.49,0.5
					c-0.12,0.22-0.17,0.46-0.17,0.75s0.06,0.53,0.17,0.75c0.12,0.22,0.28,0.38,0.49,0.5c0.21,0.12,0.45,0.18,0.72,0.18
					c0.46,0,0.85-0.2,1.18-0.58l0.9,0.81c-0.24,0.3-0.55,0.54-0.91,0.7c-0.37,0.16-0.78,0.24-1.23,0.24
					C211.39,124.5,210.92,124.39,210.5,124.17z"/>
				<path class="st1" d="M216.39,124.16c-0.42-0.22-0.75-0.53-0.99-0.93s-0.36-0.84-0.36-1.33s0.12-0.94,0.36-1.33
					s0.57-0.7,0.99-0.93s0.9-0.33,1.42-0.33c0.53,0,1,0.11,1.42,0.33s0.75,0.53,0.99,0.93s0.36,0.84,0.36,1.33s-0.12,0.94-0.36,1.33
					s-0.57,0.7-0.99,0.93s-0.9,0.33-1.42,0.33C217.29,124.5,216.81,124.39,216.39,124.16z M218.5,123.15
					c0.2-0.12,0.37-0.29,0.49-0.5c0.12-0.22,0.18-0.46,0.18-0.75s-0.06-0.53-0.18-0.75c-0.12-0.22-0.28-0.38-0.49-0.5
					c-0.21-0.12-0.43-0.18-0.69-0.18s-0.48,0.06-0.68,0.18c-0.2,0.12-0.37,0.29-0.49,0.5c-0.12,0.22-0.18,0.46-0.18,0.75
					s0.06,0.53,0.18,0.75c0.12,0.22,0.28,0.38,0.49,0.5c0.2,0.12,0.43,0.18,0.68,0.18S218.29,123.27,218.5,123.15z"/>
				<path class="st1" d="M226.55,124.4l-0.01-2.65l-1.28,2.15h-0.63l-1.28-2.08v2.58h-1.31v-4.99h1.16l1.75,2.88l1.71-2.88h1.16
					l0.01,4.99H226.55z"/>
				<path class="st1" d="M230.66,124.16c-0.42-0.22-0.75-0.53-0.99-0.93s-0.36-0.84-0.36-1.33s0.12-0.94,0.36-1.33
					s0.57-0.7,0.99-0.93s0.9-0.33,1.42-0.33c0.53,0,1,0.11,1.42,0.33s0.75,0.53,0.99,0.93s0.36,0.84,0.36,1.33s-0.12,0.94-0.36,1.33
					s-0.57,0.7-0.99,0.93s-0.9,0.33-1.42,0.33C231.56,124.5,231.08,124.39,230.66,124.16z M232.77,123.15
					c0.2-0.12,0.37-0.29,0.49-0.5c0.12-0.22,0.18-0.46,0.18-0.75s-0.06-0.53-0.18-0.75c-0.12-0.22-0.28-0.38-0.49-0.5
					c-0.21-0.12-0.43-0.18-0.69-0.18s-0.48,0.06-0.68,0.18c-0.2,0.12-0.37,0.29-0.49,0.5c-0.12,0.22-0.18,0.46-0.18,0.75
					s0.06,0.53,0.18,0.75c0.12,0.22,0.28,0.38,0.49,0.5c0.2,0.12,0.43,0.18,0.68,0.18S232.56,123.27,232.77,123.15z"/>
				<path class="st1" d="M239.1,119.41h2.36c0.55,0,1.03,0.1,1.46,0.31c0.42,0.21,0.75,0.5,0.98,0.87c0.23,0.38,0.35,0.82,0.35,1.32
					s-0.12,0.94-0.35,1.32c-0.23,0.38-0.56,0.67-0.98,0.87c-0.42,0.2-0.91,0.31-1.46,0.31h-2.36V119.41z M241.41,123.27
					c0.43,0,0.77-0.12,1.03-0.36c0.26-0.24,0.39-0.58,0.39-1.01s-0.13-0.76-0.39-1.01c-0.26-0.24-0.6-0.36-1.03-0.36h-0.89v2.74
					H241.41z"/>
				<path class="st1" d="M245.71,119.41h1.41v4.99h-1.41V119.41z"/>
				<path class="st1" d="M252.19,123.43h-2.11l-0.39,0.97h-1.44l2.2-4.99h1.39l2.21,4.99h-1.47L252.19,123.43z M251.77,122.39
					l-0.64-1.6l-0.64,1.6H251.77z"/>
				<path class="st1" d="M257.35,123.07h-0.77v1.33h-1.41v-4.99h2.28c0.45,0,0.84,0.08,1.18,0.22s0.59,0.36,0.77,0.64
					s0.27,0.6,0.27,0.98c0,0.36-0.08,0.68-0.25,0.95s-0.41,0.48-0.72,0.63l1.08,1.57h-1.51L257.35,123.07z M258.02,120.71
					c-0.15-0.13-0.37-0.19-0.66-0.19h-0.79v1.46h0.79c0.29,0,0.51-0.06,0.66-0.19s0.22-0.31,0.22-0.54
					C258.24,121.02,258.17,120.84,258.02,120.71z"/>
				<path class="st1" d="M263.34,123.07h-0.77v1.33h-1.41v-4.99h2.28c0.45,0,0.84,0.08,1.18,0.22s0.59,0.36,0.77,0.64
					s0.27,0.6,0.27,0.98c0,0.36-0.08,0.68-0.25,0.95s-0.41,0.48-0.72,0.63l1.08,1.57h-1.51L263.34,123.07z M264.01,120.71
					c-0.15-0.13-0.37-0.19-0.66-0.19h-0.79v1.46h0.79c0.29,0,0.51-0.06,0.66-0.19s0.22-0.31,0.22-0.54
					C264.23,121.02,264.16,120.84,264.01,120.71z"/>
				<path class="st1" d="M271.16,123.31v1.09h-4.01v-4.99h3.92v1.09h-2.52v0.84h2.22v1.06h-2.22v0.91H271.16z M269.37,117.91h1.36
					l-1.34,1.08h-0.97L269.37,117.91z"/>
				<path class="st1" d="M272.66,119.41h1.41v4.99h-1.41V119.41z"/>
				<path class="st1" d="M279.14,123.43h-2.11l-0.39,0.97h-1.44l2.2-4.99h1.39l2.21,4.99h-1.47L279.14,123.43z M278.72,122.39
					l-0.64-1.6l-0.64,1.6H278.72z"/>
				<path class="st1" d="M220.11,132.56c-0.16-0.57-0.24-1.18-0.24-1.84c0-0.65,0.08-1.26,0.24-1.84s0.39-1.07,0.68-1.5h1.3
					c-0.31,0.55-0.53,1.09-0.68,1.63c-0.14,0.54-0.21,1.11-0.21,1.71c0,0.6,0.07,1.17,0.21,1.71c0.14,0.54,0.37,1.08,0.68,1.63h-1.3
					C220.5,133.63,220.27,133.13,220.11,132.56z"/>
				<path class="st1" d="M227.8,132.67l-0.01-2.65l-1.28,2.15h-0.63l-1.28-2.08v2.58h-1.31v-4.99h1.16l1.75,2.88l1.71-2.88h1.16
					l0.01,4.99H227.8z"/>
				<path class="st1" d="M234.15,131.7h-2.11l-0.39,0.97h-1.44l2.2-4.99h1.39l2.21,4.99h-1.47L234.15,131.7z M233.74,130.66
					l-0.64-1.6l-0.64,1.6H233.74z"/>
				<path class="st1" d="M237.13,127.68h1.41v4.99h-1.41V127.68z"/>
				<path class="st1" d="M240.84,132.62c-0.38-0.1-0.69-0.23-0.93-0.4l0.46-1.04c0.22,0.15,0.48,0.27,0.78,0.36
					c0.29,0.09,0.58,0.14,0.87,0.14c0.54,0,0.81-0.14,0.81-0.41c0-0.14-0.08-0.25-0.23-0.32c-0.15-0.07-0.4-0.14-0.75-0.22
					c-0.38-0.08-0.69-0.17-0.94-0.26c-0.25-0.09-0.47-0.24-0.65-0.45c-0.18-0.21-0.27-0.48-0.27-0.83c0-0.3,0.08-0.58,0.25-0.82
					c0.17-0.25,0.42-0.44,0.75-0.58c0.33-0.14,0.74-0.21,1.22-0.21c0.33,0,0.65,0.04,0.97,0.11c0.32,0.07,0.6,0.18,0.84,0.32
					l-0.44,1.05c-0.48-0.26-0.94-0.38-1.38-0.38c-0.28,0-0.49,0.04-0.61,0.12c-0.13,0.08-0.19,0.19-0.19,0.32s0.08,0.23,0.23,0.3
					s0.4,0.14,0.73,0.21c0.38,0.08,0.7,0.17,0.95,0.26c0.25,0.09,0.47,0.24,0.65,0.44c0.18,0.2,0.27,0.48,0.27,0.82
					c0,0.3-0.08,0.57-0.25,0.81c-0.17,0.24-0.42,0.44-0.75,0.58c-0.33,0.15-0.74,0.22-1.21,0.22
					C241.61,132.77,241.22,132.72,240.84,132.62z"/>
				<path class="st1" d="M250.56,131.35h-0.77v1.33h-1.41v-4.99h2.28c0.45,0,0.84,0.08,1.18,0.22s0.59,0.36,0.77,0.64
					s0.27,0.6,0.27,0.98c0,0.36-0.08,0.68-0.25,0.95s-0.41,0.48-0.72,0.63l1.08,1.57h-1.51L250.56,131.35z M251.23,128.99
					c-0.15-0.13-0.37-0.19-0.66-0.19h-0.79v1.46h0.79c0.29,0,0.51-0.06,0.66-0.19s0.22-0.31,0.22-0.54
					C251.45,129.3,251.38,129.11,251.23,128.99z"/>
				<path class="st1" d="M257.72,131.7h-2.11l-0.39,0.97h-1.44l2.2-4.99h1.39l2.21,4.99h-1.47L257.72,131.7z M257.3,130.66
					l-0.64-1.6l-0.64,1.6H257.3z"/>
				<path class="st1" d="M262.88,131.35h-0.77v1.33h-1.41v-4.99h2.28c0.45,0,0.84,0.08,1.18,0.22s0.59,0.36,0.77,0.64
					s0.27,0.6,0.27,0.98c0,0.36-0.08,0.68-0.25,0.95s-0.41,0.48-0.72,0.63l1.08,1.57h-1.51L262.88,131.35z M263.55,128.99
					c-0.15-0.13-0.37-0.19-0.66-0.19h-0.79v1.46h0.79c0.29,0,0.51-0.06,0.66-0.19s0.22-0.31,0.22-0.54
					C263.77,129.3,263.69,129.11,263.55,128.99z"/>
				<path class="st1" d="M267.78,132.44c-0.42-0.22-0.75-0.53-0.99-0.93s-0.36-0.84-0.36-1.33s0.12-0.94,0.36-1.33
					s0.57-0.7,0.99-0.93s0.9-0.33,1.42-0.33c0.53,0,1,0.11,1.42,0.33s0.75,0.53,0.99,0.93s0.36,0.84,0.36,1.33s-0.12,0.94-0.36,1.33
					s-0.57,0.7-0.99,0.93s-0.9,0.33-1.42,0.33C268.68,132.77,268.2,132.66,267.78,132.44z M269.89,131.43
					c0.2-0.12,0.37-0.29,0.49-0.5c0.12-0.22,0.18-0.46,0.18-0.75s-0.06-0.53-0.18-0.75c-0.12-0.22-0.28-0.38-0.49-0.5
					c-0.21-0.12-0.43-0.18-0.69-0.18s-0.48,0.06-0.68,0.18c-0.2,0.12-0.37,0.29-0.49,0.5c-0.12,0.22-0.18,0.46-0.18,0.75
					s0.06,0.53,0.18,0.75c0.12,0.22,0.28,0.38,0.49,0.5c0.2,0.12,0.43,0.18,0.68,0.18S269.68,131.54,269.89,131.43z"/>
				<path class="st1" d="M274.01,132.62c-0.38-0.1-0.69-0.23-0.93-0.4l0.46-1.04c0.22,0.15,0.48,0.27,0.78,0.36
					c0.29,0.09,0.58,0.14,0.87,0.14c0.54,0,0.81-0.14,0.81-0.41c0-0.14-0.08-0.25-0.23-0.32c-0.15-0.07-0.4-0.14-0.75-0.22
					c-0.38-0.08-0.69-0.17-0.94-0.26c-0.25-0.09-0.47-0.24-0.65-0.45c-0.18-0.21-0.27-0.48-0.27-0.83c0-0.3,0.08-0.58,0.25-0.82
					c0.17-0.25,0.42-0.44,0.75-0.58c0.33-0.14,0.74-0.21,1.22-0.21c0.33,0,0.65,0.04,0.97,0.11c0.32,0.07,0.6,0.18,0.84,0.32
					l-0.44,1.05c-0.48-0.26-0.94-0.38-1.38-0.38c-0.28,0-0.49,0.04-0.61,0.12c-0.13,0.08-0.19,0.19-0.19,0.32s0.08,0.23,0.23,0.3
					s0.4,0.14,0.73,0.21c0.38,0.08,0.7,0.17,0.95,0.26c0.25,0.09,0.47,0.24,0.65,0.44c0.18,0.2,0.27,0.48,0.27,0.82
					c0,0.3-0.08,0.57-0.25,0.81c-0.17,0.24-0.42,0.44-0.75,0.58c-0.33,0.15-0.74,0.22-1.21,0.22
					C274.79,132.77,274.39,132.72,274.01,132.62z"/>
				<path class="st1" d="M278.25,134.06c0.31-0.55,0.54-1.09,0.68-1.63c0.14-0.54,0.21-1.11,0.21-1.71c0-0.6-0.07-1.17-0.21-1.71
					c-0.14-0.54-0.37-1.08-0.68-1.63h1.3c0.29,0.43,0.52,0.93,0.68,1.5s0.24,1.19,0.24,1.84c0,0.65-0.08,1.26-0.24,1.84
					c-0.16,0.57-0.39,1.07-0.68,1.5H278.25z"/>
			</g>
			<g>
				<path class="st1" d="M13,172.78h2.36c0.55,0,1.03,0.1,1.46,0.31c0.42,0.21,0.75,0.5,0.98,0.87c0.23,0.38,0.35,0.82,0.35,1.32
					s-0.12,0.94-0.35,1.32c-0.23,0.38-0.56,0.67-0.98,0.87c-0.42,0.2-0.91,0.31-1.46,0.31H13V172.78z M15.3,176.65
					c0.43,0,0.77-0.12,1.03-0.36s0.39-0.58,0.39-1.01s-0.13-0.76-0.39-1.01c-0.26-0.24-0.6-0.36-1.03-0.36h-0.89v2.74H15.3z"/>
				<path class="st1" d="M19.61,172.78h1.41v4.99h-1.41V172.78z"/>
				<path class="st1" d="M24.15,173.87v1.1h2.2v1.09h-2.2v1.71h-1.41v-4.99h3.92v1.09H24.15z"/>
				<path class="st1" d="M28.03,172.78h1.41v4.99h-1.41V172.78z"/>
				<path class="st1" d="M32.24,177.54c-0.42-0.22-0.74-0.53-0.98-0.92c-0.24-0.39-0.36-0.84-0.36-1.34s0.12-0.95,0.36-1.34
					c0.24-0.39,0.56-0.7,0.98-0.92c0.42-0.22,0.89-0.33,1.41-0.33c0.46,0,0.87,0.08,1.23,0.24c0.37,0.16,0.67,0.39,0.91,0.7
					l-0.9,0.81c-0.32-0.39-0.72-0.58-1.18-0.58c-0.27,0-0.51,0.06-0.72,0.18c-0.21,0.12-0.38,0.29-0.49,0.5
					c-0.12,0.22-0.17,0.46-0.17,0.75s0.06,0.53,0.17,0.75c0.12,0.22,0.28,0.38,0.49,0.5c0.21,0.12,0.45,0.18,0.72,0.18
					c0.46,0,0.85-0.2,1.18-0.58l0.9,0.81c-0.24,0.3-0.55,0.54-0.91,0.7c-0.37,0.16-0.78,0.24-1.23,0.24
					C33.13,177.87,32.66,177.76,32.24,177.54z"/>
				<path class="st1" d="M37.66,177.27c-0.41-0.4-0.62-0.98-0.62-1.72v-2.77h1.41v2.73c0,0.8,0.32,1.2,0.95,1.2
					c0.63,0,0.94-0.4,0.94-1.2v-2.73h1.39v2.77c0,0.74-0.21,1.31-0.62,1.72c-0.41,0.4-0.99,0.61-1.73,0.61
					C38.65,177.87,38.07,177.67,37.66,177.27z"/>
				<path class="st1" d="M43.41,172.78h1.41v3.87h2.38v1.12h-3.8V172.78z"/>
				<path class="st1" d="M48.47,172.78h2.36c0.55,0,1.03,0.1,1.46,0.31c0.42,0.21,0.75,0.5,0.98,0.87c0.23,0.38,0.35,0.82,0.35,1.32
					s-0.12,0.94-0.35,1.32c-0.23,0.38-0.56,0.67-0.98,0.87c-0.42,0.2-0.91,0.31-1.46,0.31h-2.36V172.78z M50.78,176.65
					c0.43,0,0.77-0.12,1.03-0.36s0.39-0.58,0.39-1.01s-0.13-0.76-0.39-1.01c-0.26-0.24-0.6-0.36-1.03-0.36h-0.89v2.74H50.78z"/>
				<path class="st1" d="M58.35,176.8h-2.11l-0.39,0.97h-1.44l2.2-4.99H58l2.21,4.99h-1.47L58.35,176.8z M57.94,175.76l-0.64-1.6
					l-0.64,1.6H57.94z"/>
				<path class="st1" d="M61.33,172.78h2.36c0.55,0,1.03,0.1,1.46,0.31c0.42,0.21,0.75,0.5,0.98,0.87c0.23,0.38,0.35,0.82,0.35,1.32
					s-0.12,0.94-0.35,1.32c-0.23,0.38-0.56,0.67-0.98,0.87c-0.42,0.2-0.91,0.31-1.46,0.31h-2.36V172.78z M63.63,176.65
					c0.43,0,0.77-0.12,1.03-0.36s0.39-0.58,0.39-1.01s-0.13-0.76-0.39-1.01c-0.26-0.24-0.6-0.36-1.03-0.36h-0.89v2.74H63.63z"/>
				<path class="st1" d="M71.95,176.68v1.09h-4.01v-4.99h3.92v1.09h-2.52v0.84h2.22v1.06h-2.22v0.91H71.95z"/>
				<path class="st1" d="M13,181.05h2.36c0.55,0,1.03,0.1,1.46,0.31c0.42,0.21,0.75,0.5,0.98,0.87c0.23,0.38,0.35,0.82,0.35,1.32
					s-0.12,0.94-0.35,1.32c-0.23,0.38-0.56,0.67-0.98,0.87c-0.42,0.2-0.91,0.31-1.46,0.31H13V181.05z M15.3,184.92
					c0.43,0,0.77-0.12,1.03-0.36s0.39-0.58,0.39-1.01s-0.13-0.76-0.39-1.01c-0.26-0.24-0.6-0.36-1.03-0.36h-0.89v2.74H15.3z"/>
				<path class="st1" d="M23.62,184.96v1.09h-4.01v-4.99h3.92v1.09H21v0.84h2.22v1.06H21v0.91H23.62z"/>
				<path class="st1" d="M30.09,184.72h-0.77v1.33H27.9v-4.99h2.28c0.45,0,0.84,0.08,1.18,0.22c0.33,0.15,0.59,0.36,0.77,0.64
					c0.18,0.28,0.27,0.6,0.27,0.98c0,0.36-0.08,0.68-0.25,0.95s-0.41,0.48-0.72,0.63l1.08,1.57h-1.51L30.09,184.72z M30.76,182.36
					c-0.15-0.13-0.37-0.19-0.66-0.19h-0.78v1.46h0.78c0.29,0,0.51-0.06,0.66-0.19s0.22-0.31,0.22-0.54
					C30.98,182.67,30.9,182.49,30.76,182.36z"/>
				<path class="st1" d="M37.91,184.96v1.09H33.9v-4.99h3.92v1.09h-2.52v0.84h2.22v1.06h-2.22v0.91H37.91z"/>
				<path class="st1" d="M39.98,186c-0.38-0.1-0.69-0.23-0.93-0.4l0.46-1.04c0.22,0.15,0.48,0.27,0.78,0.36
					c0.29,0.09,0.58,0.14,0.87,0.14c0.54,0,0.81-0.14,0.81-0.41c0-0.14-0.08-0.25-0.23-0.32c-0.15-0.07-0.4-0.14-0.75-0.22
					c-0.38-0.08-0.69-0.17-0.94-0.26s-0.47-0.24-0.65-0.45c-0.18-0.21-0.27-0.48-0.27-0.83c0-0.3,0.08-0.58,0.25-0.82
					c0.17-0.25,0.41-0.44,0.75-0.58c0.33-0.14,0.74-0.21,1.22-0.21c0.33,0,0.65,0.04,0.97,0.11c0.32,0.07,0.6,0.18,0.84,0.32
					l-0.44,1.05c-0.48-0.26-0.94-0.38-1.38-0.38c-0.28,0-0.48,0.04-0.61,0.12c-0.13,0.08-0.19,0.19-0.19,0.32s0.08,0.23,0.23,0.3
					c0.15,0.07,0.4,0.14,0.73,0.21c0.38,0.08,0.7,0.17,0.95,0.26c0.25,0.09,0.47,0.24,0.65,0.44s0.27,0.48,0.27,0.82
					c0,0.3-0.08,0.57-0.25,0.81s-0.42,0.44-0.75,0.58c-0.33,0.15-0.74,0.22-1.21,0.22C40.75,186.15,40.36,186.1,39.98,186z"/>
				<path class="st1" d="M48.19,181.28c0.33,0.15,0.59,0.36,0.77,0.64c0.18,0.28,0.27,0.6,0.27,0.98s-0.09,0.7-0.27,0.98
					c-0.18,0.28-0.44,0.49-0.77,0.64c-0.33,0.15-0.73,0.22-1.18,0.22h-0.87v1.31h-1.41v-4.99h2.28
					C47.47,181.05,47.86,181.13,48.19,181.28z M47.59,183.44c0.15-0.13,0.22-0.31,0.22-0.54c0-0.23-0.07-0.41-0.22-0.54
					c-0.15-0.13-0.37-0.19-0.66-0.19h-0.78v1.46h0.78C47.22,183.63,47.44,183.57,47.59,183.44z"/>
				<path class="st1" d="M50.63,181.05h1.41v4.99h-1.41V181.05z"/>
				<path class="st1" d="M55.95,184.72h-0.77v1.33h-1.41v-4.99h2.28c0.45,0,0.84,0.08,1.18,0.22c0.33,0.15,0.59,0.36,0.77,0.64
					c0.18,0.28,0.27,0.6,0.27,0.98c0,0.36-0.08,0.68-0.25,0.95s-0.41,0.48-0.72,0.63l1.08,1.57h-1.51L55.95,184.72z M56.62,182.36
					c-0.15-0.13-0.37-0.19-0.66-0.19h-0.78v1.46h0.78c0.29,0,0.51-0.06,0.66-0.19s0.22-0.31,0.22-0.54
					C56.84,182.67,56.77,182.49,56.62,182.36z"/>
				<path class="st1" d="M63.11,185.08h-2.11l-0.39,0.97h-1.44l2.2-4.99h1.39l2.21,4.99H63.5L63.11,185.08z M62.69,184.04l-0.64-1.6
					l-0.64,1.6H62.69z"/>
				<path class="st1" d="M68.26,184.72h-0.77v1.33h-1.41v-4.99h2.28c0.45,0,0.84,0.08,1.18,0.22c0.33,0.15,0.59,0.36,0.77,0.64
					c0.18,0.28,0.27,0.6,0.27,0.98c0,0.36-0.08,0.68-0.25,0.95s-0.41,0.48-0.72,0.63l1.08,1.57h-1.51L68.26,184.72z M68.93,182.36
					c-0.15-0.13-0.37-0.19-0.66-0.19h-0.78v1.46h0.78c0.29,0,0.51-0.06,0.66-0.19s0.22-0.31,0.22-0.54
					C69.16,182.67,69.08,182.49,68.93,182.36z"/>
			</g>
			<text transform="matrix(1 0 0 1 356.8884 210.1842)"><tspan x="0" y="0" class="st1" style="font-family:'Montserrat-ExtraBold'; font-size:7.1346px;">FEBRE</tspan><tspan x="0" y="8.27" class="st1" style="font-family:'Montserrat-ExtraBold'; font-size:7.1346px;">(&gt;37,8 C)</tspan></text>
			
				<text transform="matrix(1 0 0 1 492.1511 252.2785)" class="st1" style="font-family:'Montserrat-ExtraBold'; font-size:7.1346px;">TOSSE</text>
			<text transform="matrix(1 0 0 1 329.1232 265.8839)"><tspan x="0" y="0" class="st1" style="font-family:'Montserrat-ExtraBold'; font-size:7.1346px;">DOR NO</tspan><tspan x="0" y="8.27" class="st1" style="font-family:'Montserrat-ExtraBold'; font-size:7.1346px;">CORPO E </tspan><tspan x="0" y="16.55" class="st1" style="font-family:'Montserrat-ExtraBold'; font-size:7.1346px;">CANSAÇO</tspan></text>
			<g>
				
					<text transform="matrix(1 0 0 1 383.1999 215.2775)" class="st14" style="font-family:'Montserrat-ExtraBold'; font-size:4.2092px;">O</text>
			</g>
			<text transform="matrix(1 0 0 1 540.2702 281.2336)"><tspan x="0" y="0" class="st1" style="font-family:'Montserrat-ExtraBold'; font-size:7.1346px;">SINTOMAS</tspan><tspan x="-47.79" y="8.27" class="st1" style="font-family:'Montserrat-ExtraBold'; font-size:7.1346px;">GASTROINTESTINAIS,</tspan><tspan x="-26.7" y="16.55" class="st1" style="font-family:'Montserrat-ExtraBold'; font-size:7.1346px;">COMO DIARRÉIA</tspan><tspan x="-16.08" y="24.82" class="st1" style="font-family:'Montserrat-ExtraBold'; font-size:7.1346px;">(MAIS RAROS)</tspan></text>
			<text transform="matrix(1 0 0 1 317.2477 351.1564)"><tspan x="0" y="0" class="st1" style="font-family:'Montserrat-ExtraBold'; font-size:7.1346px;">DIFICULDADE </tspan><tspan x="0" y="8.27" class="st1" style="font-family:'Montserrat-ExtraBold'; font-size:7.1346px;">DE RESPIRAR</tspan></text>
		</g>
		
			<rect x="227.04" y="166.54" transform="matrix(0.1122 -0.9937 0.9937 0.1122 23.513 385.8289)" class="st15" width="1.28" height="26.43"/>
		<path class="st1" d="M215.55,176.48c0.78,0.97,0.62,2.39-0.36,3.17c-0.97,0.78-2.39,0.62-3.17-0.36
			c-0.78-0.97-0.62-2.39,0.36-3.17C213.35,175.35,214.77,175.51,215.55,176.48z"/>
		<path class="st1" d="M243.46,179.97c0.78,0.97,0.62,2.39-0.36,3.17c-0.97,0.78-2.39,0.62-3.17-0.36
			c-0.78-0.97-0.62-2.39,0.36-3.17C241.26,178.84,242.68,179,243.46,179.97z"/>
		
			<rect x="219.46" y="167.72" transform="matrix(0.782 -0.6233 0.6233 0.782 -58.6581 174.7023)" class="st15" width="1.88" height="6.97"/>
		<path class="st1" d="M219.67,166.16c0.88,1.11,0.7,2.72-0.41,3.61c-1.11,0.88-2.72,0.7-3.61-0.41c-0.88-1.11-0.7-2.72,0.41-3.61
			C217.17,164.87,218.78,165.05,219.67,166.16z"/>
		
			<rect x="235.51" y="169.9" transform="matrix(-0.6233 -0.782 0.782 -0.6233 248.3163 465.9734)" class="st15" width="1.76" height="6.56"/>
		<path class="st1" d="M240.93,169.53c0.69,0.86,0.55,2.12-0.32,2.81c-0.86,0.69-2.12,0.55-2.81-0.32
			c-0.69-0.86-0.55-2.12,0.32-2.81C238.99,168.53,240.24,168.67,240.93,169.53z"/>
		
			<rect x="217.04" y="183.49" transform="matrix(-0.6233 -0.782 0.782 -0.6233 207.3755 475.3139)" class="st15" width="2.27" height="8.45"/>
		<path class="st1" d="M216.57,188.95c0.89,1.11,0.7,2.73-0.41,3.61c-1.11,0.89-2.73,0.7-3.61-0.41c-0.89-1.11-0.7-2.73,0.41-3.61
			C214.07,187.66,215.68,187.84,216.57,188.95z"/>
		
			<rect x="233.49" y="185.16" transform="matrix(0.782 -0.6233 0.6233 0.782 -66.602 187.34)" class="st15" width="2" height="7.42"/>
		<path class="st1" d="M239.83,191.19c0.94,1.18,0.75,2.9-0.43,3.84c-1.18,0.94-2.9,0.75-3.84-0.43s-0.75-2.9,0.43-3.84
			C237.17,189.81,238.89,190,239.83,191.19z"/>
		
			<rect x="227.08" y="166.59" transform="matrix(-0.9937 -0.1121 0.1121 -0.9937 433.8308 384.0068)" class="st15" width="1.28" height="26.43"/>
		<path class="st1" d="M230.91,164.24c0.78,0.97,0.62,2.39-0.36,3.17c-0.97,0.78-2.39,0.62-3.17-0.36
			c-0.78-0.97-0.62-2.39,0.36-3.17C228.72,163.1,230.13,163.26,230.91,164.24z"/>
		<path class="st1" d="M227.78,193.14c0.78,0.97,0.62,2.39-0.36,3.17c-0.97,0.78-2.39,0.62-3.17-0.36
			c-0.78-0.97-0.62-2.39,0.36-3.17C225.58,192.01,227,192.17,227.78,193.14z"/>
		<path class="st2" d="M234.82,174.44c3.19,4,2.53,9.82-1.47,13c-1.18,0.94-2.52,1.55-3.9,1.83c-3.3,0.68-6.85-0.48-9.1-3.3
			c-3.19-4-2.53-9.82,1.47-13C225.81,169.79,231.63,170.45,234.82,174.44z"/>
		<path class="st1" d="M231.66,175.59c1.06,1.33,0.84,3.26-0.49,4.32c-1.33,1.06-3.26,0.84-4.32-0.49
			c-1.06-1.33-0.84-3.26,0.49-4.32C228.67,174.04,230.6,174.26,231.66,175.59z"/>
		<path class="st1" d="M228.03,183.1c0.69,0.87,0.55,2.14-0.32,2.83c-0.87,0.69-2.14,0.55-2.83-0.32c-0.69-0.87-0.55-2.14,0.32-2.83
			C226.07,182.09,227.34,182.23,228.03,183.1z"/>
		<path class="st1" d="M223.67,179.02c0.61,0.77,0.49,1.89-0.28,2.51c-0.77,0.61-1.89,0.49-2.51-0.28
			c-0.61-0.77-0.49-1.89,0.28-2.51C221.94,178.13,223.06,178.25,223.67,179.02z"/>
		<path class="st1" d="M231.8,171.97c0,0,8.53,9.12-2.66,17.37c0,0,0.95-0.17,1.55-0.41c0,0,0.58-0.2,1.21-0.53
			c0,0,1.22-0.64,2.22-1.63c0,0,1.9-1.69,2.5-4.51c0,0,0.87-3.39-0.77-6.23C235.84,176.02,234.82,173.6,231.8,171.97z"/>
		
			<rect x="222.06" y="144.7" transform="matrix(0.112 -0.9937 0.9937 0.112 49.4057 353.0761)" class="st15" width="0.41" height="8.39"/>
		<path class="st1" d="M218.41,147.86c0.25,0.31,0.2,0.76-0.11,1.01c-0.31,0.25-0.76,0.2-1.01-0.11c-0.25-0.31-0.2-0.76,0.11-1.01
			C217.71,147.5,218.16,147.55,218.41,147.86z"/>
		<path class="st1" d="M227.27,148.96c0.25,0.31,0.2,0.76-0.11,1.01c-0.31,0.25-0.76,0.2-1.01-0.11c-0.25-0.31-0.2-0.76,0.11-1.01
			C226.57,148.6,227.02,148.65,227.27,148.96z"/>
		
			<rect x="219.65" y="145.07" transform="matrix(0.782 -0.6233 0.6233 0.782 -43.161 168.9613)" class="st15" width="0.6" height="2.21"/>
		<path class="st1" d="M219.72,144.58c0.28,0.35,0.22,0.86-0.13,1.15c-0.35,0.28-0.86,0.22-1.15-0.13
			c-0.28-0.35-0.22-0.86,0.13-1.15C218.92,144.17,219.44,144.23,219.72,144.58z"/>
		
			<rect x="224.74" y="145.77" transform="matrix(-0.6233 -0.782 0.782 -0.6233 250.474 414.277)" class="st15" width="0.56" height="2.08"/>
		<path class="st1" d="M226.46,145.65c0.22,0.27,0.17,0.67-0.1,0.89c-0.27,0.22-0.67,0.17-0.89-0.1c-0.22-0.27-0.17-0.67,0.1-0.89
			C225.85,145.33,226.25,145.38,226.46,145.65z"/>
		
			<rect x="218.88" y="150.08" transform="matrix(-0.6233 -0.782 0.782 -0.6233 237.502 417.2396)" class="st15" width="0.72" height="2.68"/>
		<path class="st1" d="M218.73,151.81c0.28,0.35,0.22,0.87-0.13,1.15c-0.35,0.28-0.87,0.22-1.15-0.13
			c-0.28-0.35-0.22-0.87,0.13-1.15C217.94,151.4,218.45,151.46,218.73,151.81z"/>
		
			<rect x="224.1" y="150.61" transform="matrix(0.782 -0.6233 0.6233 0.782 -45.6815 172.9763)" class="st15" width="0.63" height="2.35"/>
		<path class="st1" d="M226.12,152.52c0.3,0.37,0.24,0.92-0.14,1.22c-0.37,0.3-0.92,0.24-1.22-0.14c-0.3-0.37-0.24-0.92,0.14-1.22
			C225.27,152.08,225.82,152.15,226.12,152.52z"/>
		
			<rect x="222.07" y="144.72" transform="matrix(-0.9937 -0.1122 0.1122 -0.9937 426.4279 321.8193)" class="st15" width="0.41" height="8.39"/>
		<path class="st1" d="M223.29,143.97c0.25,0.31,0.2,0.76-0.11,1.01c-0.31,0.25-0.76,0.2-1.01-0.11c-0.25-0.31-0.2-0.76,0.11-1.01
			C222.59,143.61,223.04,143.66,223.29,143.97z"/>
		<path class="st1" d="M222.29,153.14c0.25,0.31,0.2,0.76-0.11,1.01c-0.31,0.25-0.76,0.2-1.01-0.11c-0.25-0.31-0.2-0.76,0.11-1.01
			C221.59,152.78,222.04,152.83,222.29,153.14z"/>
		<path class="st2" d="M224.53,147.21c1.01,1.27,0.8,3.12-0.47,4.13c-0.37,0.3-0.8,0.49-1.24,0.58c-1.05,0.21-2.18-0.15-2.89-1.05
			c-1.01-1.27-0.8-3.12,0.47-4.13C221.67,145.73,223.51,145.94,224.53,147.21z"/>
		<path class="st1" d="M223.52,147.57c0.34,0.42,0.27,1.03-0.15,1.37c-0.42,0.34-1.03,0.27-1.37-0.15
			c-0.34-0.42-0.27-1.03,0.15-1.37C222.57,147.08,223.19,147.15,223.52,147.57z"/>
		<path class="st1" d="M222.37,149.96c0.22,0.28,0.17,0.68-0.1,0.9c-0.28,0.22-0.68,0.17-0.9-0.1c-0.22-0.28-0.17-0.68,0.1-0.9
			C221.75,149.63,222.15,149.68,222.37,149.96z"/>
		<path class="st1" d="M220.99,148.66c0.2,0.24,0.15,0.6-0.09,0.8c-0.24,0.2-0.6,0.15-0.8-0.09s-0.15-0.6,0.09-0.8
			C220.44,148.38,220.79,148.42,220.99,148.66z"/>
		<path class="st1" d="M223.57,146.42c0,0,2.71,2.89-0.85,5.51c0,0,0.3-0.05,0.49-0.13c0,0,0.18-0.06,0.38-0.17
			c0,0,0.39-0.2,0.7-0.52c0,0,0.6-0.54,0.79-1.43c0,0,0.28-1.08-0.25-1.98C224.85,147.71,224.53,146.94,223.57,146.42z"/>
	</g>
</g>
</svg>
