<?xml version="1.0" encoding="utf-8"?>
<!-- Generator: Adobe Illustrator 23.1.1, SVG Export Plug-In . SVG Version: 6.00 Build 0)  -->
<svg version="1.1" id="OBJECTS" xmlns="http://www.w3.org/2000/svg" xmlns:xlink="http://www.w3.org/1999/xlink" x="0px" y="0px"
	 viewBox="0 0 352.7 214" style="enable-background:new 0 0 352.7 214;" xml:space="preserve">
<style type="text/css">
	.st0{fill:#3F7593;}
	.st1{font-family:'Montserrat-ExtraBold';}
	.st2{font-size:12px;}
	.st3{fill:#17EFFF;}
	.st4{fill:#FFFFFF;}
	.st5{font-size:6.8px;}
	.st6{clip-path:url(#SVGID_2_);}
	.st7{fill:#49CDDA;}
	.st8{font-size:6.4337px;}
	.st9{font-family:'Montserrat-Regular';}
</style>
<text transform="matrix(1 0 0 1 55.7651 20.637)" class="st0 st1 st2">PROCESSO DE GESTÃO DE RESÍDUOS</text>
<g>
</g>
<g>
	<g>
		<path class="st0" d="M73.4,110.4H21.3c-2.7,0-4.9-2.2-4.9-4.9v-52c0-2.7,2.2-4.9,4.9-4.9h52.1c2.7,0,4.9,2.2,4.9,4.9v52.1
			C78.3,108.2,76.1,110.4,73.4,110.4z"/>
		<path class="st0" d="M75.5,111H19.2c-1.8,0-3.3-1.5-3.3-3.3V51.3c0-1.8,1.5-3.3,3.3-3.3h56.3c1.8,0,3.3,1.5,3.3,3.3v56.3
			C78.9,109.5,77.4,111,75.5,111z M19.2,49.2c-1.2,0-2.1,0.9-2.1,2.1v56.3c0,1.2,0.9,2.1,2.1,2.1h56.3c1.2,0,2.1-0.9,2.1-2.1V51.3
			c0-1.2-0.9-2.1-2.1-2.1H19.2z"/>
	</g>
</g>
<g>
	<g>
		<path class="st3" d="M92.8,80.1h-9.6V48.5c0-1.3-0.5-2.5-1.4-3.4s-2.1-1.4-3.4-1.4h-62c-1.3,0-2.5,0.5-3.4,1.4s-1.4,2.1-1.4,3.4
			v31h-1.2v-31c0-1.6,0.6-3.1,1.8-4.3c1.1-1.1,2.6-1.8,4.3-1.8h61.9c1.6,0,3.1,0.6,4.3,1.8c1.1,1.1,1.8,2.6,1.8,4.3v30.4h8.4v1.2
			H92.8z"/>
	</g>
	<g>
		<polygon class="st3" points="91.9,82.5 97.1,79.5 91.9,76.5 		"/>
	</g>
</g>
<g>
</g>
<g>
	<path class="st0" d="M332.9,109.6h-52.1c-2.7,0-4.9-2.2-4.9-4.9V52.8c0-2.7,2.2-4.9,4.9-4.9h52.1c2.7,0,4.9,2.2,4.9,4.9v51.9
		C337.8,107.4,335.6,109.6,332.9,109.6z"/>
	<path class="st4" d="M335.1,110.2h-56.3c-1.8,0-3.3-1.5-3.3-3.3V50.6c0-1.8,1.5-3.3,3.3-3.3h56.3c1.8,0,3.3,1.5,3.3,3.3v56.2
		C338.4,108.7,336.9,110.2,335.1,110.2z M278.7,48.5c-1.2,0-2.1,0.9-2.1,2.1v56.2c0,1.2,0.9,2.1,2.1,2.1H335c1.2,0,2.1-0.9,2.1-2.1
		V50.6c0-1.2-0.9-2.1-2.1-2.1H278.7z"/>
</g>
<g>
	<path class="st3" d="M343.9,78.7h-1.2V47.8c0-1.3-0.5-2.5-1.4-3.4s-2.1-1.4-3.4-1.4H276c-1.3,0-2.5,0.5-3.4,1.4s-1.4,2.1-1.4,3.4
		v30.9H270V47.8c0-1.6,0.6-3.1,1.8-4.2c1.1-1.1,2.6-1.8,4.3-1.8H338c1.6,0,3.1,0.6,4.3,1.8c1.1,1.1,1.8,2.6,1.8,4.2v30.9H343.9z"/>
</g>
<g>
</g>
<g>
	<path class="st0" d="M158.8,110.4h-52.1c-2.7,0-4.9-2.2-4.9-4.9v-52c0-2.7,2.2-4.9,4.9-4.9h52.1c2.7,0,4.9,2.2,4.9,4.9v52.1
		C163.7,108.2,161.5,110.4,158.8,110.4z"/>
	<path class="st4" d="M161,111h-56.3c-1.8,0-3.3-1.5-3.3-3.3V51.3c0-1.8,1.5-3.3,3.3-3.3H161c1.8,0,3.3,1.5,3.3,3.3v56.3
		C164.3,109.5,162.8,111,161,111z M104.6,49.2c-1.2,0-2.1,0.9-2.1,2.1v56.3c0,1.2,0.9,2.1,2.1,2.1H161c1.2,0,2.1-0.9,2.1-2.1V51.3
		c0-1.2-0.9-2.1-2.1-2.1H104.6z"/>
</g>
<g>
	<g>
		<path class="st3" d="M163.8,41.5h-61.9c-1.6,0-3.1,0.6-4.3,1.8c-1.1,1.1-1.8,2.6-1.8,4.3v30H97v-30c0-1.3,0.5-2.5,1.4-3.4
			s2.1-1.4,3.4-1.4h61.9c1.3,0,2.5,0.5,3.4,1.4s1.4,2.1,1.4,3.4v31.6h9.6V78h-8.4V47.5c0-1.6-0.6-3.1-1.8-4.3
			C166.9,42.1,165.4,41.5,163.8,41.5z"/>
	</g>
	<g>
		<polygon class="st3" points="177.3,75.4 182.6,78.5 177.3,81.5 		"/>
	</g>
</g>
<g>
</g>
<g>
	<path class="st0" d="M245.3,110.1h-52.1c-2.7,0-4.9-2.2-4.9-4.9V53.1c0-2.7,2.2-4.9,4.9-4.9h52.1c2.7,0,4.9,2.2,4.9,4.9v52.1
		C250.1,107.9,248,110.1,245.3,110.1z"/>
	<path class="st4" d="M247.4,110.7h-56.3c-1.8,0-3.3-1.5-3.3-3.3V51c0-1.8,1.5-3.3,3.3-3.3h56.3c1.8,0,3.3,1.5,3.3,3.3v56.3
		C250.7,109.2,249.2,110.7,247.4,110.7z M191.1,48.9c-1.2,0-2.1,0.9-2.1,2.1v56.3c0,1.2,0.9,2.1,2.1,2.1h56.3c1.2,0,2.1-0.9,2.1-2.1
		V51c0-1.2-0.9-2.1-2.1-2.1H191.1z"/>
</g>
<g>
	<g>
		<path class="st3" d="M264.7,79.8H255V48.2c0-1.3-0.5-2.5-1.4-3.4s-2.1-1.4-3.4-1.4h-61.9c-1.3,0-2.5,0.5-3.4,1.4s-1.4,2.1-1.4,3.4
			v29h-1.2v-29c0-1.6,0.6-3.1,1.8-4.3c1.1-1.1,2.6-1.8,4.3-1.8h61.9c1.6,0,3.1,0.6,4.3,1.8c1.1,1.1,1.8,2.6,1.8,4.3v30.4h8.4v1.2
			H264.7z"/>
	</g>
	<g>
		<polygon class="st3" points="263.8,82.2 269,79.2 263.8,76.1 		"/>
	</g>
</g>
<path class="st0" d="M288,195.5h-52.1c-2.7,0-4.9-2.2-4.9-4.9v-51.9c0-2.7,2.2-4.9,4.9-4.9H288c2.7,0,4.9,2.2,4.9,4.9v51.9
	C292.8,193.3,290.7,195.5,288,195.5z"/>
<path class="st4" d="M290.1,196.1h-56.3c-1.8,0-3.3-1.5-3.3-3.3v-56.2c0-1.8,1.5-3.3,3.3-3.3h56.3c1.8,0,3.3,1.5,3.3,3.3v56.2
	C293.5,194.6,292,196.1,290.1,196.1z M233.8,134.4c-1.2,0-2.1,0.9-2.1,2.1v56.2c0,1.2,0.9,2.1,2.1,2.1h56.3c1.2,0,2.1-0.9,2.1-2.1
	v-56.2c0-1.2-0.9-2.1-2.1-2.1H233.8z"/>
<path class="st0" d="M115.9,196.3H63.8c-2.7,0-4.9-2.2-4.9-4.9v-52.1c0-2.7,2.2-4.9,4.9-4.9h52.1c2.7,0,4.9,2.2,4.9,4.9v52.1
	C120.7,194.1,118.6,196.3,115.9,196.3z"/>
<path class="st4" d="M118,196.9H61.7c-1.8,0-3.3-1.5-3.3-3.3v-56.3c0-1.8,1.5-3.3,3.3-3.3H118c1.8,0,3.3,1.5,3.3,3.3v56.3
	C121.3,195.4,119.8,196.9,118,196.9z M61.7,135.1c-1.2,0-2.1,0.9-2.1,2.1v56.3c0,1.2,0.9,2.1,2.1,2.1H118c1.2,0,2.1-0.9,2.1-2.1
	v-56.3c0-1.2-0.9-2.1-2.1-2.1H61.7z"/>
<g>
	<path class="st3" d="M120.8,202.4H58.9c-1.6,0-3.1-0.6-4.3-1.8c-1.1-1.1-1.8-2.6-1.8-4.3v-31H54v31c0,1.3,0.5,2.5,1.4,3.4
		s2.1,1.4,3.4,1.4h61.9c1.3,0,2.5-0.5,3.4-1.4s1.4-2.1,1.4-3.4v-31.6h9.6v1.2h-8.4v30.4c0,1.6-0.6,3.1-1.8,4.3
		C123.9,201.8,122.4,202.4,120.8,202.4z"/>
</g>
<path class="st0" d="M202.3,196h-52.1c-2.7,0-4.9-2.2-4.9-4.9V139c0-2.7,2.2-4.9,4.9-4.9h52.1c2.7,0,4.9,2.2,4.9,4.9v52.1
	C207.2,193.8,205,196,202.3,196z"/>
<path class="st4" d="M204.5,196.6h-56.3c-1.8,0-3.3-1.5-3.3-3.3V137c0-1.8,1.5-3.3,3.3-3.3h56.3c1.8,0,3.3,1.5,3.3,3.3v56.3
	C207.8,195.1,206.3,196.6,204.5,196.6z M148.1,134.8c-1.2,0-2.1,0.9-2.1,2.1v56.3c0,1.2,0.9,2.1,2.1,2.1h56.3c1.2,0,2.1-0.9,2.1-2.1
	v-56.3c0-1.2-0.9-2.1-2.1-2.1H148.1z"/>
<g>
	<polygon class="st3" points="221.1,168.1 226.3,165.1 221.1,162.1 	"/>
</g>
<path class="st3" d="M87.5,122.1H58.9c-1.6,0-3.1,0.6-4.3,1.8c-1.1,1.1-1.8,2.6-1.8,4.3v42H54v-42c0-1.3,0.5-2.5,1.4-3.4
	s2.1-1.4,3.4-1.4h28.7C87.5,123.4,87.5,122.1,87.5,122.1z"/>
<g>
	<path class="st3" d="M271.1,86.5L271.1,86.5L271.1,86.5z"/>
	<path class="st3" d="M342.7,58.4v58.9c0,1.3-0.5,2.5-1.4,3.4s-2.1,1.4-3.4,1.4H68.7v1.2h269.2c1.6,0,3.1-0.6,4.3-1.8
		c1.1-1.1,1.8-2.6,1.8-4.2V58.4H342.7z"/>
</g>
<g>
	<path class="st3" d="M222,164.8h-9.6v31.6c0,1.3-0.5,2.5-1.4,3.4s-2.1,1.4-3.4,1.4h-61.9c-1.3,0-2.5-0.5-3.4-1.4s-1.4-2.1-1.4-3.4
		v-29h-1.2v29c0,1.6,0.6,3.1,1.8,4.3c1.1,1.1,2.6,1.8,4.3,1.8h61.9c1.6,0,3.1-0.6,4.3-1.8c1.1-1.1,1.8-2.6,1.8-4.3V166h8.4v-1.2H222
		z"/>
</g>
<g>
	<polygon class="st3" points="134.4,168.4 139.6,165.4 134.4,162.4 	"/>
</g>
<g>
	<text transform="matrix(1 0 0 1 31.1041 64.186)" class="st4 st1 st5">REDUZIR</text>
</g>
<g>
	<text transform="matrix(1 0 0 1 116.0138 64.1859)" class="st4 st1 st5">SEPARAR</text>
</g>
<g>
	<text transform="matrix(1 0 0 1 202.0222 64.1859)" class="st4 st1 st5">COLETAR</text>
</g>
<g>
	<text transform="matrix(1 0 0 1 280.2336 64.1858)" class="st4 st1 st5">TRANSPORTAR</text>
</g>
<g>
	<text transform="matrix(1 0 0 1 240.6984 149.4922)" class="st4 st1 st5">DESCARTAR</text>
</g>
<g>
	<text transform="matrix(1 0 0 1 162.8808 149.4925)" class="st4 st1 st5">TRATAR</text>
</g>
<g>
	<text transform="matrix(0.9663 0 0 1 67.0132 149.4922)" class="st4 st1 st5">ARMAZENAR</text>
</g>
<g>
	<g>
		<g>
			<g>
				<path class="st4" d="M135.2,77.7c0,3.3,2.7,6,6,6c3.2,0,5.8-2.5,6-5.6c0,0.3,0.1,0.7,0.1,1c0,4.1-3,7.5-7,8
					c0.4,0.9,0.6,1.9,0.6,3c0,4.2-3.2,7.6-7.2,8.1c2.8-0.5,5-3,5-6c0-3.3-2.7-6-6-6s-6,2.7-6,6c0,2.6,1.7,4.9,4,5.7
					c-3.4-1-5.9-4.1-5.9-7.8c0-1.1,0.2-2.1,0.6-3c-3.4-0.7-6-3.5-6.4-7c0.9,2.3,3.1,3.9,5.7,3.9c3.3,0,6-2.7,6-6s-2.7-6-6-6
					c-0.6,0-1.1,0.1-1.7,0.2c1.2-0.7,2.6-1.1,4-1.1c2.5,0,4.7,1.1,6.2,2.8c1.5-1.7,3.7-2.8,6.2-2.8c1.2,0,2.3,0.3,3.4,0.7
					c-0.4-0.1-0.9-0.2-1.4-0.2C137.9,71.7,135.2,74.4,135.2,77.7z M133,80.5c-1.2,0-2.1,0.9-2.1,2.1s0.9,2.1,2.1,2.1
					c1.2,0,2.1-0.9,2.1-2.1C135.2,81.4,134.2,80.5,133,80.5z"/>
			</g>
		</g>
		<g>
			<path class="st4" d="M135.3,89.1c-2.7,1-5.8,0.1-7.6-2.1c-0.9-1.1-1.5-2.5-1.6-3.9s0.2-2.8,1-4c1.5-2.5,4.5-3.8,7.3-3.2
				c2.7,0.5,5,2.9,5.4,5.6c0.1,0.4,0.1,0.8,0.1,1.1C139.9,85.5,138,88.1,135.3,89.1z M138.5,83.4L138.5,83.4L138.5,83.4z
				 M135.1,87.8C135.2,87.7,135.2,87.7,135.1,87.8L135.1,87.8z M130.8,87.8C130.8,87.7,130.7,87.7,130.8,87.8L130.8,87.8z M128.5,86
				L128.5,86C128.6,86.1,128.6,86,128.5,86z M127.4,81.8L127.4,81.8L127.4,81.8z M130.8,77.4C130.8,77.5,130.7,77.5,130.8,77.4
				L130.8,77.4z M132.2,77.1C132.2,77.1,132.1,77.1,132.2,77.1L132.2,77.1z M133.7,77C133.8,77.1,133.7,77.1,133.7,77L133.7,77z
				 M138.1,80.4C138.1,80.3,138.1,80.4,138.1,80.4L138.1,80.4z M138.5,82.1c0-0.1,0-0.2,0-0.2s0,0,0-0.1v-0.1
				c-0.1-0.3-0.1-0.6-0.2-0.9c0-0.1-0.1-0.3-0.1-0.4l0,0v-0.1c0-0.1-0.1-0.1-0.1-0.2c-0.1-0.3-0.3-0.5-0.5-0.8
				c0-0.1-0.1-0.1-0.1-0.2l-0.1-0.1c-0.1-0.1-0.2-0.2-0.3-0.3c-0.1-0.1-0.2-0.2-0.3-0.3c-0.1-0.1-0.1-0.1-0.2-0.2c0,0-0.1,0-0.1-0.1
				l0,0l0,0c-0.2-0.2-0.5-0.3-0.7-0.5c-0.1-0.1-0.3-0.1-0.4-0.2h-0.1l0,0c-0.1,0-0.2-0.1-0.2-0.1c-0.3-0.1-0.6-0.2-0.9-0.2
				c-0.1,0-0.1,0-0.2,0h-0.1l0,0c-0.2,0-0.3,0-0.5,0c-0.3,0-0.7,0-1,0l0,0c0,0,0,0-0.1,0s-0.2,0-0.2,0c-0.2,0-0.3,0.1-0.5,0.1
				c-0.1,0-0.3,0.1-0.4,0.1c-0.1,0-0.1,0.1-0.2,0.1l0,0c0,0-0.1,0-0.1,0.1c-0.3,0.1-0.5,0.3-0.8,0.4c-0.1,0.1-0.2,0.2-0.3,0.2l0,0
				c0,0-0.1,0-0.1,0.1c-0.1,0.1-0.1,0.1-0.2,0.2c-0.2,0.2-0.4,0.4-0.6,0.6l-0.1,0.1c0,0.1-0.1,0.1-0.1,0.2c-0.1,0.1-0.2,0.3-0.3,0.4
				s-0.2,0.3-0.2,0.4s-0.1,0.1-0.1,0.2v0.1l0,0l0,0c-0.1,0.3-0.2,0.6-0.3,0.9c0,0.1-0.1,0.3-0.1,0.4v0.1l0,0c0,0.1,0,0.2,0,0.2
				c0,0.3,0,0.7,0,1c0,0.1,0,0.2,0,0.2l0,0v0.1c0,0.2,0.1,0.3,0.1,0.5c0.1,0.3,0.2,0.6,0.3,0.9v0.1c0,0.1,0.1,0.1,0.1,0.2
				c0.1,0.1,0.1,0.3,0.2,0.4c0.1,0.1,0.2,0.2,0.2,0.4c0,0.1,0.1,0.1,0.1,0.2l0.1,0.1c0.2,0.2,0.4,0.4,0.6,0.6c0,0,0.1,0.1,0.2,0.1
				l0.1,0.1c0.1,0.1,0.2,0.2,0.3,0.2c0.3,0.2,0.5,0.3,0.8,0.4h0.1l0,0c0.1,0,0.1,0,0.2,0.1c0.1,0.1,0.3,0.1,0.4,0.1
				c0.1,0,0.3,0.1,0.4,0.1c0.1,0,0.2,0,0.2,0h0.1c0,0,0,0,0.1,0c0.3,0,0.6,0,0.9,0c0.2,0,0.3,0,0.5,0c0,0,0,0,0.1,0c0,0,0,0,0.1,0
				s0.2,0,0.3,0c0.3-0.1,0.6-0.1,0.9-0.3c0.1,0,0.1,0,0.2-0.1l0,0h0.1c0.1-0.1,0.3-0.1,0.4-0.2c0.3-0.1,0.5-0.3,0.7-0.5l0.1-0.1
				c0.1,0,0.1-0.1,0.2-0.2c0.1-0.1,0.2-0.2,0.3-0.3c0.1-0.1,0.2-0.2,0.3-0.3l0.1-0.1c0-0.1,0.1-0.1,0.1-0.2c0.2-0.3,0.3-0.5,0.5-0.8
				c0-0.1,0.1-0.1,0.1-0.2v-0.1l0,0c0.1-0.2,0.1-0.3,0.2-0.5c0.1-0.3,0.2-0.6,0.2-0.9c0,0,0,0,0-0.1l0,0c0-0.1,0-0.2,0-0.2
				C138.6,82.5,138.6,82.4,138.5,82.1C138.5,82.4,138.5,82.3,138.5,82.1z"/>
		</g>
	</g>
</g>
<g>
	<g>
		<defs>
			<rect id="SVGID_1_" x="-6.1" y="303.9" width="377.4" height="208.2"/>
		</defs>
		<clipPath id="SVGID_2_">
			<use xlink:href="#SVGID_1_"  style="overflow:visible;"/>
		</clipPath>
		<g id="zSJnti.tif" class="st6">
		</g>
	</g>
</g>
<g>
	<path class="st4" d="M24.5,79.7h1v22.4c0,0.8,0.6,1.4,1.4,1.4h16.3c0.8,0,1.4-0.6,1.4-1.4V79.7h1v-1.9H24.5V79.7z M28.3,101.7
		c0,0.3-0.2,0.5-0.4,0.5h-0.2c-0.2,0-0.4-0.2-0.4-0.5V80.9c0-0.3,0.2-0.5,0.4-0.5h0.2c0.2,0,0.4,0.2,0.4,0.5V101.7z M30.8,101.7
		c0,0.3-0.2,0.5-0.4,0.5h-0.2c-0.2,0-0.4-0.2-0.4-0.5V80.9c0-0.3,0.2-0.5,0.4-0.5h0.2c0.2,0,0.4,0.2,0.4,0.5V101.7z M33.2,101.7
		c0,0.3-0.2,0.5-0.4,0.5h-0.2c-0.2,0-0.4-0.2-0.4-0.5V80.9c0-0.3,0.2-0.5,0.4-0.5h0.2c0.2,0,0.4,0.2,0.4,0.5V101.7z M35.7,101.7
		c0,0.3-0.2,0.5-0.4,0.5h-0.2c-0.2,0-0.4-0.2-0.4-0.5V80.9c0-0.3,0.2-0.5,0.4-0.5h0.2c0.2,0,0.4,0.2,0.4,0.5V101.7z M38.2,101.7
		c0,0.3-0.2,0.5-0.4,0.5h-0.2c-0.2,0-0.4-0.2-0.4-0.5V80.9c0-0.3,0.2-0.5,0.4-0.5h0.2c0.2,0,0.4,0.2,0.4,0.5V101.7z M40.7,101.7
		c0,0.3-0.2,0.5-0.4,0.5H40c-0.2,0-0.4-0.2-0.4-0.5V80.9c0-0.3,0.2-0.5,0.4-0.5h0.2c0.2,0,0.4,0.2,0.4,0.5L40.7,101.7L40.7,101.7z
		 M43.2,101.7c0,0.3-0.2,0.5-0.4,0.5h-0.2c-0.2,0-0.4-0.2-0.4-0.5V80.9c0-0.3,0.2-0.5,0.4-0.5h0.2c0.2,0,0.4,0.2,0.4,0.5V101.7z"/>
	<path class="st7" d="M24.6,77.7l21.1-1.8L45.5,74l-6.4,0.5L39,73.7c-0.1-1.2-1.1-2-2.3-1.9l-4.1,0.3c-1.2,0.1-2,1.1-1.9,2.3
		l0.1,0.8l-6.4,0.5L24.6,77.7z M32.2,74.3c0-0.4,0.3-0.7,0.6-0.8l4.1-0.3c0.4,0,0.7,0.3,0.8,0.6l0.1,0.8l-5.5,0.5L32.2,74.3z"/>
</g>
<g>
	<path class="st4" d="M231.4,91.7c0-2.6-2.2-17.9-11.6-17.9l0,0c-9.4,0-11.6,15.3-11.6,17.9s-1.6,12.4,11.6,12.4l0,0
		C233,104.1,231.4,94.3,231.4,91.7z M228.7,86.3c-0.1-0.4-0.3-1-0.6-1.7c-0.1-0.4-0.3-0.7-0.4-1.1c-0.2-0.4-0.4-0.8-0.5-1.2
		c-0.2-0.4-0.4-0.9-0.6-1.3c-0.2-0.4-0.5-0.9-0.7-1.3s-0.5-0.8-0.8-1.2c-0.3-0.4-0.6-0.8-0.9-1.1c-0.3-0.4-0.6-0.7-1-0.9
		c-0.2-0.2-0.3-0.2-0.5-0.4c-0.2-0.1-0.3-0.2-0.5-0.3c-0.3-0.2-0.6-0.4-0.9-0.4c-0.3-0.1-0.5-0.2-0.8-0.2c-0.4-0.1-0.7-0.1-0.7-0.1
		s0.3,0,0.7,0c0.2,0,0.5,0.1,0.8,0.1s0.6,0.2,1,0.4c0.2,0.1,0.3,0.2,0.5,0.3c0.2,0.1,0.4,0.2,0.5,0.4c0.4,0.3,0.7,0.6,1.1,0.9
		c0.4,0.3,0.7,0.7,1,1.1s0.6,0.8,0.9,1.3c0.3,0.4,0.5,0.9,0.7,1.3c0.2,0.5,0.4,0.9,0.6,1.4c0.4,0.9,0.6,1.7,0.8,2.5
		c0.1,0.4,0.2,0.7,0.2,1c0.1,0.3,0.1,0.6,0.2,0.8c0.1,0.4,0.1,0.7,0.1,0.7S228.9,86.7,228.7,86.3z"/>
	<g>
		<path class="st4" d="M219.8,69.3c-0.8,0-0.8,0.4-1.1,0.5c-0.3,0.2-0.8-0.1-1.4-0.5c-0.6-0.3-1.8,1-1.8,1l1.2,3.5
			c0.9-0.4,2-0.6,3.1-0.6V69.3z"/>
		<path class="st4" d="M219.8,74.1v-0.3l0,0c-0.7,0-1.4,0.1-2,0.3H219.8z"/>
		<path class="st4" d="M224,70.3c0,0-1.2-1.3-1.8-1s-1,0.6-1.4,0.5c-0.3-0.1-0.3-0.5-1.1-0.5v4c1.1,0,2.1,0.2,3.1,0.6L224,70.3z"/>
		<path class="st4" d="M221.8,74.1c-0.6-0.2-1.3-0.3-2-0.3v0.3H221.8z"/>
	</g>
</g>
<g>
	<path class="st4" d="M298.4,79.5h-5.1c-0.6,0-1.1,0.4-1.4,0.9l-3.9,9l-2.4,2.5c-0.3,0.3-0.4,0.7-0.4,1.1v3.5h-0.9V98h0.9h3.8h0.6
		c0-2,1.6-3.7,3.7-3.7c2,0,3.7,1.6,3.7,3.7h2.5V80.5C299.4,80,299,79.5,298.4,79.5z M285.5,93.6h2.9v1.7h-2.9V93.6z M298,87
		c0,0.6-0.4,1-1,1h-6c-0.2,0-0.3-0.1-0.4-0.2s-0.1-0.3,0-0.5l2.4-5.8c0.2-0.4,0.5-0.6,0.9-0.6h3.1c0.5,0,1,0.5,1,1V87z"/>
	<g>
		<polygon class="st7" points="323.7,77.9 317.7,77.9 326.9,96.7 331.2,93.6 		"/>
		<rect x="308.4" y="79.8" class="st7" width="2.2" height="12.2"/>
		<rect x="313.6" y="79.8" class="st7" width="2.2" height="12.2"/>
		<rect x="303.2" y="79.8" class="st7" width="2.2" height="12.2"/>
		<path class="st7" d="M301.9,77.9c-0.6,0-1,0.4-1,1V98h3c0-2,1.6-3.7,3.7-3.7c2,0,3.7,1.6,3.7,3.7h4c0-2,1.6-3.7,3.7-3.7
			c2,0,3.7,1.6,3.7,3.7h2.5l1.4-1l-9.3-19.1H301.9z M306,92.5h-3.2V79.3h3.2V92.5z M311.1,92.5h-3.2V79.3h3.2V92.5z M316.3,92.5
			h-3.2V79.3h3.2V92.5z"/>
	</g>
	<path class="st4" d="M307.5,94.9c-1.7,0-3.2,1.4-3.2,3.2c0,1.7,1.4,3.2,3.2,3.2c1.7,0,3.2-1.4,3.2-3.2S309.3,94.9,307.5,94.9z
		 M307.5,99.7c-0.9,0-1.6-0.7-1.6-1.6s0.7-1.6,1.6-1.6s1.6,0.7,1.6,1.6C309.2,98.9,308.4,99.7,307.5,99.7z"/>
	<path class="st4" d="M318.9,94.9c-1.7,0-3.2,1.4-3.2,3.2c0,1.7,1.4,3.2,3.2,3.2c1.7,0,3.2-1.4,3.2-3.2S320.6,94.9,318.9,94.9z
		 M318.9,99.7c-0.9,0-1.6-0.7-1.6-1.6s0.7-1.6,1.6-1.6s1.6,0.7,1.6,1.6C320.5,98.9,319.8,99.7,318.9,99.7z"/>
	<path class="st4" d="M293.3,94.9c-1.7,0-3.2,1.4-3.2,3.2c0,1.7,1.4,3.2,3.2,3.2c1.7,0,3.2-1.4,3.2-3.2
		C296.4,96.3,295,94.9,293.3,94.9z M293.3,99.7c-0.9,0-1.6-0.7-1.6-1.6s0.7-1.6,1.6-1.6s1.6,0.7,1.6,1.6
		C294.9,98.9,294.2,99.7,293.3,99.7z"/>
</g>
<g>
	<path class="st4" d="M55.4,88.7H56v14c0,0.5,0.4,0.9,0.9,0.9h10.2c0.5,0,0.9-0.4,0.9-0.9v-14h0.6v-1.2H55.4V88.7z M57.8,102.4
		c0,0.2-0.1,0.3-0.3,0.3h-0.1c-0.2,0-0.3-0.1-0.3-0.3v-13c0-0.2,0.1-0.3,0.3-0.3h0.1c0.2,0,0.3,0.1,0.3,0.3V102.4z M59.3,102.4
		c0,0.2-0.1,0.3-0.3,0.3h-0.1c-0.2,0-0.3-0.1-0.3-0.3v-13c0-0.2,0.1-0.3,0.3-0.3H59c0.2,0,0.3,0.1,0.3,0.3V102.4z M60.9,102.4
		c0,0.2-0.1,0.3-0.3,0.3h-0.1c-0.2,0-0.3-0.1-0.3-0.3v-13c0-0.2,0.1-0.3,0.3-0.3h0.1c0.2,0,0.3,0.1,0.3,0.3V102.4z M62.4,102.4
		c0,0.2-0.1,0.3-0.3,0.3H62c-0.2,0-0.3-0.1-0.3-0.3v-13c0-0.2,0.1-0.3,0.3-0.3h0.1c0.2,0,0.3,0.1,0.3,0.3L62.4,102.4z M64,102.4
		c0,0.2-0.1,0.3-0.3,0.3h-0.1c-0.2,0-0.3-0.1-0.3-0.3v-13c0-0.2,0.1-0.3,0.3-0.3h0.1c0.2,0,0.3,0.1,0.3,0.3V102.4z M65.5,102.4
		c0,0.2-0.1,0.3-0.3,0.3h-0.1c-0.2,0-0.3-0.1-0.3-0.3v-13c0-0.2,0.1-0.3,0.3-0.3h0.1c0.2,0,0.3,0.1,0.3,0.3V102.4z M67.1,102.4
		c0,0.2-0.1,0.3-0.3,0.3h-0.1c-0.2,0-0.3-0.1-0.3-0.3v-13c0-0.2,0.1-0.3,0.3-0.3h0.1c0.2,0,0.3,0.1,0.3,0.3V102.4z"/>
	<path class="st7" d="M55.5,87.4l13.2-1.1l-0.1-1.2l-4,0.3v-0.5c-0.1-0.7-0.7-1.3-1.4-1.2L60.6,84c-0.7,0.1-1.3,0.7-1.2,1.4v0.5
		l-4,0.3L55.5,87.4z M60.3,85.3c0-0.2,0.2-0.5,0.4-0.5l2.5-0.2c0.2,0,0.5,0.2,0.5,0.4v0.5l-3.4,0.3V85.3z"/>
</g>
<path class="st3" d="M54.9,78.2c-1.9-0.7-3.9-0.4-5.5,0.9l-1-1.4c2-1.6,4.7-2,7.1-1.1c1.1,0.4,2.1,1,2.8,1.8l1.2-1.3
	c-0.3,1.4-0.3,3.5-0.1,5c-1.2-1-2.8-2.2-4.2-2.8l1.4-0.2C56.2,78.8,55.6,78.4,54.9,78.2z"/>
<circle class="st3" cx="11.1" cy="80.4" r="2.8"/>
<g>
	<g>
		<g>
			<g>
				<g>
					<path class="st0" d="M221.1,87.5c0,2.2,1.8,3.9,3.9,3.9c2.1,0,3.8-1.6,3.9-3.6c0,0.2,0,0.4,0,0.7c0,2.7-2,4.8-4.5,5.2
						c0.2,0.6,0.4,1.2,0.4,1.9c0,2.7-2.1,4.9-4.7,5.2c1.8-0.3,3.2-1.9,3.2-3.9c0-2.2-1.8-3.9-3.9-3.9s-3.9,1.8-3.9,3.9
						c0,1.7,1.1,3.2,2.6,3.7c-2.2-0.6-3.8-2.6-3.8-5.1c0-0.7,0.1-1.4,0.4-2c-2.2-0.4-3.9-2.3-4.2-4.6c0.6,1.5,2,2.5,3.7,2.5
						c2.2,0,3.9-1.8,3.9-3.9c0-2.2-1.8-3.9-3.9-3.9c-0.4,0-0.7,0.1-1.1,0.1c0.8-0.4,1.7-0.7,2.6-0.7c1.6,0,3,0.7,4,1.8
						c1-1.1,2.4-1.8,4-1.8c0.8,0,1.5,0.2,2.2,0.5c-0.3-0.1-0.6-0.1-0.9-0.1C222.9,83.6,221.1,85.3,221.1,87.5z M219.7,89.3
						c-0.8,0-1.4,0.6-1.4,1.4s0.6,1.4,1.4,1.4c0.8,0,1.4-0.6,1.4-1.4C221.1,89.9,220.5,89.3,219.7,89.3z"/>
				</g>
			</g>
			<g>
				<path class="st0" d="M221.2,94.9c-1.7,0.6-3.8,0.1-5-1.3c-0.6-0.7-1-1.6-1-2.6c-0.1-0.9,0.2-1.8,0.6-2.6c1-1.6,2.9-2.4,4.7-2.1
					s3.2,1.9,3.5,3.6c0,0.2,0.1,0.5,0.1,0.7C224.2,92.5,223,94.2,221.2,94.9z M223.3,91.2L223.3,91.2L223.3,91.2z M221.1,94
					C221.2,94,221.1,94,221.1,94L221.1,94z M218.3,94C218.3,94,218.2,94,218.3,94L218.3,94z M216.8,92.9L216.8,92.9
					C216.9,92.9,216.8,92.9,216.8,92.9z M216.1,90.2C216.1,90.1,216.1,90.1,216.1,90.2L216.1,90.2z M218.3,87.3
					C218.3,87.3,218.2,87.3,218.3,87.3L218.3,87.3z M219.2,87.1L219.2,87.1L219.2,87.1z M220.2,87.1L220.2,87.1L220.2,87.1z
					 M223,89.2L223,89.2L223,89.2z M223.3,90.4c0-0.1,0-0.1,0-0.2l0,0v-0.1c0-0.2-0.1-0.4-0.1-0.6c0-0.1-0.1-0.2-0.1-0.3l0,0
					c0,0,0,0,0-0.1c0,0,0-0.1-0.1-0.1c-0.1-0.2-0.2-0.4-0.3-0.5c0,0,0-0.1-0.1-0.1c0,0,0-0.1-0.1-0.1c-0.1-0.1-0.1-0.2-0.2-0.2
					c-0.1-0.1-0.1-0.1-0.2-0.2l-0.1-0.1c0,0,0,0-0.1,0l0,0l0,0c-0.2-0.1-0.3-0.2-0.5-0.3c-0.1,0-0.2-0.1-0.3-0.1c0,0,0,0-0.1,0l0,0
					c-0.1,0-0.1,0-0.2-0.1c-0.2-0.1-0.4-0.1-0.6-0.2h-0.1c0,0,0,0-0.1,0l0,0c-0.1,0-0.2,0-0.3,0c-0.2,0-0.4,0-0.6,0l0,0l0,0
					c-0.1,0-0.1,0-0.2,0c-0.1,0-0.2,0-0.3,0.1c-0.1,0-0.2,0.1-0.3,0.1c0,0-0.1,0-0.1,0.1l0,0h-0.1c-0.2,0.1-0.3,0.2-0.5,0.3
					c-0.1,0.1-0.2,0.1-0.2,0.2l0,0c0,0,0,0-0.1,0l-0.1,0.1c-0.1,0.1-0.3,0.3-0.4,0.4c0,0,0,0.1-0.1,0.1l-0.1,0.1
					c-0.1,0.1-0.1,0.2-0.2,0.3c-0.1,0.1-0.1,0.2-0.1,0.3c0,0,0,0.1-0.1,0.1c0,0,0,0,0,0.1l0,0l0,0c-0.1,0.2-0.1,0.4-0.2,0.6
					c0,0.1,0,0.2-0.1,0.3c0,0,0,0,0,0.1l0,0c0,0.1,0,0.1,0,0.2c0,0.2,0,0.4,0,0.6c0,0.1,0,0.1,0,0.2l0,0l0,0c0,0.1,0,0.2,0.1,0.3
					c0,0.2,0.1,0.4,0.2,0.6c0,0,0,0,0,0.1c0,0,0,0.1,0.1,0.1c0,0.1,0.1,0.2,0.1,0.3c0,0.1,0.1,0.2,0.2,0.2l0.1,0.1
					c0,0,0,0.1,0.1,0.1c0.1,0.1,0.3,0.3,0.4,0.4l0.1,0.1l0.1,0.1c0.1,0.1,0.1,0.1,0.2,0.2c0.2,0.1,0.3,0.2,0.5,0.3c0,0,0,0,0.1,0
					l0,0h0.1c0.1,0,0.2,0.1,0.3,0.1s0.2,0,0.3,0.1c0.1,0,0.1,0,0.2,0c0,0,0,0,0.1,0l0,0c0.2,0,0.4,0,0.6,0c0.1,0,0.2,0,0.3,0l0,0
					l0,0c0.1,0,0.1,0,0.2,0c0.2,0,0.4-0.1,0.6-0.2h0.1l0,0c0,0,0,0,0.1,0s0.2-0.1,0.3-0.1c0.2-0.1,0.3-0.2,0.5-0.3
					c0,0,0.1,0,0.1-0.1l0.1-0.1c0.1-0.1,0.1-0.1,0.2-0.2c0.1-0.1,0.1-0.1,0.2-0.2l0.1-0.1c0,0,0-0.1,0.1-0.1
					c0.1-0.2,0.2-0.3,0.3-0.5c0,0,0-0.1,0.1-0.1c0,0,0,0,0-0.1l0,0c0-0.1,0.1-0.2,0.1-0.3c0.1-0.2,0.1-0.4,0.1-0.6l0,0l0,0
					c0-0.1,0-0.1,0-0.2s0-0.2,0-0.3C223.3,90.6,223.3,90.5,223.3,90.4z"/>
			</g>
		</g>
	</g>
</g>
<g>
	<g>
		<path class="st3" d="M99.4,183c-1.4,0-2.5,1.1-2.5,2.5s1.1,2.5,2.5,2.5s2.5-1.1,2.5-2.5S100.8,183,99.4,183z M99.4,186.2
			c-0.4,0-0.7-0.3-0.7-0.7s0.3-0.7,0.7-0.7c0.4,0,0.7,0.3,0.7,0.7S99.8,186.2,99.4,186.2z"/>
		<g>
			<path class="st4" d="M106.5,164.5H70.9v1.8h1.7v17.1c0,0.9,0.8,1.7,1.7,1.7H75c0.2-1.5,1.5-2.7,3.1-2.7s2.9,1.2,3.1,2.7h15.2
				c0.2-1.5,1.5-2.7,3.1-2.7s2.9,1.2,3.1,2.7h0.7c0.9,0,1.7-0.8,1.7-1.7v-17.1h1.6L106.5,164.5L106.5,164.5z"/>
			<path class="st3" d="M78.1,183c-1.4,0-2.5,1.1-2.5,2.5s1.1,2.5,2.5,2.5s2.5-1.1,2.5-2.5S79.5,183,78.1,183z M78.1,186.2
				c-0.4,0-0.7-0.3-0.7-0.7s0.3-0.7,0.7-0.7c0.4,0,0.7,0.3,0.7,0.7C78.8,185.9,78.5,186.2,78.1,186.2z"/>
		</g>
	</g>
	<g>
		<g>
			<g>
				<g>
					<path class="st0" d="M89.8,171.5c0,1.8,1.4,3.2,3.2,3.2c1.7,0,3.1-1.3,3.2-3c0,0.2,0,0.4,0,0.6c0,2.2-1.6,4-3.7,4.3
						c0.2,0.5,0.3,1,0.3,1.6c0,2.2-1.7,4.1-3.9,4.3c1.5-0.3,2.7-1.6,2.7-3.2c0-1.8-1.4-3.2-3.2-3.2c-1.8,0-3.2,1.4-3.2,3.2
						c0,1.4,0.9,2.6,2.2,3c-1.8-0.5-3.2-2.2-3.2-4.2c0-0.6,0.1-1.1,0.3-1.6c-1.8-0.4-3.2-1.9-3.4-3.8c0.5,1.2,1.6,2.1,3,2.1
						c1.8,0,3.2-1.4,3.2-3.2s-1.4-3.2-3.2-3.2c-0.3,0-0.6,0-0.9,0.1c0.6-0.4,1.4-0.6,2.2-0.6c1.3,0,2.5,0.6,3.3,1.5
						c0.8-0.9,2-1.5,3.3-1.5c0.6,0,1.2,0.1,1.8,0.4c-0.2-0.1-0.5-0.1-0.7-0.1C91.3,168.2,89.8,169.7,89.8,171.5z M88.7,172.9
						c-0.6,0-1.1,0.5-1.1,1.1s0.5,1.1,1.1,1.1s1.1-0.5,1.1-1.1S89.3,172.9,88.7,172.9z"/>
				</g>
			</g>
			<g>
				<path class="st0" d="M89.9,177.5c-1.4,0.5-3.1,0.1-4.1-1.1c-0.5-0.6-0.8-1.3-0.9-2.1c-0.1-0.7,0.1-1.5,0.5-2.2
					c0.8-1.3,2.4-2,3.9-1.7s2.7,1.5,2.9,3c0,0.2,0.1,0.4,0.1,0.6C92.3,175.6,91.3,177,89.9,177.5z M91.6,174.5L91.6,174.5
					L91.6,174.5z M89.8,176.8C89.9,176.8,89.8,176.8,89.8,176.8L89.8,176.8z M87.5,176.8C87.5,176.8,87.4,176.8,87.5,176.8
					L87.5,176.8z M86.3,175.9L86.3,175.9L86.3,175.9z M85.7,173.7C85.7,173.6,85.7,173.6,85.7,173.7L85.7,173.7z M87.5,171.3
					C87.5,171.3,87.4,171.3,87.5,171.3L87.5,171.3z M88.2,171.1L88.2,171.1L88.2,171.1z M89,171.1C89.1,171.1,89.1,171.1,89,171.1
					L89,171.1z M91.4,172.9C91.4,172.8,91.4,172.9,91.4,172.9L91.4,172.9z M91.6,173.8v-0.1l0,0l0,0c0-0.2-0.1-0.3-0.1-0.5
					c0-0.1-0.1-0.1-0.1-0.2l0,0c0,0,0,0,0-0.1c0,0,0-0.1-0.1-0.1c-0.1-0.1-0.2-0.3-0.3-0.4c0,0,0-0.1-0.1-0.1c0,0,0,0,0-0.1
					c-0.1-0.1-0.1-0.1-0.2-0.2c-0.1-0.1-0.1-0.1-0.2-0.2l-0.1-0.1l0,0l0,0l0,0c-0.1-0.1-0.3-0.2-0.4-0.3c-0.1,0-0.1-0.1-0.2-0.1
					c0,0,0,0-0.1,0l0,0h-0.1c-0.2-0.1-0.3-0.1-0.5-0.1H89c0,0,0,0-0.1,0l0,0c-0.1,0-0.2,0-0.3,0c-0.2,0-0.3,0-0.5,0l0,0l0,0H88
					c-0.1,0-0.2,0-0.2,0.1c-0.1,0-0.2,0-0.2,0.1h-0.1l0,0c0,0,0,0-0.1,0c-0.1,0.1-0.3,0.1-0.4,0.2c-0.1,0-0.1,0.1-0.2,0.1l0,0l0,0
					l-0.1,0.1c-0.1,0.1-0.2,0.2-0.3,0.3c0,0,0,0,0,0.1c0,0,0,0.1-0.1,0.1c0,0.1-0.1,0.1-0.1,0.2c0,0.1-0.1,0.1-0.1,0.2v0.1
					c0,0,0,0,0,0.1l0,0l0,0c-0.1,0.2-0.1,0.3-0.1,0.5c0,0.1,0,0.2,0,0.2s0,0,0,0.1l0,0v0.1c0,0.2,0,0.4,0,0.5v0.1l0,0l0,0
					c0,0.1,0,0.2,0.1,0.3c0,0.2,0.1,0.3,0.1,0.5c0,0,0,0,0,0.1c0,0,0,0.1,0.1,0.1c0,0.1,0.1,0.1,0.1,0.2c0,0.1,0.1,0.1,0.1,0.2
					c0,0,0,0.1,0.1,0.1c0,0,0,0,0.1,0.1s0.2,0.2,0.3,0.3c0,0,0.1,0,0.1,0.1c0,0,0.1,0,0.1,0.1c0.1,0,0.1,0.1,0.2,0.1
					c0.1,0.1,0.3,0.2,0.4,0.2c0,0,0,0,0.1,0l0,0H88c0.1,0,0.2,0.1,0.2,0.1c0.1,0,0.2,0,0.2,0.1h0.1l0,0l0,0c0.2,0,0.3,0,0.5,0
					c0.1,0,0.2,0,0.2,0l0,0l0,0h0.1c0.2,0,0.3-0.1,0.5-0.1h0.1l0,0c0,0,0,0,0.1,0s0.1-0.1,0.2-0.1c0.1-0.1,0.3-0.2,0.4-0.3
					c0,0,0,0,0.1,0l0.1-0.1c0.1-0.1,0.1-0.1,0.2-0.2c0.1-0.1,0.1-0.1,0.2-0.2c0,0,0-0.1,0.1-0.1c0,0,0-0.1,0.1-0.1
					c0.1-0.1,0.2-0.3,0.3-0.4c0,0,0-0.1,0.1-0.1l0,0l0,0c0-0.1,0.1-0.2,0.1-0.2c0-0.2,0.1-0.3,0.1-0.5l0,0l0,0v-0.1
					c0-0.1,0-0.2,0-0.3C91.6,174,91.6,173.9,91.6,173.8z"/>
			</g>
		</g>
	</g>
	<rect x="71" y="161.8" class="st4" width="35.5" height="1.8"/>
</g>
<g>
	<path class="st3" d="M245.1,175.4c0.1,0.2,0.3,0.4,0.5,0.6c0.1,0.1,0.2,0.1,0.3,0.2c0.1,0,0.2,0.1,0.3,0.1c0.1,0.1,0.3,0.1,0.4,0.1
		c0.1,0,0.1,0,0.1,0s0,0-0.1-0.1s-0.2-0.1-0.3-0.2c-0.1-0.1-0.1-0.1-0.2-0.2c-0.1-0.1-0.1-0.1-0.2-0.2c-0.1-0.2-0.2-0.3-0.3-0.5
		c0-0.2-0.1-0.4-0.1-0.7c0-0.2,0.1-0.5,0.1-0.8c0.2-0.5,0.4-1.1,0.6-1.7c0.2-0.6,0.5-1.2,0.6-1.8c0.1-0.3,0.1-0.6,0.2-0.9
		c0-0.3,0-0.6-0.1-0.8c-0.1-0.3-0.2-0.5-0.4-0.6c-0.2-0.2-0.4-0.2-0.6-0.3c-0.2-0.1-0.3-0.1-0.4-0.1c-0.1,0-0.1,0-0.1,0s0,0,0.1,0.1
		c0.1,0,0.2,0.1,0.3,0.2c0.1,0.1,0.3,0.2,0.4,0.3c0.1,0.1,0.2,0.3,0.2,0.5s0,0.4-0.1,0.7c-0.1,0.2-0.2,0.5-0.3,0.8s-0.2,0.6-0.4,0.9
		c-0.1,0.3-0.3,0.6-0.4,0.9c-0.1,0.3-0.2,0.6-0.3,0.9c-0.1,0.3-0.2,0.6-0.2,0.9c0,0.3-0.1,0.6,0,0.9
		C244.9,174.9,245,175.2,245.1,175.4z"/>
	<path class="st3" d="M280.8,171c0.2-0.6,0.5-1.2,0.6-1.8c0.1-0.3,0.1-0.6,0.2-0.9c0-0.3,0-0.6-0.1-0.8c-0.1-0.3-0.2-0.5-0.4-0.6
		c-0.2-0.2-0.4-0.2-0.6-0.3s-0.3-0.1-0.4-0.1s-0.1,0-0.1,0s0,0,0.1,0.1c0.1,0,0.2,0.1,0.3,0.2c0.1,0.1,0.3,0.2,0.4,0.3
		s0.2,0.3,0.2,0.5s0,0.4-0.1,0.7s-0.2,0.5-0.3,0.8c-0.1,0.3-0.2,0.6-0.4,0.9c-0.1,0.3-0.3,0.6-0.4,0.9c-0.1,0.3-0.2,0.6-0.3,0.9
		c-0.1,0.3-0.2,0.6-0.2,0.9c0,0.3-0.1,0.6,0,0.9c0,0.3,0.1,0.6,0.3,0.8c0.1,0.2,0.3,0.4,0.5,0.6c0.1,0.1,0.2,0.1,0.3,0.2
		c0.1,0,0.2,0.1,0.3,0.1c0.1,0.1,0.3,0.1,0.4,0.1s0.1,0,0.1,0s0,0-0.1-0.1s-0.2-0.1-0.3-0.2c-0.1,0-0.1-0.1-0.2-0.2
		c-0.1-0.1-0.1-0.1-0.2-0.2c-0.1-0.2-0.2-0.3-0.3-0.5c0-0.2-0.1-0.4-0.1-0.7c0-0.2,0.1-0.5,0.1-0.8
		C280.3,172.1,280.5,171.6,280.8,171z"/>
	<path class="st3" d="M266.2,167.2c0.1,0.2,0.3,0.4,0.5,0.6c0.1,0.1,0.2,0.1,0.3,0.2c0.1,0,0.2,0.1,0.3,0.1c0.1,0.1,0.3,0.1,0.4,0.1
		s0.1,0,0.1,0s0,0-0.1-0.1s-0.2-0.1-0.3-0.2c-0.1-0.1-0.1-0.1-0.2-0.2c-0.1-0.1-0.1-0.1-0.2-0.2c-0.1-0.2-0.2-0.3-0.3-0.5
		c0-0.2-0.1-0.4-0.1-0.7c0-0.2,0.1-0.5,0.1-0.8c0.2-0.5,0.4-1.1,0.6-1.7c0.2-0.6,0.5-1.2,0.6-1.8c0.1-0.3,0.1-0.6,0.2-0.9
		c0-0.3,0-0.6-0.1-0.8c-0.1-0.3-0.2-0.5-0.4-0.6c-0.2-0.2-0.4-0.2-0.6-0.3s-0.3-0.1-0.4-0.1s-0.1,0-0.1,0s0,0,0.1,0.1
		c0.1,0,0.2,0.1,0.3,0.2c0.1,0.1,0.3,0.2,0.4,0.3s0.2,0.3,0.2,0.5s0,0.4-0.1,0.7c-0.1,0.2-0.2,0.5-0.3,0.8c-0.1,0.3-0.2,0.6-0.4,0.9
		c-0.1,0.3-0.3,0.6-0.4,0.9c-0.1,0.3-0.2,0.6-0.3,0.9c-0.1,0.3-0.2,0.6-0.2,0.9c0,0.3-0.1,0.6,0,0.9
		C265.9,166.6,266.1,166.9,266.2,167.2z"/>
	<path class="st3" d="M256.1,166.3c0.2-0.6,0.5-1.2,0.6-1.8c0.1-0.3,0.1-0.6,0.2-0.9c0-0.3,0-0.6-0.1-0.8c-0.1-0.3-0.2-0.5-0.4-0.6
		c-0.2-0.2-0.4-0.2-0.6-0.3c-0.2-0.1-0.3-0.1-0.4-0.1c-0.1,0-0.1,0-0.1,0s0,0,0.1,0.1c0.1,0,0.2,0.1,0.3,0.2
		c0.1,0.1,0.3,0.2,0.4,0.3s0.2,0.3,0.2,0.5s0,0.4-0.1,0.7c-0.1,0.2-0.2,0.5-0.3,0.8c-0.1,0.3-0.2,0.6-0.4,0.9
		c-0.1,0.3-0.3,0.6-0.4,0.9c-0.1,0.3-0.2,0.6-0.3,0.9c-0.1,0.3-0.2,0.6-0.2,0.9c0,0.3-0.1,0.6,0,0.9c0,0.3,0.1,0.6,0.3,0.8
		c0.1,0.2,0.3,0.4,0.5,0.6c0.1,0.1,0.2,0.1,0.3,0.2c0.1,0,0.2,0.1,0.3,0.1c0.1,0.1,0.3,0.1,0.4,0.1s0.1,0,0.1,0s0,0-0.1-0.1
		s-0.2-0.1-0.3-0.2c-0.1,0-0.1-0.1-0.2-0.2c-0.1-0.1-0.1-0.1-0.2-0.2c-0.1-0.2-0.2-0.3-0.3-0.5c0-0.2-0.1-0.4-0.1-0.7
		c0-0.2,0.1-0.5,0.1-0.8C255.7,167.5,255.9,166.9,256.1,166.3z"/>
	<path class="st4" d="M285,185.2c-0.2-0.1-0.4-0.1-0.6-0.1c0.1-0.2,0.3-0.5,0.3-0.8c0.5-1.8-0.6-3.6-2.4-4.1c-0.7-0.2-1.4-0.2-2.1,0
		c0.1-0.1,0.1-0.3,0.1-0.4c0.7-2.4-1.5-5.1-4.9-6.1c-0.2-0.1-0.5-0.1-0.7-0.2c-0.2-1-0.7-1.8-1.5-2.3l0,0l1.9-1.2l-2.7-0.4l-2.3-1.3
		l0.6,2.6l0,0c-1.2,0.4-2.2,1.4-2.5,2.8c-0.1,0.5-0.1,1-0.1,1.4c-0.6-1-1.7-1.7-3-1.9c-0.8-1.2-2.2-2-3.8-2c-2.2,0-4,1.5-4.5,3.6
		c-1.1-0.2-2.4-0.2-3.7,0.1c-3.1,0.7-5.4,2.7-5.5,4.8c-0.1,0-0.1,0.1-0.2,0.1c-0.4-0.3-0.8-0.5-1.4-0.5c-1.1,0-2,0.9-2,2
		c0,0.5,0.2,0.9,0.4,1.3l-0.1,0.1c-1.9,0-3.4,1.6-3.4,3.5c0,1.1,0.5,2,1.2,2.6H286c0.3-0.3,0.5-0.6,0.6-0.9
		C286.9,186.8,286.2,185.6,285,185.2z M259,184.6c0-0.1,0-0.3-0.1-0.4l-0.1-0.2c0-0.1-0.1-0.1-0.1-0.2c0-0.1-0.1-0.1-0.1-0.2
		l-0.1-0.1c-0.1-0.1-0.2-0.1-0.3-0.2c-0.1,0-0.2-0.1-0.3-0.1h-0.2h-0.2h-0.1h-0.1h-0.2c-0.1,0-0.1,0-0.2,0.1l-0.1,0.1l-0.3,0.1
		l-0.1-0.3c0-0.2-0.1-0.3-0.1-0.5l-0.2-0.5l-0.3-0.4c-0.1-0.1-0.2-0.3-0.3-0.4c-0.1-0.1-0.3-0.2-0.4-0.3c-0.2-0.1-0.3-0.2-0.4-0.2
		c-0.2,0-0.3-0.1-0.5-0.1s-0.3-0.1-0.5,0c-0.2,0-0.4,0-0.5,0.1c-0.2,0-0.3,0.1-0.5,0.1c-0.1,0.1-0.3,0.1-0.5,0.2
		c-0.1,0.1-0.3,0.2-0.4,0.3c-0.1,0.1-0.2,0.2-0.4,0.4c-0.1,0.1-0.2,0.3-0.3,0.4c-0.1,0.2-0.1,0.3-0.2,0.5c0,0.2-0.1,0.4-0.1,0.5
		c0-0.2,0-0.4,0-0.6c0-0.2,0.1-0.4,0.1-0.6c0.1-0.2,0.1-0.4,0.2-0.5c0.1-0.2,0.2-0.3,0.3-0.5s0.3-0.3,0.4-0.4
		c0.2-0.1,0.3-0.2,0.5-0.3s0.4-0.1,0.6-0.2c0.2-0.1,0.4-0.1,0.6-0.1c0.2,0,0.4,0,0.6,0c0.2,0,0.4,0.1,0.6,0.1
		c0.2,0.1,0.4,0.2,0.6,0.3c0.2,0.1,0.3,0.2,0.5,0.4c0.2,0.1,0.3,0.3,0.4,0.5s0.2,0.3,0.3,0.5c0.1,0.2,0.1,0.4,0.2,0.6
		c0,0.1,0,0.2,0,0.3c0.1,0,0.1,0,0.2,0h0.2c0,0,0,0,0.1,0h0.1h0.2l0.2,0.1c0.1,0,0.3,0.1,0.4,0.2c0.1,0,0.1,0.1,0.2,0.1
		c0.1,0.1,0.1,0.1,0.1,0.2l0.1,0.2c0,0.1,0.1,0.1,0.1,0.2c0,0.1,0.1,0.1,0.1,0.2v0.2C259,184.4,259,184.5,259,184.6z M259.6,176.2
		c-0.3-0.3-0.8-0.6-1.3-0.8c0.4-1.5,1.4-2.5,2.5-2.5c0.6,0,1.2,0.3,1.7,0.8c-1.1,0.5-1.9,1.4-2.2,2.5
		C260.1,176.2,259.9,176.2,259.6,176.2z M280.3,184.9c0,0,0-0.1-0.1-0.2c0-0.1,0-0.1-0.1-0.2c0-0.1-0.1-0.2-0.2-0.3
		s-0.1-0.2-0.2-0.3s-0.2-0.1-0.3-0.2c-0.1-0.1-0.2-0.1-0.4-0.1c-0.1,0-0.3,0-0.4-0.1c-0.1,0-0.3,0-0.4,0.1c-0.1,0-0.3,0.1-0.4,0.1
		c-0.1,0.1-0.2,0.1-0.3,0.2c-0.1,0.1-0.2,0.2-0.2,0.3c-0.1,0.1-0.1,0.2-0.2,0.3c0,0.1-0.1,0.2-0.1,0.2c0,0.1-0.1,0.2-0.1,0.2
		s0-0.1,0-0.2c0-0.1,0-0.2,0-0.3s0-0.2,0.1-0.3c0-0.1,0.1-0.2,0.2-0.4c0.1-0.1,0.2-0.2,0.3-0.3c0.1-0.1,0.2-0.1,0.3-0.2v-0.1
		c0-0.2-0.1-0.3-0.2-0.4c0-0.1-0.1-0.3-0.2-0.4c-0.1-0.1-0.2-0.3-0.3-0.4c-0.1-0.1-0.2-0.2-0.3-0.3c-0.1-0.1-0.2-0.2-0.4-0.3
		l-0.4-0.2l-0.4-0.1c-0.1,0-0.3,0-0.4,0s-0.2,0-0.2,0h-0.2c-0.2,0-0.3,0.1-0.4,0.1s-0.3,0.1-0.4,0.2c-0.1,0.1-0.3,0.1-0.4,0.2
		c-0.1,0.1-0.2,0.2-0.3,0.3c-0.1,0.1-0.2,0.2-0.3,0.3c-0.1,0.1-0.2,0.2-0.2,0.4l-0.2,0.3l-0.2-0.1c-0.1-0.1-0.3-0.2-0.4-0.2
		c-0.2,0-0.3-0.1-0.5-0.1c0,0-0.2,0-0.3,0c-0.1,0-0.2,0-0.3,0c-0.2,0-0.3,0.1-0.5,0.2c-0.2,0.1-0.3,0.2-0.4,0.3l-0.2,0.2
		c-0.1,0.1-0.1,0.1-0.2,0.2l-0.2,0.2l-0.1,0.3c-0.1,0.2-0.1,0.4-0.1,0.5c0-0.2,0-0.4,0-0.6l0.1-0.3l0.1-0.3c0-0.1,0.1-0.2,0.1-0.3
		c0.1-0.1,0.1-0.2,0.2-0.2c0.2-0.1,0.3-0.3,0.5-0.4c0.1-0.1,0.2-0.1,0.3-0.2l0.3-0.1c0.1,0,0.2,0,0.3-0.1c0.1,0,0.2,0,0.3,0
		c0.2,0,0.4,0,0.6,0.1c0.1,0,0.2,0.1,0.3,0.1c0-0.1,0.1-0.2,0.1-0.2c0.1-0.1,0.2-0.3,0.3-0.4c0.1-0.1,0.3-0.2,0.4-0.3
		s0.3-0.2,0.5-0.3s0.3-0.1,0.5-0.2c0.2,0,0.4-0.1,0.5-0.1h0.2c0.1,0,0.2,0,0.3,0c0.2,0,0.4,0,0.5,0.1c0.2,0.1,0.3,0.1,0.5,0.2
		l0.4,0.3c0.1,0.1,0.3,0.2,0.4,0.3s0.2,0.3,0.3,0.4c0.1,0.1,0.2,0.3,0.3,0.4c0.1,0.2,0.1,0.3,0.2,0.5c0,0.2,0.1,0.3,0.1,0.5v0.1h0.1
		c0.2-0.1,0.4-0.1,0.5-0.1c0.2,0,0.3,0,0.5,0.1c0.2,0,0.3,0.1,0.5,0.2c0.1,0.1,0.3,0.2,0.3,0.3c0.1,0.1,0.2,0.2,0.2,0.4
		c0.1,0.1,0.1,0.2,0.1,0.3s0,0.2,0,0.3C280.3,184.9,280.3,184.9,280.3,184.9z"/>
</g>
<g>
	<g>
		<polygon class="st4" points="169,170.3 172.6,169 172.6,160.8 169,160.8 		"/>
		<polygon class="st4" points="178.9,170.3 182.6,169 182.6,160.8 178.9,160.8 		"/>
		<path class="st4" d="M164.6,187.2h26v-8.8h-26V187.2z M177,179.7h2.8v4.5H177V179.7z M172.1,179.7h2.8v4.5h-2.8V179.7z M167,179.7
			h2.8v4.5H167V179.7z"/>
		<polygon class="st4" points="184.4,173.1 183.7,169.5 174.7,173.1 173.6,169.5 164.6,173.1 164.6,176.9 190.6,176.9 190.6,173.1 
					"/>
		<path class="st3" d="M167.4,160.2c0.5-0.1,0.8-0.3,1.1-0.6s0.5-0.6,0.8-0.7c0.3-0.2,0.7-0.2,1-0.2c0.2,0,0.4,0.1,0.6,0.4
			c0.2,0.3,0.3,0.6,0.4,1h0.1c0.1-0.4,0.1-0.8,0-1.2c-0.1-0.2-0.2-0.4-0.4-0.6c-0.2-0.2-0.5-0.3-0.7-0.2c-0.5,0.1-0.8,0.4-1.1,0.6
			c-0.3,0.2-0.6,0.5-0.9,0.6c-0.3,0.1-0.7,0.2-0.9,0.3c-0.3,0-0.5-0.1-0.7-0.3c-0.5-0.3-0.8-1-1.2-1.6h-0.1c0,0.8,0.1,1.6,0.8,2.2
			C166.4,160.1,166.9,160.3,167.4,160.2z"/>
		<path class="st3" d="M178.6,160.2c0.3-0.1,0.6-0.3,0.8-0.5s0.3-0.4,0.6-0.5c0.2-0.1,0.5-0.1,0.7-0.1c0.1,0,0.2,0.1,0.3,0.2
			c0.1,0.2,0.2,0.4,0.4,0.6h0.1c0.1-0.3,0.2-0.6,0.1-0.9c0-0.2-0.1-0.3-0.3-0.4c-0.1-0.1-0.4-0.2-0.6-0.2c-0.4,0.1-0.6,0.3-0.8,0.5
			s-0.4,0.3-0.7,0.4c-0.2,0.1-0.5,0.1-0.6,0.1c-0.2,0-0.3-0.1-0.4-0.2c-0.3-0.2-0.6-0.6-0.9-1h-0.1c-0.1,0.6,0,1.2,0.5,1.7
			C177.8,160.2,178.2,160.3,178.6,160.2z"/>
	</g>
</g>
<g>
	<text transform="matrix(1 0 0 1 300.8981 207.3011)" class="st0 st1 st8">FONTE:</text>
	<text transform="matrix(1 0 0 1 325.8981 207.3011)" class="st0 st9 st8"> OMS</text>
</g>
</svg>
