<?xml version="1.0" encoding="utf-8"?>
<!-- Generator: Adobe Illustrator 23.1.1, SVG Export Plug-In . SVG Version: 6.00 Build 0)  -->
<svg version="1.1" id="OBJECTS" xmlns="http://www.w3.org/2000/svg" xmlns:xlink="http://www.w3.org/1999/xlink" x="0px" y="0px"
	 viewBox="0 0 237.8 315.9" style="enable-background:new 0 0 237.8 315.9;" xml:space="preserve">
<style type="text/css">
	.st0{opacity:0.5;fill:#6CCBD8;}
	.st1{fill:none;stroke:#FFFFFF;stroke-width:2;stroke-miterlimit:10;}
	.st2{fill:#FFFFFF;}
	.st3{fill:#3F7593;}
	.st4{font-family:'Montserrat-ExtraBold';}
	.st5{font-size:8.5px;}
	.st6{font-size:12px;}
	.st7{font-family:'Montserrat-Regular';}
</style>
<circle class="st0" cx="118.8" cy="203.7" r="106.1"/>
<g>
	<line class="st1" x1="118.8" y1="203.7" x2="233.4" y2="203.7"/>
	<line class="st1" x1="118.8" y1="203.7" x2="157.2" y2="84.7"/>
	<line class="st1" x1="118.8" y1="203.1" x2="17.6" y2="129.9"/>
	<line class="st1" x1="119" y1="203.7" x2="18.4" y2="276.2"/>
	<line class="st1" x1="118.9" y1="203.7" x2="155.3" y2="315.8"/>
</g>
<circle class="st2" cx="118.7" cy="203.9" r="23.3"/>
<g>
	<text transform="matrix(1 0 0 1 89.0729 131.7012)"><tspan x="0" y="0" class="st3 st4 st5">Uso</tspan><tspan x="-19.8" y="10.2" class="st3 st4 st5">inadequado  </tspan><tspan x="-5.9" y="20.4" class="st3 st4 st5">de EPI</tspan></text>
</g>
<g>
	<text transform="matrix(1 0 0 1 152.5034 163.7723)"><tspan x="0" y="0" class="st3 st4 st5">Exposição</tspan><tspan x="-3.1" y="10.2" class="st3 st4 st5">prolongada</tspan></text>
</g>
<g>
	<text transform="matrix(1 0 0 1 153.0006 230.5559)"><tspan x="0" y="0" class="st3 st4 st5">Distância  </tspan><tspan x="-6.4" y="10.2" class="st3 st4 st5">da dispersão</tspan><tspan x="10.9" y="20.4" class="st3 st4 st5">do ar</tspan><tspan x="4.7" y="30.6" class="st3 st4 st5">exalado</tspan></text>
</g>
<g>
	<text transform="matrix(1 0 0 1 65.8131 254.4648)"><tspan x="0" y="0" class="st3 st4 st5">Sala pequena</tspan><tspan x="2.1" y="10.2" class="st3 st4 st5">sem pressão</tspan><tspan x="3.7" y="20.4" class="st3 st4 st5">negativa ou</tspan><tspan x="-4.7" y="30.6" class="st3 st4 st5">insuficiente de </tspan><tspan x="13.9" y="40.8" class="st3 st4 st5">ar/hora</tspan></text>
</g>
<g>
	<text transform="matrix(1 0 0 1 23.7322 196.7684)"><tspan x="0" y="0" class="st3 st4 st5">Inadequada</tspan><tspan x="0.7" y="10.2" class="st3 st4 st5">higiene das</tspan><tspan x="14.7" y="20.4" class="st3 st4 st5">mãos</tspan></text>
</g>
<text transform="matrix(1 0 0 1 35.1006 18.4742)"><tspan x="0" y="0" class="st3 st4 st6">FATORES IMPLICADOS NA </tspan><tspan x="-16.2" y="14.4" class="st3 st4 st6">TRANSMISSÃO DE PATÓGENOS</tspan><tspan x="14.3" y="28.8" class="st3 st4 st6">RESPIRATÓRIOS AOS  </tspan><tspan x="-3.6" y="43.2" class="st3 st4 st6">PROFISSIONAIS DA SAÚDE  </tspan><tspan x="-0.6" y="57.6" class="st3 st4 st6">E RISCO PARA GOTÍCULAS</tspan><tspan x="-2.2" y="72" class="st3 st7 st6">&gt;5 µm OU AEROSSÓIS &lt; µm </tspan></text>
</svg>
