<?xml version="1.0" encoding="utf-8"?>
<!-- Generator: Adobe Illustrator 23.1.1, SVG Export Plug-In . SVG Version: 6.00 Build 0)  -->
<svg version="1.1" id="OBJECTS" xmlns="http://www.w3.org/2000/svg" xmlns:xlink="http://www.w3.org/1999/xlink" x="0px" y="0px"
	 viewBox="0 0 295.8 263.3" style="enable-background:new 0 0 295.8 263.3;" xml:space="preserve">
<style type="text/css">
	.st0{fill:#F0F5F5;}
	.st1{fill:#6CCBD8;}
	.st2{fill:#3F7593;}
	.st3{fill:#17EFFF;}
	.st4{fill:#49CDDA;}
	.st5{fill:#2E7596;}
	.st6{font-family:'Montserrat-ExtraBold';}
	.st7{font-size:12px;}
	.st8{fill:none;stroke:#49CDDA;stroke-width:3;stroke-miterlimit:10;}
	.st9{fill:#FFFFFF;}
	.st10{font-size:9px;}
</style>
<g>
	<path class="st0" d="M274,154c0,59.2-55.8,106.3-124.7,105.2C80.4,258,25.2,206,25.9,142.9S82.6,32.8,150.7,37.8S274,94.8,274,154z
		"/>
</g>
<path class="st1" d="M176.4,174.5h-55c-6.7,0-12.2-5.5-12.2-12.2V136c0-6.7,5.5-12.2,12.2-12.2h55c6.7,0,12.2,5.5,12.2,12.2v26.3
	C188.6,169,183.1,174.5,176.4,174.5"/>
<path class="st2" d="M176.4,103.7h-55c-6.7,0-12.2-5.5-12.2-12.2V65.2c0-6.7,5.5-12.2,12.2-12.2h55c6.7,0,12.2,5.5,12.2,12.2v26.3
	C188.6,98.3,183.1,103.7,176.4,103.7"/>
<path class="st2" d="M176.4,245.3h-55c-6.7,0-12.2-5.5-12.2-12.2v-26.3c0-6.7,5.5-12.2,12.2-12.2h55c6.7,0,12.2,5.5,12.2,12.2v26.3
	C188.6,239.8,183.1,245.3,176.4,245.3"/>
<path class="st2" d="M74.5,136h-55c-6.7,0-12.2-5.5-12.2-12.2V97.5c0-6.7,5.5-12.2,12.2-12.2h55c6.7,0,12.2,5.5,12.2,12.2v26.3
	C86.7,130.5,81.2,136,74.5,136"/>
<path class="st2" d="M74.6,206.5h-55c-6.7,0-12.2-5.5-12.2-12.2V168c0-6.7,5.5-12.2,12.2-12.2h55c6.7,0,12.2,5.5,12.2,12.2v26.3
	C86.8,201,81.3,206.5,74.6,206.5"/>
<path class="st2" d="M276.3,136h-55c-6.7,0-12.2-5.5-12.2-12.2V97.5c0-6.7,5.5-12.2,12.2-12.2h55c6.7,0,12.2,5.5,12.2,12.2v26.3
	C288.5,130.5,283,136,276.3,136"/>
<path class="st2" d="M276.4,206.5h-55c-6.7,0-12.2-5.5-12.2-12.2V168c0-6.7,5.5-12.2,12.2-12.2h55c6.7,0,12.2,5.5,12.2,12.2v26.3
	C288.6,201,283.1,206.5,276.4,206.5"/>
<g>
	
		<rect x="189.6" y="97.9" transform="matrix(0.112 -0.9937 0.9937 0.112 62.3014 283.9135)" class="st3" width="0.9" height="18.4"/>
	<path class="st4" d="M181.6,104.9c0.5,0.7,0.4,1.7-0.2,2.2c-0.7,0.5-1.7,0.4-2.2-0.2c-0.5-0.7-0.4-1.7,0.2-2.2
		C180.1,104.1,181,104.2,181.6,104.9z"/>
	<path class="st4" d="M201,107.3c0.5,0.7,0.4,1.7-0.2,2.2c-0.7,0.5-1.7,0.4-2.2-0.2s-0.4-1.7,0.2-2.2
		C199.5,106.5,200.5,106.6,201,107.3z"/>
	<rect x="184.3" y="98.7" transform="matrix(0.782 -0.6233 0.6233 0.782 -22.7179 137.301)" class="st3" width="1.3" height="4.8"/>
	<path class="st4" d="M184.5,97.7c0.6,0.8,0.5,1.9-0.3,2.5s-1.9,0.5-2.5-0.3s-0.5-1.9,0.3-2.5C182.7,96.8,183.8,96.9,184.5,97.7z"/>
	
		<rect x="193.8" y="101.9" transform="matrix(0.782 -0.6233 0.6233 0.782 -21.1488 144.558)" class="st3" width="4.6" height="1.2"/>
	<path class="st4" d="M199.3,100c0.5,0.6,0.4,1.5-0.2,2c-0.6,0.5-1.5,0.4-2-0.2s-0.4-1.5,0.2-2S198.8,99.4,199.3,100z"/>
	
		<rect x="180.5" y="111.9" transform="matrix(0.782 -0.6233 0.6233 0.782 -30.2414 138.9266)" class="st3" width="5.9" height="1.6"/>
	<path class="st4" d="M182.3,113.5c0.6,0.8,0.5,1.9-0.3,2.5s-1.9,0.5-2.5-0.3s-0.5-1.9,0.3-2.5S181.7,112.8,182.3,113.5z"/>
	
		<rect x="194.1" y="110.9" transform="matrix(0.782 -0.6233 0.6233 0.782 -28.2646 146.1553)" class="st3" width="1.4" height="5.2"/>
	<path class="st4" d="M198.5,115.1c0.7,0.8,0.5,2-0.3,2.7s-2,0.5-2.7-0.3s-0.5-2,0.3-2.7S197.8,114.3,198.5,115.1z"/>
	
		<rect x="180.8" y="106.7" transform="matrix(0.1122 -0.9937 0.9937 0.1122 62.1945 283.9934)" class="st3" width="18.4" height="0.9"/>
	<path class="st4" d="M192.3,96.3c0.5,0.7,0.4,1.7-0.2,2.2c-0.7,0.5-1.7,0.4-2.2-0.2c-0.5-0.7-0.4-1.7,0.2-2.2
		C190.8,95.5,191.7,95.7,192.3,96.3z"/>
	<path class="st4" d="M190.1,116.5c0.5,0.7,0.4,1.7-0.2,2.2c-0.7,0.5-1.7,0.4-2.2-0.2c-0.5-0.7-0.4-1.7,0.2-2.2
		C188.6,115.7,189.6,115.8,190.1,116.5z"/>
	<path class="st5" d="M195,103.4c2.2,2.8,1.8,6.8-1,9.1c-0.8,0.7-1.8,1.1-2.7,1.3c-2.3,0.5-4.8-0.3-6.3-2.3c-2.2-2.8-1.8-6.8,1-9.1
		C188.7,100.2,192.8,100.7,195,103.4z"/>
	<path class="st4" d="M192.8,104.2c0.7,0.9,0.6,2.3-0.3,3c-0.9,0.7-2.3,0.6-3-0.3s-0.6-2.3,0.3-3
		C190.7,103.2,192.1,103.3,192.8,104.2z"/>
	<path class="st4" d="M190.3,109.5c0.5,0.6,0.4,1.5-0.2,2c-0.6,0.5-1.5,0.4-2-0.2s-0.4-1.5,0.2-2S189.8,108.9,190.3,109.5z"/>
	<path class="st4" d="M187.2,106.6c0.4,0.5,0.3,1.3-0.2,1.8c-0.5,0.4-1.3,0.3-1.8-0.2c-0.4-0.5-0.3-1.3,0.2-1.8
		C186,106,186.8,106.1,187.2,106.6z"/>
	<path class="st4" d="M192.9,101.7c0,0,5.9,6.3-1.9,12.1c0,0,0.7-0.1,1.1-0.3c0,0,0.4-0.1,0.8-0.4c0,0,0.9-0.4,1.5-1.1
		c0,0,1.3-1.2,1.7-3.1c0,0,0.6-2.4-0.5-4.3C195.7,104.5,195,102.8,192.9,101.7z"/>
</g>
<text transform="matrix(1 0 0 1 73.1086 23.73)" class="st2 st6 st7">CADEIA DE TRASMISSÃO</text>
<g>
	<g>
		<path class="st8" d="M68.9,82.5C73,69.8,87.2,62.9,101.5,66"/>
		<g>
			<polygon class="st4" points="94.4,69.4 100.6,65.8 97,59.5 101.2,60.6 104.8,66.9 98.6,70.5 			"/>
		</g>
	</g>
</g>
<g>
	<g>
		<path class="st8" d="M191.8,61.2c13.2-2.1,25.8,7.3,29.6,21.5"/>
		<g>
			<polygon class="st4" points="215.1,77.9 221.2,81.8 225.1,75.7 226,79.9 222.1,86 216.1,82.1 			"/>
		</g>
	</g>
</g>
<g>
	<g>
		<path class="st8" d="M240.1,126.6c10.3,8.6,11.5,24.3,3.3,36.4"/>
		<g>
			<polygon class="st4" points="242.8,155.1 243.9,162.3 251,161.2 248.4,164.7 241.3,165.7 240.3,158.6 			"/>
		</g>
	</g>
</g>
<g>
	<g>
		<path class="st8" d="M223.2,209.5c0.6,13.4-10.1,24.9-24.6,27.1"/>
		<g>
			<polygon class="st4" points="204.1,230.9 199.5,236.5 205.1,241 200.9,241.5 195.2,237 199.8,231.3 			"/>
		</g>
	</g>
</g>
<g>
	<g>
		<path class="st8" d="M56.9,127.5c-8.6,9.6-8.3,25.4,1.2,36.8"/>
		<g>
			<polygon class="st4" points="49.1,128.1 56.3,128.1 56.2,135.3 59.3,132.3 59.3,125.1 52.1,125.1 			"/>
		</g>
	</g>
</g>
<g>
	<g>
		<path class="st8" d="M76.9,212.7c1.3,12.9,13.1,23.3,27.9,24"/>
		<g>
			<polygon class="st4" points="72.1,218.9 76.9,213.6 82.2,218.5 82.1,214.2 76.8,209.3 71.9,214.5 			"/>
		</g>
	</g>
</g>
<text transform="matrix(1 0 0 1 129.371 75.4018)" class="st9 st6 st10">AGENTE </text>
<text transform="matrix(1 0 0 1 119.171 86.2018)" class="st9 st6 st10">INFECCIOSO</text>
<text transform="matrix(1 0 0 1 210.8287 114.1723)" class="st9 st6 st10">RESERVATÓRIO</text>
<text transform="matrix(1 0 0 1 225.4918 181.6046)" class="st9 st6 st10">PORTA DE </text>
<text transform="matrix(1 0 0 1 236.4918 192.4046)" class="st9 st6 st10">SAÍDA</text>
<text transform="matrix(1 0 0 1 125.2308 216.8776)" class="st9 st6 st10">MODO DE </text>
<text transform="matrix(1 0 0 1 113.6308 227.6776)" class="st9 st6 st10">TRANSMISSÃO</text>
<text transform="matrix(1 0 0 1 22.2061 179.5112)" class="st9 st6 st10">PORTA DE </text>
<text transform="matrix(1 0 0 1 23.5061 190.3112)" class="st9 st6 st10">ENTRADA</text>
<text transform="matrix(1 0 0 1 15.0153 107.7209)" class="st9 st6 st10">HOSPEDEIRO</text>
<text transform="matrix(1 0 0 1 17.8153 118.5209)" class="st9 st6 st10">SUSCETÍVEL</text>
<text transform="matrix(1 0 0 1 123.1922 147.1429)" class="st9 st6 st10">CADEIA DE</text>
<text transform="matrix(1 0 0 1 124.8922 157.9429)" class="st9 st6 st10">INFECÇÃO</text>
</svg>
