<?xml version="1.0" encoding="utf-8"?>
<!-- Generator: Adobe Illustrator 23.1.1, SVG Export Plug-In . SVG Version: 6.00 Build 0)  -->
<svg version="1.1" id="Camada_1" xmlns="http://www.w3.org/2000/svg" xmlns:xlink="http://www.w3.org/1999/xlink" x="0px" y="0px"
	 viewBox="0 0 324.62 1185.49" style="enable-background:new 0 0 324.62 1185.49;" xml:space="preserve">
<style type="text/css">
	.st0{opacity:0.5;fill:#49CDDA;enable-background:new    ;}
	.st1{fill:#E5E6E8;}
	.st2{fill:#2E7596;}
	.st3{fill:#49CDDA;}
	.st4{fill:#FFFFFF;}
	.st5{enable-background:new    ;}
	.st6{fill:#DE9182;}
	.st7{fill:#C9736D;}
	.st8{fill:#EFB898;}
	.st9{fill:#F2F6F7;}
	.st10{fill:#022435;}
	.st11{fill:#F4A684;}
	.st12{fill:#FFFFFF;stroke:#D3D3D3;stroke-width:4;stroke-miterlimit:10;}
	.st13{fill:#E5E5E5;}
	.st14{opacity:0.4;fill:#FFFFFF;enable-background:new    ;}
	.st15{opacity:0.5;}
	.st16{fill:none;stroke:#999999;stroke-width:0.75;stroke-miterlimit:10;}
	.st17{fill:#999999;}
</style>
<rect x="112.82" y="566.74" class="st0" width="90.14" height="43.71"/>
<rect x="112.82" y="613.34" class="st0" width="90.14" height="43.71"/>
<rect x="112.82" y="659.93" class="st0" width="90.14" height="43.71"/>
<rect x="112.82" y="706.53" class="st0" width="90.14" height="43.71"/>
<rect x="112.82" y="753.13" class="st0" width="90.14" height="43.71"/>
<rect x="112.82" y="799.72" class="st0" width="90.14" height="43.71"/>
<rect x="112.82" y="846.32" class="st0" width="90.14" height="43.71"/>
<rect x="112.82" y="893.57" class="st1" width="90.14" height="43.71"/>
<rect x="112.82" y="940.17" class="st1" width="90.14" height="43.71"/>
<rect x="112.82" y="986.77" class="st1" width="90.14" height="43.71"/>
<rect x="112.82" y="1033.36" class="st1" width="90.14" height="43.71"/>
<rect x="112.82" y="1079.96" class="st1" width="90.14" height="43.71"/>
<rect x="112.82" y="1126.55" class="st1" width="90.14" height="43.71"/>
<rect x="112.82" y="240.04" class="st2" width="90.14" height="43.71"/>
<rect x="112.82" y="286.64" class="st2" width="90.14" height="43.71"/>
<rect x="112.82" y="333.23" class="st2" width="90.14" height="43.71"/>
<rect x="112.82" y="379.83" class="st2" width="90.14" height="43.71"/>
<rect x="112.82" y="426.42" class="st2" width="90.14" height="43.71"/>
<rect x="112.82" y="473.02" class="st2" width="90.14" height="43.71"/>
<rect x="112.82" y="519.62" class="st2" width="90.14" height="43.71"/>
<g>
	<path class="st3" d="M117.6,592.09c-0.95-0.6-1.7-1.47-2.24-2.61c-0.54-1.14-0.81-2.5-0.81-4.08c0-1.58,0.27-2.94,0.81-4.08
		s1.28-2.01,2.24-2.61c0.95-0.6,2.04-0.9,3.25-0.9s2.3,0.3,3.25,0.9c0.95,0.6,1.7,1.47,2.24,2.61s0.81,2.5,0.81,4.08
		c0,1.58-0.27,2.94-0.81,4.08c-0.54,1.14-1.28,2.01-2.24,2.61c-0.95,0.6-2.04,0.9-3.25,0.9S118.55,592.7,117.6,592.09z
		 M122.96,588.96c0.51-0.77,0.77-1.96,0.77-3.57c0-1.61-0.26-2.8-0.77-3.57c-0.51-0.77-1.21-1.16-2.11-1.16
		c-0.88,0-1.58,0.39-2.09,1.16c-0.51,0.77-0.77,1.96-0.77,3.57c0,1.61,0.26,2.8,0.77,3.57c0.51,0.77,1.21,1.16,2.09,1.16
		C121.75,590.12,122.45,589.74,122.96,588.96z"/>
	<path class="st3" d="M140.54,586.45c0.38,0.59,0.58,1.27,0.58,2.04c0,0.91-0.26,1.7-0.78,2.38s-1.25,1.21-2.18,1.58
		c-0.94,0.37-2.02,0.56-3.25,0.56s-2.31-0.19-3.25-0.56c-0.93-0.37-1.65-0.9-2.16-1.58c-0.51-0.68-0.77-1.47-0.77-2.38
		c0-0.77,0.19-1.45,0.58-2.04c0.39-0.59,0.93-1.06,1.65-1.43c-0.55-0.34-0.97-0.76-1.26-1.27c-0.29-0.51-0.44-1.1-0.44-1.75
		c0-0.85,0.24-1.6,0.71-2.23c0.48-0.63,1.14-1.12,2-1.46c0.85-0.34,1.83-0.51,2.94-0.51c1.12,0,2.11,0.17,2.97,0.51
		c0.86,0.34,1.53,0.83,2,1.46c0.48,0.63,0.71,1.37,0.71,2.23c0,0.66-0.15,1.24-0.44,1.75s-0.72,0.93-1.28,1.27
		C139.6,585.38,140.15,585.86,140.54,586.45z M136.93,589.92c0.5-0.38,0.75-0.9,0.75-1.54s-0.25-1.16-0.75-1.53
		s-1.17-0.57-2.03-0.57c-0.84,0-1.5,0.19-2,0.57s-0.74,0.89-0.74,1.53c0,0.66,0.25,1.18,0.74,1.55c0.49,0.38,1.16,0.57,2,0.57
		C135.75,590.5,136.43,590.31,136.93,589.92z M133.25,580.79c-0.41,0.33-0.62,0.78-0.62,1.35c0,0.56,0.2,1,0.61,1.32
		s0.96,0.48,1.66,0.48s1.26-0.16,1.68-0.48s0.63-0.76,0.63-1.32c0-0.57-0.21-1.03-0.63-1.35c-0.42-0.33-0.98-0.49-1.68-0.49
		C134.21,580.29,133.66,580.46,133.25,580.79z"/>
</g>
<g>
	<path class="st3" d="M117.9,639.67c-0.95-0.6-1.7-1.47-2.24-2.61s-0.81-2.5-0.81-4.08c0-1.58,0.27-2.94,0.81-4.08
		c0.54-1.14,1.28-2.01,2.24-2.61c0.95-0.6,2.04-0.9,3.25-0.9s2.3,0.3,3.25,0.9s1.7,1.47,2.24,2.61c0.54,1.14,0.81,2.5,0.81,4.08
		c0,1.58-0.27,2.94-0.81,4.08s-1.28,2.01-2.24,2.61c-0.95,0.6-2.04,0.9-3.25,0.9S118.85,640.28,117.9,639.67z M123.27,636.54
		c0.51-0.77,0.77-1.96,0.77-3.57c0-1.61-0.26-2.8-0.77-3.57s-1.21-1.16-2.11-1.16c-0.88,0-1.58,0.39-2.09,1.16s-0.77,1.96-0.77,3.57
		c0,1.61,0.26,2.8,0.77,3.57s1.21,1.16,2.09,1.16C122.05,637.7,122.76,637.32,123.27,636.54z"/>
	<path class="st3" d="M139.11,627.25c1.16,1.25,1.74,3.06,1.74,5.41c0,1.67-0.31,3.09-0.93,4.28s-1.5,2.09-2.63,2.71
		s-2.44,0.92-3.93,0.92c-0.78,0-1.53-0.09-2.25-0.26c-0.71-0.17-1.32-0.42-1.83-0.75l1.26-2.5c0.71,0.49,1.63,0.74,2.75,0.74
		c1.25,0,2.23-0.37,2.96-1.1c0.73-0.74,1.12-1.8,1.18-3.18c-0.88,0.88-2.1,1.32-3.65,1.32c-0.94,0-1.79-0.19-2.56-0.57
		s-1.38-0.91-1.83-1.61c-0.45-0.69-0.67-1.49-0.67-2.4c0-0.98,0.25-1.84,0.74-2.58c0.49-0.74,1.16-1.31,2-1.71
		c0.85-0.4,1.79-0.6,2.83-0.6C136.34,625.37,137.95,626,139.11,627.25z M136.35,631.68c0.47-0.41,0.7-0.94,0.7-1.58
		c0-0.64-0.23-1.17-0.68-1.58c-0.45-0.41-1.08-0.61-1.88-0.61c-0.73,0-1.32,0.2-1.77,0.59c-0.46,0.39-0.68,0.92-0.68,1.6
		c0,0.67,0.23,1.21,0.68,1.61c0.45,0.4,1.06,0.6,1.82,0.6C135.28,632.3,135.88,632.1,136.35,631.68z"/>
</g>
<g>
	<path class="st3" d="M123.43,673.79l0,14.7h-3.4l0-11.97h-2.94v-2.73H123.43z"/>
	<path class="st3" d="M129.04,687.83c-0.95-0.6-1.7-1.47-2.24-2.61c-0.54-1.14-0.81-2.5-0.81-4.08c0-1.58,0.27-2.94,0.81-4.08
		s1.28-2.01,2.24-2.61c0.95-0.6,2.04-0.9,3.25-0.9s2.3,0.3,3.25,0.9c0.95,0.6,1.7,1.47,2.24,2.61s0.81,2.5,0.81,4.08
		c0,1.58-0.27,2.94-0.81,4.08c-0.54,1.14-1.28,2.01-2.24,2.61c-0.95,0.6-2.04,0.9-3.25,0.9S129.99,688.44,129.04,687.83z
		 M134.41,684.7c0.51-0.77,0.77-1.96,0.77-3.57c0-1.61-0.26-2.8-0.77-3.57c-0.51-0.77-1.21-1.16-2.11-1.16
		c-0.88,0-1.58,0.39-2.09,1.16c-0.51,0.77-0.77,1.96-0.77,3.57c0,1.61,0.26,2.8,0.77,3.57c0.51,0.77,1.21,1.16,2.09,1.16
		C133.19,685.86,133.9,685.48,134.41,684.7z"/>
</g>
<g>
	<path class="st3" d="M126.9,720.67l0,14.7h-3.4l0-11.97h-2.94v-2.73H126.9z"/>
	<path class="st3" d="M135.12,720.67v14.7h-3.4V723.4h-2.94v-2.73H135.12z"/>
</g>
<g>
	<path class="st3" d="M124.37,768.72l0,14.7h-3.4l0-11.97h-2.94v-2.73H124.37z"/>
	<path class="st3" d="M137.91,780.64v2.77h-11.11v-2.21l5.67-5.35c0.6-0.57,1.01-1.07,1.22-1.48c0.21-0.41,0.32-0.82,0.32-1.23
		c0-0.59-0.2-1.04-0.6-1.35c-0.4-0.32-0.98-0.47-1.75-0.47c-0.64,0-1.23,0.12-1.74,0.37s-0.95,0.61-1.3,1.1l-2.48-1.6
		c0.57-0.85,1.36-1.52,2.37-2.01c1.01-0.48,2.16-0.72,3.47-0.72c1.09,0,2.05,0.18,2.87,0.54s1.46,0.86,1.91,1.51
		c0.45,0.65,0.68,1.42,0.68,2.3c0,0.8-0.17,1.55-0.5,2.25c-0.34,0.7-0.99,1.5-1.95,2.39l-3.38,3.19H137.91L137.91,780.64z"/>
</g>
<g>
	<path class="st3" d="M124.19,815.72l0,14.7h-3.4l0-11.97h-2.94v-2.73H124.19z"/>
	<path class="st3" d="M136.57,823.15c0.69,0.75,1.03,1.68,1.03,2.78c0,0.85-0.22,1.64-0.67,2.36c-0.45,0.72-1.13,1.3-2.05,1.73
		s-2.04,0.65-3.37,0.65c-1.04,0-2.05-0.14-3.06-0.41c-1-0.27-1.85-0.66-2.55-1.17l1.32-2.6c0.56,0.42,1.21,0.75,1.94,0.98
		c0.74,0.23,1.49,0.35,2.26,0.35c0.85,0,1.53-0.17,2.02-0.49s0.74-0.79,0.74-1.4c0-1.2-0.92-1.81-2.75-1.81h-1.55v-2.25l3.02-3.42
		h-6.26v-2.73h10.29v2.21l-3.32,3.78C134.89,821.92,135.88,822.4,136.57,823.15z"/>
</g>
<g>
	<path class="st3" d="M123,861.45l0,14.7h-3.4l0-11.97h-2.94v-2.73H123z"/>
	<path class="st3" d="M139.02,873.06h-2.39v3.09l-3.32,0v-3.09h-7.92v-2.29l6.93-9.32h3.57l-6.43,8.84h3.95v-2.75h3.21v2.75h2.39
		L139.02,873.06L139.02,873.06z"/>
</g>
<g>
	<path class="st4" d="M123.83,908.47l0,14.7h-3.4l0-11.97h-2.94v-2.73H123.83z"/>
	<path class="st4" d="M136.02,915.23c0.99,0.83,1.48,1.93,1.48,3.32c0,0.9-0.22,1.71-0.67,2.45s-1.13,1.32-2.05,1.76
		s-2.05,0.66-3.39,0.66c-1.04,0-2.05-0.14-3.06-0.41c-1-0.27-1.85-0.66-2.55-1.17l1.34-2.6c0.56,0.42,1.2,0.75,1.93,0.98
		s1.48,0.35,2.25,0.35c0.85,0,1.53-0.17,2.02-0.5c0.49-0.33,0.74-0.8,0.74-1.41c0-0.63-0.26-1.11-0.77-1.43s-1.4-0.48-2.66-0.48
		h-3.76l0.76-8.27h8.97v2.73h-6.13l-0.23,2.79h1.2C133.51,913.99,135.04,914.4,136.02,915.23z"/>
</g>
<g>
	<g>
		<path class="st4" d="M123.44,956l0,14.7h-3.4l0-11.97h-2.94V956H123.44z"/>
		<path class="st4" d="M135.64,962.04c0.77,0.38,1.38,0.91,1.83,1.61c0.45,0.69,0.67,1.5,0.67,2.41c0,0.98-0.25,1.84-0.74,2.58
			c-0.49,0.74-1.16,1.31-2,1.71c-0.85,0.4-1.79,0.6-2.83,0.6c-2.06,0-3.67-0.63-4.83-1.89c-1.16-1.26-1.74-3.06-1.74-5.4
			c0-1.67,0.31-3.09,0.94-4.28s1.51-2.09,2.64-2.71s2.43-0.92,3.92-0.92c0.78,0,1.54,0.09,2.26,0.26c0.72,0.17,1.33,0.42,1.84,0.75
			l-1.26,2.5c-0.73-0.49-1.65-0.73-2.75-0.73c-1.25,0-2.23,0.36-2.96,1.09c-0.73,0.73-1.12,1.79-1.18,3.17
			c0.87-0.87,2.08-1.3,3.63-1.3C134.02,961.48,134.87,961.67,135.64,962.04z M134.16,967.82c0.46-0.39,0.68-0.92,0.68-1.6
			s-0.23-1.21-0.68-1.61c-0.46-0.4-1.06-0.6-1.82-0.6c-0.74,0-1.35,0.21-1.83,0.62c-0.48,0.41-0.71,0.94-0.71,1.59
			c0,0.64,0.23,1.17,0.69,1.57c0.46,0.41,1.09,0.61,1.89,0.61C133.12,968.41,133.71,968.21,134.16,967.82z"/>
	</g>
</g>
<g>
	<g>
		<path class="st4" d="M123.75,1003.2l0,14.7h-3.4l0-11.97h-2.94v-2.73H123.75z"/>
		<path class="st4" d="M137.82,1003.2v2.21l-5.46,12.5h-3.7l5.27-11.93h-4.87v2.39h-3.02v-5.17H137.82z"/>
	</g>
</g>
<g>
	<g>
		<path class="st4" d="M123.35,1048.51l0,14.7h-3.4l0-11.97h-2.94v-2.73H123.35z"/>
		<path class="st4" d="M137.64,1056.91c0.38,0.59,0.58,1.27,0.58,2.04c0,0.91-0.26,1.7-0.78,2.38c-0.52,0.68-1.25,1.21-2.18,1.58
			c-0.94,0.37-2.02,0.56-3.25,0.56s-2.31-0.19-3.25-0.56c-0.93-0.37-1.65-0.9-2.16-1.58c-0.51-0.68-0.77-1.47-0.77-2.38
			c0-0.77,0.19-1.45,0.58-2.04c0.39-0.59,0.93-1.06,1.65-1.43c-0.55-0.34-0.97-0.76-1.26-1.27s-0.44-1.1-0.44-1.75
			c0-0.85,0.24-1.6,0.71-2.23c0.48-0.63,1.14-1.12,2-1.46c0.85-0.34,1.83-0.51,2.94-0.51c1.12,0,2.11,0.17,2.97,0.51
			s1.53,0.83,2,1.46c0.48,0.63,0.71,1.37,0.71,2.23c0,0.66-0.15,1.24-0.44,1.75c-0.29,0.51-0.72,0.93-1.28,1.27
			C136.7,1055.84,137.25,1056.32,137.64,1056.91z M134.03,1060.38c0.5-0.38,0.75-0.9,0.75-1.54s-0.25-1.16-0.75-1.53
			s-1.17-0.57-2.03-0.57c-0.84,0-1.5,0.19-2,0.57s-0.74,0.89-0.74,1.53c0,0.66,0.25,1.18,0.74,1.55c0.49,0.38,1.16,0.57,2,0.57
			C132.85,1060.96,133.53,1060.77,134.03,1060.38z M130.35,1051.25c-0.41,0.33-0.62,0.78-0.62,1.35c0,0.56,0.2,1,0.61,1.32
			c0.41,0.32,0.96,0.48,1.66,0.48s1.26-0.16,1.68-0.48c0.42-0.32,0.63-0.76,0.63-1.32c0-0.57-0.21-1.03-0.63-1.35
			c-0.42-0.33-0.98-0.49-1.68-0.49C131.31,1050.75,130.76,1050.92,130.35,1051.25z"/>
	</g>
</g>
<g>
	<g>
		<path class="st4" d="M123.65,1095.81l0,14.7h-3.4l0-11.97h-2.94v-2.73H123.65z"/>
		<path class="st4" d="M136.21,1097.43c1.16,1.25,1.74,3.06,1.74,5.41c0,1.67-0.31,3.09-0.93,4.28c-0.62,1.19-1.5,2.09-2.63,2.71
			s-2.44,0.92-3.93,0.92c-0.78,0-1.53-0.09-2.25-0.26c-0.71-0.17-1.32-0.42-1.83-0.75l1.26-2.5c0.71,0.49,1.63,0.74,2.75,0.74
			c1.25,0,2.23-0.37,2.96-1.1c0.73-0.74,1.12-1.8,1.18-3.18c-0.88,0.88-2.1,1.32-3.65,1.32c-0.94,0-1.79-0.19-2.56-0.57
			c-0.77-0.38-1.38-0.91-1.83-1.61c-0.45-0.69-0.67-1.49-0.67-2.4c0-0.98,0.25-1.84,0.74-2.58c0.49-0.74,1.16-1.31,2-1.71
			c0.85-0.4,1.79-0.6,2.83-0.6C133.44,1095.55,135.05,1096.18,136.21,1097.43z M133.45,1101.86c0.47-0.41,0.7-0.94,0.7-1.58
			s-0.23-1.17-0.68-1.58c-0.45-0.41-1.08-0.61-1.88-0.61c-0.73,0-1.32,0.2-1.77,0.59c-0.46,0.39-0.68,0.92-0.68,1.6
			c0,0.67,0.23,1.21,0.68,1.61c0.45,0.4,1.06,0.6,1.82,0.6C132.37,1102.48,132.98,1102.28,133.45,1101.86z"/>
	</g>
</g>
<g>
	<path class="st4" d="M126.53,1154.99v2.77h-11.11v-2.21l5.67-5.35c0.6-0.57,1.01-1.07,1.22-1.48s0.32-0.82,0.32-1.23
		c0-0.59-0.2-1.04-0.6-1.35c-0.4-0.32-0.98-0.47-1.75-0.47c-0.64,0-1.23,0.12-1.74,0.37s-0.95,0.61-1.3,1.1l-2.48-1.6
		c0.57-0.85,1.36-1.52,2.37-2.01c1.01-0.48,2.16-0.72,3.47-0.72c1.09,0,2.05,0.18,2.87,0.54s1.46,0.86,1.91,1.51
		c0.45,0.65,0.68,1.42,0.68,2.3c0,0.8-0.17,1.55-0.5,2.25c-0.34,0.7-0.99,1.5-1.95,2.39l-3.38,3.19H126.53L126.53,1154.99z"/>
	<path class="st4" d="M130.94,1157.11c-0.95-0.6-1.7-1.47-2.24-2.61s-0.81-2.5-0.81-4.08c0-1.58,0.27-2.94,0.81-4.08
		s1.28-2.01,2.24-2.61c0.95-0.6,2.04-0.9,3.25-0.9s2.3,0.3,3.25,0.9s1.7,1.47,2.24,2.61s0.81,2.5,0.81,4.08
		c0,1.58-0.27,2.94-0.81,4.08s-1.28,2.01-2.24,2.61c-0.95,0.6-2.04,0.9-3.25,0.9S131.9,1157.72,130.94,1157.11z M136.3,1153.99
		c0.51-0.77,0.77-1.96,0.77-3.57c0-1.61-0.26-2.8-0.77-3.57s-1.21-1.16-2.11-1.16c-0.88,0-1.58,0.39-2.09,1.16s-0.77,1.96-0.77,3.57
		c0,1.61,0.26,2.8,0.77,3.57s1.21,1.16,2.09,1.16C135.1,1155.15,135.79,1154.77,136.3,1153.99z"/>
</g>
<g>
	<path class="st4" d="M118.44,545.5c-0.95-0.6-1.7-1.47-2.24-2.61c-0.54-1.14-0.81-2.5-0.81-4.08c0-1.58,0.27-2.94,0.81-4.08
		s1.28-2.01,2.24-2.61c0.95-0.6,2.04-0.9,3.25-0.9s2.3,0.3,3.25,0.9c0.95,0.6,1.7,1.47,2.24,2.61s0.81,2.5,0.81,4.08
		c0,1.58-0.27,2.94-0.81,4.08c-0.54,1.14-1.28,2.01-2.24,2.61c-0.95,0.6-2.04,0.9-3.25,0.9S119.39,546.11,118.44,545.5z
		 M123.8,542.37c0.51-0.77,0.77-1.96,0.77-3.57c0-1.61-0.26-2.8-0.77-3.57s-1.21-1.16-2.11-1.16c-0.88,0-1.58,0.39-2.09,1.16
		s-0.77,1.96-0.77,3.57c0,1.61,0.26,2.8,0.77,3.57s1.21,1.16,2.09,1.16C122.59,543.53,123.29,543.15,123.8,542.37z"/>
	<path class="st4" d="M141.08,531.45v2.21l-5.46,12.5h-3.7l5.27-11.93h-4.87v2.39h-3.02v-5.17H141.08L141.08,531.45z"/>
</g>
<g>
	<g>
		<path class="st4" d="M118.74,312.47c-0.95-0.6-1.7-1.47-2.24-2.61c-0.54-1.14-0.81-2.5-0.81-4.08c0-1.58,0.27-2.94,0.81-4.08
			c0.54-1.14,1.28-2.01,2.24-2.61s2.04-0.9,3.26-0.9s2.3,0.3,3.25,0.9c0.95,0.6,1.7,1.47,2.24,2.61c0.54,1.14,0.81,2.5,0.81,4.08
			c0,1.58-0.27,2.94-0.81,4.08c-0.54,1.14-1.28,2.01-2.24,2.61c-0.95,0.6-2.04,0.9-3.25,0.9
			C120.78,313.38,119.69,313.08,118.74,312.47z M124.11,309.34c0.51-0.77,0.77-1.96,0.77-3.57c0-1.61-0.26-2.8-0.77-3.57
			c-0.51-0.77-1.21-1.16-2.11-1.16c-0.88,0-1.58,0.39-2.09,1.16c-0.51,0.77-0.77,1.96-0.77,3.57c0,1.61,0.25,2.8,0.77,3.57
			c0.51,0.77,1.21,1.16,2.09,1.16C122.89,310.5,123.59,310.12,124.11,309.34z"/>
		<path class="st4" d="M140.81,310.35v2.77H129.7v-2.21l5.67-5.35c0.6-0.57,1.01-1.07,1.22-1.48c0.21-0.41,0.31-0.82,0.31-1.23
			c0-0.59-0.2-1.04-0.6-1.35c-0.4-0.32-0.98-0.47-1.75-0.47c-0.64,0-1.23,0.12-1.74,0.37s-0.95,0.61-1.3,1.1l-2.48-1.6
			c0.57-0.85,1.37-1.52,2.37-2.01s2.16-0.72,3.46-0.72c1.09,0,2.05,0.18,2.87,0.54c0.82,0.36,1.46,0.86,1.91,1.51
			s0.68,1.42,0.68,2.3c0,0.8-0.17,1.55-0.5,2.25c-0.34,0.7-0.99,1.5-1.95,2.39l-3.38,3.19L140.81,310.35L140.81,310.35z"/>
	</g>
</g>
<g>
	<g>
		<path class="st4" d="M119.67,358.99c-0.95-0.6-1.7-1.47-2.24-2.61c-0.54-1.14-0.81-2.5-0.81-4.08c0-1.58,0.27-2.94,0.81-4.08
			c0.54-1.14,1.28-2.01,2.24-2.61s2.04-0.9,3.26-0.9s2.3,0.3,3.25,0.9s1.7,1.47,2.24,2.61c0.54,1.14,0.81,2.5,0.81,4.08
			c0,1.58-0.27,2.94-0.81,4.08c-0.54,1.14-1.28,2.01-2.24,2.61c-0.95,0.6-2.04,0.9-3.25,0.9C121.7,359.9,120.62,359.6,119.67,358.99
			z M125.03,355.86c0.51-0.77,0.77-1.96,0.77-3.57c0-1.61-0.26-2.8-0.77-3.57c-0.51-0.77-1.21-1.16-2.11-1.16
			c-0.88,0-1.58,0.39-2.09,1.16c-0.51,0.77-0.77,1.96-0.77,3.57c0,1.61,0.25,2.8,0.77,3.57c0.51,0.77,1.21,1.16,2.09,1.16
			C123.82,357.02,124.52,356.64,125.03,355.86z"/>
		<path class="st4" d="M140.5,352.37c0.69,0.75,1.03,1.68,1.03,2.78c0,0.85-0.22,1.64-0.67,2.36s-1.13,1.3-2.05,1.73
			c-0.92,0.43-2.04,0.65-3.37,0.65c-1.04,0-2.05-0.14-3.06-0.41c-1-0.27-1.85-0.66-2.55-1.17l1.32-2.6
			c0.56,0.42,1.21,0.75,1.94,0.98c0.73,0.23,1.49,0.35,2.26,0.35c0.85,0,1.53-0.17,2.02-0.49c0.49-0.33,0.73-0.79,0.73-1.4
			c0-1.2-0.92-1.81-2.75-1.81h-1.55v-2.25l3.02-3.42h-6.26v-2.73h10.29v2.21l-3.32,3.78C138.83,351.14,139.81,351.62,140.5,352.37z"
			/>
	</g>
</g>
<g>
	<g>
		<path class="st4" d="M117.42,405.89c-0.95-0.6-1.7-1.47-2.24-2.61c-0.54-1.14-0.81-2.5-0.81-4.08c0-1.58,0.27-2.94,0.81-4.08
			c0.54-1.14,1.28-2.01,2.24-2.61s2.04-0.9,3.26-0.9s2.3,0.3,3.25,0.9c0.95,0.6,1.7,1.47,2.24,2.61c0.54,1.14,0.81,2.5,0.81,4.08
			c0,1.58-0.27,2.94-0.81,4.08c-0.54,1.14-1.28,2.01-2.24,2.61c-0.95,0.6-2.04,0.9-3.25,0.9
			C119.46,406.8,118.37,406.5,117.42,405.89z M122.79,402.76c0.51-0.77,0.77-1.96,0.77-3.57c0-1.61-0.26-2.8-0.77-3.57
			c-0.51-0.77-1.21-1.16-2.11-1.16c-0.88,0-1.58,0.39-2.09,1.16c-0.51,0.77-0.77,1.96-0.77,3.57c0,1.61,0.25,2.8,0.77,3.57
			c0.51,0.77,1.21,1.16,2.09,1.16C121.57,403.92,122.28,403.54,122.79,402.76z"/>
		<path class="st4" d="M142.1,403.46h-2.39v3.09h-3.32v-3.09h-7.92v-2.29l6.93-9.32h3.57l-6.43,8.84h3.95v-2.75h3.21v2.75h2.39v2.77
			H142.1z"/>
	</g>
</g>
<g>
	<g>
		<path class="st4" d="M118.6,452.32c-0.95-0.6-1.7-1.47-2.24-2.61c-0.54-1.14-0.81-2.5-0.81-4.08c0-1.58,0.27-2.94,0.81-4.08
			c0.54-1.14,1.28-2.01,2.24-2.61s2.04-0.9,3.26-0.9s2.3,0.3,3.25,0.9c0.95,0.6,1.7,1.47,2.24,2.61c0.54,1.14,0.81,2.5,0.81,4.08
			c0,1.58-0.27,2.94-0.81,4.08c-0.54,1.14-1.28,2.01-2.24,2.61c-0.95,0.6-2.04,0.9-3.25,0.9
			C120.63,453.23,119.55,452.93,118.6,452.32z M123.96,449.19c0.51-0.77,0.77-1.96,0.77-3.57c0-1.61-0.26-2.8-0.77-3.57
			c-0.51-0.77-1.21-1.16-2.11-1.16c-0.88,0-1.58,0.39-2.09,1.16c-0.51,0.77-0.77,1.96-0.77,3.57c0,1.61,0.25,2.8,0.77,3.57
			c0.51,0.77,1.21,1.16,2.09,1.16C122.75,450.35,123.45,449.97,123.96,449.19z"/>
		<path class="st4" d="M139.44,445.04c0.99,0.83,1.48,1.93,1.48,3.32c0,0.9-0.22,1.71-0.67,2.45s-1.13,1.32-2.05,1.76
			c-0.92,0.44-2.05,0.66-3.39,0.66c-1.04,0-2.05-0.14-3.06-0.41c-1-0.27-1.85-0.66-2.55-1.17l1.34-2.6c0.56,0.42,1.2,0.75,1.93,0.98
			c0.73,0.23,1.48,0.35,2.25,0.35c0.85,0,1.53-0.17,2.02-0.5c0.49-0.34,0.73-0.8,0.73-1.41c0-0.63-0.26-1.11-0.77-1.43
			c-0.51-0.32-1.4-0.48-2.66-0.48h-3.76l0.76-8.27h8.97v2.73h-6.13l-0.23,2.79h1.2C136.92,443.8,138.45,444.21,139.44,445.04z"/>
	</g>
</g>
<g>
	<path class="st4" d="M118.09,499.01c-0.95-0.6-1.7-1.47-2.24-2.61c-0.54-1.14-0.81-2.5-0.81-4.08c0-1.58,0.27-2.94,0.81-4.08
		c0.54-1.14,1.28-2.01,2.24-2.61s2.04-0.9,3.26-0.9s2.3,0.3,3.25,0.9c0.95,0.6,1.7,1.47,2.24,2.61c0.54,1.14,0.81,2.5,0.81,4.08
		c0,1.58-0.27,2.94-0.81,4.08c-0.54,1.14-1.28,2.01-2.24,2.61c-0.95,0.6-2.04,0.9-3.25,0.9
		C120.13,499.92,119.04,499.62,118.09,499.01z M123.46,495.88c0.51-0.77,0.77-1.96,0.77-3.57c0-1.61-0.26-2.8-0.77-3.57
		c-0.51-0.77-1.21-1.16-2.11-1.16c-0.88,0-1.58,0.39-2.09,1.16c-0.51,0.77-0.77,1.96-0.77,3.57c0,1.61,0.25,2.8,0.77,3.57
		c0.51,0.77,1.21,1.16,2.09,1.16C122.24,497.04,122.95,496.66,123.46,495.88z"/>
	<path class="st4" d="M138.94,491.01c0.77,0.38,1.38,0.91,1.83,1.61c0.45,0.69,0.67,1.5,0.67,2.41c0,0.98-0.25,1.84-0.73,2.58
		c-0.49,0.74-1.16,1.31-2.01,1.71s-1.79,0.6-2.82,0.6c-2.06,0-3.67-0.63-4.83-1.89c-1.16-1.26-1.74-3.06-1.74-5.4
		c0-1.67,0.31-3.09,0.95-4.28c0.63-1.19,1.51-2.09,2.64-2.71s2.43-0.92,3.92-0.92c0.78,0,1.54,0.09,2.26,0.26
		c0.72,0.17,1.33,0.42,1.84,0.75l-1.26,2.5c-0.73-0.49-1.65-0.73-2.75-0.73c-1.25,0-2.23,0.36-2.96,1.09
		c-0.73,0.73-1.12,1.79-1.18,3.17c0.87-0.87,2.08-1.3,3.63-1.3C137.32,490.45,138.17,490.63,138.94,491.01z M137.46,496.79
		c0.45-0.39,0.68-0.92,0.68-1.6c0-0.68-0.23-1.21-0.68-1.61c-0.46-0.4-1.06-0.6-1.82-0.6c-0.74,0-1.35,0.21-1.83,0.62
		c-0.48,0.41-0.71,0.94-0.71,1.59c0,0.64,0.23,1.17,0.69,1.57c0.46,0.41,1.09,0.61,1.89,0.61
		C136.42,497.38,137.01,497.18,137.46,496.79z"/>
</g>
<g>
	<g>
		<path class="st4" d="M121.38,265.26c-0.95-0.6-1.7-1.47-2.24-2.61c-0.54-1.14-0.81-2.5-0.81-4.08c0-1.58,0.27-2.94,0.81-4.08
			s1.28-2.01,2.24-2.61s2.04-0.9,3.26-0.9s2.3,0.3,3.25,0.9c0.95,0.6,1.7,1.47,2.24,2.61c0.54,1.14,0.81,2.5,0.81,4.08
			c0,1.58-0.27,2.94-0.81,4.08c-0.54,1.14-1.28,2.01-2.24,2.61c-0.95,0.6-2.04,0.9-3.25,0.9
			C123.42,266.17,122.33,265.87,121.38,265.26z M126.75,262.13c0.51-0.77,0.77-1.96,0.77-3.57c0-1.61-0.26-2.8-0.77-3.57
			c-0.51-0.77-1.21-1.16-2.11-1.16c-0.88,0-1.58,0.39-2.09,1.16s-0.77,1.96-0.77,3.57c0,1.61,0.25,2.8,0.77,3.57
			c0.51,0.77,1.21,1.16,2.09,1.16C125.53,263.29,126.24,262.91,126.75,262.13z"/>
		<path class="st4" d="M138.14,251.21v14.7h-3.4v-11.97h-2.94v-2.73H138.14z"/>
	</g>
</g>
<g class="st5">
	<path class="st2" d="M104.09,58.51h3.59V71.2h-3.59C104.09,71.2,104.09,58.51,104.09,58.51z"/>
	<path class="st2" d="M122.31,58.51V71.2h-2.95l-5.6-6.76v6.76h-3.52V58.51h2.95l5.6,6.76v-6.76H122.31z"/>
	<path class="st2" d="M124.85,58.51h3.59V71.2h-3.59V58.51z M127.29,54.72h3.44l-3.41,2.76h-2.47L127.29,54.72z"/>
	<path class="st2" d="M133.74,70.61c-1.06-0.56-1.89-1.34-2.49-2.35c-0.6-1-0.91-2.14-0.91-3.41c0-1.27,0.3-2.4,0.91-3.41
		c0.6-1,1.44-1.79,2.49-2.35c1.06-0.56,2.25-0.84,3.58-0.84c1.16,0,2.21,0.21,3.14,0.62c0.93,0.41,1.7,1,2.32,1.78l-2.28,2.07
		c-0.82-0.99-1.82-1.49-2.99-1.49c-0.69,0-1.3,0.15-1.84,0.45c-0.54,0.3-0.95,0.73-1.25,1.28c-0.3,0.55-0.44,1.18-0.44,1.89
		s0.15,1.34,0.44,1.89c0.3,0.55,0.71,0.98,1.25,1.28c0.54,0.3,1.15,0.45,1.84,0.45c1.17,0,2.17-0.5,2.99-1.49l2.28,2.07
		c-0.62,0.77-1.39,1.37-2.32,1.78c-0.93,0.41-1.98,0.62-3.14,0.62C135.99,71.45,134.8,71.17,133.74,70.61z"/>
	<path class="st2" d="M144.37,58.51h3.59V71.2h-3.59V58.51z"/>
	<path class="st2" d="M153.3,70.6c-1.07-0.57-1.91-1.35-2.52-2.36c-0.61-1-0.92-2.13-0.92-3.39c0-1.26,0.31-2.39,0.92-3.39
		s1.45-1.79,2.52-2.36c1.07-0.57,2.27-0.85,3.62-0.85s2.55,0.28,3.62,0.85c1.07,0.57,1.91,1.35,2.52,2.36
		c0.61,1,0.92,2.13,0.92,3.39c0,1.26-0.31,2.39-0.92,3.39s-1.45,1.79-2.52,2.36c-1.07,0.57-2.27,0.85-3.62,0.85
		S154.37,71.17,153.3,70.6z M158.65,68.03c0.52-0.3,0.93-0.73,1.23-1.28s0.45-1.18,0.45-1.89s-0.15-1.34-0.45-1.89
		c-0.3-0.55-0.71-0.98-1.23-1.28c-0.52-0.3-1.1-0.45-1.74-0.45s-1.22,0.15-1.74,0.45c-0.52,0.3-0.93,0.73-1.23,1.28
		c-0.3,0.55-0.45,1.18-0.45,1.89s0.15,1.34,0.45,1.89s0.71,0.98,1.23,1.28s1.1,0.45,1.74,0.45S158.13,68.33,158.65,68.03z"/>
	<path class="st2" d="M171.12,58.51h6c1.39,0,2.62,0.26,3.7,0.78s1.91,1.26,2.5,2.21s0.89,2.07,0.89,3.35c0,1.28-0.3,2.4-0.89,3.35
		c-0.59,0.96-1.43,1.69-2.5,2.21c-1.08,0.52-2.31,0.78-3.7,0.78h-6V58.51z M176.98,68.33c1.09,0,1.96-0.31,2.62-0.92
		c0.66-0.62,0.99-1.47,0.99-2.56c0-1.09-0.33-1.94-0.99-2.56c-0.66-0.62-1.53-0.92-2.62-0.92h-2.27v6.96
		C174.71,68.33,176.98,68.33,176.98,68.33z"/>
	<path class="st2" d="M188.88,70.6c-1.07-0.57-1.91-1.35-2.52-2.36c-0.61-1-0.92-2.13-0.92-3.39c0-1.26,0.31-2.39,0.92-3.39
		s1.45-1.79,2.52-2.36s2.27-0.85,3.62-0.85s2.55,0.28,3.62,0.85c1.07,0.57,1.91,1.35,2.52,2.36c0.61,1,0.92,2.13,0.92,3.39
		c0,1.26-0.31,2.39-0.92,3.39s-1.45,1.79-2.52,2.36s-2.27,0.85-3.62,0.85S189.95,71.17,188.88,70.6z M194.24,68.03
		c0.52-0.3,0.93-0.73,1.23-1.28s0.45-1.18,0.45-1.89s-0.15-1.34-0.45-1.89s-0.71-0.98-1.23-1.28c-0.52-0.3-1.1-0.45-1.74-0.45
		s-1.22,0.15-1.74,0.45c-0.52,0.3-0.93,0.73-1.23,1.28c-0.3,0.55-0.45,1.18-0.45,1.89s0.15,1.34,0.45,1.89s0.71,0.98,1.23,1.28
		s1.1,0.45,1.74,0.45S193.72,68.33,194.24,68.03z"/>
	<path class="st2" d="M202.9,71.07c-0.97-0.25-1.75-0.59-2.36-1.01l1.18-2.65c0.57,0.37,1.23,0.68,1.98,0.91s1.49,0.34,2.21,0.34
		c1.38,0,2.07-0.34,2.07-1.03c0-0.36-0.2-0.63-0.59-0.81c-0.39-0.17-1.02-0.36-1.89-0.55c-0.95-0.21-1.75-0.43-2.39-0.66
		c-0.64-0.24-1.19-0.61-1.65-1.13c-0.46-0.52-0.69-1.22-0.69-2.1c0-0.77,0.21-1.47,0.63-2.09c0.42-0.62,1.05-1.12,1.89-1.48
		s1.87-0.54,3.09-0.54c0.83,0,1.66,0.09,2.47,0.28s1.52,0.46,2.14,0.82l-1.11,2.67c-1.21-0.65-2.38-0.98-3.52-0.98
		c-0.71,0-1.23,0.11-1.56,0.32s-0.49,0.49-0.49,0.83s0.19,0.59,0.58,0.76c0.39,0.17,1.01,0.34,1.87,0.53
		c0.97,0.21,1.77,0.43,2.4,0.66c0.63,0.24,1.18,0.61,1.65,1.12c0.46,0.51,0.7,1.21,0.7,2.09c0,0.76-0.21,1.45-0.63,2.07
		s-1.06,1.11-1.9,1.48c-0.85,0.37-1.87,0.55-3.08,0.55C204.86,71.45,203.87,71.33,202.9,71.07z"/>
	<path class="st2" d="M108.89,92.82c-0.97-0.25-1.75-0.59-2.36-1.01l1.18-2.65c0.57,0.37,1.23,0.68,1.98,0.91s1.49,0.34,2.21,0.34
		c1.38,0,2.07-0.34,2.07-1.03c0-0.36-0.2-0.63-0.59-0.81c-0.39-0.17-1.02-0.36-1.89-0.55c-0.95-0.21-1.75-0.43-2.39-0.66
		c-0.64-0.24-1.19-0.61-1.65-1.13s-0.69-1.22-0.69-2.1c0-0.77,0.21-1.47,0.63-2.09c0.42-0.62,1.05-1.12,1.89-1.48
		s1.87-0.54,3.09-0.54c0.83,0,1.66,0.09,2.47,0.28s1.52,0.46,2.14,0.82l-1.11,2.67c-1.21-0.65-2.38-0.98-3.52-0.98
		c-0.71,0-1.23,0.11-1.56,0.32c-0.33,0.21-0.49,0.49-0.49,0.83s0.19,0.59,0.58,0.76c0.39,0.17,1.01,0.34,1.87,0.53
		c0.97,0.21,1.77,0.43,2.4,0.66c0.63,0.24,1.18,0.61,1.65,1.12c0.46,0.51,0.7,1.21,0.7,2.09c0,0.76-0.21,1.45-0.63,2.07
		s-1.06,1.11-1.9,1.48c-0.85,0.37-1.87,0.55-3.08,0.55C110.85,93.2,109.85,93.08,108.89,92.82z"/>
	<path class="st2" d="M119.15,80.26h3.59v12.69h-3.59V80.26z"/>
	<path class="st2" d="M137.36,80.26v12.69h-2.95l-5.6-6.76v6.76h-3.52V80.26h2.95l5.6,6.76v-6.76H137.36z"/>
	<path class="st2" d="M142.6,83.11h-3.9v-2.85h11.37v2.85h-3.88v9.84h-3.59C142.6,92.95,142.6,83.11,142.6,83.11z"/>
	<path class="st2" d="M154.01,92.35c-1.07-0.57-1.91-1.35-2.52-2.36c-0.61-1-0.92-2.13-0.92-3.39s0.31-2.39,0.92-3.39
		s1.45-1.79,2.52-2.36c1.07-0.57,2.27-0.85,3.62-0.85s2.55,0.28,3.62,0.85c1.07,0.57,1.91,1.35,2.52,2.36
		c0.61,1,0.92,2.13,0.92,3.39s-0.31,2.39-0.92,3.39s-1.45,1.79-2.52,2.36c-1.07,0.57-2.27,0.85-3.62,0.85S155.08,92.92,154.01,92.35
		z M159.37,89.78c0.52-0.3,0.93-0.73,1.23-1.28s0.45-1.18,0.45-1.89s-0.15-1.34-0.45-1.89c-0.3-0.55-0.71-0.98-1.23-1.28
		c-0.52-0.3-1.1-0.45-1.74-0.45s-1.22,0.15-1.74,0.45c-0.52,0.3-0.93,0.73-1.23,1.28c-0.3,0.55-0.45,1.18-0.45,1.89
		s0.15,1.34,0.45,1.89s0.71,0.98,1.23,1.28s1.1,0.45,1.74,0.45S158.85,90.08,159.37,89.78z"/>
	<path class="st2" d="M178.02,92.95l-0.04-6.72l-3.26,5.47h-1.6l-3.24-5.29v6.54h-3.32V80.26h2.95l4.46,7.32l4.35-7.32h2.95
		l0.04,12.69H178.02z"/>
	<path class="st2" d="M192.36,90.49h-5.37l-1,2.46h-3.66l5.6-12.69h3.53l5.62,12.69h-3.73L192.36,90.49z M191.31,87.84l-1.63-4.06
		l-1.63,4.06H191.31z"/>
	<path class="st2" d="M199.57,92.82c-0.97-0.25-1.75-0.59-2.36-1.01l1.18-2.65c0.57,0.37,1.23,0.68,1.98,0.91s1.49,0.34,2.21,0.34
		c1.38,0,2.07-0.34,2.07-1.03c0-0.36-0.2-0.63-0.59-0.81c-0.39-0.17-1.02-0.36-1.89-0.55c-0.95-0.21-1.75-0.43-2.39-0.66
		c-0.64-0.24-1.19-0.61-1.65-1.13c-0.46-0.52-0.69-1.22-0.69-2.1c0-0.77,0.21-1.47,0.63-2.09c0.42-0.62,1.05-1.12,1.89-1.48
		s1.87-0.54,3.09-0.54c0.83,0,1.66,0.09,2.47,0.28s1.52,0.46,2.14,0.82l-1.11,2.67c-1.21-0.65-2.38-0.98-3.52-0.98
		c-0.71,0-1.23,0.11-1.56,0.32s-0.49,0.49-0.49,0.83s0.19,0.59,0.58,0.76c0.39,0.17,1.01,0.34,1.87,0.53
		c0.97,0.21,1.77,0.43,2.4,0.66c0.63,0.24,1.18,0.61,1.65,1.12c0.46,0.51,0.7,1.21,0.7,2.09c0,0.76-0.21,1.45-0.63,2.07
		s-1.06,1.11-1.9,1.48c-0.85,0.37-1.87,0.55-3.08,0.55C201.54,93.2,200.54,93.08,199.57,92.82z"/>
</g>
<g>
	
		<rect x="85" y="141.97" transform="matrix(0.1122 -0.9937 0.9937 0.1122 -84.7052 229.3135)" class="st2" width="1.95" height="40.18"/>
	<path class="st3" d="M67.54,157.1c1.19,1.47,0.94,3.63-0.55,4.82c-1.47,1.19-3.63,0.94-4.82-0.55c-1.19-1.47-0.94-3.63,0.55-4.82
		C64.19,155.38,66.35,155.62,67.54,157.1z"/>
	<path class="st3" d="M109.96,162.4c1.19,1.47,0.94,3.63-0.55,4.82c-1.47,1.19-3.63,0.94-4.82-0.55c-1.19-1.47-0.94-3.63,0.55-4.82
		C106.62,160.68,108.78,160.93,109.96,162.4z"/>
	
		<rect x="73.49" y="143.79" transform="matrix(0.782 -0.6233 0.6233 0.782 -76.5912 79.2014)" class="st2" width="2.86" height="10.6"/>
	<path class="st3" d="M73.8,141.41c1.34,1.69,1.06,4.13-0.62,5.49c-1.69,1.34-4.13,1.06-5.49-0.62c-1.34-1.69-1.06-4.13,0.62-5.49
		C70,139.45,72.45,139.72,73.8,141.41z"/>
	
		<rect x="94.25" y="150.73" transform="matrix(0.782 -0.6233 0.6233 0.782 -73.1487 95.0042)" class="st2" width="9.97" height="2.68"/>
	<path class="st3" d="M106.12,146.53c1.05,1.31,0.84,3.22-0.49,4.27c-1.31,1.05-3.22,0.84-4.27-0.49c-1.05-1.31-0.84-3.22,0.49-4.27
		C103.17,145.01,105.07,145.22,106.12,146.53z"/>
	
		<rect x="65.11" y="172.42" transform="matrix(0.782 -0.6233 0.6233 0.782 -92.9489 82.5504)" class="st2" width="12.85" height="3.45"/>
	<path class="st3" d="M69.09,176.05c1.35,1.69,1.06,4.15-0.62,5.49c-1.69,1.35-4.15,1.06-5.49-0.62c-1.35-1.69-1.06-4.15,0.62-5.49
		C65.29,174.09,67.73,174.37,69.09,176.05z"/>
	
		<rect x="94.81" y="170.3" transform="matrix(0.782 -0.6233 0.6233 0.782 -88.6621 98.3969)" class="st2" width="3.04" height="11.28"/>
	<path class="st3" d="M104.45,179.46c1.43,1.79,1.14,4.41-0.65,5.84s-4.41,1.14-5.84-0.65s-1.14-4.41,0.65-5.84
		C100.4,177.36,103.02,177.65,104.45,179.46z"/>
	
		<rect x="65.92" y="161.18" transform="matrix(0.1121 -0.9937 0.9937 0.1121 -84.7626 229.4396)" class="st2" width="40.18" height="1.95"/>
	<path class="st3" d="M90.89,138.49c1.19,1.47,0.94,3.63-0.55,4.82c-1.47,1.19-3.63,0.94-4.82-0.55c-1.19-1.47-0.94-3.63,0.55-4.82
		C87.56,136.76,89.7,137,90.89,138.49z"/>
	<path class="st3" d="M86.13,182.42c1.19,1.47,0.94,3.63-0.55,4.82c-1.47,1.19-3.63,0.94-4.82-0.55c-1.19-1.47-0.94-3.63,0.55-4.82
		C82.78,180.7,84.94,180.95,86.13,182.42z"/>
	<path class="st2" d="M96.83,154c4.85,6.08,3.85,14.93-2.23,19.76c-1.79,1.43-3.83,2.36-5.93,2.78c-5.02,1.03-10.41-0.73-13.83-5.02
		c-4.85-6.08-3.85-14.93,2.23-19.76C83.13,146.93,91.98,147.93,96.83,154z"/>
	<path class="st4" d="M92.03,155.74c1.61,2.02,1.28,4.96-0.74,6.57c-2.02,1.61-4.96,1.28-6.57-0.74s-1.28-4.96,0.74-6.57
		C87.48,153.39,90.42,153.72,92.03,155.74z"/>
	<path class="st4" d="M86.51,167.16c1.05,1.32,0.84,3.25-0.49,4.3c-1.32,1.05-3.25,0.84-4.3-0.49c-1.05-1.32-0.84-3.25,0.49-4.3
		C83.53,165.62,85.46,165.84,86.51,167.16z"/>
	<path class="st4" d="M79.88,160.96c0.93,1.17,0.74,2.87-0.43,3.82c-1.17,0.93-2.87,0.74-3.82-0.43c-0.93-1.17-0.74-2.87,0.43-3.82
		C77.25,159.6,78.95,159.79,79.88,160.96z"/>
	<path class="st0" d="M92.24,150.24c0,0,12.97,13.86-4.04,26.4c0,0,1.44-0.26,2.36-0.62c0,0,0.88-0.3,1.84-0.81
		c0,0,1.85-0.97,3.37-2.48c0,0,2.89-2.57,3.8-6.86c0,0,1.32-5.15-1.17-9.47C98.38,156.4,96.83,152.72,92.24,150.24z"/>
</g>
<g>
	<g>
		<g>
			<g>
				<path class="st3" d="M182.02,182.03h-48.08c-1.45,0-2.63-1.18-2.63-2.63l0,0c0-1.45,1.18-2.63,2.63-2.63h48.09
					c1.45,0,2.63,1.18,2.63,2.63l0,0C184.65,180.86,183.47,182.03,182.02,182.03z"/>
				<rect x="133.9" y="182.03" class="st2" width="48.15" height="3.93"/>
				<path class="st3" d="M201.82,200.77h-87.67l0,0c0-8.18,6.63-14.81,14.81-14.81h58.06C195.19,185.97,201.82,192.59,201.82,200.77
					L201.82,200.77z"/>
				<path class="st2" d="M139.41,176.78c0,0,15.63,5.82,33.25,0H139.41z"/>
			</g>
			<g>
				<g>
					<g>
						<circle class="st6" cx="133.88" cy="138.99" r="4.9"/>
						<circle class="st6" cx="182.11" cy="138.99" r="4.9"/>
						<circle class="st7" cx="182.3" cy="138.97" r="1.38"/>
						<path class="st7" d="M134.75,138.97c0,0.76-0.62,1.38-1.38,1.38s-1.38-0.62-1.38-1.38s0.62-1.38,1.38-1.38
							S134.75,138.2,134.75,138.97z"/>
					</g>
					<path class="st8" d="M182.11,176.78h-48.15V133.5c0-13.3,10.78-24.08,24.08-24.08l0,0c13.3,0,24.08,10.78,24.08,24.08
						L182.11,176.78L182.11,176.78z"/>
					<g>
						<path class="st9" d="M164.17,160.42c0-3.39-2.75-6.14-6.14-6.14s-6.14,2.75-6.14,6.14H164.17z"/>
						<path class="st6" d="M157.82,152.51L157.82,152.51c-1.63,0-2.97-1.34-2.97-2.97v-4.48c0-1.63,1.34-2.97,2.97-2.97l0,0
							c1.63,0,2.97,1.34,2.97,2.97v4.48C160.79,151.18,159.46,152.51,157.82,152.51z"/>
					</g>
					<g>
						<path class="st10" d="M145.04,134.44l-2.68,2.68c-0.2,0.2-0.53,0.2-0.73,0l0,0c-0.2-0.2-0.2-0.53,0-0.74l2.68-2.68
							c0.2-0.2,0.53-0.2,0.73,0l0,0C145.24,133.91,145.24,134.24,145.04,134.44z"/>
						<path class="st10" d="M173.64,137.13l-2.68-2.68c-0.2-0.2-0.2-0.53,0-0.74l0,0c0.2-0.2,0.53-0.2,0.74,0l2.68,2.68
							c0.2,0.2,0.2,0.53,0,0.74l0,0C174.17,137.33,173.84,137.33,173.64,137.13z"/>
					</g>
					<g>
						<ellipse class="st11" cx="170.72" cy="144.71" rx="5.38" ry="1.55"/>
						<ellipse class="st11" cx="144.8" cy="144.71" rx="5.38" ry="1.55"/>
					</g>
					<g>
						<g>
							<g>
								<path class="st10" d="M147.54,140.36c0,0.95-0.77,1.72-1.72,1.72c-0.95,0-1.72-0.77-1.72-1.72s0.77-1.72,1.72-1.72
									C146.76,138.64,147.54,139.42,147.54,140.36z"/>
								<path class="st4" d="M145.81,139.48c0,0.17-0.28,0.3-0.62,0.3c-0.34,0-0.62-0.13-0.62-0.3s0.28-0.3,0.62-0.3
									C145.53,139.17,145.81,139.31,145.81,139.48z"/>
							</g>
							<polygon class="st8" points="143.76,140.36 147.2,138.5 143.76,137.95 							"/>
						</g>
						<g>
							<g>
								<path class="st10" d="M171.98,140.36c0,0.95-0.77,1.72-1.72,1.72s-1.72-0.77-1.72-1.72s0.77-1.72,1.72-1.72
									C171.2,138.64,171.98,139.42,171.98,140.36z"/>
								<path class="st4" d="M170.25,139.48c0,0.17-0.28,0.3-0.62,0.3s-0.62-0.13-0.62-0.3s0.28-0.3,0.62-0.3
									C169.97,139.17,170.25,139.31,170.25,139.48z"/>
							</g>
							<polygon class="st8" points="169.2,138.78 172.28,140.85 171.85,137.95 							"/>
						</g>
					</g>
					<path class="st10" d="M182.37,134.44c1.7-6.09,0.64-12.87-2.82-18.16c-3.46-5.28-9.26-8.97-15.51-9.84
						c-2.06-0.29-4.15-0.29-6.23-0.27c-3.24,0.03-6.49,0.09-9.73,0.18c0.39-0.7,0.65-1.48,0.75-2.27c-2.14,0.83-4.13,2.04-5.85,3.55
						c0.15-0.74,0.3-1.48,0.45-2.23c-2.72,1.64-5.52,3.34-7.45,5.87c-1.81,2.36-2.74,5.28-3.13,8.22s-0.26,5.92-0.13,8.89
						c0.09,1.95,0.17,3.91,0.26,5.86c0.55-0.17,0.92,0.64,0.95,1.21c0.08,1.57-0.03,3.15-0.31,4.7c0.72,0.24,1.49,0.34,2.24,0.25
						c-0.68-6.68,2.36-13.13,5.47-19.09c2.03,1.93,4.96,2.87,7.73,2.46c-0.15-1.17-0.3-2.33-0.46-3.5c5.2,4.11,11.81,6.4,18.44,6.38
						c-0.07-0.88-0.15-1.75-0.22-2.64c2.08,1.5,4.46,2.56,6.95,3.13c1.81,0.41,3.81,0.62,5.14,1.91c1.42,1.38,0.97,3.58,1.09,5.56
						c0.1,1.77,0.21,3.53,0.3,5.3c0.39,0,1.42-0.01,1.81-0.01C182.16,138.02,181.86,136.27,182.37,134.44z"/>
					<g>
						<path class="st12" d="M139.41,150.8c0,0,11.92-7.41,36.7,0l-1.58,12.83l-16.49,4.28l-16.56-3.99L139.41,150.8z"/>
						<g>
							<path class="st4" d="M140.58,152.7c-0.07,0-0.15-0.05-0.18-0.12l-7.63-18.75c-0.04-0.1,0.01-0.21,0.11-0.25
								c0.1-0.04,0.21,0.01,0.24,0.11l7.63,18.75c0.04,0.1-0.01,0.21-0.11,0.24C140.63,152.69,140.61,152.7,140.58,152.7z"/>
						</g>
						<g>
							<path class="st4" d="M175.03,152.7c-0.03,0-0.05-0.01-0.07-0.01c-0.1-0.04-0.15-0.15-0.11-0.24l7.43-18.41
								c0.04-0.1,0.15-0.15,0.24-0.11c0.1,0.04,0.15,0.15,0.11,0.25l-7.43,18.41C175.18,152.65,175.1,152.7,175.03,152.7z"/>
						</g>
						<g>
							<path class="st13" d="M163.33,155c-2.32,0-4.58-0.64-5.84-1.07c-0.2-0.07-0.4-0.14-0.6-0.21c-3.49-1.21-7.1-2.46-10.12,0.28
								l-0.26-0.28c3.19-2.89,7.07-1.55,10.5-0.36c0.2,0.07,0.4,0.14,0.6,0.21c6.93,2.38,10.09,0.17,11.13-0.89l0.27,0.26
								C167.48,154.5,165.38,155,163.33,155z"/>
						</g>
						<g>
							<path class="st13" d="M163.33,160.53c-2.32,0-4.58-0.64-5.84-1.07c-0.2-0.07-0.4-0.14-0.6-0.21
								c-3.49-1.21-7.1-2.46-10.12,0.28l-0.26-0.28c3.19-2.89,7.07-1.55,10.5-0.36c0.2,0.07,0.4,0.14,0.6,0.21
								c6.93,2.38,10.09,0.17,11.13-0.89l0.27,0.26C167.48,160.03,165.38,160.53,163.33,160.53z"/>
						</g>
					</g>
				</g>
				<g>
					<path class="st14" d="M142.96,127.92c0,0.81-0.66,1.47-1.47,1.47s-1.47-0.66-1.47-1.47s1.47-3.81,1.47-3.81
						S142.96,127.11,142.96,127.92z"/>
					<path class="st14" d="M145.92,129.97c0,0.4-0.33,0.74-0.73,0.74c-0.4,0-0.74-0.33-0.74-0.74s0.74-1.9,0.74-1.9
						S145.92,129.57,145.92,129.97z"/>
				</g>
			</g>
		</g>
		<g class="st15">
			<g>
				<polygon class="st3" points="178.75,155.22 186.03,152.31 188.43,155.22 201.23,151.04 187.61,158.01 184.63,154.84 				"/>
				<polygon class="st3" points="180.08,160.82 184.65,160.95 185.26,163.06 193.07,163.78 184.18,164.36 183.32,161.98 				"/>
				<polygon class="st3" points="137.89,159.39 130.2,157.88 128.37,161.19 115.03,159.45 129.69,163.77 132.04,160.11 				"/>
				<polygon class="st3" points="135.61,154.78 132.15,152.09 130.41,153.28 124.18,149.07 130.42,154.91 132.51,153.67 				"/>
				<g>
					<g>
						<path class="st3" d="M194.85,168.96l-0.17-0.24c2.67-1.92,3.36-6.11,1.46-8.79l0.24-0.17
							C198.37,162.57,197.64,166.95,194.85,168.96z"/>
					</g>
					<g>
						<path class="st3" d="M193.98,166.52l-0.17-0.24c1.58-1.14,1.99-3.62,0.87-5.22l0.24-0.17
							C196.13,162.61,195.69,165.29,193.98,166.52z"/>
					</g>
				</g>
				<g>
					<g>
						<path class="st3" d="M124.68,152.81l0.11,0.15c-1.64,1.19-2.07,3.77-0.9,5.42l-0.15,0.11
							C122.52,156.75,122.96,154.04,124.68,152.81z"/>
					</g>
					<g>
						<path class="st3" d="M125.22,154.31l0.11,0.15c-0.97,0.7-1.23,2.24-0.54,3.22l-0.15,0.11
							C123.89,156.73,124.16,155.07,125.22,154.31z"/>
					</g>
				</g>
			</g>
		</g>
	</g>
</g>
<g>
	
		<rect x="227.43" y="104.87" transform="matrix(0.1122 -0.9937 0.9937 0.1122 81.5964 334.9553)" class="st2" width="1.64" height="33.88"/>
	<path class="st3" d="M212.7,117.63c1,1.24,0.79,3.06-0.46,4.06c-1.24,1-3.06,0.79-4.06-0.46c-1-1.24-0.79-3.06,0.46-4.06
		C209.88,116.18,211.7,116.38,212.7,117.63z"/>
	<path class="st3" d="M248.47,122.1c1,1.24,0.79,3.06-0.46,4.06c-1.24,1-3.06,0.79-4.06-0.46c-1-1.24-0.79-3.06,0.46-4.06
		C245.65,120.65,247.47,120.86,248.47,122.1z"/>
	
		<rect x="217.72" y="106.4" transform="matrix(0.782 -0.6233 0.6233 0.782 -21.3731 160.622)" class="st2" width="2.41" height="8.93"/>
	<path class="st3" d="M217.98,104.4c1.13,1.42,0.9,3.49-0.53,4.63c-1.42,1.13-3.49,0.9-4.63-0.53c-1.13-1.42-0.9-3.49,0.53-4.63
		C214.78,102.74,216.84,102.98,217.98,104.4z"/>
	
		<rect x="235.22" y="112.26" transform="matrix(0.782 -0.6233 0.6233 0.782 -18.4756 173.9528)" class="st2" width="8.41" height="2.26"/>
	<path class="st3" d="M245.23,108.72c0.88,1.1,0.7,2.72-0.41,3.6c-1.1,0.88-2.72,0.7-3.6-0.41c-0.88-1.1-0.7-2.72,0.41-3.6
		C242.74,107.44,244.35,107.62,245.23,108.72z"/>
	
		<rect x="210.66" y="130.55" transform="matrix(0.782 -0.6233 0.6233 0.782 -35.168 163.4553)" class="st2" width="10.83" height="2.91"/>
	<path class="st3" d="M214.01,133.61c1.14,1.42,0.9,3.5-0.53,4.63c-1.42,1.14-3.5,0.9-4.63-0.53c-1.14-1.42-0.9-3.5,0.53-4.63
		S212.87,132.19,214.01,133.61z"/>
	
		<rect x="235.7" y="128.76" transform="matrix(0.782 -0.6233 0.6233 0.782 -31.5531 176.8141)" class="st2" width="2.56" height="9.51"/>
	<path class="st3" d="M243.82,136.48c1.2,1.51,0.96,3.72-0.55,4.92c-1.51,1.2-3.72,0.96-4.92-0.55c-1.2-1.51-0.96-3.72,0.55-4.92
		C240.41,134.71,242.62,134.95,243.82,136.48z"/>
	
		<rect x="211.33" y="121.06" transform="matrix(0.1121 -0.9937 0.9937 0.1121 81.5702 335.0547)" class="st2" width="33.88" height="1.64"/>
	<path class="st3" d="M232.39,101.94c1,1.24,0.79,3.06-0.46,4.06c-1.24,1-3.06,0.79-4.06-0.46c-1-1.24-0.79-3.06,0.46-4.06
		S231.39,100.68,232.39,101.94z"/>
	<path class="st3" d="M228.38,138.98c1,1.24,0.79,3.06-0.46,4.06c-1.24,1-3.06,0.79-4.06-0.46c-1-1.24-0.79-3.06,0.46-4.06
		C225.56,137.53,227.38,137.74,228.38,138.98z"/>
	<path class="st2" d="M237.4,115.01c4.09,5.13,3.24,12.59-1.88,16.66c-1.51,1.2-3.23,1.99-5,2.35c-4.23,0.87-8.78-0.62-11.66-4.23
		c-4.09-5.13-3.24-12.59,1.88-16.66C225.85,109.05,233.31,109.9,237.4,115.01z"/>
	<path class="st4" d="M233.35,116.48c1.36,1.7,1.08,4.18-0.63,5.54c-1.7,1.36-4.18,1.08-5.54-0.63c-1.36-1.7-1.08-4.18,0.63-5.54
		C229.52,114.5,231.99,114.78,233.35,116.48z"/>
	<path class="st4" d="M228.7,126.11c0.88,1.12,0.7,2.74-0.41,3.63c-1.12,0.88-2.74,0.7-3.63-0.41c-0.88-1.12-0.7-2.74,0.41-3.63
		C226.18,124.82,227.81,125,228.7,126.11z"/>
	<path class="st4" d="M223.11,120.88c0.78,0.99,0.63,2.42-0.36,3.22c-0.99,0.78-2.42,0.63-3.22-0.36c-0.78-0.99-0.63-2.42,0.36-3.22
		C220.89,119.74,222.33,119.89,223.11,120.88z"/>
	<path class="st0" d="M233.53,111.84c0,0,10.93,11.69-3.41,22.26c0,0,1.22-0.22,1.99-0.53c0,0,0.74-0.26,1.55-0.68
		c0,0,1.56-0.82,2.85-2.09c0,0,2.44-2.17,3.2-5.78c0,0,1.12-4.35-0.99-7.99C238.71,117.04,237.4,113.93,233.53,111.84z"/>
</g>
<g>
	
		<rect x="242.77" y="197.63" transform="matrix(0.1122 -0.9937 0.9937 0.1122 7.0904 428.5663)" class="st2" width="1.23" height="25.37"/>
	<path class="st3" d="M231.74,207.18c0.75,0.93,0.6,2.29-0.35,3.04c-0.93,0.75-2.29,0.6-3.04-0.35c-0.75-0.93-0.6-2.29,0.35-3.04
		C229.63,206.09,230.99,206.25,231.74,207.18z"/>
	<path class="st3" d="M258.53,210.53c0.75,0.93,0.6,2.29-0.35,3.04c-0.93,0.75-2.29,0.6-3.04-0.35c-0.75-0.93-0.6-2.29,0.35-3.04
		C256.42,209.44,257.78,209.6,258.53,210.53z"/>
	
		<rect x="235.5" y="198.77" transform="matrix(0.782 -0.6233 0.6233 0.782 -74.4402 191.4099)" class="st2" width="1.8" height="6.69"/>
	<path class="st3" d="M235.7,197.27c0.84,1.07,0.67,2.61-0.39,3.46c-1.07,0.84-2.61,0.67-3.46-0.39c-0.84-1.07-0.67-2.61,0.39-3.46
		C233.3,196.03,234.84,196.21,235.7,197.27z"/>
	
		<rect x="248.61" y="203.16" transform="matrix(0.782 -0.6233 0.6233 0.782 -72.2654 201.3952)" class="st2" width="6.3" height="1.69"/>
	<path class="st3" d="M256.1,200.51c0.66,0.83,0.53,2.03-0.31,2.7c-0.83,0.66-2.03,0.53-2.7-0.31c-0.66-0.83-0.53-2.03,0.31-2.7
		C254.24,199.55,255.44,199.68,256.1,200.51z"/>
	
		<rect x="230.21" y="216.86" transform="matrix(0.782 -0.6233 0.6233 0.782 -84.7726 193.5338)" class="st2" width="8.11" height="2.18"/>
	<path class="st3" d="M232.72,219.15c0.85,1.07,0.67,2.62-0.39,3.46c-1.07,0.85-2.62,0.67-3.46-0.39c-0.85-1.07-0.67-2.62,0.39-3.46
		C230.32,217.91,231.87,218.08,232.72,219.15z"/>
	
		<rect x="248.96" y="215.52" transform="matrix(0.782 -0.6233 0.6233 0.782 -82.0652 203.5371)" class="st2" width="1.92" height="7.12"/>
	<path class="st3" d="M255.05,221.3c0.9,1.13,0.72,2.78-0.41,3.69c-1.13,0.9-2.78,0.72-3.69-0.41c-0.9-1.13-0.72-2.78,0.41-3.69
		C252.49,219.97,254.15,220.15,255.05,221.3z"/>
	
		<rect x="230.72" y="209.76" transform="matrix(0.1121 -0.9937 0.9937 0.1121 7.078 428.6625)" class="st2" width="25.37" height="1.23"/>
	<path class="st3" d="M246.49,195.43c0.75,0.93,0.6,2.29-0.35,3.04c-0.93,0.75-2.29,0.6-3.04-0.35c-0.75-0.93-0.6-2.29,0.35-3.04
		C244.38,194.34,245.74,194.49,246.49,195.43z"/>
	<path class="st3" d="M243.48,223.17c0.75,0.93,0.6,2.29-0.35,3.04c-0.93,0.75-2.29,0.6-3.04-0.35c-0.75-0.93-0.6-2.29,0.35-3.04
		C241.37,222.08,242.73,222.24,243.48,223.17z"/>
	<path class="st2" d="M250.24,205.22c3.06,3.84,2.43,9.43-1.41,12.48c-1.13,0.9-2.42,1.49-3.74,1.76c-3.17,0.65-6.57-0.46-8.73-3.17
		c-3.06-3.84-2.43-9.43,1.41-12.48C241.59,200.76,247.18,201.39,250.24,205.22z"/>
	<path class="st4" d="M247.21,206.32c1.02,1.28,0.81,3.13-0.47,4.15c-1.28,1.02-3.13,0.81-4.15-0.47c-1.02-1.28-0.81-3.13,0.47-4.15
		C244.34,204.84,246.19,205.05,247.21,206.32z"/>
	<path class="st4" d="M243.72,213.53c0.66,0.84,0.53,2.05-0.31,2.72c-0.84,0.66-2.05,0.53-2.72-0.31c-0.66-0.84-0.53-2.05,0.31-2.72
		C241.84,212.56,243.06,212.7,243.72,213.53z"/>
	<path class="st4" d="M239.54,209.62c0.59,0.74,0.47,1.81-0.27,2.41c-0.74,0.59-1.81,0.47-2.41-0.27c-0.59-0.74-0.47-1.81,0.27-2.41
		C237.88,208.76,238.95,208.88,239.54,209.62z"/>
	<path class="st0" d="M247.34,202.85c0,0,8.19,8.75-2.55,16.67c0,0,0.91-0.16,1.49-0.39c0,0,0.56-0.19,1.16-0.51
		c0,0,1.17-0.61,2.13-1.56c0,0,1.82-1.62,2.4-4.33c0,0,0.84-3.25-0.74-5.98C251.22,206.74,250.24,204.41,247.34,202.85z"/>
</g>
<polyline class="st16" points="212.72,241.66 247.44,241.66 247.44,563.96 211.63,563.96 "/>
<rect x="236.17" y="300.19" class="st4" width="20.17" height="205.23"/>
<g class="st5">
	<path class="st3" d="M228.78,472.52c0.3-0.67,0.73-1.18,1.29-1.55s1.22-0.54,1.97-0.54s1.41,0.18,1.96,0.54
		c0.55,0.36,0.98,0.88,1.28,1.55c0.3,0.67,0.45,1.46,0.45,2.36v1.75h2.62v2.84h-10.02v-4.58
		C228.33,473.98,228.48,473.19,228.78,472.52z M233.12,473.74c-0.25-0.3-0.61-0.44-1.08-0.44s-0.83,0.15-1.09,0.44
		c-0.26,0.3-0.39,0.74-0.39,1.32v1.58h2.94v-1.58C233.5,474.48,233.37,474.04,233.12,473.74z"/>
	<path class="st3" d="M237.88,466.71c-0.45,0.85-1.07,1.51-1.86,1.99c-0.79,0.48-1.69,0.72-2.68,0.72c-0.99,0-1.89-0.24-2.68-0.72
		c-0.79-0.48-1.41-1.15-1.86-1.99s-0.67-1.8-0.67-2.86s0.22-2.01,0.67-2.86s1.07-1.51,1.86-1.99c0.79-0.48,1.69-0.72,2.68-0.72
		c0.99,0,1.89,0.24,2.68,0.72c0.79,0.48,1.41,1.15,1.86,1.99c0.45,0.85,0.67,1.8,0.67,2.86S238.33,465.87,237.88,466.71z
		 M235.85,462.48c-0.24-0.41-0.58-0.73-1.01-0.97c-0.43-0.24-0.93-0.36-1.5-0.36c-0.57,0-1.06,0.12-1.5,0.36
		c-0.43,0.24-0.77,0.56-1.01,0.97c-0.24,0.41-0.36,0.87-0.36,1.38s0.12,0.96,0.36,1.38c0.24,0.41,0.58,0.74,1.01,0.97
		c0.43,0.24,0.93,0.36,1.5,0.36c0.57,0,1.06-0.12,1.5-0.36c0.43-0.24,0.77-0.56,1.01-0.97s0.36-0.87,0.36-1.38
		S236.09,462.89,235.85,462.48z"/>
	<path class="st3" d="M230.58,454.8v3.08h-2.25l0-8.98h2.25v3.07h7.78l0,2.84L230.58,454.8L230.58,454.8z"/>
	<path class="st3" d="M236.16,439.79h2.19v8.05h-10.02v-7.86h2.19l0,5.06h1.69v-4.46h2.12v4.46h1.83V439.79z"/>
	<path class="st3" d="M228.33,428.67h10.03V431l-5.34,4.43h5.34v2.78h-10.03v-2.33l5.34-4.43h-5.34
		C228.33,431.45,228.33,428.67,228.33,428.67z"/>
	<path class="st3" d="M237.89,424.5c-0.44,0.84-1.06,1.49-1.86,1.97s-1.69,0.72-2.69,0.72s-1.9-0.24-2.69-0.72
		c-0.79-0.48-1.41-1.13-1.85-1.97c-0.44-0.84-0.67-1.78-0.67-2.83c0-0.92,0.16-1.74,0.49-2.48c0.33-0.74,0.79-1.35,1.4-1.83
		l1.63,1.8c-0.78,0.65-1.17,1.44-1.17,2.36c0,0.54,0.12,1.03,0.36,1.45c0.24,0.42,0.58,0.75,1.01,0.99c0.43,0.23,0.93,0.35,1.5,0.35
		c0.57,0,1.06-0.12,1.5-0.35c0.43-0.23,0.77-0.56,1.01-0.99c0.24-0.42,0.36-0.91,0.36-1.45c0-0.93-0.39-1.71-1.17-2.36l1.63-1.8
		c0.61,0.49,1.08,1.1,1.4,1.83c0.32,0.73,0.49,1.56,0.49,2.48C238.56,422.72,238.33,423.66,237.89,424.5z"/>
	<path class="st3" d="M228.33,416.1v-2.84h10.03v2.84H228.33z"/>
	<path class="st3" d="M236.41,404.52l0,4.24l1.95,0.79v2.89l-10.03-4.43l0-2.79l10.03-4.44v2.95L236.41,404.52z M234.32,405.35
		l-3.21,1.29l3.21,1.29V405.35z"/>
	<path class="st3" d="M228.33,399.98v-2.84h7.78v-4.78h2.25v7.62H228.33z"/>
	<path class="st3" d="M228.33,387.07v-4.74c0-1.1,0.21-2.07,0.62-2.92c0.41-0.85,0.99-1.51,1.75-1.98c0.75-0.47,1.64-0.7,2.65-0.7
		s1.9,0.23,2.65,0.7s1.34,1.13,1.75,1.98s0.62,1.82,0.62,2.92l0,4.74H228.33z M236.09,382.45c0-0.86-0.24-1.55-0.73-2.07
		c-0.49-0.52-1.16-0.78-2.02-0.78c-0.86,0-1.53,0.26-2.02,0.78s-0.73,1.21-0.73,2.07l0,1.79h5.5L236.09,382.45z"/>
	<path class="st3" d="M236.16,367.19h2.19v8.05h-10.02v-7.86h2.19v5.06h1.69v-4.46h2.12v4.46h1.83V367.19z"/>
	<path class="st3" d="M238.35,352.39l-5.31,0.03l4.33,2.58v1.26l-4.18,2.56h5.17v2.62h-10.03l0-2.33l5.79-3.52l-5.79-3.44v-2.33
		l10.02-0.03V352.39z"/>
	<path class="st3" d="M236.41,341.06v4.24l1.95,0.79v2.89l-10.03-4.43v-2.79l10.03-4.44v2.95L236.41,341.06z M234.32,341.89
		l-3.21,1.29l3.21,1.29V341.89z"/>
	<path class="st3" d="M228.33,336.52v-2.84h10.03v2.84H228.33z"/>
	<path class="st3" d="M237.88,329.47c-0.45,0.85-1.07,1.51-1.86,1.99c-0.79,0.48-1.69,0.72-2.68,0.72c-0.99,0-1.89-0.24-2.68-0.72
		c-0.79-0.48-1.41-1.15-1.86-1.99s-0.67-1.8-0.67-2.86s0.22-2.01,0.67-2.86s1.07-1.51,1.86-1.99c0.79-0.48,1.69-0.72,2.68-0.72
		c0.99,0,1.89,0.24,2.68,0.72c0.79,0.48,1.41,1.15,1.86,1.99c0.45,0.85,0.67,1.8,0.67,2.86S238.33,328.62,237.88,329.47z
		 M235.85,325.23c-0.24-0.41-0.58-0.73-1.01-0.97c-0.43-0.24-0.93-0.36-1.5-0.36c-0.57,0-1.06,0.12-1.5,0.36
		c-0.43,0.24-0.77,0.56-1.01,0.97c-0.24,0.41-0.36,0.87-0.36,1.38s0.12,0.96,0.36,1.38c0.24,0.41,0.58,0.74,1.01,0.97
		c0.43,0.24,0.93,0.36,1.5,0.36c0.57,0,1.06-0.12,1.5-0.36c0.43-0.24,0.77-0.56,1.01-0.97s0.36-0.87,0.36-1.38
		S236.09,325.64,235.85,325.23z"/>
	<path class="st3" d="M235.69,315.16v1.55h2.66v2.84h-10.02v-4.58c0-0.91,0.15-1.69,0.45-2.36c0.3-0.67,0.73-1.18,1.29-1.55
		c0.56-0.37,1.22-0.54,1.97-0.54c0.73,0,1.36,0.17,1.9,0.51c0.54,0.34,0.96,0.82,1.27,1.45l3.15-2.16l0,3.04L235.69,315.16z
		 M230.95,313.82c-0.26,0.3-0.39,0.74-0.39,1.32v1.58h2.94v-1.58c0-0.58-0.13-1.02-0.38-1.32c-0.25-0.3-0.61-0.44-1.08-0.44
		C231.57,313.37,231.21,313.52,230.95,313.82z"/>
	<path class="st3" d="M245.52,440.06l10.03,4.3v2.79l-10.03,4.28v-3.07l6.53-2.72l-6.53-2.78V440.06z"/>
	<path class="st3" d="M245.52,439.47v-2.84h10.03v2.84H245.52z"/>
	<path class="st3" d="M252.88,430.23v1.55h2.66v2.84h-10.02v-4.58c0-0.91,0.15-1.69,0.45-2.36c0.3-0.67,0.73-1.18,1.29-1.55
		s1.22-0.54,1.97-0.54c0.73,0,1.36,0.17,1.9,0.51c0.54,0.34,0.96,0.82,1.27,1.45l3.15-2.16v3.04L252.88,430.23z M248.14,428.88
		c-0.26,0.3-0.39,0.74-0.39,1.32v1.58h2.94v-1.58c0-0.58-0.13-1.02-0.38-1.32c-0.25-0.3-0.61-0.44-1.08-0.44
		S248.4,428.59,248.14,428.88z"/>
	<path class="st3" d="M254.53,422.86c-0.81,0.83-1.96,1.24-3.45,1.24h-5.56v-2.84h5.47c1.6,0,2.41-0.63,2.41-1.91
		c0-1.26-0.8-1.89-2.41-1.89h-5.47v-2.79h5.56c1.49,0,2.64,0.41,3.45,1.24s1.22,1.98,1.22,3.47S255.34,422.03,254.53,422.86z"/>
	<path class="st3" d="M245.52,412.75v-2.84h7.78l0-4.78h2.25l0,7.62H245.52z"/>
	<path class="st3" d="M253.35,395.96h2.19v8.05h-10.02v-7.86h2.19v5.06h1.69v-4.46h2.12v4.46h1.83
		C253.35,401.21,253.35,395.96,253.35,395.96z M244.7,398.84l-1.09,1.23l1.09,1.23v1.81l-2.18-1.86v-2.35l2.18-1.86V398.84z"/>
	<path class="st3" d="M245.52,384.85h10.03v2.33l-5.34,4.43h5.34v2.78h-10.03v-2.33l5.34-4.43h-5.34
		C245.52,387.63,245.52,384.85,245.52,384.85z"/>
	<path class="st3" d="M255.08,380.67c-0.44,0.84-1.06,1.49-1.86,1.97s-1.69,0.72-2.69,0.72s-1.9-0.24-2.69-0.72
		s-1.41-1.13-1.85-1.97c-0.44-0.84-0.67-1.78-0.67-2.83c0-0.92,0.16-1.74,0.49-2.48c0.33-0.74,0.79-1.35,1.4-1.83l1.63,1.8
		c-0.78,0.65-1.17,1.44-1.17,2.36c0,0.54,0.12,1.03,0.36,1.45c0.24,0.42,0.58,0.75,1.01,0.99c0.43,0.23,0.93,0.35,1.5,0.35
		c0.57,0,1.06-0.12,1.5-0.35c0.43-0.23,0.77-0.56,1.01-0.99c0.24-0.42,0.36-0.91,0.36-1.45c0-0.93-0.39-1.71-1.17-2.36l1.63-1.8
		c0.61,0.49,1.08,1.1,1.4,1.83c0.32,0.73,0.49,1.56,0.49,2.48C255.75,378.89,255.52,379.83,255.08,380.67z"/>
	<path class="st3" d="M245.52,372.27v-2.84h10.03v2.84H245.52z"/>
	<path class="st3" d="M253.6,360.69v4.24l1.95,0.79v2.89l-10.03-4.43v-2.79l10.03-4.44l0,2.95L253.6,360.69z M251.51,361.52
		l-3.21,1.29l3.21,1.29V361.52z"/>
	<path class="st3" d="M253.35,343.93h2.19v8.05h-10.02v-7.86h2.19v5.06h1.69v-4.46h2.12v4.46h1.83
		C253.35,349.18,253.35,343.93,253.35,343.93z"/>
	<path class="st3" d="M264.96,475.85v3.08h-2.25v-8.98h2.25v3.07h7.78v2.84L264.96,475.85L264.96,475.85z"/>
	<path class="st3" d="M270.07,464.51v1.55h2.66v2.84h-10.02v-4.58c0-0.91,0.15-1.69,0.45-2.36c0.3-0.67,0.73-1.18,1.29-1.55
		s1.22-0.54,1.97-0.54c0.73,0,1.36,0.17,1.9,0.51c0.54,0.34,0.96,0.82,1.27,1.45l3.15-2.16v3.04L270.07,464.51z M265.33,463.16
		c-0.26,0.3-0.39,0.74-0.39,1.32v1.58h2.94v-1.58c0-0.58-0.13-1.02-0.38-1.32c-0.25-0.3-0.61-0.44-1.08-0.44
		S265.59,462.87,265.33,463.16z"/>
	<path class="st3" d="M270.79,451.57l0,4.24l1.95,0.79v2.89l-10.03-4.43v-2.79l10.03-4.44v2.95L270.79,451.57z M268.7,452.4
		l-3.21,1.29l3.21,1.29L268.7,452.4z"/>
	<path class="st3" d="M262.71,437.49h10.03v2.33l-5.34,4.43h5.34v2.78h-10.03v-2.33l5.34-4.43h-5.34
		C262.71,440.27,262.71,437.49,262.71,437.49z"/>
	<path class="st3" d="M272.64,434.33c-0.2,0.76-0.47,1.38-0.8,1.86l-2.09-0.93c0.3-0.45,0.54-0.97,0.72-1.56s0.27-1.17,0.27-1.75
		c0-1.09-0.27-1.63-0.82-1.63c-0.29,0-0.5,0.16-0.64,0.47c-0.14,0.31-0.28,0.81-0.44,1.5c-0.16,0.75-0.34,1.38-0.52,1.89
		c-0.19,0.51-0.48,0.94-0.9,1.3c-0.41,0.36-0.96,0.54-1.66,0.54c-0.61,0-1.16-0.17-1.65-0.5c-0.49-0.33-0.88-0.83-1.17-1.5
		c-0.29-0.66-0.43-1.48-0.43-2.44c0-0.66,0.07-1.31,0.22-1.95c0.15-0.64,0.37-1.2,0.65-1.69l2.11,0.87
		c-0.52,0.96-0.77,1.88-0.77,2.78c0,0.56,0.08,0.97,0.25,1.23c0.17,0.26,0.38,0.39,0.65,0.39c0.27,0,0.47-0.15,0.6-0.46
		s0.27-0.8,0.42-1.48c0.16-0.76,0.34-1.4,0.52-1.9c0.19-0.5,0.48-0.94,0.89-1.3c0.41-0.37,0.96-0.55,1.65-0.55
		c0.6,0,1.15,0.17,1.63,0.5c0.49,0.33,0.88,0.84,1.17,1.5s0.44,1.48,0.44,2.44C272.94,432.77,272.84,433.56,272.64,434.33z"/>
	<path class="st3" d="M272.74,417.16l-5.31,0.03l4.33,2.58v1.26l-4.18,2.56h5.17v2.62h-10.04v-2.33l5.79-3.52l-5.79-3.44v-2.33
		l10.03-0.03V417.16z"/>
	<path class="st3" d="M262.71,412.55v-2.84h10.03v2.84H262.71z"/>
	<path class="st3" d="M272.64,406.53c-0.2,0.76-0.47,1.38-0.8,1.86l-2.09-0.93c0.3-0.45,0.54-0.97,0.72-1.56
		c0.18-0.59,0.27-1.17,0.27-1.75c0-1.09-0.27-1.63-0.82-1.63c-0.29,0-0.5,0.16-0.64,0.47c-0.14,0.31-0.28,0.81-0.44,1.5
		c-0.16,0.75-0.34,1.38-0.52,1.89c-0.19,0.51-0.48,0.94-0.9,1.3c-0.41,0.36-0.96,0.54-1.66,0.54c-0.61,0-1.16-0.17-1.65-0.5
		c-0.49-0.33-0.88-0.83-1.17-1.5c-0.29-0.66-0.43-1.48-0.43-2.44c0-0.66,0.07-1.31,0.22-1.95s0.37-1.2,0.65-1.69l2.11,0.87
		c-0.52,0.96-0.77,1.88-0.77,2.78c0,0.56,0.08,0.97,0.25,1.23c0.17,0.26,0.38,0.39,0.65,0.39c0.27,0,0.47-0.15,0.6-0.46
		c0.13-0.31,0.27-0.8,0.42-1.48c0.16-0.76,0.34-1.4,0.52-1.9c0.19-0.5,0.48-0.94,0.89-1.3c0.41-0.37,0.96-0.55,1.65-0.55
		c0.6,0,1.15,0.17,1.63,0.5c0.49,0.33,0.88,0.84,1.17,1.5c0.29,0.66,0.44,1.48,0.44,2.44C272.94,404.98,272.84,405.77,272.64,406.53
		z"/>
	<path class="st3" d="M272.64,397.27c-0.2,0.76-0.47,1.38-0.8,1.86l-2.09-0.93c0.3-0.45,0.54-0.97,0.72-1.56
		c0.18-0.59,0.27-1.17,0.27-1.75c0-1.09-0.27-1.63-0.82-1.63c-0.29,0-0.5,0.16-0.64,0.47c-0.14,0.31-0.28,0.81-0.44,1.5
		c-0.16,0.75-0.34,1.38-0.52,1.89c-0.19,0.51-0.48,0.94-0.9,1.3c-0.41,0.36-0.96,0.54-1.66,0.54c-0.61,0-1.16-0.17-1.65-0.5
		s-0.88-0.83-1.17-1.5c-0.29-0.66-0.43-1.48-0.43-2.44c0-0.66,0.07-1.31,0.22-1.95s0.37-1.2,0.65-1.69l2.11,0.87
		c-0.52,0.96-0.77,1.88-0.77,2.78c0,0.56,0.08,0.97,0.25,1.23c0.17,0.26,0.38,0.39,0.65,0.39c0.27,0,0.47-0.15,0.6-0.46
		c0.13-0.31,0.27-0.8,0.42-1.48c0.16-0.76,0.34-1.4,0.52-1.9c0.19-0.5,0.48-0.94,0.89-1.3c0.41-0.37,0.96-0.55,1.65-0.55
		c0.6,0,1.15,0.17,1.63,0.5c0.49,0.33,0.88,0.84,1.17,1.5c0.29,0.66,0.44,1.48,0.44,2.44C272.94,395.71,272.84,396.5,272.64,397.27z
		"/>
	<path class="st3" d="M262.71,389.16v-2.84h10.03v2.84H262.71z"/>
	<path class="st3" d="M268.45,375.25c0.42-0.32,0.94-0.49,1.54-0.49c0.88,0,1.56,0.35,2.03,1.06c0.48,0.71,0.72,1.73,0.72,3.07v5.41
		h-10.03v-5.13c0-1.28,0.24-2.25,0.71-2.92s1.11-1,1.91-1c0.48,0,0.91,0.12,1.28,0.35c0.38,0.23,0.68,0.57,0.9,1
		C267.71,376.02,268.02,375.57,268.45,375.25z M264.76,381.49h1.93v-1.95c0-0.96-0.32-1.43-0.97-1.43c-0.64,0-0.96,0.48-0.96,1.43
		V381.49z M269.67,377.63c-0.68,0-1.02,0.5-1.02,1.49v2.38h2.03v-2.38C270.69,378.12,270.35,377.63,269.67,377.63z"/>
	<path class="st3" d="M262.71,373.29v-2.84h10.03v2.84H262.71z"/>
	<path class="st3" d="M262.71,368.43v-2.84h7.78v-4.78h2.25v7.62H262.71z"/>
	<path class="st3" d="M262.71,359.69v-2.84h10.03v2.84H262.71z"/>
	<path class="st3" d="M262.71,354.84v-4.74c0-1.1,0.21-2.07,0.62-2.92s0.99-1.51,1.75-1.98c0.75-0.47,1.64-0.7,2.65-0.7
		s1.9,0.23,2.65,0.7s1.34,1.13,1.75,1.98s0.62,1.82,0.62,2.92v4.74H262.71z M270.47,350.21c0-0.86-0.24-1.55-0.73-2.07
		c-0.49-0.52-1.16-0.78-2.02-0.78s-1.53,0.26-2.02,0.78c-0.49,0.52-0.73,1.21-0.73,2.07V352h5.5V350.21z"/>
	<path class="st3" d="M270.79,336.43v4.24l1.95,0.79v2.89l-10.03-4.43v-2.79l10.03-4.44v2.95L270.79,336.43z M268.7,337.26
		l-3.21,1.29l3.21,1.29V337.26z"/>
	<path class="st3" d="M262.71,331.89v-4.74c0-1.1,0.21-2.07,0.62-2.92s0.99-1.51,1.75-1.98c0.75-0.47,1.64-0.7,2.65-0.7
		s1.9,0.23,2.65,0.7s1.34,1.13,1.75,1.98s0.62,1.82,0.62,2.92v4.74H262.71z M270.47,327.26c0-0.86-0.24-1.55-0.73-2.07
		c-0.49-0.52-1.16-0.78-2.02-0.78s-1.53,0.26-2.02,0.78s-0.73,1.21-0.73,2.07v1.79h5.5V327.26z"/>
	<path class="st3" d="M270.54,312h2.19v8.05h-10.02v-7.86h2.19v5.06h1.69v-4.46h2.12v4.46h1.83V312L270.54,312z"/>
</g>
<polyline class="st16" points="103.05,890.51 68.34,890.51 68.34,241.01 104.14,241.01 "/>
<rect x="61.85" y="446.64" class="st4" width="20.17" height="238.25"/>
<g class="st5">
	<path class="st3" d="M60.97,665.12c0.3-0.67,0.73-1.18,1.29-1.55s1.22-0.54,1.97-0.54c0.75,0,1.41,0.18,1.96,0.54
		c0.55,0.36,0.98,0.88,1.28,1.55s0.45,1.46,0.45,2.36v1.75h2.62v2.84H60.51l0-4.58C60.52,666.58,60.67,665.79,60.97,665.12z
		 M65.31,666.34c-0.25-0.3-0.61-0.44-1.08-0.44c-0.47,0-0.83,0.15-1.09,0.44c-0.26,0.3-0.39,0.74-0.39,1.32v1.58h2.94v-1.58
		C65.69,667.08,65.57,666.64,65.31,666.34z"/>
	<path class="st3" d="M68.36,653.6h2.19v8.05H60.52l0-7.86h2.19l0,5.06h1.69v-4.46h2.12v4.46h1.83v-5.25H68.36z"/>
	<path class="st3" d="M67.88,647.65v1.55h2.66v2.84H60.51v-4.58c0-0.91,0.15-1.69,0.45-2.36c0.3-0.67,0.73-1.18,1.29-1.55
		s1.22-0.54,1.97-0.54c0.73,0,1.36,0.17,1.9,0.51c0.54,0.34,0.96,0.82,1.27,1.45l3.15-2.16v3.04L67.88,647.65z M63.14,646.3
		c-0.26,0.3-0.39,0.74-0.39,1.32v1.58h2.94v-1.58c0-0.58-0.13-1.02-0.38-1.32s-0.61-0.44-1.08-0.44
		C63.76,645.86,63.4,646,63.14,646.3z"/>
	<path class="st3" d="M60.52,641.43v-2.84h10.03l0,2.84H60.52z M57.53,639.5v-2.72l2.18,2.69v1.95L57.53,639.5z"/>
	<path class="st3" d="M70.08,634.37c-0.45,0.85-1.07,1.51-1.86,1.99c-0.79,0.48-1.69,0.72-2.68,0.72s-1.89-0.24-2.68-0.72
		c-0.79-0.48-1.41-1.15-1.86-1.99c-0.45-0.84-0.67-1.8-0.67-2.86s0.22-2.01,0.67-2.86s1.07-1.51,1.86-1.99
		c0.79-0.48,1.69-0.72,2.68-0.72s1.89,0.24,2.68,0.72c0.79,0.48,1.41,1.15,1.86,1.99c0.45,0.85,0.67,1.8,0.67,2.86
		S70.52,633.53,70.08,634.37z M68.04,630.14c-0.24-0.41-0.58-0.73-1.01-0.97s-0.93-0.36-1.5-0.36s-1.06,0.12-1.5,0.36
		s-0.77,0.56-1.01,0.97c-0.24,0.41-0.36,0.87-0.36,1.38s0.12,0.96,0.36,1.38c0.24,0.41,0.58,0.74,1.01,0.97
		c0.43,0.24,0.93,0.36,1.5,0.36s1.06-0.12,1.5-0.36c0.43-0.24,0.77-0.56,1.01-0.97c0.24-0.41,0.36-0.87,0.36-1.38
		S68.28,630.55,68.04,630.14z"/>
	<path class="st3" d="M60.52,624.45l0-4.74c0-1.1,0.21-2.07,0.62-2.92s0.99-1.51,1.75-1.98c0.75-0.47,1.64-0.7,2.65-0.7
		c1.01,0,1.9,0.23,2.65,0.7s1.34,1.13,1.75,1.98c0.41,0.85,0.62,1.82,0.62,2.92v4.74H60.52z M68.29,619.83
		c0-0.86-0.24-1.55-0.73-2.07c-0.49-0.52-1.16-0.78-2.02-0.78s-1.53,0.26-2.02,0.78c-0.49,0.52-0.73,1.21-0.73,2.07v1.79h5.5V619.83
		z"/>
	<path class="st3" d="M70.08,610.42c-0.45,0.85-1.07,1.51-1.86,1.99c-0.79,0.48-1.69,0.72-2.68,0.72s-1.89-0.24-2.68-0.72
		c-0.79-0.48-1.41-1.15-1.86-1.99s-0.67-1.8-0.67-2.86s0.22-2.01,0.67-2.86s1.07-1.51,1.86-1.99c0.79-0.48,1.69-0.72,2.68-0.72
		s1.89,0.24,2.68,0.72c0.79,0.48,1.41,1.15,1.86,1.99c0.45,0.85,0.67,1.8,0.67,2.86S70.52,609.58,70.08,610.42z M68.04,606.19
		c-0.24-0.41-0.58-0.73-1.01-0.97s-0.93-0.36-1.5-0.36s-1.06,0.12-1.5,0.36s-0.77,0.56-1.01,0.97c-0.24,0.41-0.36,0.87-0.36,1.38
		s0.12,0.96,0.36,1.38c0.24,0.41,0.58,0.74,1.01,0.97c0.43,0.24,0.93,0.36,1.5,0.36s1.06-0.12,1.5-0.36
		c0.43-0.24,0.77-0.56,1.01-0.97c0.24-0.41,0.36-0.87,0.36-1.38S68.28,606.6,68.04,606.19z"/>
	<path class="st3" d="M60.52,596.33v-4.74c0-1.1,0.21-2.07,0.62-2.92c0.41-0.85,0.99-1.51,1.75-1.98c0.75-0.47,1.64-0.7,2.65-0.7
		c1.01,0,1.9,0.23,2.65,0.7s1.34,1.13,1.75,1.98s0.62,1.82,0.62,2.92l0,4.74H60.52z M68.29,591.71c0-0.86-0.24-1.55-0.73-2.07
		c-0.49-0.52-1.16-0.78-2.02-0.78s-1.53,0.26-2.02,0.78c-0.49,0.52-0.73,1.21-0.73,2.07v1.79h5.5V591.71z"/>
	<path class="st3" d="M68.36,576.45h2.19v8.05H60.52v-7.86h2.19v5.06h1.69v-4.46h2.12v4.46h1.83v-5.25H68.36z"/>
	<path class="st3" d="M60.52,570.71v-2.84h10.03l0,2.84H60.52z"/>
	<path class="st3" d="M70.45,564.69c-0.2,0.76-0.47,1.38-0.8,1.86l-2.09-0.93c0.3-0.45,0.54-0.97,0.72-1.56s0.27-1.17,0.27-1.75
		c0-1.09-0.27-1.63-0.82-1.63c-0.29,0-0.5,0.16-0.64,0.47s-0.28,0.81-0.44,1.5c-0.16,0.75-0.34,1.38-0.52,1.89
		c-0.19,0.51-0.48,0.94-0.9,1.3c-0.41,0.36-0.96,0.54-1.66,0.54c-0.61,0-1.16-0.17-1.65-0.5s-0.88-0.83-1.17-1.5
		c-0.29-0.66-0.43-1.48-0.43-2.44c0-0.66,0.07-1.31,0.22-1.95s0.37-1.2,0.65-1.69l2.11,0.87c-0.52,0.96-0.77,1.88-0.77,2.78
		c0,0.56,0.08,0.97,0.25,1.23s0.38,0.39,0.65,0.39s0.47-0.15,0.6-0.46s0.27-0.8,0.42-1.48c0.16-0.76,0.34-1.4,0.52-1.9
		c0.19-0.5,0.48-0.94,0.89-1.3c0.41-0.37,0.96-0.55,1.65-0.55c0.6,0,1.15,0.17,1.63,0.5c0.49,0.33,0.88,0.84,1.17,1.5
		s0.44,1.48,0.44,2.44C70.75,563.14,70.65,563.93,70.45,564.69z"/>
	<path class="st3" d="M70.08,554.38c-0.45,0.85-1.07,1.51-1.86,1.99c-0.79,0.48-1.69,0.72-2.68,0.72s-1.89-0.24-2.68-0.72
		c-0.79-0.48-1.41-1.15-1.86-1.99s-0.67-1.8-0.67-2.86s0.22-2.01,0.67-2.86s1.07-1.51,1.86-1.99c0.79-0.48,1.69-0.72,2.68-0.72
		s1.89,0.24,2.68,0.72c0.79,0.48,1.41,1.15,1.86,1.99c0.45,0.85,0.67,1.8,0.67,2.86S70.52,553.54,70.08,554.38z M68.04,550.15
		c-0.24-0.41-0.58-0.73-1.01-0.97s-0.93-0.36-1.5-0.36s-1.06,0.12-1.5,0.36c-0.44,0.24-0.77,0.56-1.01,0.97
		c-0.24,0.41-0.36,0.87-0.36,1.38s0.12,0.96,0.36,1.38c0.24,0.41,0.58,0.74,1.01,0.97c0.43,0.24,0.93,0.36,1.5,0.36
		s1.06-0.12,1.5-0.36c0.43-0.24,0.77-0.56,1.01-0.97c0.24-0.41,0.36-0.87,0.36-1.38S68.28,550.56,68.04,550.15z"/>
	<path class="st3" d="M60.52,544.46v-2.84h7.78v-4.78h2.25v7.62L60.52,544.46L60.52,544.46z"/>
	<path class="st3" d="M68.6,528.89v4.24l1.95,0.79v2.89l-10.03-4.43l0-2.79l10.03-4.44v2.95L68.6,528.89z M66.51,529.72l-3.21,1.29
		l3.21,1.29V529.72z"/>
	<path class="st3" d="M70.55,515.3l-5.31,0.03l4.33,2.58v1.26l-4.18,2.56h5.17l0,2.62H60.53v-2.33l5.79-3.52l-5.79-3.44v-2.33
		l10.03-0.03v2.6H70.55z"/>
	<path class="st3" d="M68.36,502.63h2.19v8.05H60.52l0-7.86h2.19l0,5.06h1.69v-4.46h2.12v4.46h1.83v-5.25H68.36z"/>
	<path class="st3" d="M60.52,491.52h10.03v2.33l-5.34,4.43h5.34l0,2.78H60.52v-2.33l5.34-4.43h-5.34V491.52z"/>
	<path class="st3" d="M62.77,487.38v3.08h-2.25l0-8.98h2.25l0,3.07h7.78v2.84h-7.78V487.38z"/>
	<path class="st3" d="M70.08,478.36c-0.45,0.85-1.07,1.51-1.86,1.99c-0.79,0.48-1.69,0.72-2.68,0.72s-1.89-0.24-2.68-0.72
		c-0.79-0.48-1.41-1.15-1.86-1.99s-0.67-1.8-0.67-2.86s0.22-2.01,0.67-2.86s1.07-1.51,1.86-1.99c0.79-0.48,1.69-0.72,2.68-0.72
		s1.89,0.24,2.68,0.72c0.79,0.48,1.41,1.15,1.86,1.99c0.45,0.85,0.67,1.8,0.67,2.86S70.52,477.51,70.08,478.36z M68.04,474.13
		c-0.24-0.41-0.58-0.73-1.01-0.97s-0.93-0.36-1.5-0.36s-1.06,0.12-1.5,0.36c-0.44,0.24-0.77,0.56-1.01,0.97
		c-0.24,0.41-0.36,0.87-0.36,1.38s0.12,0.96,0.36,1.38c0.24,0.41,0.58,0.74,1.01,0.97c0.43,0.24,0.93,0.36,1.5,0.36
		s1.06-0.12,1.5-0.36c0.43-0.24,0.77-0.56,1.01-0.97c0.24-0.41,0.36-0.87,0.36-1.38S68.28,474.54,68.04,474.13z"/>
</g>
<g>
	<g>
		<line class="st16" x1="259.26" y1="157.52" x2="207.4" y2="157.66"/>
		<g>
			
				<rect x="258.88" y="155.08" transform="matrix(1 -2.726217e-03 2.726217e-03 1 -0.4285 0.7074)" class="st17" width="0.75" height="4.88"/>
		</g>
	</g>
</g>
<g>
	<path class="st17" d="M20.68,302.91l0-6.68c0-1.6,0.3-3.01,0.91-4.23c0.61-1.23,1.47-2.18,2.57-2.86c1.11-0.68,2.39-1.02,3.86-1.02
		s2.76,0.34,3.86,1.02c1.11,0.68,1.96,1.63,2.57,2.86c0.61,1.23,0.91,2.64,0.91,4.23l0,6.68H20.68z M32.59,296.4
		c0-1.47-0.41-2.64-1.23-3.52s-1.93-1.31-3.33-1.31s-2.51,0.44-3.33,1.31c-0.82,0.88-1.23,2.05-1.23,3.52l0,3.11h9.11L32.59,296.4
		L32.59,296.4z"/>
	<path class="st17" d="M20.68,285.56v-3.4h14.7v3.4H20.68z"/>
	<path class="st17" d="M32.23,269v6.82l3.15,1.3v3.49l-14.7-6.55l0-3.36l14.7-6.57l0,3.57L32.23,269z M29.65,270.07l-5.63,2.33
		l5.63,2.33C29.65,274.73,29.65,270.07,29.65,270.07z"/>
	<path class="st17" d="M35.16,261.13c-0.31,1.09-0.72,1.96-1.23,2.61l-2.56-1.16c0.46-0.63,0.83-1.38,1.11-2.25s0.42-1.74,0.42-2.6
		c0-0.97-0.14-1.68-0.43-2.14c-0.29-0.46-0.67-0.69-1.14-0.69c-0.35,0-0.64,0.14-0.87,0.41s-0.42,0.62-0.56,1.05
		c-0.14,0.43-0.29,1-0.46,1.73c-0.27,1.12-0.53,2.04-0.8,2.75c-0.27,0.71-0.69,1.33-1.28,1.84c-0.59,0.51-1.37,0.77-2.35,0.77
		c-0.85,0-1.63-0.23-2.32-0.69c-0.69-0.46-1.24-1.16-1.65-2.09s-0.61-2.07-0.61-3.41c0-0.94,0.11-1.85,0.34-2.75
		c0.22-0.9,0.55-1.68,0.97-2.35l2.58,1.05c-0.77,1.36-1.16,2.72-1.16,4.07c0,0.95,0.15,1.66,0.46,2.11
		c0.31,0.46,0.71,0.68,1.22,0.68s0.88-0.26,1.12-0.79c0.25-0.53,0.49-1.33,0.72-2.4c0.27-1.12,0.53-2.04,0.8-2.75
		s0.69-1.33,1.26-1.84s1.35-0.77,2.33-0.77c0.84,0,1.61,0.23,2.3,0.7s1.24,1.17,1.65,2.11c0.41,0.94,0.61,2.08,0.61,3.42
		C35.63,258.92,35.48,260.05,35.16,261.13z"/>
</g>
<line class="st16" x1="96.23" y1="241.01" x2="28.03" y2="241.01"/>
</svg>
