<?xml version="1.0" encoding="utf-8"?>
<!-- Generator: Adobe Illustrator 23.1.1, SVG Export Plug-In . SVG Version: 6.00 Build 0)  -->
<svg version="1.1" id="Camada_1" xmlns="http://www.w3.org/2000/svg" xmlns:xlink="http://www.w3.org/1999/xlink" x="0px" y="0px"
	 viewBox="0 0 1185.49 293.02" style="enable-background:new 0 0 1185.49 293.02;" xml:space="preserve">
<style type="text/css">
	.st0{opacity:0.5;fill:#49CDDA;}
	.st1{fill:#E5E6E8;}
	.st2{fill:#2E7596;}
	.st3{fill:#49CDDA;}
	.st4{fill:#FFFFFF;}
	.st5{enable-background:new    ;}
	.st6{fill:#DE9182;}
	.st7{fill:#C9736D;}
	.st8{fill:#EFB898;}
	.st9{fill:#F2F6F7;}
	.st10{fill:#022435;}
	.st11{fill:#F4A684;}
	.st12{fill:#FFFFFF;stroke:#D3D3D3;stroke-width:4;stroke-miterlimit:10;}
	.st13{fill:#E5E5E5;}
	.st14{opacity:0.4;fill:#FFFFFF;enable-background:new    ;}
	.st15{opacity:0.5;}
	.st16{fill:none;stroke:#999999;stroke-width:0.75;stroke-miterlimit:10;}
	.st17{fill:#999999;}
</style>
<rect x="556.74" y="130.13" class="st0" width="43.71" height="90.14"/>
<rect x="603.34" y="130.13" class="st0" width="43.71" height="90.14"/>
<rect x="649.93" y="130.13" class="st0" width="43.71" height="90.14"/>
<rect x="696.53" y="130.13" class="st0" width="43.71" height="90.14"/>
<rect x="743.13" y="130.13" class="st0" width="43.71" height="90.14"/>
<rect x="789.72" y="130.13" class="st0" width="43.71" height="90.14"/>
<rect x="836.32" y="130.13" class="st0" width="43.71" height="90.14"/>
<rect x="883.57" y="130.13" class="st1" width="43.71" height="90.14"/>
<rect x="930.17" y="130.13" class="st1" width="43.71" height="90.14"/>
<rect x="976.77" y="130.13" class="st1" width="43.71" height="90.14"/>
<rect x="1023.36" y="130.13" class="st1" width="43.71" height="90.14"/>
<rect x="1069.96" y="130.13" class="st1" width="43.71" height="90.14"/>
<rect x="1116.55" y="130.13" class="st1" width="43.71" height="90.14"/>
<rect x="230.04" y="130.13" class="st2" width="43.71" height="90.14"/>
<rect x="276.64" y="130.13" class="st2" width="43.71" height="90.14"/>
<rect x="323.23" y="130.13" class="st2" width="43.71" height="90.14"/>
<rect x="369.83" y="130.13" class="st2" width="43.71" height="90.14"/>
<rect x="416.42" y="130.13" class="st2" width="43.71" height="90.14"/>
<rect x="463.02" y="130.13" class="st2" width="43.71" height="90.14"/>
<rect x="509.62" y="130.13" class="st2" width="43.71" height="90.14"/>
<g>
	<path class="st3" d="M565.17,211.94c-0.95-0.6-1.7-1.47-2.24-2.61c-0.54-1.14-0.81-2.5-0.81-4.08s0.27-2.94,0.81-4.08
		c0.54-1.14,1.28-2.01,2.24-2.61c0.95-0.6,2.04-0.9,3.25-0.9s2.3,0.3,3.25,0.9s1.7,1.47,2.24,2.61c0.54,1.14,0.81,2.5,0.81,4.08
		s-0.27,2.94-0.81,4.08c-0.54,1.14-1.28,2.01-2.24,2.61c-0.95,0.6-2.04,0.9-3.25,0.9S566.12,212.55,565.17,211.94z M570.53,208.81
		c0.51-0.77,0.77-1.96,0.77-3.57c0-1.61-0.26-2.8-0.77-3.57c-0.51-0.77-1.21-1.16-2.11-1.16c-0.88,0-1.58,0.39-2.09,1.16
		c-0.51,0.77-0.77,1.96-0.77,3.57c0,1.61,0.26,2.8,0.77,3.57c0.51,0.77,1.21,1.16,2.09,1.16
		C569.32,209.97,570.02,209.59,570.53,208.81z"/>
	<path class="st3" d="M588.11,206.3c0.38,0.59,0.58,1.27,0.58,2.04c0,0.91-0.26,1.7-0.78,2.38c-0.52,0.68-1.25,1.21-2.18,1.58
		c-0.94,0.37-2.02,0.56-3.25,0.56c-1.23,0-2.31-0.19-3.25-0.56c-0.93-0.37-1.65-0.9-2.16-1.58c-0.51-0.68-0.77-1.47-0.77-2.38
		c0-0.77,0.19-1.45,0.58-2.04s0.93-1.06,1.65-1.43c-0.55-0.34-0.97-0.76-1.26-1.27c-0.29-0.51-0.44-1.1-0.44-1.75
		c0-0.85,0.24-1.6,0.71-2.23c0.48-0.63,1.14-1.12,2-1.46c0.85-0.34,1.83-0.51,2.94-0.51c1.12,0,2.11,0.17,2.97,0.51
		c0.86,0.34,1.53,0.83,2,1.46c0.48,0.63,0.71,1.37,0.71,2.23c0,0.66-0.15,1.24-0.44,1.75c-0.29,0.51-0.72,0.93-1.28,1.27
		C587.17,205.23,587.72,205.71,588.11,206.3z M584.5,209.77c0.5-0.38,0.75-0.9,0.75-1.54c0-0.64-0.25-1.16-0.75-1.53
		s-1.17-0.57-2.03-0.57c-0.84,0-1.5,0.19-2,0.57s-0.74,0.89-0.74,1.53c0,0.66,0.25,1.18,0.74,1.55c0.49,0.38,1.16,0.57,2,0.57
		C583.32,210.35,584,210.16,584.5,209.77z M580.82,200.64c-0.41,0.33-0.62,0.78-0.62,1.35c0,0.56,0.2,1,0.61,1.32
		c0.41,0.32,0.96,0.48,1.66,0.48s1.26-0.16,1.68-0.48c0.42-0.32,0.63-0.76,0.63-1.32c0-0.57-0.21-1.03-0.63-1.35
		c-0.42-0.33-0.98-0.49-1.68-0.49C581.78,200.14,581.23,200.31,580.82,200.64z"/>
</g>
<g>
	<path class="st3" d="M613.02,211.94c-0.95-0.6-1.7-1.47-2.24-2.61c-0.54-1.14-0.81-2.5-0.81-4.08s0.27-2.94,0.81-4.08
		c0.54-1.14,1.28-2.01,2.24-2.61c0.95-0.6,2.04-0.9,3.25-0.9s2.3,0.3,3.25,0.9s1.7,1.47,2.24,2.61c0.54,1.14,0.81,2.5,0.81,4.08
		s-0.27,2.94-0.81,4.08c-0.54,1.14-1.28,2.01-2.24,2.61c-0.95,0.6-2.04,0.9-3.25,0.9S613.97,212.55,613.02,211.94z M618.39,208.81
		c0.51-0.77,0.77-1.96,0.77-3.57c0-1.61-0.26-2.8-0.77-3.57c-0.51-0.77-1.21-1.16-2.11-1.16c-0.88,0-1.58,0.39-2.09,1.16
		c-0.51,0.77-0.77,1.96-0.77,3.57c0,1.61,0.26,2.8,0.77,3.57c0.51,0.77,1.21,1.16,2.09,1.16
		C617.17,209.97,617.88,209.59,618.39,208.81z"/>
	<path class="st3" d="M634.23,199.52c1.16,1.25,1.74,3.06,1.74,5.41c0,1.67-0.31,3.09-0.93,4.28c-0.62,1.19-1.5,2.09-2.63,2.71
		c-1.13,0.62-2.44,0.92-3.93,0.92c-0.78,0-1.53-0.09-2.25-0.26c-0.71-0.17-1.32-0.42-1.83-0.75l1.26-2.5
		c0.71,0.49,1.63,0.74,2.75,0.74c1.25,0,2.23-0.37,2.96-1.1c0.73-0.74,1.12-1.8,1.18-3.18c-0.88,0.88-2.1,1.32-3.65,1.32
		c-0.94,0-1.79-0.19-2.56-0.57c-0.77-0.38-1.38-0.91-1.83-1.61c-0.45-0.69-0.67-1.49-0.67-2.4c0-0.98,0.25-1.84,0.74-2.58
		c0.49-0.74,1.16-1.31,2-1.71c0.85-0.4,1.79-0.6,2.83-0.6C631.46,197.64,633.07,198.27,634.23,199.52z M631.47,203.95
		c0.47-0.41,0.7-0.94,0.7-1.58c0-0.64-0.23-1.17-0.68-1.58s-1.08-0.61-1.88-0.61c-0.73,0-1.32,0.2-1.77,0.59
		c-0.46,0.39-0.68,0.92-0.68,1.6c0,0.67,0.23,1.21,0.68,1.61c0.45,0.4,1.06,0.6,1.82,0.6C630.4,204.57,631,204.37,631.47,203.95z"/>
</g>
<g>
	<path class="st3" d="M666.73,197.9v14.7h-3.4v-11.97h-2.94v-2.73H666.73z"/>
	<path class="st3" d="M672.34,211.94c-0.95-0.6-1.7-1.47-2.24-2.61c-0.54-1.14-0.81-2.5-0.81-4.08s0.27-2.94,0.81-4.08
		c0.54-1.14,1.28-2.01,2.24-2.61c0.95-0.6,2.04-0.9,3.25-0.9s2.3,0.3,3.25,0.9s1.7,1.47,2.24,2.61c0.54,1.14,0.81,2.5,0.81,4.08
		s-0.27,2.94-0.81,4.08c-0.54,1.14-1.28,2.01-2.24,2.61c-0.95,0.6-2.04,0.9-3.25,0.9S673.29,212.55,672.34,211.94z M677.71,208.81
		c0.51-0.77,0.77-1.96,0.77-3.57c0-1.61-0.26-2.8-0.77-3.57c-0.51-0.77-1.21-1.16-2.11-1.16c-0.88,0-1.58,0.39-2.09,1.16
		c-0.51,0.77-0.77,1.96-0.77,3.57c0,1.61,0.26,2.8,0.77,3.57c0.51,0.77,1.21,1.16,2.09,1.16
		C676.49,209.97,677.2,209.59,677.71,208.81z"/>
</g>
<g>
	<path class="st3" d="M717.08,197.9v14.7h-3.4v-11.97h-2.94v-2.73H717.08z"/>
	<path class="st3" d="M725.31,197.9v14.7h-3.4v-11.97h-2.94v-2.73H725.31z"/>
</g>
<g>
	<path class="st3" d="M762.33,197.9v14.7h-3.4v-11.97h-2.94v-2.73H762.33z"/>
	<path class="st3" d="M775.88,209.82v2.77h-11.11v-2.21l5.67-5.35c0.6-0.57,1.01-1.07,1.22-1.48s0.32-0.82,0.32-1.23
		c0-0.59-0.2-1.04-0.6-1.35c-0.4-0.32-0.98-0.47-1.75-0.47c-0.64,0-1.23,0.12-1.74,0.37s-0.95,0.61-1.3,1.1l-2.48-1.6
		c0.57-0.85,1.36-1.52,2.37-2.01c1.01-0.48,2.16-0.72,3.47-0.72c1.09,0,2.05,0.18,2.87,0.54c0.82,0.36,1.46,0.86,1.91,1.51
		c0.45,0.65,0.68,1.42,0.68,2.3c0,0.8-0.17,1.55-0.5,2.25c-0.34,0.7-0.99,1.5-1.95,2.39l-3.38,3.19H775.88z"/>
</g>
<g>
	<path class="st3" d="M809.65,197.9v14.7h-3.4v-11.97h-2.94v-2.73H809.65z"/>
	<path class="st3" d="M822.04,205.32c0.69,0.75,1.03,1.68,1.03,2.78c0,0.85-0.22,1.64-0.67,2.36c-0.45,0.72-1.13,1.3-2.05,1.73
		c-0.92,0.43-2.04,0.65-3.37,0.65c-1.04,0-2.05-0.14-3.06-0.41c-1-0.27-1.85-0.66-2.55-1.17l1.32-2.6c0.56,0.42,1.21,0.75,1.94,0.98
		c0.74,0.23,1.49,0.35,2.26,0.35c0.85,0,1.53-0.17,2.02-0.49s0.74-0.79,0.74-1.4c0-1.2-0.92-1.81-2.75-1.81h-1.55v-2.25l3.02-3.42
		h-6.26v-2.73h10.29v2.21l-3.32,3.78C820.36,204.09,821.35,204.57,822.04,205.32z"/>
</g>
<g>
	<path class="st3" d="M853.96,197.9v14.7h-3.4v-11.97h-2.94v-2.73H853.96z"/>
	<path class="st3" d="M869.98,209.51h-2.39v3.09h-3.32v-3.09h-7.92v-2.29l6.93-9.32h3.57l-6.43,8.84h3.95v-2.75h3.21v2.75h2.39
		V209.51z"/>
</g>
<g>
	<path class="st4" d="M902.28,198.12v14.7h-3.4v-11.97h-2.94v-2.73H902.28z"/>
	<path class="st4" d="M914.47,204.88c0.99,0.83,1.48,1.93,1.48,3.32c0,0.9-0.22,1.71-0.67,2.45c-0.45,0.74-1.13,1.32-2.05,1.76
		c-0.92,0.44-2.05,0.66-3.39,0.66c-1.04,0-2.05-0.14-3.06-0.41c-1-0.27-1.85-0.66-2.55-1.17l1.34-2.6c0.56,0.42,1.2,0.75,1.93,0.98
		c0.73,0.23,1.48,0.35,2.25,0.35c0.85,0,1.53-0.17,2.02-0.5s0.74-0.8,0.74-1.41c0-0.63-0.26-1.11-0.77-1.43
		c-0.51-0.32-1.4-0.48-2.66-0.48h-3.76l0.76-8.27h8.97v2.73h-6.13l-0.23,2.79h1.2C911.96,203.64,913.49,204.05,914.47,204.88z"/>
</g>
<g>
	<g>
		<path class="st4" d="M949.17,198.12v14.7h-3.4v-11.97h-2.94v-2.73H949.17z"/>
		<path class="st4" d="M961.37,204.16c0.77,0.38,1.38,0.91,1.83,1.61c0.45,0.69,0.67,1.5,0.67,2.41c0,0.98-0.25,1.84-0.74,2.58
			s-1.16,1.31-2,1.71c-0.85,0.4-1.79,0.6-2.83,0.6c-2.06,0-3.67-0.63-4.83-1.89c-1.16-1.26-1.74-3.06-1.74-5.4
			c0-1.67,0.31-3.09,0.94-4.28c0.63-1.19,1.51-2.09,2.64-2.71c1.13-0.62,2.43-0.92,3.92-0.92c0.78,0,1.54,0.09,2.26,0.26
			s1.33,0.42,1.84,0.75l-1.26,2.5c-0.73-0.49-1.65-0.73-2.75-0.73c-1.25,0-2.23,0.36-2.96,1.09c-0.73,0.73-1.12,1.79-1.18,3.17
			c0.87-0.87,2.08-1.3,3.63-1.3C959.75,203.6,960.6,203.79,961.37,204.16z M959.89,209.94c0.46-0.39,0.68-0.92,0.68-1.6
			s-0.23-1.21-0.68-1.61c-0.46-0.4-1.06-0.6-1.82-0.6c-0.74,0-1.35,0.21-1.83,0.62c-0.48,0.41-0.71,0.94-0.71,1.59
			c0,0.64,0.23,1.17,0.69,1.57c0.46,0.41,1.09,0.61,1.89,0.61C958.85,210.53,959.44,210.33,959.89,209.94z"/>
	</g>
</g>
<g>
	<g>
		<path class="st4" d="M996.69,198.12v14.7h-3.4v-11.97h-2.94v-2.73H996.69z"/>
		<path class="st4" d="M1010.76,198.12v2.21l-5.46,12.5h-3.7l5.27-11.93H1002v2.39h-3.02v-5.17H1010.76z"/>
	</g>
</g>
<g>
	<g>
		<path class="st4" d="M1041.6,198.12v14.7h-3.4v-11.97h-2.94v-2.73H1041.6z"/>
		<path class="st4" d="M1055.89,206.52c0.38,0.59,0.58,1.27,0.58,2.04c0,0.91-0.26,1.7-0.78,2.38c-0.52,0.68-1.25,1.21-2.18,1.58
			c-0.94,0.37-2.02,0.56-3.25,0.56c-1.23,0-2.31-0.19-3.25-0.56c-0.93-0.37-1.65-0.9-2.16-1.58c-0.51-0.68-0.77-1.47-0.77-2.38
			c0-0.77,0.19-1.45,0.58-2.04s0.93-1.06,1.65-1.43c-0.55-0.34-0.97-0.76-1.26-1.27c-0.29-0.51-0.44-1.1-0.44-1.75
			c0-0.85,0.24-1.6,0.71-2.23c0.48-0.63,1.14-1.12,2-1.46c0.85-0.34,1.83-0.51,2.94-0.51c1.12,0,2.11,0.17,2.97,0.51
			c0.86,0.34,1.53,0.83,2,1.46c0.48,0.63,0.71,1.37,0.71,2.23c0,0.66-0.15,1.24-0.44,1.75c-0.29,0.51-0.72,0.93-1.28,1.27
			C1054.95,205.45,1055.5,205.93,1055.89,206.52z M1052.28,209.99c0.5-0.38,0.75-0.9,0.75-1.54c0-0.64-0.25-1.16-0.75-1.53
			s-1.17-0.57-2.03-0.57c-0.84,0-1.5,0.19-2,0.57s-0.74,0.89-0.74,1.53c0,0.66,0.25,1.18,0.74,1.55c0.49,0.38,1.16,0.57,2,0.57
			C1051.1,210.57,1051.78,210.38,1052.28,209.99z M1048.6,200.86c-0.41,0.33-0.62,0.78-0.62,1.35c0,0.56,0.2,1,0.61,1.32
			c0.41,0.32,0.96,0.48,1.66,0.48s1.26-0.16,1.68-0.48c0.42-0.32,0.63-0.76,0.63-1.32c0-0.57-0.21-1.03-0.63-1.35
			c-0.42-0.33-0.98-0.49-1.68-0.49C1049.56,200.36,1049.01,200.53,1048.6,200.86z"/>
	</g>
</g>
<g>
	<g>
		<path class="st4" d="M1089.17,198.12v14.7h-3.4v-11.97h-2.94v-2.73H1089.17z"/>
		<path class="st4" d="M1101.73,199.74c1.16,1.25,1.74,3.06,1.74,5.41c0,1.67-0.31,3.09-0.93,4.28c-0.62,1.19-1.5,2.09-2.63,2.71
			c-1.13,0.62-2.44,0.92-3.93,0.92c-0.78,0-1.53-0.09-2.25-0.26c-0.71-0.17-1.32-0.42-1.83-0.75l1.26-2.5
			c0.71,0.49,1.63,0.74,2.75,0.74c1.25,0,2.23-0.37,2.96-1.1c0.73-0.74,1.12-1.8,1.18-3.18c-0.88,0.88-2.1,1.32-3.65,1.32
			c-0.94,0-1.79-0.19-2.56-0.57c-0.77-0.38-1.38-0.91-1.83-1.61c-0.45-0.69-0.67-1.49-0.67-2.4c0-0.98,0.25-1.84,0.74-2.58
			c0.49-0.74,1.16-1.31,2-1.71c0.85-0.4,1.79-0.6,2.83-0.6C1098.96,197.86,1100.57,198.49,1101.73,199.74z M1098.97,204.17
			c0.47-0.41,0.7-0.94,0.7-1.58c0-0.64-0.23-1.17-0.68-1.58s-1.08-0.61-1.88-0.61c-0.73,0-1.32,0.2-1.77,0.59
			c-0.46,0.39-0.68,0.92-0.68,1.6c0,0.67,0.23,1.21,0.68,1.61c0.45,0.4,1.06,0.6,1.82,0.6
			C1097.89,204.79,1098.5,204.59,1098.97,204.17z"/>
	</g>
</g>
<g>
	<path class="st4" d="M1139.32,210.04v2.77h-11.11v-2.21l5.67-5.35c0.6-0.57,1.01-1.07,1.22-1.48s0.32-0.82,0.32-1.23
		c0-0.59-0.2-1.04-0.6-1.35c-0.4-0.32-0.98-0.47-1.75-0.47c-0.64,0-1.23,0.12-1.74,0.37s-0.95,0.61-1.3,1.1l-2.48-1.6
		c0.57-0.85,1.36-1.52,2.37-2.01c1.01-0.48,2.16-0.72,3.47-0.72c1.09,0,2.05,0.18,2.87,0.54c0.82,0.36,1.46,0.86,1.91,1.51
		c0.45,0.65,0.68,1.42,0.68,2.3c0,0.8-0.17,1.55-0.5,2.25c-0.34,0.7-0.99,1.5-1.95,2.39l-3.38,3.19H1139.32z"/>
	<path class="st4" d="M1143.73,212.16c-0.95-0.6-1.7-1.47-2.24-2.61c-0.54-1.14-0.81-2.5-0.81-4.08s0.27-2.94,0.81-4.08
		c0.54-1.14,1.28-2.01,2.24-2.61c0.95-0.6,2.04-0.9,3.25-0.9s2.3,0.3,3.25,0.9s1.7,1.47,2.24,2.61c0.54,1.14,0.81,2.5,0.81,4.08
		s-0.27,2.94-0.81,4.08c-0.54,1.14-1.28,2.01-2.24,2.61c-0.95,0.6-2.04,0.9-3.25,0.9S1144.68,212.77,1143.73,212.16z
		 M1149.09,209.04c0.51-0.77,0.77-1.96,0.77-3.57c0-1.61-0.26-2.8-0.77-3.57c-0.51-0.77-1.21-1.16-2.11-1.16
		c-0.88,0-1.58,0.39-2.09,1.16c-0.51,0.77-0.77,1.96-0.77,3.57c0,1.61,0.26,2.8,0.77,3.57c0.51,0.77,1.21,1.16,2.09,1.16
		C1147.88,210.19,1148.58,209.81,1149.09,209.04z"/>
</g>
<g>
	<path class="st4" d="M519.01,211.54c-0.95-0.6-1.7-1.47-2.24-2.61c-0.54-1.14-0.81-2.5-0.81-4.08s0.27-2.94,0.81-4.08
		c0.54-1.14,1.28-2.01,2.24-2.61c0.95-0.6,2.04-0.9,3.25-0.9s2.3,0.3,3.25,0.9s1.7,1.47,2.24,2.61c0.54,1.14,0.81,2.5,0.81,4.08
		s-0.27,2.94-0.81,4.08c-0.54,1.14-1.28,2.01-2.24,2.61c-0.95,0.6-2.04,0.9-3.25,0.9S519.96,212.15,519.01,211.54z M524.37,208.41
		c0.51-0.77,0.77-1.96,0.77-3.57c0-1.61-0.26-2.8-0.77-3.57c-0.51-0.77-1.21-1.16-2.11-1.16c-0.88,0-1.58,0.39-2.09,1.16
		c-0.51,0.77-0.77,1.96-0.77,3.57c0,1.61,0.26,2.8,0.77,3.57c0.51,0.77,1.21,1.16,2.09,1.16
		C523.16,209.57,523.86,209.19,524.37,208.41z"/>
	<path class="st4" d="M541.65,197.49v2.21l-5.46,12.5h-3.7l5.27-11.93h-4.87v2.39h-3.02v-5.17H541.65z"/>
</g>
<g>
	<g>
		<path class="st4" d="M286.26,211.54c-0.95-0.6-1.7-1.47-2.24-2.61c-0.54-1.14-0.81-2.5-0.81-4.08s0.27-2.94,0.81-4.08
			c0.54-1.14,1.28-2.01,2.24-2.61s2.04-0.9,3.26-0.9c1.22,0,2.3,0.3,3.25,0.9c0.95,0.6,1.7,1.47,2.24,2.61
			c0.54,1.14,0.81,2.5,0.81,4.08s-0.27,2.94-0.81,4.08c-0.54,1.14-1.28,2.01-2.24,2.61c-0.95,0.6-2.04,0.9-3.25,0.9
			C288.3,212.45,287.21,212.15,286.26,211.54z M291.63,208.41c0.51-0.77,0.77-1.96,0.77-3.57c0-1.61-0.26-2.8-0.77-3.57
			c-0.51-0.77-1.21-1.16-2.11-1.16c-0.88,0-1.58,0.39-2.09,1.16c-0.51,0.77-0.77,1.96-0.77,3.57c0,1.61,0.25,2.8,0.77,3.57
			c0.51,0.77,1.21,1.16,2.09,1.16C290.41,209.57,291.11,209.19,291.63,208.41z"/>
		<path class="st4" d="M308.33,209.42v2.77h-11.11v-2.21l5.67-5.35c0.6-0.57,1.01-1.07,1.22-1.48s0.31-0.82,0.31-1.23
			c0-0.59-0.2-1.04-0.6-1.35c-0.4-0.32-0.98-0.47-1.75-0.47c-0.64,0-1.23,0.12-1.74,0.37s-0.95,0.61-1.3,1.1l-2.48-1.6
			c0.57-0.85,1.37-1.52,2.37-2.01s2.16-0.72,3.46-0.72c1.09,0,2.05,0.18,2.87,0.54c0.82,0.36,1.46,0.86,1.91,1.51
			c0.45,0.65,0.68,1.42,0.68,2.3c0,0.8-0.17,1.55-0.5,2.25c-0.34,0.7-0.99,1.5-1.95,2.39l-3.38,3.19H308.33z"/>
	</g>
</g>
<g>
	<g>
		<path class="st4" d="M332.9,210.7c-0.95-0.6-1.7-1.47-2.24-2.61c-0.54-1.14-0.81-2.5-0.81-4.08s0.27-2.94,0.81-4.08
			c0.54-1.14,1.28-2.01,2.24-2.61s2.04-0.9,3.26-0.9c1.22,0,2.3,0.3,3.25,0.9c0.95,0.6,1.7,1.47,2.24,2.61
			c0.54,1.14,0.81,2.5,0.81,4.08s-0.27,2.94-0.81,4.08c-0.54,1.14-1.28,2.01-2.24,2.61c-0.95,0.6-2.04,0.9-3.25,0.9
			C334.93,211.61,333.85,211.31,332.9,210.7z M338.26,207.57c0.51-0.77,0.77-1.96,0.77-3.57c0-1.61-0.26-2.8-0.77-3.57
			c-0.51-0.77-1.21-1.16-2.11-1.16c-0.88,0-1.58,0.39-2.09,1.16c-0.51,0.77-0.77,1.96-0.77,3.57c0,1.61,0.25,2.8,0.77,3.57
			c0.51,0.77,1.21,1.16,2.09,1.16C337.05,208.73,337.75,208.35,338.26,207.57z"/>
		<path class="st4" d="M353.73,204.08c0.69,0.75,1.03,1.68,1.03,2.78c0,0.85-0.22,1.64-0.67,2.36c-0.45,0.72-1.13,1.3-2.05,1.73
			c-0.92,0.43-2.04,0.65-3.37,0.65c-1.04,0-2.05-0.14-3.06-0.41c-1-0.27-1.85-0.66-2.55-1.17l1.32-2.6
			c0.56,0.42,1.21,0.75,1.94,0.98c0.73,0.23,1.49,0.35,2.26,0.35c0.85,0,1.53-0.17,2.02-0.49c0.49-0.33,0.73-0.79,0.73-1.4
			c0-1.2-0.92-1.81-2.75-1.81h-1.55v-2.25l3.02-3.42h-6.26v-2.73h10.29v2.21l-3.32,3.78C352.06,202.85,353.04,203.33,353.73,204.08z
			"/>
	</g>
</g>
<g>
	<g>
		<path class="st4" d="M378.39,211.54c-0.95-0.6-1.7-1.47-2.24-2.61c-0.54-1.14-0.81-2.5-0.81-4.08s0.27-2.94,0.81-4.08
			c0.54-1.14,1.28-2.01,2.24-2.61s2.04-0.9,3.26-0.9c1.22,0,2.3,0.3,3.25,0.9c0.95,0.6,1.7,1.47,2.24,2.61
			c0.54,1.14,0.81,2.5,0.81,4.08s-0.27,2.94-0.81,4.08c-0.54,1.14-1.28,2.01-2.24,2.61c-0.95,0.6-2.04,0.9-3.25,0.9
			C380.43,212.45,379.34,212.15,378.39,211.54z M383.76,208.41c0.51-0.77,0.77-1.96,0.77-3.57c0-1.61-0.26-2.8-0.77-3.57
			c-0.51-0.77-1.21-1.16-2.11-1.16c-0.88,0-1.58,0.39-2.09,1.16c-0.51,0.77-0.77,1.96-0.77,3.57c0,1.61,0.25,2.8,0.77,3.57
			c0.51,0.77,1.21,1.16,2.09,1.16C382.54,209.57,383.25,209.19,383.76,208.41z"/>
		<path class="st4" d="M403.07,209.11h-2.39v3.09h-3.32v-3.09h-7.92v-2.29l6.93-9.32h3.57l-6.43,8.84h3.95v-2.75h3.21v2.75h2.39
			V209.11z"/>
	</g>
</g>
<g>
	<g>
		<path class="st4" d="M426,211.54c-0.95-0.6-1.7-1.47-2.24-2.61c-0.54-1.14-0.81-2.5-0.81-4.08s0.27-2.94,0.81-4.08
			c0.54-1.14,1.28-2.01,2.24-2.61s2.04-0.9,3.26-0.9c1.22,0,2.3,0.3,3.25,0.9c0.95,0.6,1.7,1.47,2.24,2.61
			c0.54,1.14,0.81,2.5,0.81,4.08s-0.27,2.94-0.81,4.08c-0.54,1.14-1.28,2.01-2.24,2.61c-0.95,0.6-2.04,0.9-3.25,0.9
			C428.03,212.45,426.95,212.15,426,211.54z M431.36,208.41c0.51-0.77,0.77-1.96,0.77-3.57c0-1.61-0.26-2.8-0.77-3.57
			c-0.51-0.77-1.21-1.16-2.11-1.16c-0.88,0-1.58,0.39-2.09,1.16c-0.51,0.77-0.77,1.96-0.77,3.57c0,1.61,0.25,2.8,0.77,3.57
			c0.51,0.77,1.21,1.16,2.09,1.16C430.15,209.57,430.85,209.19,431.36,208.41z"/>
		<path class="st4" d="M446.84,204.26c0.99,0.83,1.48,1.93,1.48,3.32c0,0.9-0.22,1.71-0.67,2.45c-0.45,0.74-1.13,1.32-2.05,1.76
			c-0.92,0.44-2.05,0.66-3.39,0.66c-1.04,0-2.05-0.14-3.06-0.41c-1-0.27-1.85-0.66-2.55-1.17l1.34-2.6c0.56,0.42,1.2,0.75,1.93,0.98
			c0.73,0.23,1.48,0.35,2.25,0.35c0.85,0,1.53-0.17,2.02-0.5c0.49-0.34,0.73-0.8,0.73-1.41c0-0.63-0.26-1.11-0.77-1.43
			c-0.51-0.32-1.4-0.48-2.66-0.48h-3.76l0.76-8.27h8.97v2.73h-6.13l-0.23,2.79h1.2C444.32,203.02,445.85,203.43,446.84,204.26z"/>
	</g>
</g>
<g>
	<path class="st4" d="M472.17,211.54c-0.95-0.6-1.7-1.47-2.24-2.61c-0.54-1.14-0.81-2.5-0.81-4.08s0.27-2.94,0.81-4.08
		c0.54-1.14,1.28-2.01,2.24-2.61s2.04-0.9,3.26-0.9c1.22,0,2.3,0.3,3.25,0.9c0.95,0.6,1.7,1.47,2.24,2.61
		c0.54,1.14,0.81,2.5,0.81,4.08s-0.27,2.94-0.81,4.08c-0.54,1.14-1.28,2.01-2.24,2.61c-0.95,0.6-2.04,0.9-3.25,0.9
		C474.21,212.45,473.12,212.15,472.17,211.54z M477.54,208.41c0.51-0.77,0.77-1.96,0.77-3.57c0-1.61-0.26-2.8-0.77-3.57
		c-0.51-0.77-1.21-1.16-2.11-1.16c-0.88,0-1.58,0.39-2.09,1.16c-0.51,0.77-0.77,1.96-0.77,3.57c0,1.61,0.25,2.8,0.77,3.57
		c0.51,0.77,1.21,1.16,2.09,1.16C476.32,209.57,477.03,209.19,477.54,208.41z"/>
	<path class="st4" d="M493.02,203.54c0.77,0.38,1.38,0.91,1.83,1.61c0.45,0.69,0.67,1.5,0.67,2.41c0,0.98-0.25,1.84-0.73,2.58
		c-0.49,0.74-1.16,1.31-2.01,1.71c-0.85,0.4-1.79,0.6-2.82,0.6c-2.06,0-3.67-0.63-4.83-1.89c-1.16-1.26-1.74-3.06-1.74-5.4
		c0-1.67,0.31-3.09,0.95-4.28c0.63-1.19,1.51-2.09,2.64-2.71c1.13-0.62,2.43-0.92,3.92-0.92c0.78,0,1.54,0.09,2.26,0.26
		c0.72,0.17,1.33,0.42,1.84,0.75l-1.26,2.5c-0.73-0.49-1.65-0.73-2.75-0.73c-1.25,0-2.23,0.36-2.96,1.09s-1.12,1.79-1.18,3.17
		c0.87-0.87,2.08-1.3,3.63-1.3C491.4,202.98,492.25,203.16,493.02,203.54z M491.54,209.32c0.45-0.39,0.68-0.92,0.68-1.6
		s-0.23-1.21-0.68-1.61c-0.46-0.4-1.06-0.6-1.82-0.6c-0.74,0-1.35,0.21-1.83,0.62c-0.48,0.41-0.71,0.94-0.71,1.59
		c0,0.64,0.23,1.17,0.69,1.57c0.46,0.41,1.09,0.61,1.89,0.61C490.5,209.91,491.09,209.71,491.54,209.32z"/>
</g>
<g>
	<g>
		<path class="st4" d="M241.72,211.54c-0.95-0.6-1.7-1.47-2.24-2.61c-0.54-1.14-0.81-2.5-0.81-4.08s0.27-2.94,0.81-4.08
			c0.54-1.14,1.28-2.01,2.24-2.61s2.04-0.9,3.26-0.9c1.22,0,2.3,0.3,3.25,0.9c0.95,0.6,1.7,1.47,2.24,2.61
			c0.54,1.14,0.81,2.5,0.81,4.08s-0.27,2.94-0.81,4.08c-0.54,1.14-1.28,2.01-2.24,2.61c-0.95,0.6-2.04,0.9-3.25,0.9
			C243.76,212.45,242.67,212.15,241.72,211.54z M247.09,208.41c0.51-0.77,0.77-1.96,0.77-3.57c0-1.61-0.26-2.8-0.77-3.57
			c-0.51-0.77-1.21-1.16-2.11-1.16c-0.88,0-1.58,0.39-2.09,1.16c-0.51,0.77-0.77,1.96-0.77,3.57c0,1.61,0.25,2.8,0.77,3.57
			c0.51,0.77,1.21,1.16,2.09,1.16C245.87,209.57,246.58,209.19,247.09,208.41z"/>
		<path class="st4" d="M258.48,197.49v14.7h-3.4v-11.97h-2.94v-2.73H258.48z"/>
	</g>
</g>
<g class="st5">
	<path class="st2" d="M63.25,76.81h3.59V89.5h-3.59V76.81z"/>
	<path class="st2" d="M81.47,76.81V89.5h-2.95l-5.6-6.76v6.76H69.4V76.81h2.95l5.6,6.76v-6.76H81.47z"/>
	<path class="st2" d="M84.01,76.81h3.59V89.5h-3.59V76.81z M86.45,73.02h3.44l-3.41,2.76h-2.47L86.45,73.02z"/>
	<path class="st2" d="M92.9,88.91c-1.06-0.56-1.89-1.34-2.49-2.35c-0.6-1-0.91-2.14-0.91-3.41c0-1.27,0.3-2.4,0.91-3.41
		c0.6-1,1.44-1.79,2.49-2.35c1.06-0.56,2.25-0.84,3.58-0.84c1.16,0,2.21,0.21,3.14,0.62c0.93,0.41,1.7,1,2.32,1.78l-2.28,2.07
		c-0.82-0.99-1.82-1.49-2.99-1.49c-0.69,0-1.3,0.15-1.84,0.45c-0.54,0.3-0.95,0.73-1.25,1.28c-0.3,0.55-0.44,1.18-0.44,1.89
		c0,0.71,0.15,1.34,0.44,1.89c0.3,0.55,0.71,0.98,1.25,1.28c0.54,0.3,1.15,0.45,1.84,0.45c1.17,0,2.17-0.5,2.99-1.49l2.28,2.07
		c-0.62,0.77-1.39,1.37-2.32,1.78c-0.93,0.41-1.98,0.62-3.14,0.62C95.15,89.75,93.96,89.47,92.9,88.91z"/>
	<path class="st2" d="M103.53,76.81h3.59V89.5h-3.59V76.81z"/>
	<path class="st2" d="M112.46,88.9c-1.07-0.57-1.91-1.35-2.52-2.36c-0.61-1-0.92-2.13-0.92-3.39c0-1.26,0.31-2.39,0.92-3.39
		c0.61-1,1.45-1.79,2.52-2.36c1.07-0.57,2.27-0.85,3.62-0.85s2.55,0.28,3.62,0.85c1.07,0.57,1.91,1.35,2.52,2.36
		c0.61,1,0.92,2.13,0.92,3.39c0,1.26-0.31,2.39-0.92,3.39c-0.61,1-1.45,1.79-2.52,2.36c-1.07,0.57-2.27,0.85-3.62,0.85
		S113.53,89.47,112.46,88.9z M117.81,86.33c0.52-0.3,0.93-0.73,1.23-1.28s0.45-1.18,0.45-1.89c0-0.71-0.15-1.34-0.45-1.89
		s-0.71-0.98-1.23-1.28c-0.52-0.3-1.1-0.45-1.74-0.45s-1.22,0.15-1.74,0.45c-0.52,0.3-0.93,0.73-1.23,1.28
		c-0.3,0.55-0.45,1.18-0.45,1.89c0,0.71,0.15,1.34,0.45,1.89c0.3,0.55,0.71,0.98,1.23,1.28s1.1,0.45,1.74,0.45
		S117.29,86.63,117.81,86.33z"/>
	<path class="st2" d="M130.28,76.81h6c1.39,0,2.62,0.26,3.7,0.78c1.08,0.52,1.91,1.26,2.5,2.21c0.59,0.95,0.89,2.07,0.89,3.35
		c0,1.28-0.3,2.4-0.89,3.35c-0.59,0.96-1.43,1.69-2.5,2.21c-1.08,0.52-2.31,0.78-3.7,0.78h-6V76.81z M136.14,86.63
		c1.09,0,1.96-0.31,2.62-0.92c0.66-0.62,0.99-1.47,0.99-2.56c0-1.09-0.33-1.94-0.99-2.56c-0.66-0.62-1.53-0.92-2.62-0.92h-2.27v6.96
		H136.14z"/>
	<path class="st2" d="M148.04,88.9c-1.07-0.57-1.91-1.35-2.52-2.36c-0.61-1-0.92-2.13-0.92-3.39c0-1.26,0.31-2.39,0.92-3.39
		c0.61-1,1.45-1.79,2.52-2.36c1.07-0.57,2.27-0.85,3.62-0.85s2.55,0.28,3.62,0.85c1.07,0.57,1.91,1.35,2.52,2.36
		c0.61,1,0.92,2.13,0.92,3.39c0,1.26-0.31,2.39-0.92,3.39c-0.61,1-1.45,1.79-2.52,2.36c-1.07,0.57-2.27,0.85-3.62,0.85
		S149.11,89.47,148.04,88.9z M153.4,86.33c0.52-0.3,0.93-0.73,1.23-1.28s0.45-1.18,0.45-1.89c0-0.71-0.15-1.34-0.45-1.89
		s-0.71-0.98-1.23-1.28c-0.52-0.3-1.1-0.45-1.74-0.45s-1.22,0.15-1.74,0.45c-0.52,0.3-0.93,0.73-1.23,1.28
		c-0.3,0.55-0.45,1.18-0.45,1.89c0,0.71,0.15,1.34,0.45,1.89c0.3,0.55,0.71,0.98,1.23,1.28s1.1,0.45,1.74,0.45
		S152.88,86.63,153.4,86.33z"/>
	<path class="st2" d="M162.06,89.37c-0.97-0.25-1.75-0.59-2.36-1.01l1.18-2.65c0.57,0.37,1.23,0.68,1.98,0.91
		c0.75,0.23,1.49,0.34,2.21,0.34c1.38,0,2.07-0.34,2.07-1.03c0-0.36-0.2-0.63-0.59-0.81c-0.39-0.17-1.02-0.36-1.89-0.55
		c-0.95-0.21-1.75-0.43-2.39-0.66c-0.64-0.24-1.19-0.61-1.65-1.13c-0.46-0.52-0.69-1.22-0.69-2.1c0-0.77,0.21-1.47,0.63-2.09
		c0.42-0.62,1.05-1.12,1.89-1.48c0.84-0.36,1.87-0.54,3.09-0.54c0.83,0,1.66,0.09,2.47,0.28s1.52,0.46,2.14,0.82l-1.11,2.67
		c-1.21-0.65-2.38-0.98-3.52-0.98c-0.71,0-1.23,0.11-1.56,0.32c-0.33,0.21-0.49,0.49-0.49,0.83s0.19,0.59,0.58,0.76
		c0.39,0.17,1.01,0.34,1.87,0.53c0.97,0.21,1.77,0.43,2.4,0.66c0.63,0.24,1.18,0.61,1.65,1.12c0.46,0.51,0.7,1.21,0.7,2.09
		c0,0.76-0.21,1.45-0.63,2.07c-0.42,0.62-1.06,1.11-1.9,1.48c-0.85,0.37-1.87,0.55-3.08,0.55
		C164.02,89.75,163.03,89.63,162.06,89.37z"/>
	<path class="st2" d="M68.05,111.12c-0.97-0.25-1.75-0.59-2.36-1.01l1.18-2.65c0.57,0.37,1.23,0.68,1.98,0.91
		c0.75,0.23,1.49,0.34,2.21,0.34c1.38,0,2.07-0.34,2.07-1.03c0-0.36-0.2-0.63-0.59-0.81c-0.39-0.17-1.02-0.36-1.89-0.55
		c-0.95-0.21-1.75-0.43-2.39-0.66c-0.64-0.24-1.19-0.61-1.65-1.13c-0.46-0.52-0.69-1.22-0.69-2.1c0-0.77,0.21-1.47,0.63-2.09
		c0.42-0.62,1.05-1.12,1.89-1.48c0.84-0.36,1.87-0.54,3.09-0.54c0.83,0,1.66,0.09,2.47,0.28s1.52,0.46,2.14,0.82l-1.11,2.67
		c-1.21-0.65-2.38-0.98-3.52-0.98c-0.71,0-1.23,0.11-1.56,0.32c-0.33,0.21-0.49,0.49-0.49,0.83s0.19,0.59,0.58,0.76
		c0.39,0.17,1.01,0.34,1.87,0.53c0.97,0.21,1.77,0.43,2.4,0.66c0.63,0.24,1.18,0.61,1.65,1.12c0.46,0.51,0.7,1.21,0.7,2.09
		c0,0.76-0.21,1.45-0.63,2.07c-0.42,0.62-1.06,1.11-1.9,1.48c-0.85,0.37-1.87,0.55-3.08,0.55C70.01,111.5,69.01,111.38,68.05,111.12
		z"/>
	<path class="st2" d="M78.31,98.56h3.59v12.69h-3.59V98.56z"/>
	<path class="st2" d="M96.52,98.56v12.69h-2.95l-5.6-6.76v6.76h-3.52V98.56h2.95l5.6,6.76v-6.76H96.52z"/>
	<path class="st2" d="M101.76,101.41h-3.9v-2.85h11.37v2.85h-3.88v9.84h-3.59V101.41z"/>
	<path class="st2" d="M113.17,110.65c-1.07-0.57-1.91-1.35-2.52-2.36c-0.61-1-0.92-2.13-0.92-3.39c0-1.26,0.31-2.39,0.92-3.39
		c0.61-1,1.45-1.79,2.52-2.36c1.07-0.57,2.27-0.85,3.62-0.85s2.55,0.28,3.62,0.85c1.07,0.57,1.91,1.35,2.52,2.36
		c0.61,1,0.92,2.13,0.92,3.39c0,1.26-0.31,2.39-0.92,3.39c-0.61,1-1.45,1.79-2.52,2.36c-1.07,0.57-2.27,0.85-3.62,0.85
		S114.24,111.22,113.17,110.65z M118.53,108.08c0.52-0.3,0.93-0.73,1.23-1.28s0.45-1.18,0.45-1.89c0-0.71-0.15-1.34-0.45-1.89
		s-0.71-0.98-1.23-1.28c-0.52-0.3-1.1-0.45-1.74-0.45s-1.22,0.15-1.74,0.45c-0.52,0.3-0.93,0.73-1.23,1.28
		c-0.3,0.55-0.45,1.18-0.45,1.89c0,0.71,0.15,1.34,0.45,1.89c0.3,0.55,0.71,0.98,1.23,1.28s1.1,0.45,1.74,0.45
		S118.01,108.38,118.53,108.08z"/>
	<path class="st2" d="M137.18,111.25l-0.04-6.72l-3.26,5.47h-1.6l-3.24-5.29v6.54h-3.32V98.56h2.95l4.46,7.32l4.35-7.32h2.95
		l0.04,12.69H137.18z"/>
	<path class="st2" d="M151.52,108.79h-5.37l-1,2.46h-3.66l5.6-12.69h3.53l5.62,12.69h-3.73L151.52,108.79z M150.47,106.14
		l-1.63-4.06l-1.63,4.06H150.47z"/>
	<path class="st2" d="M158.73,111.12c-0.97-0.25-1.75-0.59-2.36-1.01l1.18-2.65c0.57,0.37,1.23,0.68,1.98,0.91
		c0.75,0.23,1.49,0.34,2.21,0.34c1.38,0,2.07-0.34,2.07-1.03c0-0.36-0.2-0.63-0.59-0.81c-0.39-0.17-1.02-0.36-1.89-0.55
		c-0.95-0.21-1.75-0.43-2.39-0.66c-0.64-0.24-1.19-0.61-1.65-1.13c-0.46-0.52-0.69-1.22-0.69-2.1c0-0.77,0.21-1.47,0.63-2.09
		c0.42-0.62,1.05-1.12,1.89-1.48c0.84-0.36,1.87-0.54,3.09-0.54c0.83,0,1.66,0.09,2.47,0.28s1.52,0.46,2.14,0.82l-1.11,2.67
		c-1.21-0.65-2.38-0.98-3.52-0.98c-0.71,0-1.23,0.11-1.56,0.32c-0.33,0.21-0.49,0.49-0.49,0.83s0.19,0.59,0.58,0.76
		c0.39,0.17,1.01,0.34,1.87,0.53c0.97,0.21,1.77,0.43,2.4,0.66c0.63,0.24,1.18,0.61,1.65,1.12c0.46,0.51,0.7,1.21,0.7,2.09
		c0,0.76-0.21,1.45-0.63,2.07c-0.42,0.62-1.06,1.11-1.9,1.48c-0.85,0.37-1.87,0.55-3.08,0.55
		C160.7,111.5,159.7,111.38,158.73,111.12z"/>
</g>
<g>
	
		<rect x="44.17" y="160.28" transform="matrix(0.1122 -0.9937 0.9937 0.1122 -139.1576 204.9861)" class="st2" width="1.95" height="40.18"/>
	<path class="st3" d="M26.7,175.4c1.19,1.47,0.94,3.63-0.55,4.82c-1.47,1.19-3.63,0.94-4.82-0.55c-1.19-1.47-0.94-3.63,0.55-4.82
		C23.35,173.68,25.51,173.92,26.7,175.4z"/>
	<path class="st3" d="M69.12,180.7c1.19,1.47,0.94,3.63-0.55,4.82c-1.47,1.19-3.63,0.94-4.82-0.55c-1.19-1.47-0.94-3.63,0.55-4.82
		C65.78,178.98,67.94,179.23,69.12,180.7z"/>
	
		<rect x="32.65" y="162.09" transform="matrix(0.782 -0.6233 0.6233 0.782 -96.8995 57.7333)" class="st2" width="2.86" height="10.6"/>
	<path class="st3" d="M32.96,159.71c1.34,1.69,1.06,4.13-0.62,5.49c-1.69,1.34-4.13,1.06-5.49-0.62c-1.34-1.69-1.06-4.13,0.62-5.49
		C29.16,157.75,31.61,158.02,32.96,159.71z"/>
	
		<rect x="53.41" y="169.03" transform="matrix(0.782 -0.6233 0.6233 0.782 -93.4598 73.5388)" class="st2" width="9.97" height="2.68"/>
	<path class="st3" d="M65.28,164.83c1.05,1.31,0.84,3.22-0.49,4.27c-1.31,1.05-3.22,0.84-4.27-0.49c-1.05-1.31-0.84-3.22,0.49-4.27
		C62.33,163.31,64.23,163.52,65.28,164.83z"/>
	
		<rect x="24.27" y="190.72" transform="matrix(0.782 -0.6233 0.6233 0.782 -113.2606 61.0882)" class="st2" width="12.85" height="3.45"/>
	<path class="st3" d="M28.25,194.35c1.35,1.69,1.06,4.15-0.62,5.49c-1.69,1.35-4.15,1.06-5.49-0.62c-1.35-1.69-1.06-4.15,0.62-5.49
		C24.45,192.39,26.89,192.67,28.25,194.35z"/>
	
		<rect x="53.97" y="188.6" transform="matrix(0.782 -0.6233 0.6233 0.782 -108.9732 76.9346)" class="st2" width="3.04" height="11.28"/>
	<path class="st3" d="M63.61,197.76c1.43,1.79,1.14,4.41-0.65,5.84c-1.79,1.43-4.41,1.14-5.84-0.65c-1.43-1.79-1.14-4.41,0.65-5.84
		C59.56,195.66,62.18,195.95,63.61,197.76z"/>
	
		<rect x="25.08" y="179.48" transform="matrix(0.1121 -0.9937 0.9937 0.1121 -139.2113 205.1099)" class="st2" width="40.18" height="1.95"/>
	<path class="st3" d="M50.05,156.79c1.19,1.47,0.94,3.63-0.55,4.82c-1.47,1.19-3.63,0.94-4.82-0.55c-1.19-1.47-0.94-3.63,0.55-4.82
		C46.72,155.06,48.86,155.3,50.05,156.79z"/>
	<path class="st3" d="M45.29,200.72c1.19,1.47,0.94,3.63-0.55,4.82c-1.47,1.19-3.63,0.94-4.82-0.55c-1.19-1.47-0.94-3.63,0.55-4.82
		C41.94,199,44.1,199.25,45.29,200.72z"/>
	<path class="st2" d="M55.99,172.3c4.85,6.08,3.85,14.93-2.23,19.76c-1.79,1.43-3.83,2.36-5.93,2.78
		c-5.02,1.03-10.41-0.73-13.83-5.02c-4.85-6.08-3.85-14.93,2.23-19.76C42.29,165.23,51.14,166.23,55.99,172.3z"/>
	<path class="st4" d="M51.19,174.04c1.61,2.02,1.28,4.96-0.74,6.57s-4.96,1.28-6.57-0.74c-1.61-2.02-1.28-4.96,0.74-6.57
		C46.64,171.69,49.58,172.02,51.19,174.04z"/>
	<path class="st4" d="M45.67,185.46c1.05,1.32,0.84,3.25-0.49,4.3c-1.32,1.05-3.25,0.84-4.3-0.49c-1.05-1.32-0.84-3.25,0.49-4.3
		C42.69,183.92,44.62,184.14,45.67,185.46z"/>
	<path class="st4" d="M39.04,179.26c0.93,1.17,0.74,2.87-0.43,3.82c-1.17,0.93-2.87,0.74-3.82-0.43c-0.93-1.17-0.74-2.87,0.43-3.82
		C36.41,177.9,38.11,178.09,39.04,179.26z"/>
	<path class="st0" d="M51.4,168.54c0,0,12.97,13.86-4.04,26.4c0,0,1.44-0.26,2.36-0.62c0,0,0.88-0.3,1.84-0.81
		c0,0,1.85-0.97,3.37-2.48c0,0,2.89-2.57,3.8-6.86c0,0,1.32-5.15-1.17-9.47C57.54,174.7,55.99,171.02,51.4,168.54z"/>
</g>
<g>
	<g>
		<g>
			<g>
				<path class="st3" d="M141.18,200.33H93.1c-1.45,0-2.63-1.18-2.63-2.63l0,0c0-1.45,1.18-2.63,2.63-2.63h48.09
					c1.45,0,2.63,1.18,2.63,2.63l0,0C143.81,199.16,142.63,200.33,141.18,200.33z"/>
				<rect x="93.06" y="200.33" class="st2" width="48.15" height="3.93"/>
				<path class="st3" d="M160.98,219.07H73.31l0,0c0-8.18,6.63-14.81,14.81-14.81h58.06C154.35,204.27,160.98,210.89,160.98,219.07
					L160.98,219.07z"/>
				<path class="st2" d="M98.57,195.08c0,0,15.63,5.82,33.25,0H98.57z"/>
			</g>
			<g>
				<g>
					<g>
						<circle class="st6" cx="93.04" cy="157.29" r="4.9"/>
						<circle class="st6" cx="141.27" cy="157.29" r="4.9"/>
						<circle class="st7" cx="141.46" cy="157.27" r="1.38"/>
						<path class="st7" d="M93.91,157.27c0,0.76-0.62,1.38-1.38,1.38s-1.38-0.62-1.38-1.38s0.62-1.38,1.38-1.38
							S93.91,156.5,93.91,157.27z"/>
					</g>
					<path class="st8" d="M141.27,195.08H93.12V151.8c0-13.3,10.78-24.08,24.08-24.08l0,0c13.3,0,24.08,10.78,24.08,24.08V195.08
						L141.27,195.08z"/>
					<g>
						<path class="st9" d="M123.33,178.72c0-3.39-2.75-6.14-6.14-6.14s-6.14,2.75-6.14,6.14H123.33z"/>
						<path class="st6" d="M116.98,170.81L116.98,170.81c-1.63,0-2.97-1.34-2.97-2.97v-4.48c0-1.63,1.34-2.97,2.97-2.97l0,0
							c1.63,0,2.97,1.34,2.97,2.97v4.48C119.95,169.48,118.62,170.81,116.98,170.81z"/>
					</g>
					<g>
						<path class="st10" d="M104.2,152.74l-2.68,2.68c-0.2,0.2-0.53,0.2-0.73,0l0,0c-0.2-0.2-0.2-0.53,0-0.74l2.68-2.68
							c0.2-0.2,0.53-0.2,0.73,0l0,0C104.4,152.21,104.4,152.54,104.2,152.74z"/>
						<path class="st10" d="M132.8,155.43l-2.68-2.68c-0.2-0.2-0.2-0.53,0-0.74l0,0c0.2-0.2,0.53-0.2,0.74,0l2.68,2.68
							c0.2,0.2,0.2,0.53,0,0.74l0,0C133.33,155.63,133,155.63,132.8,155.43z"/>
					</g>
					<g>
						<ellipse class="st11" cx="129.88" cy="163.01" rx="5.38" ry="1.55"/>
						<ellipse class="st11" cx="103.96" cy="163.01" rx="5.38" ry="1.55"/>
					</g>
					<g>
						<g>
							<g>
								<path class="st10" d="M106.7,158.66c0,0.95-0.77,1.72-1.72,1.72c-0.95,0-1.72-0.77-1.72-1.72c0-0.95,0.77-1.72,1.72-1.72
									C105.92,156.94,106.7,157.72,106.7,158.66z"/>
								<path class="st4" d="M104.97,157.78c0,0.17-0.28,0.3-0.62,0.3s-0.62-0.13-0.62-0.3c0-0.17,0.28-0.3,0.62-0.3
									C104.69,157.47,104.97,157.61,104.97,157.78z"/>
							</g>
							<polygon class="st8" points="102.92,158.66 106.36,156.8 102.92,156.25 							"/>
						</g>
						<g>
							<g>
								<path class="st10" d="M131.14,158.66c0,0.95-0.77,1.72-1.72,1.72c-0.95,0-1.72-0.77-1.72-1.72c0-0.95,0.77-1.72,1.72-1.72
									C130.36,156.94,131.14,157.72,131.14,158.66z"/>
								<path class="st4" d="M129.41,157.78c0,0.17-0.28,0.3-0.62,0.3s-0.62-0.13-0.62-0.3c0-0.17,0.28-0.3,0.62-0.3
									C129.13,157.47,129.41,157.61,129.41,157.78z"/>
							</g>
							<polygon class="st8" points="128.36,157.08 131.44,159.15 131.01,156.25 							"/>
						</g>
					</g>
					<path class="st10" d="M141.53,152.74c1.7-6.09,0.64-12.87-2.82-18.16c-3.46-5.28-9.26-8.97-15.51-9.84
						c-2.06-0.29-4.15-0.29-6.23-0.27c-3.24,0.03-6.49,0.09-9.73,0.18c0.39-0.7,0.65-1.48,0.75-2.27c-2.14,0.83-4.13,2.04-5.85,3.55
						c0.15-0.74,0.3-1.48,0.45-2.23c-2.72,1.64-5.52,3.34-7.45,5.87c-1.81,2.36-2.74,5.28-3.13,8.22s-0.26,5.92-0.13,8.89
						c0.09,1.95,0.17,3.91,0.26,5.86c0.55-0.17,0.92,0.64,0.95,1.21c0.08,1.57-0.03,3.15-0.31,4.7c0.72,0.24,1.49,0.34,2.24,0.25
						c-0.68-6.68,2.36-13.13,5.47-19.09c2.03,1.93,4.96,2.87,7.73,2.46c-0.15-1.17-0.3-2.33-0.46-3.5c5.2,4.11,11.81,6.4,18.44,6.38
						c-0.07-0.88-0.15-1.75-0.22-2.64c2.08,1.5,4.46,2.56,6.95,3.13c1.81,0.41,3.81,0.62,5.14,1.91c1.42,1.38,0.97,3.58,1.09,5.56
						c0.1,1.77,0.21,3.53,0.3,5.3c0.39,0,1.42-0.01,1.81-0.01C141.32,156.32,141.02,154.57,141.53,152.74z"/>
					<g>
						<path class="st12" d="M98.57,169.1c0,0,11.92-7.41,36.7,0l-1.58,12.83l-16.49,4.28l-16.56-3.99L98.57,169.1z"/>
						<g>
							<path class="st4" d="M99.74,171c-0.07,0-0.15-0.05-0.18-0.12l-7.63-18.75c-0.04-0.1,0.01-0.21,0.11-0.25
								c0.1-0.04,0.21,0.01,0.24,0.11l7.63,18.75c0.04,0.1-0.01,0.21-0.11,0.24C99.79,170.99,99.77,171,99.74,171z"/>
						</g>
						<g>
							<path class="st4" d="M134.19,171c-0.03,0-0.05-0.01-0.07-0.01c-0.1-0.04-0.15-0.15-0.11-0.24l7.43-18.41
								c0.04-0.1,0.15-0.15,0.24-0.11c0.1,0.04,0.15,0.15,0.11,0.25l-7.43,18.41C134.34,170.95,134.26,171,134.19,171z"/>
						</g>
						<g>
							<path class="st13" d="M122.49,173.3c-2.32,0-4.58-0.64-5.84-1.07c-0.2-0.07-0.4-0.14-0.6-0.21
								c-3.49-1.21-7.1-2.46-10.12,0.28l-0.26-0.28c3.19-2.89,7.07-1.55,10.5-0.36c0.2,0.07,0.4,0.14,0.6,0.21
								c6.93,2.38,10.09,0.17,11.13-0.89l0.27,0.26C126.64,172.8,124.54,173.3,122.49,173.3z"/>
						</g>
						<g>
							<path class="st13" d="M122.49,178.83c-2.32,0-4.58-0.64-5.84-1.07c-0.2-0.07-0.4-0.14-0.6-0.21
								c-3.49-1.21-7.1-2.46-10.12,0.28l-0.26-0.28c3.19-2.89,7.07-1.55,10.5-0.36c0.2,0.07,0.4,0.14,0.6,0.21
								c6.93,2.38,10.09,0.17,11.13-0.89l0.27,0.26C126.64,178.33,124.54,178.83,122.49,178.83z"/>
						</g>
					</g>
				</g>
				<g>
					<path class="st14" d="M102.12,146.22c0,0.81-0.66,1.47-1.47,1.47c-0.81,0-1.47-0.66-1.47-1.47c0-0.81,1.47-3.81,1.47-3.81
						S102.12,145.41,102.12,146.22z"/>
					<path class="st14" d="M105.08,148.27c0,0.4-0.33,0.74-0.73,0.74c-0.4,0-0.74-0.33-0.74-0.74s0.74-1.9,0.74-1.9
						S105.08,147.87,105.08,148.27z"/>
				</g>
			</g>
		</g>
		<g class="st15">
			<g>
				<polygon class="st3" points="137.91,173.52 145.19,170.61 147.59,173.52 160.39,169.34 146.77,176.31 143.79,173.14 				"/>
				<polygon class="st3" points="139.24,179.12 143.81,179.25 144.42,181.36 152.23,182.08 143.34,182.66 142.48,180.28 				"/>
				<polygon class="st3" points="97.05,177.69 89.36,176.18 87.53,179.49 74.19,177.75 88.85,182.07 91.2,178.41 				"/>
				<polygon class="st3" points="94.77,173.08 91.31,170.39 89.57,171.58 83.34,167.37 89.58,173.21 91.67,171.97 				"/>
				<g>
					<g>
						<path class="st3" d="M154.01,187.26l-0.17-0.24c2.67-1.92,3.36-6.11,1.46-8.79l0.24-0.17
							C157.53,180.87,156.8,185.25,154.01,187.26z"/>
					</g>
					<g>
						<path class="st3" d="M153.14,184.82l-0.17-0.24c1.58-1.14,1.99-3.62,0.87-5.22l0.24-0.17
							C155.29,180.91,154.85,183.59,153.14,184.82z"/>
					</g>
				</g>
				<g>
					<g>
						<path class="st3" d="M83.84,171.11l0.11,0.15c-1.64,1.19-2.07,3.77-0.9,5.42l-0.15,0.11
							C81.68,175.05,82.12,172.34,83.84,171.11z"/>
					</g>
					<g>
						<path class="st3" d="M84.38,172.61l0.11,0.15c-0.97,0.7-1.23,2.24-0.54,3.22l-0.15,0.11
							C83.05,175.03,83.32,173.37,84.38,172.61z"/>
					</g>
				</g>
			</g>
		</g>
	</g>
</g>
<g>
	
		<rect x="186.59" y="123.18" transform="matrix(0.1122 -0.9937 0.9937 0.1122 27.1481 310.624)" class="st2" width="1.64" height="33.88"/>
	<path class="st3" d="M171.86,135.93c1,1.24,0.79,3.06-0.46,4.06c-1.24,1-3.06,0.79-4.06-0.46c-1-1.24-0.79-3.06,0.46-4.06
		C169.04,134.48,170.86,134.68,171.86,135.93z"/>
	<path class="st3" d="M207.63,140.4c1,1.24,0.79,3.06-0.46,4.06c-1.24,1-3.06,0.79-4.06-0.46c-1-1.24-0.79-3.06,0.46-4.06
		C204.81,138.95,206.63,139.16,207.63,140.4z"/>
	
		<rect x="176.88" y="124.7" transform="matrix(0.782 -0.6233 0.6233 0.782 -41.686 139.1597)" class="st2" width="2.41" height="8.93"/>
	<path class="st3" d="M177.14,122.7c1.13,1.42,0.9,3.49-0.53,4.63c-1.42,1.13-3.49,0.9-4.63-0.53c-1.13-1.42-0.9-3.49,0.53-4.63
		C173.94,121.04,176,121.28,177.14,122.7z"/>
	
		<rect x="194.38" y="130.56" transform="matrix(0.782 -0.6233 0.6233 0.782 -38.7857 152.4862)" class="st2" width="8.41" height="2.26"/>
	<path class="st3" d="M204.39,127.02c0.88,1.1,0.7,2.72-0.41,3.6c-1.1,0.88-2.72,0.7-3.6-0.41c-0.88-1.1-0.7-2.72,0.41-3.6
		C201.9,125.74,203.51,125.92,204.39,127.02z"/>
	
		<rect x="169.82" y="148.85" transform="matrix(0.782 -0.6233 0.6233 0.782 -55.4811 141.9883)" class="st2" width="10.83" height="2.91"/>
	<path class="st3" d="M173.17,151.91c1.14,1.42,0.9,3.5-0.53,4.63c-1.42,1.14-3.5,0.9-4.63-0.53c-1.14-1.42-0.9-3.5,0.53-4.63
		S172.03,150.49,173.17,151.91z"/>
	
		<rect x="194.86" y="147.06" transform="matrix(0.782 -0.6233 0.6233 0.782 -51.8661 155.3494)" class="st2" width="2.56" height="9.51"/>
	<path class="st3" d="M202.98,154.78c1.2,1.51,0.96,3.72-0.55,4.92c-1.51,1.2-3.72,0.96-4.92-0.55c-1.2-1.51-0.96-3.72,0.55-4.92
		C199.57,153.01,201.78,153.25,202.98,154.78z"/>
	
		<rect x="170.5" y="139.37" transform="matrix(0.1121 -0.9937 0.9937 0.1121 27.1177 310.7289)" class="st2" width="33.88" height="1.64"/>
	<path class="st3" d="M191.55,120.24c1,1.24,0.79,3.06-0.46,4.06c-1.24,1-3.06,0.79-4.06-0.46c-1-1.24-0.79-3.06,0.46-4.06
		S190.55,118.98,191.55,120.24z"/>
	<path class="st3" d="M187.54,157.28c1,1.24,0.79,3.06-0.46,4.06c-1.24,1-3.06,0.79-4.06-0.46c-1-1.24-0.79-3.06,0.46-4.06
		C184.72,155.83,186.54,156.04,187.54,157.28z"/>
	<path class="st2" d="M196.56,133.31c4.09,5.13,3.24,12.59-1.88,16.66c-1.51,1.2-3.23,1.99-5,2.35c-4.23,0.87-8.78-0.62-11.66-4.23
		c-4.09-5.13-3.24-12.59,1.88-16.66C185.01,127.35,192.47,128.2,196.56,133.31z"/>
	<path class="st4" d="M192.51,134.78c1.36,1.7,1.08,4.18-0.63,5.54c-1.7,1.36-4.18,1.08-5.54-0.63c-1.36-1.7-1.08-4.18,0.63-5.54
		C188.68,132.8,191.15,133.08,192.51,134.78z"/>
	<path class="st4" d="M187.86,144.41c0.88,1.12,0.7,2.74-0.41,3.63c-1.12,0.88-2.74,0.7-3.63-0.41c-0.88-1.12-0.7-2.74,0.41-3.63
		C185.34,143.12,186.97,143.3,187.86,144.41z"/>
	<path class="st4" d="M182.27,139.18c0.78,0.99,0.63,2.42-0.36,3.22c-0.99,0.78-2.42,0.63-3.22-0.36c-0.78-0.99-0.63-2.42,0.36-3.22
		C180.05,138.04,181.49,138.19,182.27,139.18z"/>
	<path class="st0" d="M192.69,130.14c0,0,10.93,11.69-3.41,22.26c0,0,1.22-0.22,1.99-0.53c0,0,0.74-0.26,1.55-0.68
		c0,0,1.56-0.82,2.85-2.09c0,0,2.44-2.17,3.2-5.78c0,0,1.12-4.35-0.99-7.99C197.87,135.34,196.56,132.23,192.69,130.14z"/>
</g>
<g>
	
		<rect x="201.93" y="215.93" transform="matrix(0.1122 -0.9937 0.9937 0.1122 -47.3527 404.236)" class="st2" width="1.23" height="25.37"/>
	<path class="st3" d="M190.9,225.48c0.75,0.93,0.6,2.29-0.35,3.04c-0.93,0.75-2.29,0.6-3.04-0.35c-0.75-0.93-0.6-2.29,0.35-3.04
		C188.79,224.39,190.15,224.55,190.9,225.48z"/>
	<path class="st3" d="M217.69,228.83c0.75,0.93,0.6,2.29-0.35,3.04c-0.93,0.75-2.29,0.6-3.04-0.35c-0.75-0.93-0.6-2.29,0.35-3.04
		C215.58,227.74,216.94,227.9,217.69,228.83z"/>
	
		<rect x="194.66" y="217.07" transform="matrix(0.782 -0.6233 0.6233 0.782 -94.7499 169.9477)" class="st2" width="1.8" height="6.69"/>
	<path class="st3" d="M194.86,215.57c0.84,1.07,0.67,2.61-0.39,3.46c-1.07,0.84-2.61,0.67-3.46-0.39c-0.84-1.07-0.67-2.61,0.39-3.46
		C192.46,214.33,194,214.51,194.86,215.57z"/>
	
		<rect x="207.77" y="221.46" transform="matrix(0.782 -0.6233 0.6233 0.782 -92.578 179.9274)" class="st2" width="6.3" height="1.69"/>
	<path class="st3" d="M215.26,218.81c0.66,0.83,0.53,2.03-0.31,2.7c-0.83,0.66-2.03,0.53-2.7-0.31c-0.66-0.83-0.53-2.03,0.31-2.7
		C213.4,217.85,214.6,217.98,215.26,218.81z"/>
	
		<rect x="189.37" y="235.16" transform="matrix(0.782 -0.6233 0.6233 0.782 -105.0804 172.066)" class="st2" width="8.11" height="2.18"/>
	<path class="st3" d="M191.88,237.45c0.85,1.07,0.67,2.62-0.39,3.46c-1.07,0.85-2.62,0.67-3.46-0.39c-0.85-1.07-0.67-2.62,0.39-3.46
		C189.48,236.21,191.03,236.38,191.88,237.45z"/>
	
		<rect x="208.12" y="233.82" transform="matrix(0.782 -0.6233 0.6233 0.782 -102.3734 182.0715)" class="st2" width="1.92" height="7.12"/>
	<path class="st3" d="M214.21,239.6c0.9,1.13,0.72,2.78-0.41,3.69c-1.13,0.9-2.78,0.72-3.69-0.41c-0.9-1.13-0.72-2.78,0.41-3.69
		C211.65,238.27,213.31,238.45,214.21,239.6z"/>
	
		<rect x="189.88" y="228.06" transform="matrix(0.1121 -0.9937 0.9937 0.1121 -47.3707 404.3274)" class="st2" width="25.37" height="1.23"/>
	<path class="st3" d="M205.65,213.73c0.75,0.93,0.6,2.29-0.35,3.04c-0.93,0.75-2.29,0.6-3.04-0.35c-0.75-0.93-0.6-2.29,0.35-3.04
		C203.54,212.64,204.9,212.79,205.65,213.73z"/>
	<path class="st3" d="M202.64,241.47c0.75,0.93,0.6,2.29-0.35,3.04c-0.93,0.75-2.29,0.6-3.04-0.35c-0.75-0.93-0.6-2.29,0.35-3.04
		C200.53,240.38,201.89,240.54,202.64,241.47z"/>
	<path class="st2" d="M209.4,223.52c3.06,3.84,2.43,9.43-1.41,12.48c-1.13,0.9-2.42,1.49-3.74,1.76c-3.17,0.65-6.57-0.46-8.73-3.17
		c-3.06-3.84-2.43-9.43,1.41-12.48C200.75,219.06,206.34,219.69,209.4,223.52z"/>
	<path class="st4" d="M206.37,224.62c1.02,1.28,0.81,3.13-0.47,4.15c-1.28,1.02-3.13,0.81-4.15-0.47c-1.02-1.28-0.81-3.13,0.47-4.15
		C203.5,223.14,205.35,223.35,206.37,224.62z"/>
	<path class="st4" d="M202.88,231.83c0.66,0.84,0.53,2.05-0.31,2.72c-0.84,0.66-2.05,0.53-2.72-0.31c-0.66-0.84-0.53-2.05,0.31-2.72
		C201,230.86,202.22,231,202.88,231.83z"/>
	<path class="st4" d="M198.7,227.92c0.59,0.74,0.47,1.81-0.27,2.41c-0.74,0.59-1.81,0.47-2.41-0.27c-0.59-0.74-0.47-1.81,0.27-2.41
		C197.04,227.06,198.11,227.18,198.7,227.92z"/>
	<path class="st0" d="M206.5,221.15c0,0,8.19,8.75-2.55,16.67c0,0,0.91-0.16,1.49-0.39c0,0,0.56-0.19,1.16-0.51
		c0,0,1.17-0.61,2.13-1.56c0,0,1.82-1.62,2.4-4.33c0,0,0.84-3.25-0.74-5.98C210.38,225.04,209.4,222.71,206.5,221.15z"/>
</g>
<polyline class="st16" points="231.66,120.37 231.66,85.65 553.96,85.65 553.96,121.46 "/>
<rect x="290.19" y="76.75" class="st4" width="205.23" height="20.17"/>
<g class="st5">
	<path class="st3" d="M307.27,60.8c0.67,0.3,1.18,0.73,1.55,1.29s0.54,1.22,0.54,1.97c0,0.75-0.18,1.41-0.54,1.96
		s-0.88,0.98-1.55,1.28c-0.67,0.3-1.46,0.45-2.36,0.45h-1.75v2.62h-2.84V60.35h4.58C305.81,60.35,306.6,60.5,307.27,60.8z
		 M306.05,65.14c0.3-0.25,0.44-0.61,0.44-1.08c0-0.47-0.15-0.83-0.44-1.09c-0.3-0.26-0.74-0.39-1.32-0.39h-1.58v2.94h1.58
		C305.31,65.52,305.75,65.39,306.05,65.14z"/>
	<path class="st3" d="M313.08,69.9c-0.85-0.45-1.51-1.07-1.99-1.86c-0.48-0.79-0.72-1.69-0.72-2.68s0.24-1.89,0.72-2.68
		c0.48-0.79,1.15-1.41,1.99-1.86s1.8-0.67,2.86-0.67s2.01,0.22,2.86,0.67s1.51,1.07,1.99,1.86c0.48,0.79,0.72,1.69,0.72,2.68
		s-0.24,1.89-0.72,2.68c-0.48,0.79-1.15,1.41-1.99,1.86c-0.85,0.45-1.8,0.67-2.86,0.67S313.92,70.35,313.08,69.9z M317.31,67.87
		c0.41-0.24,0.73-0.58,0.97-1.01s0.36-0.93,0.36-1.5s-0.12-1.06-0.36-1.5c-0.24-0.43-0.56-0.77-0.97-1.01
		c-0.41-0.24-0.87-0.36-1.38-0.36s-0.96,0.12-1.38,0.36c-0.41,0.24-0.74,0.58-0.97,1.01c-0.24,0.43-0.36,0.93-0.36,1.5
		s0.12,1.06,0.36,1.5c0.24,0.43,0.56,0.77,0.97,1.01c0.41,0.24,0.87,0.36,1.38,0.36S316.9,68.11,317.31,67.87z"/>
	<path class="st3" d="M324.99,62.6h-3.08v-2.25h8.98v2.25h-3.07v7.78h-2.84V62.6z"/>
	<path class="st3" d="M340,68.18v2.19h-8.05V60.35h7.86v2.19h-5.06v1.69h4.46v2.12h-4.46v1.83H340z"/>
	<path class="st3" d="M351.12,60.35v10.03h-2.33l-4.43-5.34v5.34h-2.78V60.35h2.33l4.43,5.34v-5.34H351.12z"/>
	<path class="st3" d="M355.29,69.91c-0.84-0.44-1.49-1.06-1.97-1.86s-0.72-1.69-0.72-2.69s0.24-1.9,0.72-2.69
		c0.48-0.79,1.13-1.41,1.97-1.85c0.84-0.44,1.78-0.67,2.83-0.67c0.92,0,1.74,0.16,2.48,0.49c0.74,0.33,1.35,0.79,1.83,1.4l-1.8,1.63
		c-0.65-0.78-1.44-1.17-2.36-1.17c-0.54,0-1.03,0.12-1.45,0.36c-0.42,0.24-0.75,0.58-0.99,1.01c-0.23,0.43-0.35,0.93-0.35,1.5
		s0.12,1.06,0.35,1.5c0.23,0.43,0.56,0.77,0.99,1.01c0.42,0.24,0.91,0.36,1.45,0.36c0.93,0,1.71-0.39,2.36-1.17l1.8,1.63
		c-0.49,0.61-1.1,1.08-1.83,1.4s-1.56,0.49-2.48,0.49C357.07,70.58,356.13,70.35,355.29,69.91z"/>
	<path class="st3" d="M363.69,60.35h2.84v10.03h-2.84V60.35z"/>
	<path class="st3" d="M375.27,68.43h-4.24l-0.79,1.95h-2.89l4.43-10.03h2.79l4.44,10.03h-2.95L375.27,68.43z M374.44,66.34
		l-1.29-3.21l-1.29,3.21H374.44z"/>
	<path class="st3" d="M379.81,60.35h2.84v7.78h4.78v2.25h-7.62V60.35z"/>
	<path class="st3" d="M392.72,60.35h4.74c1.1,0,2.07,0.21,2.92,0.62c0.85,0.41,1.51,0.99,1.98,1.75c0.47,0.75,0.7,1.64,0.7,2.65
		c0,1.01-0.23,1.9-0.7,2.65s-1.13,1.34-1.98,1.75c-0.85,0.41-1.82,0.62-2.92,0.62h-4.74V60.35z M397.34,68.11
		c0.86,0,1.55-0.24,2.07-0.73c0.52-0.49,0.78-1.16,0.78-2.02s-0.26-1.53-0.78-2.02c-0.52-0.49-1.21-0.73-2.07-0.73h-1.79v5.5H397.34
		z"/>
	<path class="st3" d="M412.6,68.18v2.19h-8.05V60.35h7.86v2.19h-5.06v1.69h4.46v2.12h-4.46v1.83H412.6z"/>
	<path class="st3" d="M427.4,70.37l-0.03-5.31l-2.58,4.33h-1.26l-2.56-4.18v5.17h-2.62V60.35h2.33l3.52,5.79l3.44-5.79h2.33
		L430,70.37H427.4z"/>
	<path class="st3" d="M438.73,68.43h-4.24l-0.79,1.95h-2.89l4.43-10.03h2.79l4.44,10.03h-2.95L438.73,68.43z M437.9,66.34
		l-1.29-3.21l-1.29,3.21H437.9z"/>
	<path class="st3" d="M443.27,60.35h2.84v10.03h-2.84V60.35z"/>
	<path class="st3" d="M450.32,69.9c-0.85-0.45-1.51-1.07-1.99-1.86c-0.48-0.79-0.72-1.69-0.72-2.68s0.24-1.89,0.72-2.68
		c0.48-0.79,1.15-1.41,1.99-1.86s1.8-0.67,2.86-0.67s2.01,0.22,2.86,0.67s1.51,1.07,1.99,1.86c0.48,0.79,0.72,1.69,0.72,2.68
		s-0.24,1.89-0.72,2.68c-0.48,0.79-1.15,1.41-1.99,1.86c-0.85,0.45-1.8,0.67-2.86,0.67S451.17,70.35,450.32,69.9z M454.56,67.87
		c0.41-0.24,0.73-0.58,0.97-1.01s0.36-0.93,0.36-1.5s-0.12-1.06-0.36-1.5c-0.24-0.43-0.56-0.77-0.97-1.01
		c-0.41-0.24-0.87-0.36-1.38-0.36s-0.96,0.12-1.38,0.36c-0.41,0.24-0.74,0.58-0.97,1.01c-0.24,0.43-0.36,0.93-0.36,1.5
		s0.12,1.06,0.36,1.5c0.24,0.43,0.56,0.77,0.97,1.01c0.41,0.24,0.87,0.36,1.38,0.36S454.15,68.11,454.56,67.87z"/>
	<path class="st3" d="M464.63,67.71h-1.55v2.66h-2.84V60.35h4.58c0.91,0,1.69,0.15,2.36,0.45c0.67,0.3,1.18,0.73,1.55,1.29
		s0.54,1.22,0.54,1.97c0,0.73-0.17,1.36-0.51,1.9c-0.34,0.54-0.82,0.96-1.45,1.27l2.16,3.15h-3.04L464.63,67.71z M465.97,62.97
		c-0.3-0.26-0.74-0.39-1.32-0.39h-1.58v2.94h1.58c0.58,0,1.02-0.13,1.32-0.38c0.3-0.25,0.44-0.61,0.44-1.08
		C466.42,63.59,466.27,63.23,465.97,62.97z"/>
	<path class="st3" d="M339.73,77.54l-4.3,10.03h-2.79l-4.28-10.03h3.07l2.72,6.53l2.78-6.53H339.73z"/>
	<path class="st3" d="M340.32,77.54h2.84v10.03h-2.84V77.54z"/>
	<path class="st3" d="M349.56,84.9h-1.55v2.66h-2.84V77.54h4.58c0.91,0,1.69,0.15,2.36,0.45c0.67,0.3,1.18,0.73,1.55,1.29
		s0.54,1.22,0.54,1.97c0,0.73-0.17,1.36-0.51,1.9c-0.34,0.54-0.82,0.96-1.45,1.27l2.16,3.15h-3.04L349.56,84.9z M350.91,80.16
		c-0.3-0.26-0.74-0.39-1.32-0.39h-1.58v2.94h1.58c0.58,0,1.02-0.13,1.32-0.38c0.3-0.25,0.44-0.61,0.44-1.08
		S351.2,80.42,350.91,80.16z"/>
	<path class="st3" d="M356.93,86.55c-0.83-0.81-1.24-1.96-1.24-3.45v-5.56h2.84v5.47c0,1.6,0.63,2.41,1.91,2.41
		c1.26,0,1.89-0.8,1.89-2.41v-5.47h2.79v5.56c0,1.49-0.41,2.64-1.24,3.45s-1.98,1.22-3.47,1.22S357.76,87.36,356.93,86.55z"/>
	<path class="st3" d="M367.04,77.54h2.84v7.78h4.78v2.25h-7.62V77.54z"/>
	<path class="st3" d="M383.83,85.37v2.19h-8.05V77.54h7.86v2.19h-5.06v1.69h4.46v2.12h-4.46v1.83H383.83z M380.95,76.72l-1.23-1.09
		l-1.23,1.09h-1.81l1.86-2.18h2.35l1.86,2.18H380.95z"/>
	<path class="st3" d="M394.94,77.54v10.03h-2.33l-4.43-5.34v5.34h-2.78V77.54h2.33l4.43,5.34v-5.34H394.94z"/>
	<path class="st3" d="M399.12,87.1c-0.84-0.44-1.49-1.06-1.97-1.86s-0.72-1.69-0.72-2.69s0.24-1.9,0.72-2.69
		c0.48-0.79,1.13-1.41,1.97-1.85c0.84-0.44,1.78-0.67,2.83-0.67c0.92,0,1.74,0.16,2.48,0.49c0.74,0.33,1.35,0.79,1.83,1.4l-1.8,1.63
		c-0.65-0.78-1.44-1.17-2.36-1.17c-0.54,0-1.03,0.12-1.45,0.36c-0.42,0.24-0.75,0.58-0.99,1.01c-0.23,0.43-0.35,0.93-0.35,1.5
		s0.12,1.06,0.35,1.5c0.23,0.43,0.56,0.77,0.99,1.01c0.42,0.24,0.91,0.36,1.45,0.36c0.93,0,1.71-0.39,2.36-1.17l1.8,1.63
		c-0.49,0.61-1.1,1.08-1.83,1.4s-1.56,0.49-2.48,0.49C400.9,87.77,399.96,87.54,399.12,87.1z"/>
	<path class="st3" d="M407.52,77.54h2.84v10.03h-2.84V77.54z"/>
	<path class="st3" d="M419.1,85.62h-4.24l-0.79,1.95h-2.89l4.43-10.03h2.79l4.44,10.03h-2.95L419.1,85.62z M418.27,83.53l-1.29-3.21
		l-1.29,3.21H418.27z"/>
	<path class="st3" d="M435.86,85.37v2.19h-8.05V77.54h7.86v2.19h-5.06v1.69h4.46v2.12h-4.46v1.83H435.86z"/>
	<path class="st3" d="M303.94,96.98h-3.08v-2.25h8.98v2.25h-3.07v7.78h-2.84V96.98z"/>
	<path class="st3" d="M315.28,102.09h-1.55v2.66h-2.84V94.73h4.58c0.91,0,1.69,0.15,2.36,0.45c0.67,0.3,1.18,0.73,1.55,1.29
		s0.54,1.22,0.54,1.97c0,0.73-0.17,1.36-0.51,1.9c-0.34,0.54-0.82,0.96-1.45,1.27l2.16,3.15h-3.04L315.28,102.09z M316.63,97.35
		c-0.3-0.26-0.74-0.39-1.32-0.39h-1.58v2.94h1.58c0.58,0,1.02-0.13,1.32-0.38c0.3-0.25,0.44-0.61,0.44-1.08
		S316.92,97.61,316.63,97.35z"/>
	<path class="st3" d="M328.22,102.81h-4.24l-0.79,1.95h-2.89l4.43-10.03h2.79l4.44,10.03h-2.95L328.22,102.81z M327.39,100.72
		l-1.29-3.21l-1.29,3.21H327.39z"/>
	<path class="st3" d="M342.3,94.73v10.03h-2.33l-4.43-5.34v5.34h-2.78V94.73h2.33l4.43,5.34v-5.34H342.3z"/>
	<path class="st3" d="M345.46,104.66c-0.76-0.2-1.38-0.47-1.86-0.8l0.93-2.09c0.45,0.3,0.97,0.54,1.56,0.72
		c0.59,0.18,1.17,0.27,1.75,0.27c1.09,0,1.63-0.27,1.63-0.82c0-0.29-0.16-0.5-0.47-0.64s-0.81-0.28-1.5-0.44
		c-0.75-0.16-1.38-0.34-1.89-0.52c-0.51-0.19-0.94-0.48-1.3-0.9c-0.36-0.41-0.54-0.96-0.54-1.66c0-0.61,0.17-1.16,0.5-1.65
		c0.33-0.49,0.83-0.88,1.5-1.17c0.66-0.29,1.48-0.43,2.44-0.43c0.66,0,1.31,0.07,1.95,0.22c0.64,0.15,1.2,0.37,1.69,0.65l-0.87,2.11
		c-0.96-0.52-1.88-0.77-2.78-0.77c-0.56,0-0.97,0.08-1.23,0.25c-0.26,0.17-0.39,0.38-0.39,0.65s0.15,0.47,0.46,0.6
		s0.8,0.27,1.48,0.42c0.76,0.16,1.4,0.34,1.9,0.52c0.5,0.19,0.94,0.48,1.3,0.89c0.37,0.41,0.55,0.96,0.55,1.65
		c0,0.6-0.17,1.15-0.5,1.63c-0.33,0.49-0.84,0.88-1.5,1.17s-1.48,0.44-2.44,0.44C347.02,104.96,346.23,104.86,345.46,104.66z"/>
	<path class="st3" d="M362.63,104.76l-0.03-5.31l-2.58,4.33h-1.26l-2.56-4.18v5.17h-2.62V94.73h2.33l3.52,5.79l3.44-5.79h2.33
		l0.03,10.03H362.63z"/>
	<path class="st3" d="M367.24,94.73h2.84v10.03h-2.84V94.73z"/>
	<path class="st3" d="M373.26,104.66c-0.76-0.2-1.38-0.47-1.86-0.8l0.93-2.09c0.45,0.3,0.97,0.54,1.56,0.72
		c0.59,0.18,1.17,0.27,1.75,0.27c1.09,0,1.63-0.27,1.63-0.82c0-0.29-0.16-0.5-0.47-0.64s-0.81-0.28-1.5-0.44
		c-0.75-0.16-1.38-0.34-1.89-0.52c-0.51-0.19-0.94-0.48-1.3-0.9c-0.36-0.41-0.54-0.96-0.54-1.66c0-0.61,0.17-1.16,0.5-1.65
		c0.33-0.49,0.83-0.88,1.5-1.17c0.66-0.29,1.48-0.43,2.44-0.43c0.66,0,1.31,0.07,1.95,0.22c0.64,0.15,1.2,0.37,1.69,0.65l-0.87,2.11
		c-0.96-0.52-1.88-0.77-2.78-0.77c-0.56,0-0.97,0.08-1.23,0.25c-0.26,0.17-0.39,0.38-0.39,0.65s0.15,0.47,0.46,0.6
		s0.8,0.27,1.48,0.42c0.76,0.16,1.4,0.34,1.9,0.52c0.5,0.19,0.94,0.48,1.3,0.89c0.37,0.41,0.55,0.96,0.55,1.65
		c0,0.6-0.17,1.15-0.5,1.63c-0.33,0.49-0.84,0.88-1.5,1.17s-1.48,0.44-2.44,0.44C374.81,104.96,374.02,104.86,373.26,104.66z"/>
	<path class="st3" d="M382.52,104.66c-0.76-0.2-1.38-0.47-1.86-0.8l0.93-2.09c0.45,0.3,0.97,0.54,1.56,0.72
		c0.59,0.18,1.17,0.27,1.75,0.27c1.09,0,1.63-0.27,1.63-0.82c0-0.29-0.16-0.5-0.47-0.64s-0.81-0.28-1.5-0.44
		c-0.75-0.16-1.38-0.34-1.89-0.52c-0.51-0.19-0.94-0.48-1.3-0.9c-0.36-0.41-0.54-0.96-0.54-1.66c0-0.61,0.17-1.16,0.5-1.65
		c0.33-0.49,0.83-0.88,1.5-1.17c0.66-0.29,1.48-0.43,2.44-0.43c0.66,0,1.31,0.07,1.95,0.22c0.64,0.15,1.2,0.37,1.69,0.65l-0.87,2.11
		c-0.96-0.52-1.88-0.77-2.78-0.77c-0.56,0-0.97,0.08-1.23,0.25c-0.26,0.17-0.39,0.38-0.39,0.65s0.15,0.47,0.46,0.6
		s0.8,0.27,1.48,0.42c0.76,0.16,1.4,0.34,1.9,0.52c0.5,0.19,0.94,0.48,1.3,0.89c0.37,0.41,0.55,0.96,0.55,1.65
		c0,0.6-0.17,1.15-0.5,1.63c-0.33,0.49-0.84,0.88-1.5,1.17s-1.48,0.44-2.44,0.44C384.08,104.96,383.29,104.86,382.52,104.66z"/>
	<path class="st3" d="M390.63,94.73h2.84v10.03h-2.84V94.73z"/>
	<path class="st3" d="M404.54,100.47c0.32,0.42,0.49,0.94,0.49,1.54c0,0.88-0.35,1.56-1.06,2.03c-0.71,0.48-1.73,0.72-3.07,0.72
		h-5.41V94.73h5.13c1.28,0,2.25,0.24,2.92,0.71c0.67,0.47,1,1.11,1,1.91c0,0.48-0.12,0.91-0.35,1.28c-0.23,0.38-0.57,0.68-1,0.9
		C403.77,99.73,404.22,100.04,404.54,100.47z M398.3,96.78v1.93h1.95c0.96,0,1.43-0.32,1.43-0.97c0-0.64-0.48-0.96-1.43-0.96H398.3z
		 M402.16,101.69c0-0.68-0.5-1.02-1.49-1.02h-2.38v2.03h2.38C401.67,102.71,402.16,102.37,402.16,101.69z"/>
	<path class="st3" d="M406.5,94.73h2.84v10.03h-2.84V94.73z"/>
	<path class="st3" d="M411.36,94.73h2.84v7.78h4.78v2.25h-7.62V94.73z"/>
	<path class="st3" d="M420.1,94.73h2.84v10.03h-2.84V94.73z"/>
	<path class="st3" d="M424.95,94.73h4.74c1.1,0,2.07,0.21,2.92,0.62c0.85,0.41,1.51,0.99,1.98,1.75c0.47,0.75,0.7,1.64,0.7,2.65
		c0,1.01-0.23,1.9-0.7,2.65s-1.13,1.34-1.98,1.75c-0.85,0.41-1.82,0.62-2.92,0.62h-4.74V94.73z M429.58,102.49
		c0.86,0,1.55-0.24,2.07-0.73c0.52-0.49,0.78-1.16,0.78-2.02s-0.26-1.53-0.78-2.02c-0.52-0.49-1.21-0.73-2.07-0.73h-1.79v5.5H429.58
		z"/>
	<path class="st3" d="M443.36,102.81h-4.24l-0.79,1.95h-2.89l4.43-10.03h2.79l4.44,10.03h-2.95L443.36,102.81z M442.53,100.72
		l-1.29-3.21l-1.29,3.21H442.53z"/>
	<path class="st3" d="M447.9,94.73h4.74c1.1,0,2.07,0.21,2.92,0.62c0.85,0.41,1.51,0.99,1.98,1.75c0.47,0.75,0.7,1.64,0.7,2.65
		c0,1.01-0.23,1.9-0.7,2.65s-1.13,1.34-1.98,1.75c-0.85,0.41-1.82,0.62-2.92,0.62h-4.74V94.73z M452.53,102.49
		c0.86,0,1.55-0.24,2.07-0.73c0.52-0.49,0.78-1.16,0.78-2.02s-0.26-1.53-0.78-2.02c-0.52-0.49-1.21-0.73-2.07-0.73h-1.79v5.5H452.53
		z"/>
	<path class="st3" d="M467.79,102.56v2.19h-8.05V94.73h7.86v2.19h-5.06v1.69H467v2.12h-4.46v1.83H467.79z"/>
</g>
<polyline class="st16" points="880.51,230.04 880.51,264.75 231.01,264.75 231.01,228.95 "/>
<rect x="436.64" y="251.07" class="st4" width="238.25" height="20.17"/>
<g class="st5">
	<path class="st3" d="M466.88,256.78c0.67,0.3,1.18,0.73,1.55,1.29s0.54,1.22,0.54,1.97c0,0.75-0.18,1.41-0.54,1.96
		s-0.88,0.98-1.55,1.28c-0.67,0.3-1.46,0.45-2.36,0.45h-1.75v2.62h-2.84v-10.03h4.58C465.42,256.33,466.21,256.48,466.88,256.78z
		 M465.66,261.12c0.3-0.25,0.44-0.61,0.44-1.08s-0.15-0.83-0.44-1.09c-0.3-0.26-0.74-0.39-1.32-0.39h-1.58v2.94h1.58
		C464.92,261.5,465.36,261.38,465.66,261.12z"/>
	<path class="st3" d="M478.4,264.17v2.19h-8.05v-10.03h7.86v2.19h-5.06v1.69h4.46v2.12h-4.46v1.83H478.4z"/>
	<path class="st3" d="M484.35,263.69h-1.55v2.66h-2.84v-10.03h4.58c0.91,0,1.69,0.15,2.36,0.45c0.67,0.3,1.18,0.73,1.55,1.29
		s0.54,1.22,0.54,1.97c0,0.73-0.17,1.36-0.51,1.9c-0.34,0.54-0.82,0.96-1.45,1.27l2.16,3.15h-3.04L484.35,263.69z M485.7,258.95
		c-0.3-0.26-0.74-0.39-1.32-0.39h-1.58v2.94h1.58c0.58,0,1.02-0.13,1.32-0.38c0.3-0.25,0.44-0.61,0.44-1.08S486,259.21,485.7,258.95
		z"/>
	<path class="st3" d="M490.57,256.33h2.84v10.03h-2.84V256.33z M492.5,253.34h2.72l-2.69,2.18h-1.95L492.5,253.34z"/>
	<path class="st3" d="M497.63,265.89c-0.85-0.45-1.51-1.07-1.99-1.86c-0.48-0.79-0.72-1.69-0.72-2.68s0.24-1.89,0.72-2.68
		c0.48-0.79,1.15-1.41,1.99-1.86s1.8-0.67,2.86-0.67s2.01,0.22,2.86,0.67s1.51,1.07,1.99,1.86c0.48,0.79,0.72,1.69,0.72,2.68
		s-0.24,1.89-0.72,2.68c-0.48,0.79-1.15,1.41-1.99,1.86c-0.85,0.45-1.8,0.67-2.86,0.67S498.47,266.33,497.63,265.89z M501.86,263.85
		c0.41-0.24,0.73-0.58,0.97-1.01s0.36-0.93,0.36-1.5s-0.12-1.06-0.36-1.5s-0.56-0.77-0.97-1.01c-0.41-0.24-0.87-0.36-1.38-0.36
		s-0.96,0.12-1.38,0.36c-0.41,0.24-0.74,0.58-0.97,1.01c-0.24,0.43-0.36,0.93-0.36,1.5s0.12,1.06,0.36,1.5
		c0.24,0.43,0.56,0.77,0.97,1.01c0.41,0.24,0.87,0.36,1.38,0.36S501.45,264.09,501.86,263.85z"/>
	<path class="st3" d="M507.55,256.33h4.74c1.1,0,2.07,0.21,2.92,0.62c0.85,0.41,1.51,0.99,1.98,1.75c0.47,0.75,0.7,1.64,0.7,2.65
		c0,1.01-0.23,1.9-0.7,2.65s-1.13,1.34-1.98,1.75c-0.85,0.41-1.82,0.62-2.92,0.62h-4.74V256.33z M512.17,264.1
		c0.86,0,1.55-0.24,2.07-0.73c0.52-0.49,0.78-1.16,0.78-2.02s-0.26-1.53-0.78-2.02c-0.52-0.49-1.21-0.73-2.07-0.73h-1.79v5.5H512.17
		z"/>
	<path class="st3" d="M521.58,265.89c-0.85-0.45-1.51-1.07-1.99-1.86c-0.48-0.79-0.72-1.69-0.72-2.68s0.24-1.89,0.72-2.68
		c0.48-0.79,1.15-1.41,1.99-1.86s1.8-0.67,2.86-0.67s2.01,0.22,2.86,0.67s1.51,1.07,1.99,1.86c0.48,0.79,0.72,1.69,0.72,2.68
		s-0.24,1.89-0.72,2.68c-0.48,0.79-1.15,1.41-1.99,1.86c-0.85,0.45-1.8,0.67-2.86,0.67S522.42,266.33,521.58,265.89z M525.81,263.85
		c0.41-0.24,0.73-0.58,0.97-1.01s0.36-0.93,0.36-1.5s-0.12-1.06-0.36-1.5s-0.56-0.77-0.97-1.01c-0.41-0.24-0.87-0.36-1.38-0.36
		s-0.96,0.12-1.38,0.36c-0.41,0.24-0.74,0.58-0.97,1.01c-0.24,0.43-0.36,0.93-0.36,1.5s0.12,1.06,0.36,1.5
		c0.24,0.43,0.56,0.77,0.97,1.01c0.41,0.24,0.87,0.36,1.38,0.36S525.4,264.09,525.81,263.85z"/>
	<path class="st3" d="M535.67,256.33h4.74c1.1,0,2.07,0.21,2.92,0.62c0.85,0.41,1.51,0.99,1.98,1.75c0.47,0.75,0.7,1.64,0.7,2.65
		c0,1.01-0.23,1.9-0.7,2.65s-1.13,1.34-1.98,1.75c-0.85,0.41-1.82,0.62-2.92,0.62h-4.74V256.33z M540.29,264.1
		c0.86,0,1.55-0.24,2.07-0.73c0.52-0.49,0.78-1.16,0.78-2.02s-0.26-1.53-0.78-2.02c-0.52-0.49-1.21-0.73-2.07-0.73h-1.79v5.5H540.29
		z"/>
	<path class="st3" d="M555.55,264.17v2.19h-8.05v-10.03h7.86v2.19h-5.06v1.69h4.46v2.12h-4.46v1.83H555.55z"/>
	<path class="st3" d="M561.29,256.33h2.84v10.03h-2.84V256.33z"/>
	<path class="st3" d="M567.31,266.26c-0.76-0.2-1.38-0.47-1.86-0.8l0.93-2.09c0.45,0.3,0.97,0.54,1.56,0.72
		c0.59,0.18,1.17,0.27,1.75,0.27c1.09,0,1.63-0.27,1.63-0.82c0-0.29-0.16-0.5-0.47-0.64s-0.81-0.28-1.5-0.44
		c-0.75-0.16-1.38-0.34-1.89-0.52c-0.51-0.19-0.94-0.48-1.3-0.9c-0.36-0.41-0.54-0.96-0.54-1.66c0-0.61,0.17-1.16,0.5-1.65
		c0.33-0.49,0.83-0.88,1.5-1.17c0.66-0.29,1.48-0.43,2.44-0.43c0.66,0,1.31,0.07,1.95,0.22c0.64,0.15,1.2,0.37,1.69,0.65l-0.87,2.11
		c-0.96-0.52-1.88-0.77-2.78-0.77c-0.56,0-0.97,0.08-1.23,0.25c-0.26,0.17-0.39,0.38-0.39,0.65s0.15,0.47,0.46,0.6
		s0.8,0.27,1.48,0.42c0.76,0.16,1.4,0.34,1.9,0.52c0.5,0.19,0.94,0.48,1.3,0.89c0.37,0.41,0.55,0.96,0.55,1.65
		c0,0.6-0.17,1.15-0.5,1.63c-0.33,0.49-0.84,0.88-1.5,1.17s-1.48,0.44-2.44,0.44C568.86,266.56,568.07,266.46,567.31,266.26z"/>
	<path class="st3" d="M577.62,265.89c-0.85-0.45-1.51-1.07-1.99-1.86c-0.48-0.79-0.72-1.69-0.72-2.68s0.24-1.89,0.72-2.68
		c0.48-0.79,1.15-1.41,1.99-1.86s1.8-0.67,2.86-0.67s2.01,0.22,2.86,0.67s1.51,1.07,1.99,1.86c0.48,0.79,0.72,1.69,0.72,2.68
		s-0.24,1.89-0.72,2.68c-0.48,0.79-1.15,1.41-1.99,1.86c-0.85,0.45-1.8,0.67-2.86,0.67S578.46,266.33,577.62,265.89z M581.85,263.85
		c0.41-0.24,0.73-0.58,0.97-1.01s0.36-0.93,0.36-1.5s-0.12-1.06-0.36-1.5s-0.56-0.77-0.97-1.01c-0.41-0.24-0.87-0.36-1.38-0.36
		s-0.96,0.12-1.38,0.36c-0.41,0.24-0.74,0.58-0.97,1.01c-0.24,0.43-0.36,0.93-0.36,1.5s0.12,1.06,0.36,1.5
		c0.24,0.43,0.56,0.77,0.97,1.01c0.41,0.24,0.87,0.36,1.38,0.36S581.44,264.09,581.85,263.85z"/>
	<path class="st3" d="M587.54,256.33h2.84v7.78h4.78v2.25h-7.62V256.33z"/>
	<path class="st3" d="M603.11,264.41h-4.24l-0.79,1.95h-2.89l4.43-10.03h2.79l4.44,10.03h-2.95L603.11,264.41z M602.28,262.32
		l-1.29-3.21l-1.29,3.21H602.28z"/>
	<path class="st3" d="M616.7,266.36l-0.03-5.31l-2.58,4.33h-1.26l-2.56-4.18v5.17h-2.62v-10.03h2.33l3.52,5.79l3.44-5.79h2.33
		l0.03,10.03H616.7z"/>
	<path class="st3" d="M629.37,264.17v2.19h-8.05v-10.03h7.86v2.19h-5.06v1.69h4.46v2.12h-4.46v1.83H629.37z"/>
	<path class="st3" d="M640.48,256.33v10.03h-2.33l-4.43-5.34v5.34h-2.78v-10.03h2.33l4.43,5.34v-5.34H640.48z"/>
	<path class="st3" d="M644.62,258.58h-3.08v-2.25h8.98v2.25h-3.07v7.78h-2.84V258.58z"/>
	<path class="st3" d="M653.64,265.89c-0.85-0.45-1.51-1.07-1.99-1.86c-0.48-0.79-0.72-1.69-0.72-2.68s0.24-1.89,0.72-2.68
		c0.48-0.79,1.15-1.41,1.99-1.86s1.8-0.67,2.86-0.67s2.01,0.22,2.86,0.67s1.51,1.07,1.99,1.86c0.48,0.79,0.72,1.69,0.72,2.68
		s-0.24,1.89-0.72,2.68c-0.48,0.79-1.15,1.41-1.99,1.86c-0.85,0.45-1.8,0.67-2.86,0.67S654.49,266.33,653.64,265.89z M657.87,263.85
		c0.41-0.24,0.73-0.58,0.97-1.01s0.36-0.93,0.36-1.5s-0.12-1.06-0.36-1.5s-0.56-0.77-0.97-1.01c-0.41-0.24-0.87-0.36-1.38-0.36
		s-0.96,0.12-1.38,0.36c-0.41,0.24-0.74,0.58-0.97,1.01c-0.24,0.43-0.36,0.93-0.36,1.5s0.12,1.06,0.36,1.5
		c0.24,0.43,0.56,0.77,0.97,1.01c0.41,0.24,0.87,0.36,1.38,0.36S657.46,264.09,657.87,263.85z"/>
</g>
<g>
	<g>
		<line class="st16" x1="218.42" y1="175.82" x2="166.56" y2="175.96"/>
		<g>
			
				<rect x="218.04" y="173.38" transform="matrix(1 -2.726227e-03 2.726227e-03 1 -0.4785 0.5961)" class="st17" width="0.75" height="4.88"/>
		</g>
	</g>
</g>
<g>
	<path class="st17" d="M233.17,22.56h6.68c1.6,0,3.01,0.3,4.23,0.91c1.23,0.61,2.18,1.47,2.86,2.57c0.68,1.11,1.02,2.39,1.02,3.86
		s-0.34,2.76-1.02,3.86c-0.68,1.11-1.63,1.96-2.86,2.57c-1.23,0.61-2.64,0.91-4.23,0.91h-6.68V22.56z M239.68,34.47
		c1.47,0,2.64-0.41,3.52-1.23c0.88-0.82,1.31-1.93,1.31-3.33s-0.44-2.51-1.31-3.33c-0.88-0.82-2.05-1.23-3.52-1.23h-3.11v9.11
		H239.68z"/>
	<path class="st17" d="M250.52,22.56h3.4v14.7h-3.4V22.56z"/>
	<path class="st17" d="M267.08,34.11h-6.82l-1.3,3.15h-3.49l6.55-14.7h3.36l6.57,14.7h-3.57L267.08,34.11z M266.01,31.53l-2.33-5.63
		l-2.33,5.63H266.01z"/>
	<path class="st17" d="M274.95,37.04c-1.09-0.31-1.96-0.72-2.61-1.23l1.16-2.56c0.63,0.46,1.38,0.83,2.25,1.11
		c0.87,0.28,1.74,0.42,2.6,0.42c0.97,0,1.68-0.14,2.14-0.43c0.46-0.29,0.69-0.67,0.69-1.14c0-0.35-0.14-0.64-0.41-0.87
		c-0.27-0.23-0.62-0.42-1.05-0.56c-0.43-0.14-1-0.29-1.73-0.46c-1.12-0.27-2.04-0.53-2.75-0.8c-0.71-0.27-1.33-0.69-1.84-1.28
		c-0.51-0.59-0.77-1.37-0.77-2.35c0-0.85,0.23-1.63,0.69-2.32c0.46-0.69,1.16-1.24,2.09-1.65c0.93-0.41,2.07-0.61,3.41-0.61
		c0.94,0,1.85,0.11,2.75,0.34c0.9,0.22,1.68,0.55,2.35,0.97l-1.05,2.58c-1.36-0.77-2.72-1.16-4.07-1.16c-0.95,0-1.66,0.15-2.11,0.46
		c-0.46,0.31-0.68,0.71-0.68,1.22s0.26,0.88,0.79,1.12c0.53,0.25,1.33,0.49,2.4,0.72c1.12,0.27,2.04,0.53,2.75,0.8
		s1.33,0.69,1.84,1.26c0.51,0.57,0.77,1.35,0.77,2.33c0,0.84-0.23,1.61-0.7,2.3c-0.47,0.69-1.17,1.24-2.11,1.65
		c-0.94,0.41-2.08,0.61-3.42,0.61C277.16,37.51,276.03,37.36,274.95,37.04z"/>
</g>
<line class="st16" x1="231.66" y1="51.55" x2="231.66" y2="119.75"/>
</svg>
